<?xml version="1.0" encoding="UTF-8"?>
<svg id="a" data-name="Layer 1" xmlns="http://www.w3.org/2000/svg" width="504.81" height="168.65" viewBox="0 0 504.81 168.65">
  <defs>
    <style>
      .d {
        font-family: Consolas, Consolas;
      }

      .d, .e {
        font-size: 12px;
      }

      .f {
        fill: none;
      }

      .f, .g {
        stroke: #000;
        stroke-miterlimit: 10;
      }

      .e, .h {
        font-family: Tahoma, Tahoma;
      }

      .h {
        font-size: 8px;
      }

      .g {
        fill: #8bffbc;
      }

      .i {
        letter-spacing: 0em;
      }
    </style>
  </defs>
  <line id="b" data-name="source line" class="f" x1="30.52" y1="48.3" x2="482.24" y2="48.3"/>
  <line id="c" data-name="Quiescent line" class="f" x1="30.52" y1="129.88" x2="483.57" y2="129.88"/>
  <text class="d" transform="translate(28.07 25.48)"><tspan x="0" y="0">source</tspan></text>
  <text class="d" transform="translate(28.07 102.2)"><tspan x="0" y="0">source.Quiescent(TimeSpan.FromSeconds(2), Scheduler.Default)</tspan></text>
  <g>
    <circle class="g" cx="61.2" cy="48.3" r="13.56"/>
    <text class="e" transform="translate(57.92 51.85)"><tspan x="0" y="0">1</tspan></text>
  </g>
  <g>
    <circle class="g" cx="92.28" cy="48.3" r="13.56"/>
    <text class="e" transform="translate(89 51.85)"><tspan x="0" y="0">2</tspan></text>
  </g>
  <g>
    <circle class="g" cx="145.36" cy="129.88" r="13.56"/>
    <text class="h" transform="translate(135.47 132.28)"><tspan x="0" y="0">[1, 2]</tspan></text>
  </g>
  <g>
    <circle class="g" cx="334.9" cy="129.88" r="13.56"/>
    <text class="h" transform="translate(322.91 132.28)"><tspan x="0" y="0">[3,</tspan><tspan class="i" x="9.85" y="0">4</tspan><tspan x="14.14" y="0">,5]</tspan></text>
  </g>
  <g>
    <circle class="g" cx="428.67" cy="129.88" r="13.56"/>
    <text class="h" transform="translate(423.42 132.28)"><tspan x="0" y="0">[6]</tspan></text>
  </g>
  <g>
    <circle class="g" cx="203.84" cy="48.3" r="13.56"/>
    <text class="e" transform="translate(200.56 51.85)"><tspan x="0" y="0">3</tspan></text>
  </g>
  <g>
    <circle class="g" cx="235.18" cy="48.3" r="13.56"/>
    <text class="e" transform="translate(231.9 51.85)"><tspan x="0" y="0">4</tspan></text>
  </g>
  <g>
    <circle class="g" cx="280.82" cy="48.3" r="13.56"/>
    <text class="e" transform="translate(277.54 51.85)"><tspan x="0" y="0">5</tspan></text>
  </g>
  <g>
    <circle class="g" cx="375.58" cy="48.3" r="13.56"/>
    <text class="e" transform="translate(372.31 51.85)"><tspan x="0" y="0">6</tspan></text>
  </g>
  <line class="f" x1="30.52" y1="34.73" x2="30.52" y2="61.86"/>
  <line class="f" x1="30.52" y1="116.31" x2="30.52" y2="143.44"/>
  <polyline class="f" points="469.19 34.73 482.24 48.24 470.14 60.76"/>
  <polyline class="f" points="470.51 116.31 483.57 129.82 471.46 142.34"/>
</svg>