<?xml version="1.0" encoding="UTF-8"?>
<svg id="Layer_1" data-name="Layer 1" xmlns="http://www.w3.org/2000/svg" viewBox="0 0 504.81 168.65">
  <defs>
    <style>
      .cls-1 {
        fill: none;
      }

      .cls-1, .cls-2 {
        stroke: #000;
        stroke-miterlimit: 10;
      }

      .cls-3 {
        stroke-width: 0px;
      }

      .cls-2 {
        fill: #8bffbc;
      }
    </style>
  </defs>
  <line id="source_line" data-name="source line" class="cls-1" x1="30.52" y1="48.3" x2="482.24" y2="48.3"/>
  <line id="Quiescent_line" data-name="Quiescent line" class="cls-1" x1="30.52" y1="129.88" x2="483.57" y2="129.88"/>
  <g>
    <path class="cls-3" d="M33.67,23.87c0,.21-.04.39-.11.56s-.17.31-.29.44-.26.24-.42.33-.33.16-.51.22-.37.1-.56.13-.38.04-.56.04c-.4,0-.76-.02-1.1-.05s-.66-.09-.98-.17v-.94c.34.1.69.17,1.03.22s.68.08,1.01.08c.49,0,.85-.07,1.08-.2s.35-.32.35-.57c0-.11-.02-.2-.06-.28s-.1-.16-.2-.24-.25-.16-.45-.24-.49-.18-.84-.28c-.27-.08-.51-.17-.74-.27s-.42-.22-.58-.35-.29-.3-.39-.48-.14-.4-.14-.65c0-.16.04-.34.11-.54s.21-.38.39-.54.43-.31.74-.42.7-.17,1.17-.17c.23,0,.49.01.77.04s.57.07.88.13v.91c-.32-.08-.62-.14-.91-.17s-.54-.06-.75-.06c-.25,0-.47.02-.64.06s-.31.09-.42.16-.18.15-.23.24-.07.19-.07.3.02.2.06.29.12.17.23.25.27.16.47.24.46.17.78.26c.35.1.64.21.88.32s.43.24.58.37.25.29.32.46.1.37.1.59Z"/>
    <path class="cls-3" d="M40.73,22.49c0,.46-.06.88-.19,1.26s-.31.71-.56.98-.54.48-.88.63-.74.23-1.18.23-.8-.07-1.13-.2-.62-.32-.85-.58-.41-.57-.53-.94-.18-.81-.18-1.29c0-.46.06-.87.19-1.25s.31-.7.56-.97.54-.48.88-.63.74-.23,1.18-.23.8.07,1.13.2.62.32.85.57.41.57.53.94.18.8.18,1.29ZM39.68,22.54c0-.36-.04-.68-.12-.95s-.19-.5-.34-.68-.33-.32-.54-.41-.45-.14-.71-.14c-.3,0-.57.06-.78.18s-.39.28-.53.48-.24.43-.3.69-.1.54-.1.83c0,.36.04.68.12.96s.19.5.34.68.33.32.54.41.45.14.71.14c.3,0,.57-.06.78-.18s.39-.28.53-.48.24-.43.3-.69.1-.54.1-.83Z"/>
    <path class="cls-3" d="M46.93,25.48h-.91l-.04-.95c-.18.2-.34.37-.5.51s-.32.24-.47.33-.31.14-.47.17-.33.05-.5.05c-.61,0-1.06-.18-1.37-.53s-.46-.89-.46-1.61v-3.84h1.02v3.76c0,.9.34,1.35,1.02,1.35.12,0,.25-.02.37-.06s.24-.1.38-.19.27-.22.42-.37.32-.35.51-.59v-3.9h1.02v5.88Z"/>
    <path class="cls-3" d="M49.04,19.6h.93l.03,1.08c.35-.42.69-.72,1.03-.91s.68-.28,1.02-.28c.61,0,1.07.2,1.39.59s.46.98.44,1.76h-1.03c.01-.52-.06-.89-.23-1.12s-.4-.35-.71-.35c-.14,0-.27.02-.41.07s-.28.13-.43.23-.3.25-.47.41-.34.37-.53.61v3.78h-1.03v-5.88Z"/>
    <path class="cls-3" d="M59.97,25.26c-.27.1-.54.18-.82.23s-.57.07-.86.07c-.93,0-1.65-.25-2.15-.76s-.75-1.24-.75-2.21c0-.46.07-.89.22-1.27s.35-.7.61-.97.57-.48.94-.62.76-.22,1.2-.22c.3,0,.59.02.86.06s.52.11.76.21v.97c-.25-.13-.51-.23-.78-.29s-.54-.09-.82-.09c-.26,0-.51.05-.74.15s-.44.24-.61.43-.31.42-.42.69-.15.57-.15.91c0,.71.17,1.24.52,1.6s.83.53,1.44.53c.28,0,.55-.03.81-.09s.51-.16.75-.28v.95Z"/>
    <path class="cls-3" d="M66.97,22.23c0,.14,0,.27,0,.36s0,.19-.02.28h-4.13c0,.6.17,1.06.5,1.39s.82.48,1.45.48c.17,0,.34,0,.52-.02s.34-.03.5-.06.31-.05.46-.08.28-.06.41-.1v.84c-.28.08-.59.14-.94.19s-.71.07-1.09.07c-.5,0-.94-.07-1.3-.21s-.66-.33-.89-.59-.4-.58-.52-.96-.17-.8-.17-1.28c0-.41.06-.81.18-1.17s.29-.69.52-.97.51-.5.84-.67.71-.25,1.13-.25.77.06,1.09.19.58.31.8.55.38.52.49.86.17.72.17,1.13ZM65.91,22.08c.01-.26-.01-.5-.08-.72s-.16-.4-.29-.56-.29-.28-.49-.37-.42-.13-.68-.13c-.22,0-.43.04-.61.13s-.34.21-.47.36-.24.34-.32.56-.13.46-.15.72h3.09Z"/>
  </g>
  <g>
    <path class="cls-3" d="M33.67,100.6c0,.21-.04.39-.11.56s-.17.31-.29.44-.26.24-.42.33-.33.16-.51.22-.37.1-.56.13-.38.04-.56.04c-.4,0-.76-.02-1.1-.05s-.66-.09-.98-.17v-.94c.34.1.69.17,1.03.22s.68.08,1.01.08c.49,0,.85-.07,1.08-.2s.35-.32.35-.57c0-.11-.02-.2-.06-.28s-.1-.16-.2-.24-.25-.16-.45-.24-.49-.18-.84-.28c-.27-.08-.51-.17-.74-.27s-.42-.22-.58-.35-.29-.3-.39-.48-.14-.4-.14-.65c0-.16.04-.34.11-.54s.21-.38.39-.54.43-.31.74-.42.7-.17,1.17-.17c.23,0,.49.01.77.04s.57.07.88.13v.91c-.32-.08-.62-.14-.91-.17s-.54-.06-.75-.06c-.25,0-.47.02-.64.06s-.31.09-.42.16-.18.15-.23.24-.07.19-.07.3.02.2.06.29.12.17.23.25.27.16.47.24.46.17.78.26c.35.1.64.21.88.32s.43.24.58.37.25.29.32.46.1.37.1.59Z"/>
    <path class="cls-3" d="M40.73,99.21c0,.46-.06.88-.19,1.26s-.31.71-.56.98-.54.48-.88.63-.74.23-1.18.23-.8-.07-1.13-.2-.62-.32-.85-.58-.41-.57-.53-.94-.18-.81-.18-1.29c0-.46.06-.87.19-1.25s.31-.7.56-.97.54-.48.88-.63.74-.23,1.18-.23.8.07,1.13.2.62.32.85.57.41.57.53.94.18.8.18,1.29ZM39.68,99.26c0-.36-.04-.68-.12-.95s-.19-.5-.34-.68-.33-.32-.54-.41-.45-.14-.71-.14c-.3,0-.57.06-.78.18s-.39.28-.53.48-.24.43-.3.69-.1.54-.1.83c0,.36.04.68.12.96s.19.5.34.68.33.32.54.41.45.14.71.14c.3,0,.57-.06.78-.18s.39-.28.53-.48.24-.43.3-.69.1-.54.1-.83Z"/>
    <path class="cls-3" d="M46.93,102.2h-.91l-.04-.95c-.18.2-.34.37-.5.51s-.32.24-.47.33-.31.14-.47.17-.33.05-.5.05c-.61,0-1.06-.18-1.37-.53s-.46-.89-.46-1.61v-3.84h1.02v3.76c0,.9.34,1.35,1.02,1.35.12,0,.25-.02.37-.06s.24-.1.38-.19.27-.22.42-.37.32-.35.51-.59v-3.9h1.02v5.88Z"/>
    <path class="cls-3" d="M49.04,96.32h.93l.03,1.08c.35-.42.69-.72,1.03-.91s.68-.28,1.02-.28c.61,0,1.07.2,1.39.59s.46.98.44,1.76h-1.03c.01-.52-.06-.89-.23-1.12s-.4-.35-.71-.35c-.14,0-.27.02-.41.07s-.28.13-.43.23-.3.25-.47.41-.34.37-.53.61v3.78h-1.03v-5.88Z"/>
    <path class="cls-3" d="M59.97,101.99c-.27.1-.54.18-.82.23s-.57.07-.86.07c-.93,0-1.65-.25-2.15-.76s-.75-1.24-.75-2.21c0-.46.07-.89.22-1.27s.35-.7.61-.97.57-.48.94-.62.76-.22,1.2-.22c.3,0,.59.02.86.06s.52.11.76.21v.97c-.25-.13-.51-.23-.78-.29s-.54-.09-.82-.09c-.26,0-.51.05-.74.15s-.44.24-.61.43-.31.42-.42.69-.15.57-.15.91c0,.71.17,1.24.52,1.6s.83.53,1.44.53c.28,0,.55-.03.81-.09s.51-.16.75-.28v.95Z"/>
    <path class="cls-3" d="M66.97,98.95c0,.14,0,.27,0,.36s0,.19-.02.28h-4.13c0,.6.17,1.06.5,1.39s.82.48,1.45.48c.17,0,.34,0,.52-.02s.34-.03.5-.06.31-.05.46-.08.28-.06.41-.1v.84c-.28.08-.59.14-.94.19s-.71.07-1.09.07c-.5,0-.94-.07-1.3-.21s-.66-.33-.89-.59-.4-.58-.52-.96-.17-.8-.17-1.28c0-.41.06-.81.18-1.17s.29-.69.52-.97.51-.5.84-.67.71-.25,1.13-.25.77.06,1.09.19.58.31.8.55.38.52.49.86.17.72.17,1.13ZM65.91,98.8c.01-.26-.01-.5-.08-.72s-.16-.4-.29-.56-.29-.28-.49-.37-.42-.13-.68-.13c-.22,0-.43.04-.61.13s-.34.21-.47.36-.24.34-.32.56-.13.46-.15.72h3.09Z"/>
    <path class="cls-3" d="M70.91,100.36c.13,0,.26.03.38.08s.22.12.31.21.16.19.21.31.08.25.08.38-.03.26-.08.38-.12.22-.21.31-.19.16-.31.21-.25.08-.38.08-.26-.03-.38-.08-.22-.12-.31-.21-.16-.19-.21-.31-.08-.24-.08-.38.03-.26.08-.38.12-.22.21-.31.19-.16.31-.21.24-.08.38-.08Z"/>
    <path class="cls-3" d="M76.99,102.27c-.41-.06-.76-.19-1.06-.39s-.55-.46-.75-.79-.35-.71-.45-1.15-.15-.93-.15-1.47c0-.7.08-1.3.24-1.8s.38-.93.65-1.26.6-.57.96-.73.76-.24,1.17-.24c.49,0,.92.09,1.29.27s.67.43.91.77.42.74.54,1.21.18,1.01.18,1.6c0,.62-.07,1.17-.2,1.64s-.31.87-.54,1.2-.5.59-.81.77-.65.31-1.01.37c.06.34.2.62.41.83s.52.31.91.31c.19,0,.37-.03.55-.09s.37-.17.55-.32l.46.72c-.26.21-.52.36-.8.45s-.55.13-.84.13c-.31,0-.6-.04-.86-.13s-.49-.21-.68-.38-.35-.38-.47-.64-.19-.55-.21-.89ZM79.45,98.41c0-.45-.03-.87-.1-1.24s-.18-.69-.33-.96-.35-.48-.59-.62-.53-.22-.87-.22-.61.08-.85.23-.43.37-.58.64-.27.58-.34.94-.11.74-.11,1.14c0,.46.04.89.11,1.26s.18.7.33.97.34.48.58.62.53.22.86.22.61-.08.85-.23.43-.37.59-.64.27-.58.34-.95.11-.75.11-1.16Z"/>
    <path class="cls-3" d="M86.52,102.2h-.91l-.04-.95c-.18.2-.34.37-.5.51s-.32.24-.47.33-.31.14-.47.17-.33.05-.5.05c-.61,0-1.06-.18-1.37-.53s-.46-.89-.46-1.61v-3.84h1.02v3.76c0,.9.34,1.35,1.02,1.35.12,0,.25-.02.37-.06s.24-.1.38-.19.27-.22.42-.37.32-.35.51-.59v-3.9h1.02v5.88Z"/>
    <path class="cls-3" d="M90.39,97.16h-1.74v-.84h2.77v5.03h1.75v.85h-4.72v-.85h1.93v-4.19ZM90.75,93.85c.11,0,.22.02.32.06s.18.1.25.17.13.16.17.25.06.2.06.31-.02.21-.06.31-.1.18-.17.26-.16.13-.25.17-.2.06-.32.06-.22-.02-.32-.06-.18-.1-.25-.17-.13-.16-.17-.26-.06-.2-.06-.31.02-.22.06-.31.1-.18.17-.25.16-.13.25-.17.2-.06.32-.06Z"/>
    <path class="cls-3" d="M99.95,98.95c0,.14,0,.27,0,.36s0,.19-.02.28h-4.13c0,.6.17,1.06.5,1.39s.82.48,1.45.48c.17,0,.34,0,.52-.02s.34-.03.5-.06.31-.05.46-.08.28-.06.41-.1v.84c-.28.08-.59.14-.94.19s-.71.07-1.09.07c-.5,0-.94-.07-1.3-.21s-.66-.33-.89-.59-.4-.58-.52-.96-.17-.8-.17-1.28c0-.41.06-.81.18-1.17s.29-.69.52-.97.51-.5.84-.67.71-.25,1.13-.25.77.06,1.09.19.58.31.8.55.38.52.49.86.17.72.17,1.13ZM98.89,98.8c.01-.26-.01-.5-.08-.72s-.16-.4-.29-.56-.29-.28-.49-.37-.42-.13-.68-.13c-.22,0-.43.04-.61.13s-.34.21-.47.36-.24.34-.32.56-.13.46-.15.72h3.09Z"/>
    <path class="cls-3" d="M106.24,100.6c0,.21-.04.39-.11.56s-.17.31-.29.44-.26.24-.42.33-.33.16-.51.22-.37.1-.56.13-.38.04-.56.04c-.4,0-.76-.02-1.1-.05s-.66-.09-.98-.17v-.94c.34.1.69.17,1.03.22s.68.08,1.01.08c.49,0,.85-.07,1.08-.2s.35-.32.35-.57c0-.11-.02-.2-.06-.28s-.1-.16-.2-.24-.25-.16-.45-.24-.49-.18-.84-.28c-.27-.08-.51-.17-.74-.27s-.42-.22-.58-.35-.29-.3-.39-.48-.14-.4-.14-.65c0-.16.04-.34.11-.54s.21-.38.39-.54.43-.31.74-.42.7-.17,1.17-.17c.23,0,.49.01.77.04s.57.07.88.13v.91c-.32-.08-.62-.14-.91-.17s-.54-.06-.75-.06c-.25,0-.47.02-.64.06s-.31.09-.42.16-.18.15-.23.24-.07.19-.07.3.02.2.06.29.12.17.23.25.27.16.47.24.46.17.78.26c.35.1.64.21.88.32s.43.24.58.37.25.29.32.46.1.37.1.59Z"/>
    <path class="cls-3" d="M112.75,101.99c-.27.1-.54.18-.82.23s-.57.07-.86.07c-.93,0-1.65-.25-2.15-.76s-.75-1.24-.75-2.21c0-.46.07-.89.22-1.27s.35-.7.61-.97.57-.48.94-.62.76-.22,1.2-.22c.3,0,.59.02.86.06s.52.11.76.21v.97c-.25-.13-.51-.23-.78-.29s-.54-.09-.82-.09c-.26,0-.51.05-.74.15s-.44.24-.61.43-.31.42-.42.69-.15.57-.15.91c0,.71.17,1.24.52,1.6s.83.53,1.44.53c.28,0,.55-.03.81-.09s.51-.16.75-.28v.95Z"/>
    <path class="cls-3" d="M119.75,98.95c0,.14,0,.27,0,.36s0,.19-.02.28h-4.13c0,.6.17,1.06.5,1.39s.82.48,1.45.48c.17,0,.34,0,.52-.02s.34-.03.5-.06.31-.05.46-.08.28-.06.41-.1v.84c-.28.08-.59.14-.94.19s-.71.07-1.09.07c-.5,0-.94-.07-1.3-.21s-.66-.33-.89-.59-.4-.58-.52-.96-.17-.8-.17-1.28c0-.41.06-.81.18-1.17s.29-.69.52-.97.51-.5.84-.67.71-.25,1.13-.25.77.06,1.09.19.58.31.8.55.38.52.49.86.17.72.17,1.13ZM118.69,98.8c.01-.26-.01-.5-.08-.72s-.16-.4-.29-.56-.29-.28-.49-.37-.42-.13-.68-.13c-.22,0-.43.04-.61.13s-.34.21-.47.36-.24.34-.32.56-.13.46-.15.72h3.09Z"/>
    <path class="cls-3" d="M121.38,96.32h.91l.04.95c.17-.2.34-.37.5-.51s.32-.24.47-.33.31-.14.47-.17.33-.05.5-.05c.61,0,1.06.18,1.37.54s.47.9.47,1.61v3.84h-1.02v-3.76c0-.46-.09-.8-.26-1.02s-.43-.33-.77-.33c-.12,0-.25.02-.37.06s-.24.1-.37.19-.27.22-.42.37-.32.35-.51.59v3.9h-1.02v-5.88Z"/>
    <path class="cls-3" d="M132.71,102.12c-.23.06-.47.1-.71.13s-.5.04-.75.04c-.74,0-1.29-.17-1.65-.5s-.54-.85-.54-1.54v-3.07h-1.65v-.86h1.65v-1.62l1.02-.26v1.88h2.64v.86h-2.64v2.99c0,.42.11.74.34.95s.56.31.99.31c.19,0,.39-.01.62-.04s.46-.08.7-.14v.88Z"/>
    <path class="cls-3" d="M138.09,104.66c-1.8-1.67-2.7-3.51-2.7-5.53,0-.47.05-.94.14-1.42s.25-.94.46-1.42.49-.95.84-1.42.77-.94,1.27-1.41l.59.6c-1.52,1.5-2.27,3.15-2.27,4.97,0,.91.19,1.78.57,2.61s.95,1.62,1.7,2.37l-.62.63Z"/>
    <path class="cls-3" d="M146.33,95.44h-2.27v6.77h-1.05v-6.77h-2.27v-.89h5.59v.89Z"/>
    <path class="cls-3" d="M149.77,97.16h-1.74v-.84h2.77v5.03h1.75v.85h-4.72v-.85h1.93v-4.19ZM150.13,93.85c.11,0,.22.02.32.06s.18.1.25.17.13.16.17.25.06.2.06.31-.02.21-.06.31-.1.18-.17.26-.16.13-.25.17-.2.06-.32.06-.22-.02-.32-.06-.18-.1-.25-.17-.13-.16-.17-.26-.06-.2-.06-.31.02-.22.06-.31.1-.18.17-.25.16-.13.25-.17.2-.06.32-.06Z"/>
    <path class="cls-3" d="M158.56,102.2v-4.22c0-.18,0-.33-.02-.45s-.04-.21-.06-.28-.07-.12-.11-.14-.1-.04-.17-.04c-.08,0-.15.02-.22.07s-.14.12-.21.23-.16.25-.25.42-.2.39-.33.64v3.78h-.93v-4.11c0-.21,0-.39-.02-.52s-.04-.24-.06-.31-.07-.12-.11-.15-.1-.04-.17-.04c-.07,0-.14.02-.2.06s-.13.11-.21.21-.16.24-.25.42-.21.4-.33.67v3.78h-.94v-5.88h.78l.05,1.12c.1-.22.2-.41.3-.57s.19-.28.3-.38.21-.17.33-.21.24-.07.38-.07c.32,0,.56.1.72.31s.25.53.25.96c.09-.2.19-.38.28-.54s.19-.29.29-.4.22-.19.34-.25.27-.08.43-.08c.74,0,1.11.57,1.11,1.71v4.28h-.94Z"/>
    <path class="cls-3" d="M165.93,98.95c0,.14,0,.27,0,.36s0,.19-.02.28h-4.13c0,.6.17,1.06.5,1.39s.82.48,1.45.48c.17,0,.34,0,.52-.02s.34-.03.5-.06.31-.05.46-.08.28-.06.41-.1v.84c-.28.08-.59.14-.94.19s-.71.07-1.09.07c-.5,0-.94-.07-1.3-.21s-.66-.33-.89-.59-.4-.58-.52-.96-.17-.8-.17-1.28c0-.41.06-.81.18-1.17s.29-.69.52-.97.51-.5.84-.67.71-.25,1.13-.25.77.06,1.09.19.58.31.8.55.38.52.49.86.17.72.17,1.13ZM164.87,98.8c.01-.26-.01-.5-.08-.72s-.16-.4-.29-.56-.29-.28-.49-.37-.42-.13-.68-.13c-.22,0-.43.04-.61.13s-.34.21-.47.36-.24.34-.32.56-.13.46-.15.72h3.09Z"/>
    <path class="cls-3" d="M172.46,100.13c0,.36-.07.68-.22.96s-.36.5-.62.68-.58.32-.96.41-.78.13-1.23.13c-.2,0-.41,0-.61-.02s-.39-.04-.58-.06-.36-.05-.52-.08-.31-.06-.45-.1v-1.01c.29.11.62.2.99.26s.78.09,1.25.09c.34,0,.62-.03.86-.08s.43-.13.58-.23.26-.23.33-.38.1-.32.1-.51c0-.21-.06-.38-.17-.53s-.27-.28-.45-.39-.4-.22-.64-.32-.49-.19-.74-.3-.5-.21-.74-.33-.45-.26-.64-.42-.34-.35-.45-.57-.17-.48-.17-.78c0-.26.05-.52.16-.77s.28-.48.51-.68.53-.36.89-.48.79-.18,1.29-.18c.13,0,.27,0,.42.02s.3.03.46.05.31.05.46.07.29.06.42.09v.94c-.3-.09-.6-.15-.9-.2s-.59-.07-.87-.07c-.6,0-1.04.1-1.32.3s-.42.47-.42.8c0,.21.06.38.17.53s.27.28.45.4.4.22.64.32.49.19.74.3.5.21.74.33.45.26.64.43.34.36.45.58.17.49.17.79Z"/>
    <path class="cls-3" d="M179.18,99.16c0,.52-.07.98-.22,1.37s-.35.71-.61.97-.56.45-.91.58-.73.19-1.14.19c-.19,0-.37,0-.56-.03s-.37-.05-.57-.1v2.46h-1.02v-8.29h.91l.06.98c.29-.4.61-.68.94-.85s.69-.24,1.08-.24c.34,0,.63.07.88.21s.47.34.64.59.3.56.39.93.13.76.13,1.21ZM178.14,99.2c0-.31-.02-.59-.07-.85s-.12-.48-.21-.66-.22-.33-.38-.43-.33-.16-.54-.16c-.13,0-.26.02-.39.06s-.27.11-.41.21-.29.22-.45.38-.33.35-.51.59v2.85c.19.08.38.14.59.18s.41.07.61.07c.55,0,.98-.19,1.29-.56s.47-.93.47-1.68Z"/>
    <path class="cls-3" d="M184.53,102.2l-.02-.79c-.32.32-.65.54-.98.69s-.68.21-1.04.21c-.34,0-.62-.04-.86-.13s-.43-.2-.59-.35-.27-.33-.34-.53-.11-.42-.11-.66c0-.59.22-1.05.66-1.39s1.09-.5,1.95-.5h1.22v-.52c0-.35-.11-.63-.33-.83s-.56-.31-1.02-.31c-.33,0-.66.04-.98.11s-.66.18-1,.32v-.92c.13-.05.27-.09.43-.14s.33-.08.5-.12.36-.06.55-.08.38-.03.58-.03c.36,0,.68.04.96.12s.53.2.72.36.35.36.45.6.16.53.16.86v4.05h-.91ZM184.42,99.53h-1.29c-.25,0-.47.03-.66.08s-.33.12-.45.22-.2.21-.26.34-.08.28-.08.44c0,.11.02.22.05.33s.09.2.17.28.18.14.3.19.28.07.46.07c.23,0,.5-.07.81-.21s.62-.37.96-.68v-1.04Z"/>
    <path class="cls-3" d="M187.35,96.32h.91l.04.95c.17-.2.34-.37.5-.51s.32-.24.47-.33.31-.14.47-.17.33-.05.5-.05c.61,0,1.06.18,1.37.54s.47.9.47,1.61v3.84h-1.02v-3.76c0-.46-.09-.8-.26-1.02s-.43-.33-.77-.33c-.12,0-.25.02-.37.06s-.24.1-.37.19-.27.22-.42.37-.32.35-.51.59v3.9h-1.02v-5.88Z"/>
    <path class="cls-3" d="M196.26,100.36c.13,0,.26.03.38.08s.22.12.31.21.16.19.21.31.08.25.08.38-.03.26-.08.38-.12.22-.21.31-.19.16-.31.21-.25.08-.38.08-.26-.03-.38-.08-.22-.12-.31-.21-.16-.19-.21-.31-.08-.24-.08-.38.03-.26.08-.38.12-.22.21-.31.19-.16.31-.21.24-.08.38-.08Z"/>
    <path class="cls-3" d="M205.13,95.44h-3.25v2.48h3.08v.87h-3.08v3.41h-1.07v-7.66h4.32v.89Z"/>
    <path class="cls-3" d="M207.39,96.32h.93l.03,1.08c.35-.42.69-.72,1.03-.91s.68-.28,1.02-.28c.61,0,1.07.2,1.39.59s.46.98.44,1.76h-1.03c.01-.52-.06-.89-.23-1.12s-.4-.35-.71-.35c-.14,0-.27.02-.41.07s-.28.13-.43.23-.3.25-.47.41-.34.37-.53.61v3.78h-1.03v-5.88Z"/>
    <path class="cls-3" d="M218.86,99.21c0,.46-.06.88-.19,1.26s-.31.71-.56.98-.54.48-.88.63-.74.23-1.18.23-.8-.07-1.13-.2-.62-.32-.85-.58-.41-.57-.53-.94-.18-.81-.18-1.29c0-.46.06-.87.19-1.25s.31-.7.56-.97.54-.48.88-.63.74-.23,1.18-.23.8.07,1.13.2.62.32.85.57.41.57.53.94.18.8.18,1.29ZM217.82,99.26c0-.36-.04-.68-.12-.95s-.19-.5-.34-.68-.33-.32-.54-.41-.45-.14-.71-.14c-.3,0-.57.06-.78.18s-.39.28-.53.48-.24.43-.3.69-.1.54-.1.83c0,.36.04.68.12.96s.19.5.34.68.33.32.54.41.45.14.71.14c.3,0,.57-.06.78-.18s.39-.28.53-.48.24-.43.3-.69.1-.54.1-.83Z"/>
    <path class="cls-3" d="M224.54,102.2v-4.22c0-.18,0-.33-.02-.45s-.04-.21-.06-.28-.07-.12-.11-.14-.1-.04-.17-.04c-.08,0-.15.02-.22.07s-.14.12-.21.23-.16.25-.25.42-.2.39-.33.64v3.78h-.93v-4.11c0-.21,0-.39-.02-.52s-.04-.24-.06-.31-.07-.12-.11-.15-.1-.04-.17-.04c-.07,0-.14.02-.2.06s-.13.11-.21.21-.16.24-.25.42-.21.4-.33.67v3.78h-.94v-5.88h.78l.05,1.12c.1-.22.2-.41.3-.57s.19-.28.3-.38.21-.17.33-.21.24-.07.38-.07c.32,0,.56.1.72.31s.25.53.25.96c.09-.2.19-.38.28-.54s.19-.29.29-.4.22-.19.34-.25.27-.08.43-.08c.74,0,1.11.57,1.11,1.71v4.28h-.94Z"/>
    <path class="cls-3" d="M231.84,100.13c0,.36-.07.68-.22.96s-.36.5-.62.68-.58.32-.96.41-.78.13-1.23.13c-.2,0-.41,0-.61-.02s-.39-.04-.58-.06-.36-.05-.52-.08-.31-.06-.45-.1v-1.01c.29.11.62.2.99.26s.78.09,1.25.09c.34,0,.62-.03.86-.08s.43-.13.58-.23.26-.23.33-.38.1-.32.1-.51c0-.21-.06-.38-.17-.53s-.27-.28-.45-.39-.4-.22-.64-.32-.49-.19-.74-.3-.5-.21-.74-.33-.45-.26-.64-.42-.34-.35-.45-.57-.17-.48-.17-.78c0-.26.05-.52.16-.77s.28-.48.51-.68.53-.36.89-.48.79-.18,1.29-.18c.13,0,.27,0,.42.02s.3.03.46.05.31.05.46.07.29.06.42.09v.94c-.3-.09-.6-.15-.9-.2s-.59-.07-.87-.07c-.6,0-1.04.1-1.32.3s-.42.47-.42.8c0,.21.06.38.17.53s.27.28.45.4.4.22.64.32.49.19.74.3.5.21.74.33.45.26.64.43.34.36.45.58.17.49.17.79Z"/>
    <path class="cls-3" d="M238.5,98.95c0,.14,0,.27,0,.36s0,.19-.02.28h-4.13c0,.6.17,1.06.5,1.39s.82.48,1.45.48c.17,0,.34,0,.52-.02s.34-.03.5-.06.31-.05.46-.08.28-.06.41-.1v.84c-.28.08-.59.14-.94.19s-.71.07-1.09.07c-.5,0-.94-.07-1.3-.21s-.66-.33-.89-.59-.4-.58-.52-.96-.17-.8-.17-1.28c0-.41.06-.81.18-1.17s.29-.69.52-.97.51-.5.84-.67.71-.25,1.13-.25.77.06,1.09.19.58.31.8.55.38.52.49.86.17.72.17,1.13ZM237.44,98.8c.01-.26-.01-.5-.08-.72s-.16-.4-.29-.56-.29-.28-.49-.37-.42-.13-.68-.13c-.22,0-.43.04-.61.13s-.34.21-.47.36-.24.34-.32.56-.13.46-.15.72h3.09Z"/>
    <path class="cls-3" d="M244.7,101.99c-.27.1-.54.18-.82.23s-.57.07-.86.07c-.93,0-1.65-.25-2.15-.76s-.75-1.24-.75-2.21c0-.46.07-.89.22-1.27s.35-.7.61-.97.57-.48.94-.62.76-.22,1.2-.22c.3,0,.59.02.86.06s.52.11.76.21v.97c-.25-.13-.51-.23-.78-.29s-.54-.09-.82-.09c-.26,0-.51.05-.74.15s-.44.24-.61.43-.31.42-.42.69-.15.57-.15.91c0,.71.17,1.24.52,1.6s.83.53,1.44.53c.28,0,.55-.03.81-.09s.51-.16.75-.28v.95Z"/>
    <path class="cls-3" d="M251.85,99.21c0,.46-.06.88-.19,1.26s-.31.71-.56.98-.54.48-.88.63-.74.23-1.18.23-.8-.07-1.13-.2-.62-.32-.85-.58-.41-.57-.53-.94-.18-.81-.18-1.29c0-.46.06-.87.19-1.25s.31-.7.56-.97.54-.48.88-.63.74-.23,1.18-.23.8.07,1.13.2.62.32.85.57.41.57.53.94.18.8.18,1.29ZM250.81,99.26c0-.36-.04-.68-.12-.95s-.19-.5-.34-.68-.33-.32-.54-.41-.45-.14-.71-.14c-.3,0-.57.06-.78.18s-.39.28-.53.48-.24.43-.3.69-.1.54-.1.83c0,.36.04.68.12.96s.19.5.34.68.33.32.54.41.45.14.71.14c.3,0,.57-.06.78-.18s.39-.28.53-.48.24-.43.3-.69.1-.54.1-.83Z"/>
    <path class="cls-3" d="M253.33,96.32h.91l.04.95c.17-.2.34-.37.5-.51s.32-.24.47-.33.31-.14.47-.17.33-.05.5-.05c.61,0,1.06.18,1.37.54s.47.9.47,1.61v3.84h-1.02v-3.76c0-.46-.09-.8-.26-1.02s-.43-.33-.77-.33c-.12,0-.25.02-.37.06s-.24.1-.37.19-.27.22-.42.37-.32.35-.51.59v3.9h-1.02v-5.88Z"/>
    <path class="cls-3" d="M259.63,99.38c0-.5.07-.94.21-1.33s.33-.72.58-.98.55-.47.91-.61.75-.21,1.18-.21c.19,0,.37.01.55.04s.36.06.54.11v-2.47h1.03v8.28h-.91l-.04-1.11c-.29.41-.59.72-.93.92s-.69.3-1.08.3c-.34,0-.63-.07-.89-.21s-.47-.34-.64-.59-.3-.56-.38-.92-.13-.76-.13-1.2ZM260.67,99.32c0,.71.1,1.24.31,1.59s.5.52.89.52c.26,0,.53-.12.82-.35s.59-.57.91-1.03v-2.73c-.17-.08-.35-.14-.56-.18s-.4-.06-.6-.06c-.55,0-.99.18-1.3.54s-.47.92-.47,1.69Z"/>
    <path class="cls-3" d="M271.18,100.6c0,.21-.04.39-.11.56s-.17.31-.29.44-.26.24-.42.33-.33.16-.51.22-.37.1-.56.13-.38.04-.56.04c-.4,0-.76-.02-1.1-.05s-.66-.09-.98-.17v-.94c.34.1.69.17,1.03.22s.68.08,1.01.08c.49,0,.85-.07,1.08-.2s.35-.32.35-.57c0-.11-.02-.2-.06-.28s-.1-.16-.2-.24-.25-.16-.45-.24-.49-.18-.84-.28c-.27-.08-.51-.17-.74-.27s-.42-.22-.58-.35-.29-.3-.39-.48-.14-.4-.14-.65c0-.16.04-.34.11-.54s.21-.38.39-.54.43-.31.74-.42.7-.17,1.17-.17c.23,0,.49.01.77.04s.57.07.88.13v.91c-.32-.08-.62-.14-.91-.17s-.54-.06-.75-.06c-.25,0-.47.02-.64.06s-.31.09-.42.16-.18.15-.23.24-.07.19-.07.3.02.2.06.29.12.17.23.25.27.16.47.24.46.17.78.26c.35.1.64.21.88.32s.43.24.58.37.25.29.32.46.1.37.1.59Z"/>
    <path class="cls-3" d="M276.64,104.66c-1.8-1.67-2.7-3.51-2.7-5.53,0-.47.05-.94.14-1.42s.25-.94.46-1.42.49-.95.84-1.42.77-.94,1.27-1.41l.59.6c-1.52,1.5-2.27,3.15-2.27,4.97,0,.91.19,1.78.57,2.61s.95,1.62,1.7,2.37l-.62.63Z"/>
    <path class="cls-3" d="M284.69,102.2h-5.04v-.91l1.98-1.97c.32-.32.59-.6.79-.83s.36-.45.47-.64.19-.38.23-.55.06-.36.06-.56c0-.19-.03-.37-.08-.54s-.13-.32-.23-.45-.24-.23-.41-.3-.37-.11-.6-.11c-.32,0-.62.07-.88.22s-.51.33-.73.56l-.56-.67c.29-.3.62-.55,1-.73s.82-.28,1.32-.28c.34,0,.65.05.93.15s.52.25.72.44.36.43.47.7.17.59.17.94c0,.29-.04.56-.12.81s-.2.5-.35.75-.36.5-.6.77-.52.56-.85.87l-1.39,1.35h3.72v.97Z"/>
    <path class="cls-3" d="M287.52,93.48c1.8,1.67,2.7,3.52,2.7,5.57,0,.42-.04.86-.13,1.31s-.23.92-.44,1.39-.49.96-.83,1.44-.79.98-1.32,1.47l-.59-.6c.76-.75,1.33-1.54,1.71-2.36s.56-1.68.56-2.58c0-1.86-.76-3.53-2.27-5.02l.62-.63Z"/>
    <path class="cls-3" d="M293.37,103.4c.2,0,.39,0,.58-.05s.35-.11.5-.19.26-.19.34-.31.13-.27.13-.43-.03-.3-.08-.4-.12-.2-.19-.28-.13-.18-.19-.28-.08-.23-.08-.39c0-.08.02-.17.05-.26s.08-.17.14-.25.15-.13.25-.18.22-.07.35-.07.27.03.4.08.24.14.33.26.17.26.23.44.08.38.08.62c0,.32-.06.64-.18.93s-.3.56-.53.79-.53.41-.88.55-.76.21-1.23.21v-.8Z"/>
    <path class="cls-3" d="M311.01,100.13c0,.36-.07.68-.22.96s-.36.5-.62.68-.58.32-.96.41-.78.13-1.23.13c-.2,0-.41,0-.61-.02s-.39-.04-.58-.06-.36-.05-.52-.08-.31-.06-.45-.1v-1.01c.29.11.62.2.99.26s.78.09,1.25.09c.34,0,.62-.03.86-.08s.43-.13.58-.23.26-.23.33-.38.1-.32.1-.51c0-.21-.06-.38-.17-.53s-.27-.28-.45-.39-.4-.22-.64-.32-.49-.19-.74-.3-.5-.21-.74-.33-.45-.26-.64-.42-.34-.35-.45-.57-.17-.48-.17-.78c0-.26.05-.52.16-.77s.28-.48.51-.68.53-.36.89-.48.79-.18,1.29-.18c.13,0,.27,0,.42.02s.3.03.46.05.31.05.46.07.29.06.42.09v.94c-.3-.09-.6-.15-.9-.2s-.59-.07-.87-.07c-.6,0-1.04.1-1.32.3s-.42.47-.42.8c0,.21.06.38.17.53s.27.28.45.4.4.22.64.32.49.19.74.3.5.21.74.33.45.26.64.43.34.36.45.58.17.49.17.79Z"/>
    <path class="cls-3" d="M317.28,101.99c-.27.1-.54.18-.82.23s-.57.07-.86.07c-.93,0-1.65-.25-2.15-.76s-.75-1.24-.75-2.21c0-.46.07-.89.22-1.27s.35-.7.61-.97.57-.48.94-.62.76-.22,1.2-.22c.3,0,.59.02.86.06s.52.11.76.21v.97c-.25-.13-.51-.23-.78-.29s-.54-.09-.82-.09c-.26,0-.51.05-.74.15s-.44.24-.61.43-.31.42-.42.69-.15.57-.15.91c0,.71.17,1.24.52,1.6s.83.53,1.44.53c.28,0,.55-.03.81-.09s.51-.16.75-.28v.95Z"/>
    <path class="cls-3" d="M324.03,102.2h-1.02v-3.76c0-.45-.08-.79-.25-1.02s-.41-.34-.73-.34c-.14,0-.26.02-.38.06s-.24.1-.37.19-.27.22-.42.37-.33.35-.53.59v3.9h-1.02v-8.28h1.02v2.4l-.04.93c.16-.19.32-.35.47-.48s.31-.24.46-.32.31-.14.47-.18.33-.05.5-.05c.59,0,1.04.18,1.36.54s.48.9.48,1.61v3.84Z"/>
    <path class="cls-3" d="M330.87,98.95c0,.14,0,.27,0,.36s0,.19-.02.28h-4.13c0,.6.17,1.06.5,1.39s.82.48,1.45.48c.17,0,.34,0,.52-.02s.34-.03.5-.06.31-.05.46-.08.28-.06.41-.1v.84c-.28.08-.59.14-.94.19s-.71.07-1.09.07c-.5,0-.94-.07-1.3-.21s-.66-.33-.89-.59-.4-.58-.52-.96-.17-.8-.17-1.28c0-.41.06-.81.18-1.17s.29-.69.52-.97.51-.5.84-.67.71-.25,1.13-.25.77.06,1.09.19.58.31.8.55.38.52.49.86.17.72.17,1.13ZM329.81,98.8c.01-.26-.01-.5-.08-.72s-.16-.4-.29-.56-.29-.28-.49-.37-.42-.13-.68-.13c-.22,0-.43.04-.61.13s-.34.21-.47.36-.24.34-.32.56-.13.46-.15.72h3.09Z"/>
    <path class="cls-3" d="M332.2,99.38c0-.5.07-.94.21-1.33s.33-.72.58-.98.55-.47.91-.61.75-.21,1.18-.21c.19,0,.37.01.55.04s.36.06.54.11v-2.47h1.03v8.28h-.91l-.04-1.11c-.29.41-.59.72-.93.92s-.69.3-1.08.3c-.34,0-.63-.07-.89-.21s-.47-.34-.64-.59-.3-.56-.38-.92-.13-.76-.13-1.2ZM333.25,99.32c0,.71.1,1.24.31,1.59s.5.52.89.52c.26,0,.53-.12.82-.35s.59-.57.91-1.03v-2.73c-.17-.08-.35-.14-.56-.18s-.4-.06-.6-.06c-.55,0-.99.18-1.3.54s-.47.92-.47,1.69Z"/>
    <path class="cls-3" d="M343.83,102.2h-.91l-.04-.95c-.18.2-.34.37-.5.51s-.32.24-.47.33-.31.14-.47.17-.33.05-.5.05c-.61,0-1.06-.18-1.37-.53s-.46-.89-.46-1.61v-3.84h1.02v3.76c0,.9.34,1.35,1.02,1.35.12,0,.25-.02.37-.06s.24-.1.38-.19.27-.22.42-.37.32-.35.51-.59v-3.9h1.02v5.88Z"/>
    <path class="cls-3" d="M347.7,94.76h-1.74v-.84h2.77v7.43h1.75v.85h-4.72v-.85h1.93v-6.59Z"/>
    <path class="cls-3" d="M357.26,98.95c0,.14,0,.27,0,.36s0,.19-.02.28h-4.13c0,.6.17,1.06.5,1.39s.82.48,1.45.48c.17,0,.34,0,.52-.02s.34-.03.5-.06.31-.05.46-.08.28-.06.41-.1v.84c-.28.08-.59.14-.94.19s-.71.07-1.09.07c-.5,0-.94-.07-1.3-.21s-.66-.33-.89-.59-.4-.58-.52-.96-.17-.8-.17-1.28c0-.41.06-.81.18-1.17s.29-.69.52-.97.51-.5.84-.67.71-.25,1.13-.25.77.06,1.09.19.58.31.8.55.38.52.49.86.17.72.17,1.13ZM356.2,98.8c.01-.26-.01-.5-.08-.72s-.16-.4-.29-.56-.29-.28-.49-.37-.42-.13-.68-.13c-.22,0-.43.04-.61.13s-.34.21-.47.36-.24.34-.32.56-.13.46-.15.72h3.09Z"/>
    <path class="cls-3" d="M359.13,96.32h.93l.03,1.08c.35-.42.69-.72,1.03-.91s.68-.28,1.02-.28c.61,0,1.07.2,1.39.59s.46.98.44,1.76h-1.03c.01-.52-.06-.89-.23-1.12s-.4-.35-.71-.35c-.14,0-.27.02-.41.07s-.28.13-.43.23-.3.25-.47.41-.34.37-.53.61v3.78h-1.03v-5.88Z"/>
    <path class="cls-3" d="M367.8,100.36c.13,0,.26.03.38.08s.22.12.31.21.16.19.21.31.08.25.08.38-.03.26-.08.38-.12.22-.21.31-.19.16-.31.21-.25.08-.38.08-.26-.03-.38-.08-.22-.12-.31-.21-.16-.19-.21-.31-.08-.24-.08-.38.03-.26.08-.38.12-.22.21-.31.19-.16.31-.21.24-.08.38-.08Z"/>
    <path class="cls-3" d="M377.32,98.29c0,.37-.03.72-.08,1.05s-.15.65-.27.94-.29.55-.49.79-.44.44-.73.61-.62.3-1.01.39-.82.14-1.31.14h-1.64v-7.66h1.97c1.2,0,2.09.31,2.67.92s.88,1.56.88,2.82ZM376.22,98.37c0-.54-.05-1-.15-1.38s-.26-.68-.46-.91-.47-.4-.78-.5-.68-.16-1.1-.16h-.9v5.88h.78c1.74,0,2.61-.98,2.61-2.94Z"/>
    <path class="cls-3" d="M383.65,98.95c0,.14,0,.27,0,.36s0,.19-.02.28h-4.13c0,.6.17,1.06.5,1.39s.82.48,1.45.48c.17,0,.34,0,.52-.02s.34-.03.5-.06.31-.05.46-.08.28-.06.41-.1v.84c-.28.08-.59.14-.94.19s-.71.07-1.09.07c-.5,0-.94-.07-1.3-.21s-.66-.33-.89-.59-.4-.58-.52-.96-.17-.8-.17-1.28c0-.41.06-.81.18-1.17s.29-.69.52-.97.51-.5.84-.67.71-.25,1.13-.25.77.06,1.09.19.58.31.8.55.38.52.49.86.17.72.17,1.13ZM382.59,98.8c.01-.26-.01-.5-.08-.72s-.16-.4-.29-.56-.29-.28-.49-.37-.42-.13-.68-.13c-.22,0-.43.04-.61.13s-.34.21-.47.36-.24.34-.32.56-.13.46-.15.72h3.09Z"/>
    <path class="cls-3" d="M390.5,94.87c-.54-.11-1-.17-1.38-.17-.92,0-1.38.48-1.38,1.44v1.03h2.58v.85h-2.58v4.18h-1.04v-4.18h-1.89v-.85h1.89v-.97c0-1.57.82-2.35,2.45-2.35.41,0,.86.05,1.35.14v.88Z"/>
    <path class="cls-3" d="M395.66,102.2l-.02-.79c-.32.32-.65.54-.98.69s-.68.21-1.04.21c-.34,0-.62-.04-.86-.13s-.43-.2-.59-.35-.27-.33-.34-.53-.11-.42-.11-.66c0-.59.22-1.05.66-1.39s1.09-.5,1.95-.5h1.22v-.52c0-.35-.11-.63-.33-.83s-.56-.31-1.02-.31c-.33,0-.66.04-.98.11s-.66.18-1,.32v-.92c.13-.05.27-.09.43-.14s.33-.08.5-.12.36-.06.55-.08.38-.03.58-.03c.36,0,.68.04.96.12s.53.2.72.36.35.36.45.6.16.53.16.86v4.05h-.91ZM395.55,99.53h-1.29c-.25,0-.47.03-.66.08s-.33.12-.45.22-.2.21-.26.34-.08.28-.08.44c0,.11.02.22.05.33s.09.2.17.28.18.14.3.19.28.07.46.07c.23,0,.5-.07.81-.21s.62-.37.96-.68v-1.04Z"/>
    <path class="cls-3" d="M403.21,102.2h-.91l-.04-.95c-.18.2-.34.37-.5.51s-.32.24-.47.33-.31.14-.47.17-.33.05-.5.05c-.61,0-1.06-.18-1.37-.53s-.46-.89-.46-1.61v-3.84h1.02v3.76c0,.9.34,1.35,1.02,1.35.12,0,.25-.02.37-.06s.24-.1.38-.19.27-.22.42-.37.32-.35.51-.59v-3.9h1.02v5.88Z"/>
    <path class="cls-3" d="M407.08,94.76h-1.74v-.84h2.77v7.43h1.75v.85h-4.72v-.85h1.93v-6.59Z"/>
    <path class="cls-3" d="M416.41,102.12c-.23.06-.47.1-.71.13s-.5.04-.75.04c-.74,0-1.29-.17-1.65-.5s-.54-.85-.54-1.54v-3.07h-1.65v-.86h1.65v-1.62l1.02-.26v1.88h2.64v.86h-2.64v2.99c0,.42.11.74.34.95s.56.31.99.31c.19,0,.39-.01.62-.04s.46-.08.7-.14v.88Z"/>
    <path class="cls-3" d="M419.47,93.48c1.8,1.67,2.7,3.52,2.7,5.57,0,.42-.04.86-.13,1.31s-.23.92-.44,1.39-.49.96-.83,1.44-.79.98-1.32,1.47l-.59-.6c.76-.75,1.33-1.54,1.71-2.36s.56-1.68.56-2.58c0-1.86-.76-3.53-2.27-5.02l.62-.63Z"/>
  </g>
  <g>
    <circle class="cls-2" cx="61.2" cy="48.3" r="13.56"/>
    <path class="cls-3" d="M63.5,51.85h-4.25v-.89h1.58v-5.85h-1.58v-.8c.6,0,1.04-.08,1.32-.25s.44-.49.48-.96h.91v7.86h1.55v.89Z"/>
  </g>
  <g>
    <circle class="cls-2" cx="92.28" cy="48.3" r="13.56"/>
    <path class="cls-3" d="M95.03,51.85h-5.38v-1.22c.39-.37.75-.72,1.1-1.05s.68-.69,1.01-1.05c.66-.73,1.12-1.32,1.36-1.75s.36-.89.36-1.36c0-.24-.04-.46-.11-.64s-.18-.34-.31-.46c-.14-.12-.29-.21-.47-.26s-.38-.09-.59-.09-.42.03-.63.08-.42.12-.61.2c-.16.07-.32.15-.47.24s-.28.17-.37.24h-.06v-1.24c.24-.12.58-.24,1.01-.35s.84-.17,1.23-.17c.81,0,1.45.22,1.91.65s.69,1.02.69,1.75c0,.34-.04.65-.12.94s-.19.56-.33.8c-.14.25-.32.51-.52.76s-.42.5-.64.74c-.37.4-.78.81-1.23,1.24s-.81.77-1.08,1.02h4.29v1Z"/>
  </g>
  <g>
    <circle class="cls-2" cx="145.36" cy="129.88" r="13.56"/>
    <g>
      <path class="cls-3" d="M138.15,133.81h-2.03v-7.61h2.03v.56h-1.35v6.49h1.35v.56Z"/>
      <path class="cls-3" d="M142.25,132.28h-2.84v-.59h1.05v-3.9h-1.05v-.53c.4,0,.69-.06.88-.17s.29-.33.32-.64h.61v5.24h1.03v.59Z"/>
      <path class="cls-3" d="M144.86,131.17l-1.09,2.56h-.57l.69-2.56h.98Z"/>
      <path class="cls-3" d="M151.84,132.28h-3.59v-.82c.26-.24.5-.48.73-.7s.45-.46.67-.7c.44-.49.74-.88.91-1.17s.24-.6.24-.91c0-.16-.03-.3-.08-.43s-.12-.22-.21-.3c-.09-.08-.2-.14-.32-.18s-.25-.06-.39-.06-.28.02-.42.05-.28.08-.41.13c-.11.04-.21.1-.32.16s-.18.12-.25.16h-.04v-.83c.16-.08.39-.16.67-.24s.56-.12.82-.12c.54,0,.97.14,1.27.43s.46.68.46,1.17c0,.23-.03.44-.08.63s-.13.37-.22.54c-.1.17-.21.34-.35.5s-.28.33-.43.49c-.24.27-.52.54-.82.83s-.54.51-.72.68h2.86v.67Z"/>
      <path class="cls-3" d="M154.61,133.81h-2.03v-.56h1.35v-6.49h-1.35v-.56h2.03v7.61Z"/>
    </g>
  </g>
  <g>
    <circle class="cls-2" cx="334.9" cy="129.88" r="13.56"/>
    <g>
      <path class="cls-3" d="M325.59,133.81h-2.03v-7.61h2.03v.56h-1.35v6.49h1.35v.56Z"/>
      <path class="cls-3" d="M327.97,127.02c-.14,0-.28.02-.42.05s-.28.08-.41.13c-.12.05-.23.11-.33.16s-.18.11-.25.16h-.05v-.82c.17-.09.4-.17.69-.25s.57-.11.83-.11.49.03.69.08.37.14.53.25c.17.12.3.28.39.45s.13.38.13.62c0,.32-.11.6-.32.84s-.46.4-.76.46v.05c.12.02.25.06.39.12s.27.14.39.25.22.26.29.43.11.39.11.64-.04.5-.13.72-.22.41-.38.58c-.17.18-.37.31-.61.4s-.51.14-.82.14-.58-.04-.87-.11-.53-.15-.72-.25v-.82h.05c.16.12.38.23.66.34s.55.16.83.16c.16,0,.32-.03.48-.08s.29-.13.4-.25c.1-.11.18-.24.24-.38s.08-.31.08-.52-.03-.38-.09-.52-.15-.24-.26-.32-.24-.13-.39-.16-.31-.04-.49-.04h-.33v-.65h.26c.35,0,.64-.08.86-.25s.33-.41.33-.73c0-.15-.03-.27-.09-.38s-.13-.19-.22-.25c-.1-.07-.21-.11-.33-.14s-.25-.04-.38-.04Z"/>
      <path class="cls-3" d="M332.29,131.17l-1.09,2.56h-.57l.69-2.56h.98Z"/>
      <path class="cls-3" d="M336.93,130.28h-.69v2h-.75v-2h-2.57v-.82l2.6-3h.72v3.19h.69v.62ZM335.49,129.65v-2.27l-1.96,2.27h1.96Z"/>
      <path class="cls-3" d="M339,131.17l-1.09,2.56h-.57l.69-2.56h.98Z"/>
      <path class="cls-3" d="M343.42,130.43c0,.28-.04.54-.13.78s-.22.45-.38.62c-.16.18-.37.32-.61.42s-.52.15-.82.15c-.28,0-.55-.03-.82-.09s-.5-.14-.7-.24v-.82h.05c.06.04.15.09.26.15s.24.11.37.16c.15.05.29.1.42.13s.27.04.43.04.31-.03.46-.08.28-.15.38-.27c.1-.11.17-.25.22-.4s.08-.33.08-.54-.03-.38-.08-.51-.14-.24-.24-.33c-.11-.1-.25-.17-.41-.21s-.34-.06-.54-.06c-.21,0-.42.02-.64.05s-.38.06-.51.09v-3h3.19v.68h-2.44v1.55c.09-.01.19-.02.28-.02s.17,0,.25,0c.3,0,.55.02.75.07s.4.15.59.29c.19.15.34.33.44.55s.15.5.15.86Z"/>
      <path class="cls-3" d="M346.25,133.81h-2.03v-.56h1.35v-6.49h-1.35v-.56h2.03v7.61Z"/>
    </g>
  </g>
  <g>
    <circle class="cls-2" cx="428.67" cy="129.88" r="13.56"/>
    <g>
      <path class="cls-3" d="M426.1,133.81h-2.03v-7.61h2.03v.56h-1.35v6.49h1.35v.56Z"/>
      <path class="cls-3" d="M430.59,130.39c0,.3-.05.58-.15.83s-.23.46-.4.63c-.17.18-.37.32-.59.41s-.45.14-.71.14-.5-.04-.72-.13-.4-.22-.57-.39c-.2-.21-.36-.49-.47-.85s-.17-.79-.17-1.3.05-.96.16-1.37.26-.76.48-1.06c.21-.29.48-.52.82-.69s.72-.25,1.16-.25c.13,0,.25,0,.36.02s.21.03.3.06v.75h-.04c-.07-.04-.17-.07-.3-.11s-.27-.05-.43-.05c-.48,0-.88.16-1.17.49s-.47.81-.53,1.46c.19-.13.38-.23.57-.3s.41-.11.64-.11.43.02.6.07.35.14.53.28c.21.16.37.37.48.61s.16.54.16.87ZM429.8,130.42c0-.24-.03-.44-.09-.6s-.16-.3-.3-.41c-.1-.08-.22-.14-.35-.16s-.26-.04-.4-.04c-.18,0-.36.03-.53.08s-.34.13-.51.24c0,.06,0,.11-.01.17s0,.12,0,.2c0,.4.04.73.12.98s.18.44.29.56c.11.12.23.21.35.26s.25.07.38.07c.31,0,.57-.11.76-.34s.29-.56.29-1Z"/>
      <path class="cls-3" d="M433.26,133.81h-2.03v-.56h1.35v-6.49h-1.35v-.56h2.03v7.61Z"/>
    </g>
  </g>
  <g>
    <circle class="cls-2" cx="203.84" cy="48.3" r="13.56"/>
    <path class="cls-3" d="M203.56,43.95c-.21,0-.42.03-.63.08s-.42.12-.62.2c-.19.08-.35.16-.49.25s-.26.17-.37.24h-.07v-1.24c.25-.14.6-.26,1.03-.37s.85-.17,1.25-.17.74.04,1.03.12.56.2.8.37c.26.19.45.41.58.68s.2.58.2.93c0,.48-.16.9-.47,1.27s-.7.59-1.14.69v.08c.18.04.38.1.59.18s.4.21.58.38.33.38.44.65.17.58.17.96-.07.76-.2,1.09-.33.62-.57.88c-.25.27-.56.47-.92.6s-.77.21-1.22.21-.87-.05-1.3-.16-.79-.23-1.08-.38v-1.24h.08c.25.18.58.35.99.52s.83.25,1.24.25c.24,0,.48-.04.72-.11s.44-.2.6-.37c.16-.17.28-.36.36-.57s.12-.47.12-.79-.05-.58-.14-.78-.22-.36-.38-.48-.36-.2-.58-.24-.47-.07-.73-.07h-.5v-.97h.39c.53,0,.96-.12,1.29-.38s.5-.61.5-1.09c0-.22-.04-.41-.13-.57s-.2-.28-.33-.38c-.15-.1-.31-.17-.49-.21s-.37-.06-.57-.06Z"/>
  </g>
  <g>
    <circle class="cls-2" cx="235.18" cy="48.3" r="13.56"/>
    <path class="cls-3" d="M238.15,48.85h-1.04v3h-1.12v-3h-3.86v-1.23l3.9-4.49h1.08v4.79h1.04v.94ZM235.99,47.91v-3.41l-2.94,3.41h2.94Z"/>
  </g>
  <g>
    <circle class="cls-2" cx="280.82" cy="48.3" r="13.56"/>
    <path class="cls-3" d="M283.47,49.07c0,.42-.07.81-.2,1.17s-.32.67-.57.93c-.25.27-.55.47-.92.63s-.77.23-1.23.23c-.42,0-.83-.05-1.23-.14s-.75-.21-1.05-.36v-1.24h.08c.09.07.22.14.39.23s.35.16.56.24c.23.08.44.15.63.19s.41.07.64.07.46-.04.69-.13.41-.22.57-.41c.14-.17.25-.37.33-.6s.11-.5.11-.81-.04-.56-.13-.76-.21-.36-.37-.49c-.17-.15-.37-.25-.62-.31s-.52-.09-.82-.09c-.32,0-.63.02-.96.07s-.58.09-.77.14v-4.49h4.79v1.03h-3.66v2.32c.14-.02.28-.03.42-.04s.26-.01.38-.01c.45,0,.82.04,1.13.11s.61.22.89.43c.29.22.51.49.67.82s.23.76.23,1.28Z"/>
  </g>
  <g>
    <circle class="cls-2" cx="375.58" cy="48.3" r="13.56"/>
    <path class="cls-3" d="M378.46,49.02c0,.45-.07.86-.22,1.24s-.35.7-.6.95c-.26.27-.55.47-.88.61s-.68.21-1.07.21-.75-.07-1.08-.2-.61-.33-.85-.59c-.3-.32-.54-.74-.71-1.27s-.25-1.18-.25-1.95.08-1.44.23-2.05.4-1.14.72-1.6c.32-.44.72-.79,1.22-1.03s1.08-.37,1.73-.37c.2,0,.38,0,.54.03s.32.05.45.09v1.12h-.05c-.11-.06-.26-.11-.46-.16s-.41-.07-.64-.07c-.73,0-1.31.25-1.76.74s-.71,1.22-.79,2.18c.28-.2.56-.35.86-.45s.61-.16.96-.16.64.03.89.1.52.21.8.41c.32.24.56.55.71.92s.23.81.23,1.31ZM377.27,49.06c0-.36-.05-.66-.14-.9s-.25-.45-.46-.62c-.15-.12-.33-.21-.52-.25s-.39-.06-.59-.06c-.27,0-.54.04-.8.12s-.51.2-.76.36c0,.09-.01.17-.02.25s0,.18,0,.3c0,.61.06,1.09.18,1.46s.27.65.44.84c.17.18.34.31.52.39s.37.11.58.11c.47,0,.85-.17,1.14-.5s.44-.84.44-1.51Z"/>
  </g>
  <line class="cls-1" x1="30.52" y1="34.73" x2="30.52" y2="61.86"/>
  <line class="cls-1" x1="30.52" y1="116.31" x2="30.52" y2="143.44"/>
  <polyline class="cls-1" points="469.19 34.73 482.24 48.24 470.14 60.76"/>
  <polyline class="cls-1" points="470.51 116.31 483.57 129.82 471.46 142.34"/>
</svg>