<?xml version="1.0" encoding="UTF-8"?>
<svg id="Layer_1" data-name="Layer 1" xmlns="http://www.w3.org/2000/svg" viewBox="0 0 504.81 205.48">
  <defs>
    <style>
      .cls-1 {
        fill: #f0ff8b;
      }

      .cls-1, .cls-2, .cls-3, .cls-4, .cls-5, .cls-6, .cls-7, .cls-8 {
        stroke: #000;
        stroke-miterlimit: 10;
      }

      .cls-2 {
        fill: none;
      }

      .cls-3 {
        fill: #ff8be8;
      }

      .cls-4 {
        fill: #ff8b8b;
      }

      .cls-9 {
        stroke-width: 0px;
      }

      .cls-5 {
        fill: #8be2ff;
      }

      .cls-6 {
        fill: #e3e3e3;
      }

      .cls-7 {
        fill: #8bffbc;
      }

      .cls-8 {
        fill: #ffb68b;
      }
    </style>
  </defs>
  <line id="source_line" data-name="source line" class="cls-2" x1="30.52" y1="48.3" x2="482.24" y2="48.3"/>
  <g>
    <path class="cls-9" d="M33.67,23.87c0,.21-.04.39-.11.56s-.17.31-.29.44-.26.24-.42.33-.33.16-.51.22-.37.1-.56.13-.38.04-.56.04c-.4,0-.76-.02-1.1-.05s-.66-.09-.98-.17v-.94c.34.1.69.17,1.03.22s.68.08,1.01.08c.49,0,.85-.07,1.08-.2s.35-.32.35-.57c0-.11-.02-.2-.06-.28s-.1-.16-.2-.24-.25-.16-.45-.24-.49-.18-.84-.28c-.27-.08-.51-.17-.74-.27s-.42-.22-.58-.35-.29-.3-.39-.48-.14-.4-.14-.65c0-.16.04-.34.11-.54s.21-.38.39-.54.43-.31.74-.42.7-.17,1.17-.17c.23,0,.49.01.77.04s.57.07.88.13v.91c-.32-.08-.62-.14-.91-.17s-.54-.06-.75-.06c-.25,0-.47.02-.64.06s-.31.09-.42.16-.18.15-.23.24-.07.19-.07.3.02.2.06.29.12.17.23.25.27.16.47.24.46.17.78.26c.35.1.64.21.88.32s.43.24.58.37.25.29.32.46.1.37.1.59Z"/>
    <path class="cls-9" d="M40.73,22.49c0,.46-.06.88-.19,1.26s-.31.71-.56.98-.54.48-.88.63-.74.23-1.18.23-.8-.07-1.13-.2-.62-.32-.85-.58-.41-.57-.53-.94-.18-.81-.18-1.29c0-.46.06-.87.19-1.25s.31-.7.56-.97.54-.48.88-.63.74-.23,1.18-.23.8.07,1.13.2.62.32.85.57.41.57.53.94.18.8.18,1.29ZM39.68,22.54c0-.36-.04-.68-.12-.95s-.19-.5-.34-.68-.33-.32-.54-.41-.45-.14-.71-.14c-.3,0-.57.06-.78.18s-.39.28-.53.48-.24.43-.3.69-.1.54-.1.83c0,.36.04.68.12.96s.19.5.34.68.33.32.54.41.45.14.71.14c.3,0,.57-.06.78-.18s.39-.28.53-.48.24-.43.3-.69.1-.54.1-.83Z"/>
    <path class="cls-9" d="M46.93,25.48h-.91l-.04-.95c-.18.2-.34.37-.5.51s-.32.24-.47.33-.31.14-.47.17-.33.05-.5.05c-.61,0-1.06-.18-1.37-.53s-.46-.89-.46-1.61v-3.84h1.02v3.76c0,.9.34,1.35,1.02,1.35.12,0,.25-.02.37-.06s.24-.1.38-.19.27-.22.42-.37.32-.35.51-.59v-3.9h1.02v5.88Z"/>
    <path class="cls-9" d="M49.04,19.59h.93l.03,1.08c.35-.42.69-.72,1.03-.91s.68-.28,1.02-.28c.61,0,1.07.2,1.39.59s.46.98.44,1.76h-1.03c.01-.52-.06-.89-.23-1.12s-.4-.35-.71-.35c-.14,0-.27.02-.41.07s-.28.13-.43.23-.3.25-.47.41-.34.37-.53.61v3.78h-1.03v-5.88Z"/>
    <path class="cls-9" d="M59.97,25.26c-.27.1-.54.18-.82.23s-.57.07-.86.07c-.93,0-1.65-.25-2.15-.76s-.75-1.24-.75-2.21c0-.46.07-.89.22-1.27s.35-.7.61-.97.57-.48.94-.62.76-.22,1.2-.22c.3,0,.59.02.86.06s.52.11.76.21v.97c-.25-.13-.51-.23-.78-.29s-.54-.09-.82-.09c-.26,0-.51.05-.74.15s-.44.24-.61.43-.31.42-.42.69-.15.57-.15.91c0,.71.17,1.24.52,1.6s.83.53,1.44.53c.28,0,.55-.03.81-.09s.51-.16.75-.28v.95Z"/>
    <path class="cls-9" d="M66.97,22.23c0,.14,0,.27,0,.36s0,.19-.02.28h-4.13c0,.6.17,1.06.5,1.39s.82.48,1.45.48c.17,0,.34,0,.52-.02s.34-.03.5-.06.31-.05.46-.08.28-.06.41-.1v.84c-.28.08-.59.14-.94.19s-.71.07-1.09.07c-.5,0-.94-.07-1.3-.21s-.66-.33-.89-.59-.4-.58-.52-.96-.17-.8-.17-1.28c0-.41.06-.81.18-1.17s.29-.69.52-.97.51-.5.84-.67.71-.25,1.13-.25.77.06,1.09.19.58.31.8.55.38.52.49.86.17.72.17,1.13ZM65.91,22.08c.01-.26-.01-.5-.08-.72s-.16-.4-.29-.56-.29-.28-.49-.37-.42-.13-.68-.13c-.22,0-.43.04-.61.13s-.34.21-.47.36-.24.34-.32.56-.13.46-.15.72h3.09Z"/>
  </g>
  <g>
    <path class="cls-9" d="M34.13,99.21c0,.46-.06.88-.19,1.26s-.31.71-.56.98-.54.48-.88.63-.74.23-1.18.23-.8-.07-1.13-.2-.62-.32-.85-.58-.41-.57-.53-.94-.18-.81-.18-1.29c0-.46.06-.87.19-1.25s.31-.7.56-.97.54-.48.88-.63.74-.23,1.18-.23.8.07,1.13.2.62.32.85.57.41.57.53.94.18.8.18,1.29ZM33.09,99.26c0-.36-.04-.68-.12-.95s-.19-.5-.34-.68-.33-.32-.54-.41-.45-.14-.71-.14c-.3,0-.57.06-.78.18s-.39.28-.53.48-.24.43-.3.69-.1.54-.1.83c0,.36.04.68.12.96s.19.5.34.68.33.32.54.41.45.14.71.14c.3,0,.57-.06.78-.18s.39-.28.53-.48.24-.43.3-.69.1-.54.1-.83Z"/>
    <path class="cls-9" d="M40.33,102.2h-.91l-.04-.95c-.18.2-.34.37-.5.51s-.32.24-.47.33-.31.14-.47.17-.33.05-.5.05c-.61,0-1.06-.18-1.37-.53s-.46-.89-.46-1.61v-3.84h1.02v3.76c0,.9.34,1.35,1.02,1.35.12,0,.25-.02.37-.06s.24-.1.38-.19.27-.22.42-.37.32-.35.51-.59v-3.9h1.02v5.88Z"/>
    <path class="cls-9" d="M46.94,102.12c-.23.06-.47.1-.71.13s-.5.04-.75.04c-.74,0-1.29-.17-1.65-.5s-.54-.85-.54-1.54v-3.07h-1.65v-.86h1.65v-1.62l1.02-.26v1.88h2.64v.86h-2.64v2.99c0,.42.11.74.34.95s.56.31.99.31c.19,0,.39-.01.62-.04s.46-.08.7-.14v.88Z"/>
    <path class="cls-9" d="M53.46,100.6c0,.21-.04.39-.11.56s-.17.31-.29.44-.26.24-.42.33-.33.16-.51.22-.37.1-.56.13-.38.04-.56.04c-.4,0-.76-.02-1.1-.05s-.66-.09-.98-.17v-.94c.34.1.69.17,1.03.22s.68.08,1.01.08c.49,0,.85-.07,1.08-.2s.35-.32.35-.57c0-.11-.02-.2-.06-.28s-.1-.16-.2-.24-.25-.16-.45-.24-.49-.18-.84-.28c-.27-.08-.51-.17-.74-.27s-.42-.22-.58-.35-.29-.3-.39-.48-.14-.4-.14-.65c0-.16.04-.34.11-.54s.21-.38.39-.54.43-.31.74-.42.7-.17,1.17-.17c.23,0,.49.01.77.04s.57.07.88.13v.91c-.32-.08-.62-.14-.91-.17s-.54-.06-.75-.06c-.25,0-.47.02-.64.06s-.31.09-.42.16-.18.15-.23.24-.07.19-.07.3.02.2.06.29.12.17.23.25.27.16.47.24.46.17.78.26c.35.1.64.21.88.32s.43.24.58.37.25.29.32.46.1.37.1.59Z"/>
    <path class="cls-9" d="M60.14,102.12c-.23.06-.47.1-.71.13s-.5.04-.75.04c-.74,0-1.29-.17-1.65-.5s-.54-.85-.54-1.54v-3.07h-1.65v-.86h1.65v-1.62l1.02-.26v1.88h2.64v.86h-2.64v2.99c0,.42.11.74.34.95s.56.31.99.31c.19,0,.39-.01.62-.04s.46-.08.7-.14v.88Z"/>
    <path class="cls-9" d="M65.78,102.2l-.02-.79c-.32.32-.65.54-.98.69s-.68.21-1.04.21c-.34,0-.62-.04-.86-.13s-.43-.2-.59-.35-.27-.33-.34-.53-.11-.42-.11-.66c0-.59.22-1.05.66-1.39s1.09-.5,1.95-.5h1.22v-.52c0-.35-.11-.63-.33-.83s-.56-.31-1.02-.31c-.33,0-.66.04-.98.11s-.66.18-1,.32v-.92c.13-.05.27-.09.43-.14s.33-.08.5-.12.36-.06.55-.08.38-.03.58-.03c.36,0,.68.04.96.12s.53.2.72.36.35.36.45.6.16.53.16.86v4.05h-.91ZM65.67,99.53h-1.29c-.25,0-.47.03-.66.08s-.33.12-.45.22-.2.21-.26.34-.08.28-.08.44c0,.11.02.22.05.33s.09.2.17.28.18.14.3.19.28.07.46.07c.23,0,.5-.07.81-.21s.62-.37.96-.68v-1.04Z"/>
    <path class="cls-9" d="M68.59,96.32h.91l.04.95c.17-.2.34-.37.5-.51s.32-.24.47-.33.31-.14.47-.17.33-.05.5-.05c.61,0,1.06.18,1.37.54s.47.9.47,1.61v3.84h-1.02v-3.76c0-.46-.09-.8-.26-1.02s-.43-.33-.77-.33c-.12,0-.25.02-.37.06s-.24.1-.37.19-.27.22-.42.37-.32.35-.51.59v3.9h-1.02v-5.88Z"/>
    <path class="cls-9" d="M74.89,99.38c0-.5.07-.94.21-1.33s.33-.72.58-.98.55-.47.91-.61.75-.21,1.18-.21c.19,0,.37.01.55.04s.36.06.54.11v-2.47h1.03v8.28h-.91l-.04-1.11c-.29.41-.59.72-.93.92s-.69.3-1.08.3c-.34,0-.63-.07-.89-.21s-.47-.34-.64-.59-.3-.56-.38-.92-.13-.76-.13-1.2ZM75.94,99.32c0,.71.1,1.24.31,1.59s.5.52.89.52c.26,0,.53-.12.82-.35s.59-.57.91-1.03v-2.73c-.17-.08-.35-.14-.56-.18s-.4-.06-.6-.06c-.55,0-.99.18-1.3.54s-.47.92-.47,1.69Z"/>
    <path class="cls-9" d="M83.79,97.16h-1.74v-.84h2.77v5.03h1.75v.85h-4.72v-.85h1.93v-4.19ZM84.15,93.85c.11,0,.22.02.32.06s.18.1.25.17.13.16.17.25.06.2.06.31-.02.21-.06.31-.1.18-.17.26-.16.13-.25.17-.2.06-.32.06-.22-.02-.32-.06-.18-.1-.25-.17-.13-.16-.17-.26-.06-.2-.06-.31.02-.22.06-.31.1-.18.17-.25.16-.13.25-.17.2-.06.32-.06Z"/>
    <path class="cls-9" d="M88.39,96.32h.91l.04.95c.17-.2.34-.37.5-.51s.32-.24.47-.33.31-.14.47-.17.33-.05.5-.05c.61,0,1.06.18,1.37.54s.47.9.47,1.61v3.84h-1.02v-3.76c0-.46-.09-.8-.26-1.02s-.43-.33-.77-.33c-.12,0-.25.02-.37.06s-.24.1-.37.19-.27.22-.42.37-.32.35-.51.59v3.9h-1.02v-5.88Z"/>
    <path class="cls-9" d="M99.22,97.15c.11.14.19.3.25.48s.09.38.09.59c0,.3-.06.58-.17.83s-.27.47-.47.65-.45.32-.73.42-.59.15-.93.15c-.25,0-.48-.03-.69-.08s-.38-.12-.51-.2c-.07.11-.14.21-.19.31s-.08.21-.08.33c0,.15.07.27.21.37s.33.15.57.16l1.55.06c.29,0,.56.04.81.11s.46.16.64.29.32.28.42.46.15.4.15.64c0,.26-.06.51-.17.74s-.29.44-.52.62-.54.32-.9.42-.79.16-1.29.16-.88-.04-1.22-.11-.61-.18-.82-.32-.37-.29-.47-.48-.15-.39-.15-.61c0-.29.07-.54.2-.75s.34-.42.62-.62c-.1-.05-.19-.11-.26-.18s-.13-.15-.18-.23-.08-.17-.11-.27-.04-.19-.04-.28c0-.25.06-.49.18-.7s.26-.41.42-.6c-.07-.09-.14-.18-.2-.26s-.11-.18-.15-.28-.07-.21-.09-.32-.03-.25-.03-.4c0-.3.06-.58.17-.83s.27-.47.47-.65.44-.32.73-.42.6-.15.94-.15c.14,0,.28,0,.42.03s.25.04.35.08h2.13v.83h-.94ZM95.68,103.05c0,.28.14.48.43.61s.69.19,1.21.19c.32,0,.6-.03.82-.09s.4-.14.53-.23.23-.21.29-.33.09-.25.09-.38c0-.24-.1-.41-.29-.53s-.49-.18-.9-.2l-1.54-.05c-.13.09-.24.17-.32.25s-.15.17-.2.25-.08.17-.1.25-.03.17-.03.25ZM95.99,98.24c0,.19.03.36.09.52s.15.29.26.4.25.19.4.25.33.09.51.09c.2,0,.38-.03.54-.1s.29-.16.4-.28.19-.25.25-.4.08-.31.08-.47c0-.19-.03-.36-.09-.52s-.15-.29-.26-.4-.25-.19-.4-.25-.33-.09-.51-.09c-.2,0-.38.04-.54.11s-.29.16-.4.28-.19.25-.25.4-.08.31-.08.47Z"/>
    <path class="cls-9" d="M110.34,95.66l-2.47,6.54h-.99l-2.45-6.54h1.19l1.79,5.05,1.78-5.05h1.15Z"/>
    <path class="cls-9" d="M114.6,101.51c-.09.07-.21.16-.36.28s-.3.21-.44.28c-.2.1-.38.18-.57.23s-.44.08-.76.08c-.27,0-.53-.05-.77-.15s-.46-.24-.64-.43c-.18-.18-.32-.4-.42-.67s-.16-.54-.16-.83c0-.45.1-.84.29-1.16s.49-.57.91-.76c.37-.17.8-.28,1.3-.35s1.04-.11,1.62-.14v-.21c0-.26-.04-.47-.12-.62s-.19-.28-.33-.37c-.14-.09-.31-.15-.52-.18s-.41-.04-.63-.04c-.25,0-.55.04-.9.11s-.69.19-1.03.33h-.06v-1.12c.2-.06.49-.12.87-.19s.75-.11,1.12-.11c.45,0,.83.04,1.14.11s.59.2.83.38c.24.18.42.41.53.7s.18.63.18,1.04v4.48h-1.1v-.7ZM114.6,100.59v-1.82c-.26.02-.59.06-.99.1s-.72.1-.97.17c-.29.09-.54.23-.73.41s-.29.44-.29.78c0,.38.11.66.32.85s.52.29.93.29c.35,0,.66-.08.94-.23s.54-.33.79-.55Z"/>
    <path class="cls-9" d="M118.36,102.2h-1.1v-9.12h1.1v9.12Z"/>
    <path class="cls-9" d="M125.08,102.2h-1.1v-.73c-.34.3-.66.52-.97.68s-.64.23-1.02.23c-.29,0-.55-.05-.81-.14s-.47-.24-.66-.45-.33-.46-.44-.77-.16-.68-.16-1.12v-4.25h1.1v3.73c0,.35.01.64.04.86s.08.43.17.6c.09.17.21.29.37.37s.38.12.67.12c.27,0,.56-.08.86-.23s.58-.34.84-.56v-4.89h1.1v6.54Z"/>
    <path class="cls-9" d="M129.51,102.36c-1.04,0-1.85-.29-2.43-.88s-.86-1.42-.86-2.5.28-1.92.84-2.55,1.29-.95,2.19-.95c.41,0,.77.06,1.08.18s.59.3.82.55.41.56.54.92.19.8.19,1.33v.6h-4.54c0,.76.19,1.34.57,1.75s.91.6,1.59.6c.24,0,.48-.03.71-.08s.44-.12.63-.21c.2-.09.37-.18.5-.26s.25-.16.34-.24h.06v1.2c-.13.05-.29.11-.48.19s-.36.14-.52.18c-.21.06-.41.1-.58.13s-.39.05-.66.05ZM130.8,98.2c0-.3-.04-.55-.11-.77s-.15-.4-.27-.54c-.13-.16-.29-.29-.5-.38s-.45-.13-.75-.13-.54.04-.75.13-.39.22-.56.38c-.16.17-.29.36-.38.57s-.14.45-.16.73h3.46Z"/>
  </g>
  <g>
    <circle class="cls-7" cx="61.2" cy="48.3" r="13.56"/>
    <path class="cls-9" d="M63.5,51.85h-4.25v-.89h1.58v-5.85h-1.58v-.8c.6,0,1.04-.08,1.32-.25s.44-.49.48-.96h.91v7.86h1.55v.89Z"/>
  </g>
  <g>
    <circle class="cls-5" cx="92.28" cy="48.3" r="13.56"/>
    <path class="cls-9" d="M95.03,51.85h-5.38v-1.22c.39-.37.75-.72,1.1-1.05s.68-.69,1.01-1.05c.66-.73,1.12-1.32,1.36-1.75s.36-.89.36-1.36c0-.24-.04-.46-.11-.64s-.18-.34-.31-.46c-.14-.12-.29-.21-.47-.26s-.38-.09-.59-.09-.42.03-.63.08-.42.12-.61.2c-.16.07-.32.15-.47.24s-.28.17-.37.24h-.06v-1.24c.24-.12.58-.24,1.01-.35s.84-.17,1.23-.17c.81,0,1.45.22,1.91.65s.69,1.02.69,1.75c0,.34-.04.65-.12.94s-.19.56-.33.8c-.14.25-.32.51-.52.76s-.42.5-.64.74c-.37.4-.78.81-1.23,1.24s-.81.77-1.08,1.02h4.29v1Z"/>
  </g>
  <g>
    <circle class="cls-1" cx="203.84" cy="48.3" r="13.56"/>
    <path class="cls-9" d="M203.56,43.95c-.21,0-.42.03-.63.08s-.42.12-.62.2c-.19.08-.35.16-.49.25s-.26.17-.37.24h-.07v-1.24c.25-.14.6-.26,1.03-.37s.85-.17,1.25-.17.74.04,1.03.12.56.2.8.37c.26.19.45.41.58.68s.2.58.2.93c0,.48-.16.9-.47,1.27s-.7.59-1.14.69v.08c.18.04.38.1.59.18s.4.21.58.38.33.38.44.65.17.58.17.96-.07.76-.2,1.09-.33.62-.57.88c-.25.27-.56.47-.92.6s-.77.21-1.22.21-.87-.05-1.3-.16-.79-.23-1.08-.38v-1.24h.08c.25.18.58.35.99.52s.83.25,1.24.25c.24,0,.48-.04.72-.11s.44-.2.6-.37c.16-.17.28-.36.36-.57s.12-.47.12-.79-.05-.58-.14-.78-.22-.36-.38-.48-.36-.2-.58-.24-.47-.07-.73-.07h-.5v-.97h.39c.53,0,.96-.12,1.29-.38s.5-.61.5-1.09c0-.22-.04-.41-.13-.57s-.2-.28-.33-.38c-.15-.1-.31-.17-.49-.21s-.37-.06-.57-.06Z"/>
  </g>
  <g>
    <circle class="cls-4" cx="235.18" cy="48.3" r="13.56"/>
    <path class="cls-9" d="M238.15,48.85h-1.04v3h-1.12v-3h-3.86v-1.23l3.9-4.49h1.08v4.79h1.04v.94ZM235.99,47.91v-3.41l-2.94,3.41h2.94Z"/>
  </g>
  <g>
    <circle class="cls-3" cx="280.82" cy="48.3" r="13.56"/>
    <path class="cls-9" d="M283.47,49.07c0,.42-.07.81-.2,1.17s-.32.67-.57.93c-.25.27-.55.47-.92.63s-.77.23-1.23.23c-.42,0-.83-.05-1.23-.14s-.75-.21-1.05-.36v-1.24h.08c.09.07.22.14.39.23s.35.16.56.24c.23.08.44.15.63.19s.41.07.64.07.46-.04.69-.13.41-.22.57-.41c.14-.17.25-.37.33-.6s.11-.5.11-.81-.04-.56-.13-.76-.21-.36-.37-.49c-.17-.15-.37-.25-.62-.31s-.52-.09-.82-.09c-.32,0-.63.02-.96.07s-.58.09-.77.14v-4.49h4.79v1.03h-3.66v2.32c.14-.02.28-.03.42-.04s.26-.01.38-.01c.45,0,.82.04,1.13.11s.61.22.89.43c.29.22.51.49.67.82s.23.76.23,1.28Z"/>
  </g>
  <g>
    <circle class="cls-8" cx="375.58" cy="48.3" r="13.56"/>
    <path class="cls-9" d="M378.46,49.02c0,.45-.07.86-.22,1.24s-.35.7-.6.95c-.26.27-.55.47-.88.61s-.68.21-1.07.21-.75-.07-1.08-.2-.61-.33-.85-.59c-.3-.32-.54-.74-.71-1.27s-.25-1.18-.25-1.95.08-1.44.23-2.05.4-1.14.72-1.6c.32-.44.72-.79,1.22-1.03s1.08-.37,1.73-.37c.2,0,.38,0,.54.03s.32.05.45.09v1.12h-.05c-.11-.06-.26-.11-.46-.16s-.41-.07-.64-.07c-.73,0-1.31.25-1.76.74s-.71,1.22-.79,2.18c.28-.2.56-.35.86-.45s.61-.16.96-.16.64.03.89.1.52.21.8.41c.32.24.56.55.71.92s.23.81.23,1.31ZM377.27,49.06c0-.36-.05-.66-.14-.9s-.25-.45-.46-.62c-.15-.12-.33-.21-.52-.25s-.39-.06-.59-.06c-.27,0-.54.04-.8.12s-.51.2-.76.36c0,.09-.01.17-.02.25s0,.18,0,.3c0,.61.06,1.09.18,1.46s.27.65.44.84c.17.18.34.31.52.39s.37.11.58.11c.47,0,.85-.17,1.14-.5s.44-.84.44-1.51Z"/>
  </g>
  <line class="cls-2" x1="30.52" y1="34.73" x2="30.52" y2="61.86"/>
  <polyline class="cls-2" points="469.19 34.73 482.24 48.24 470.14 60.76"/>
  <line class="cls-2" x1="21.27" y1="117.06" x2="30.52" y2="117.06"/>
  <line class="cls-2" x1="21.27" y1="155.37" x2="30.52" y2="155.37"/>
  <line class="cls-2" x1="21.27" y1="193.68" x2="30.52" y2="193.68"/>
  <polyline class="cls-2" points="30.52 112.21 30.52 193.68 483.57 193.68"/>
  <path class="cls-9" d="M17.42,193.48c0,1.57-.23,2.72-.68,3.45s-1.16,1.1-2.11,1.1-1.67-.37-2.12-1.12-.67-1.88-.67-3.42.23-2.73.68-3.45,1.16-1.09,2.11-1.09,1.67.38,2.12,1.13.67,1.89.67,3.4ZM15.92,196.14c.11-.29.19-.65.24-1.1s.07-.96.07-1.56-.02-1.12-.07-1.56-.13-.81-.25-1.1c-.12-.3-.28-.52-.48-.68s-.47-.23-.8-.23-.59.08-.8.23-.37.38-.5.69c-.12.3-.2.67-.24,1.12s-.06.96-.06,1.54c0,.61.02,1.12.06,1.53s.12.78.24,1.1c.11.3.27.53.48.69s.48.24.82.24.59-.08.8-.23.37-.38.49-.69Z"/>
  <path class="cls-9" d="M16.94,159.86h-4.25v-.89h1.58v-5.85h-1.58v-.8c.6,0,1.04-.08,1.32-.25s.44-.49.48-.96h.91v7.86h1.55v.89Z"/>
  <path class="cls-9" d="M17.38,121.38h-5.38v-1.22c.39-.37.75-.72,1.1-1.05s.68-.69,1.01-1.05c.66-.73,1.12-1.32,1.36-1.75s.36-.89.36-1.36c0-.24-.04-.46-.11-.64s-.18-.34-.31-.46c-.14-.12-.29-.21-.47-.26s-.38-.09-.59-.09-.42.03-.63.08-.42.12-.61.2c-.16.07-.32.15-.47.24s-.28.17-.37.24h-.06v-1.24c.24-.12.58-.24,1.01-.35s.84-.17,1.23-.17c.81,0,1.45.22,1.91.65s.69,1.02.69,1.75c0,.34-.04.65-.12.94s-.19.56-.33.8c-.14.25-.32.51-.52.76s-.42.5-.64.74c-.37.4-.78.81-1.23,1.24s-.81.77-1.08,1.02h4.29v1Z"/>
  <polygon class="cls-6" points="30.52 193.68 61.2 193.68 61.2 155.37 92.28 155.37 92.28 116.29 114.28 116.29 114.28 155.37 145.36 155.37 145.36 193.68 203.84 193.68 203.84 155.37 235.18 155.37 235.18 116.29 256.38 116.29 256.38 155.37 280.82 155.37 280.82 116.29 288.26 116.29 288.26 155.37 333.9 155.37 333.9 193.68 375.58 193.68 375.58 154.98 428.67 154.98 428.67 193.68 30.52 193.68"/>
</svg>