<?xml version="1.0" encoding="UTF-8"?>
<svg id="a" data-name="Layer 1" xmlns="http://www.w3.org/2000/svg" width="504.81" height="168.65" viewBox="0 0 504.81 168.65">
  <defs>
    <style>
      .d {
        fill: #f0ff8b;
      }

      .d, .e, .f, .g, .h, .i, .j {
        stroke: #000;
        stroke-miterlimit: 10;
      }

      .k {
        font-family: Consolas, Consolas;
      }

      .k, .l {
        font-size: 12px;
      }

      .e {
        fill: none;
      }

      .f {
        fill: #ff8be8;
      }

      .g {
        fill: #ff8b8b;
      }

      .h {
        fill: #8be2ff;
      }

      .l {
        font-family: Tahoma, Tahoma;
      }

      .i {
        fill: #8bffbc;
      }

      .j {
        fill: #ffb68b;
      }
    </style>
  </defs>
  <line id="b" data-name="source line" class="e" x1="30.52" y1="48.3" x2="482.24" y2="48.3"/>
  <line id="c" data-name="Quiescent line" class="e" x1="30.52" y1="129.88" x2="483.57" y2="129.88"/>
  <text class="k" transform="translate(28.07 25.48)"><tspan x="0" y="0">source</tspan></text>
  <text class="k" transform="translate(28.07 102.2)"><tspan x="0" y="0">outstanding</tspan></text>
  <g>
    <circle class="i" cx="61.2" cy="48.3" r="13.56"/>
    <text class="l" transform="translate(57.92 51.85)"><tspan x="0" y="0">1</tspan></text>
  </g>
  <g>
    <circle class="h" cx="145.36" cy="129.88" r="13.56"/>
    <text class="l" transform="translate(142.09 133.43)"><tspan x="0" y="0">0</tspan></text>
  </g>
  <g>
    <circle class="f" cx="333.9" cy="129.88" r="13.56"/>
    <text class="l" transform="translate(330.63 133.43)"><tspan x="0" y="0">0</tspan></text>
  </g>
  <g>
    <circle class="j" cx="428.67" cy="129.88" r="13.56"/>
    <text class="l" transform="translate(425.39 133.43)"><tspan x="0" y="0">0</tspan></text>
  </g>
  <g>
    <circle class="i" cx="61.2" cy="129.88" r="13.56"/>
    <text class="l" transform="translate(57.92 133.43)"><tspan x="0" y="0">1</tspan></text>
  </g>
  <g>
    <circle class="d" cx="203.84" cy="129.88" r="13.56"/>
    <text class="l" transform="translate(200.56 133.43)"><tspan x="0" y="0">1</tspan></text>
  </g>
  <g>
    <circle class="j" cx="375.58" cy="129.88" r="13.56"/>
    <text class="l" transform="translate(372.31 133.43)"><tspan x="0" y="0">1</tspan></text>
  </g>
  <g>
    <circle class="h" cx="92.28" cy="48.3" r="13.56"/>
    <text class="l" transform="translate(89 51.85)"><tspan x="0" y="0">2</tspan></text>
  </g>
  <g>
    <circle class="d" cx="203.84" cy="48.3" r="13.56"/>
    <text class="l" transform="translate(200.56 51.85)"><tspan x="0" y="0">3</tspan></text>
  </g>
  <g>
    <circle class="g" cx="235.18" cy="48.3" r="13.56"/>
    <text class="l" transform="translate(231.9 51.85)"><tspan x="0" y="0">4</tspan></text>
  </g>
  <g>
    <circle class="f" cx="280.82" cy="48.3" r="13.56"/>
    <text class="l" transform="translate(277.54 51.85)"><tspan x="0" y="0">5</tspan></text>
  </g>
  <g>
    <circle class="j" cx="375.58" cy="48.3" r="13.56"/>
    <text class="l" transform="translate(372.31 51.85)"><tspan x="0" y="0">6</tspan></text>
  </g>
  <line class="e" x1="30.52" y1="34.73" x2="30.52" y2="61.86"/>
  <line class="e" x1="30.52" y1="116.31" x2="30.52" y2="143.44"/>
  <polyline class="e" points="469.19 34.73 482.24 48.24 470.14 60.76"/>
  <polyline class="e" points="470.51 116.31 483.57 129.82 471.46 142.34"/>
  <g>
    <circle class="g" cx="235.18" cy="129.88" r="13.56"/>
    <text class="l" transform="translate(231.9 133.43)"><tspan x="0" y="0">2</tspan></text>
  </g>
  <g>
    <circle class="h" cx="92.28" cy="129.88" r="13.56"/>
    <text class="l" transform="translate(89 133.43)"><tspan x="0" y="0">2</tspan></text>
  </g>
  <g>
    <circle class="i" cx="114.28" cy="129.88" r="13.56"/>
    <text class="l" transform="translate(111.01 133.43)"><tspan x="0" y="0">1</tspan></text>
  </g>
  <g>
    <circle class="d" cx="256.38" cy="129.88" r="13.56"/>
    <text class="l" transform="translate(253.11 133.43)"><tspan x="0" y="0">1</tspan></text>
  </g>
  <g>
    <circle class="f" cx="280.82" cy="129.88" r="13.56"/>
    <text class="l" transform="translate(268.54 133.43)"><tspan x="0" y="0">2</tspan></text>
  </g>
  <g>
    <circle class="g" cx="288.26" cy="129.88" r="13.56"/>
    <text class="l" transform="translate(284.99 133.43)"><tspan x="0" y="0">1</tspan></text>
  </g>
</svg>