<?xml version="1.0" encoding="UTF-8"?>
<svg id="Layer_1" data-name="Layer 1" xmlns="http://www.w3.org/2000/svg" viewBox="0 0 504.81 492.57">
  <defs>
    <style>
      .cls-1 {
        fill: #2c32c8;
      }

      .cls-1, .cls-2 {
        stroke-width: 0px;
      }

      .cls-3 {
        fill: #f0ff8b;
      }

      .cls-3, .cls-4, .cls-5, .cls-6, .cls-7, .cls-8, .cls-9 {
        stroke: #000;
        stroke-miterlimit: 10;
      }

      .cls-4 {
        fill: none;
      }

      .cls-5 {
        fill: #ff8be8;
      }

      .cls-6 {
        fill: #ff8b8b;
      }

      .cls-7 {
        fill: #8be2ff;
      }

      .cls-8 {
        fill: #8bffbc;
      }

      .cls-9 {
        fill: #ffb68b;
      }
    </style>
  </defs>
  <line id="source_line" data-name="source line" class="cls-4" x1="61.2" y1="165.14" x2="112.66" y2="165.4"/>
  <g>
    <circle class="cls-8" cx="114.28" cy="165.14" r="13.56"/>
    <g>
      <path class="cls-2" d="M112.66,165.4h-3.3v-1.06h3.3v1.06Z"/>
      <path class="cls-2" d="M118.77,168.69h-4.25v-.89h1.58v-5.85h-1.58v-.8c.6,0,1.04-.08,1.32-.25s.44-.49.48-.96h.91v7.86h1.55v.89Z"/>
    </g>
  </g>
  <line class="cls-4" x1="61.2" y1="147.76" x2="61.2" y2="182.77"/>
  <line id="Quiescent_line" data-name="Quiescent line" class="cls-4" x1="30.52" y1="449.88" x2="483.57" y2="449.88"/>
  <g>
    <path class="cls-2" d="M34.13,419.22c0,.46-.06.88-.19,1.26s-.31.71-.56.98-.54.48-.88.63-.74.23-1.18.23-.8-.07-1.13-.2-.62-.32-.85-.58-.41-.57-.53-.94-.18-.81-.18-1.29c0-.46.06-.87.19-1.25s.31-.7.56-.97.54-.48.88-.63.74-.23,1.18-.23.8.07,1.13.2.62.32.85.57.41.57.53.94.18.8.18,1.29ZM33.09,419.27c0-.36-.04-.68-.12-.95s-.19-.5-.34-.68-.33-.32-.54-.41-.45-.14-.71-.14c-.3,0-.57.06-.78.18s-.39.28-.53.48-.24.43-.3.69-.1.54-.1.83c0,.36.04.68.12.96s.19.5.34.68.33.32.54.41.45.14.71.14c.3,0,.57-.06.78-.18s.39-.28.53-.48.24-.43.3-.69.1-.54.1-.83Z"/>
    <path class="cls-2" d="M40.33,422.21h-.91l-.04-.95c-.18.2-.34.37-.5.51s-.32.24-.47.33-.31.14-.47.17-.33.05-.5.05c-.61,0-1.06-.18-1.37-.53s-.46-.89-.46-1.61v-3.84h1.02v3.76c0,.9.34,1.35,1.02,1.35.12,0,.25-.02.37-.06s.24-.1.38-.19.27-.22.42-.37.32-.35.51-.59v-3.9h1.02v5.88Z"/>
    <path class="cls-2" d="M46.94,422.12c-.23.06-.47.1-.71.13s-.5.04-.75.04c-.74,0-1.29-.17-1.65-.5s-.54-.85-.54-1.54v-3.07h-1.65v-.86h1.65v-1.62l1.02-.26v1.88h2.64v.86h-2.64v2.99c0,.42.11.74.34.95s.56.31.99.31c.19,0,.39-.01.62-.04s.46-.08.7-.14v.88Z"/>
    <path class="cls-2" d="M53.46,420.6c0,.21-.04.39-.11.56s-.17.31-.29.44-.26.24-.42.33-.33.16-.51.22-.37.1-.56.13-.38.04-.56.04c-.4,0-.76-.02-1.1-.05s-.66-.09-.98-.17v-.94c.34.1.69.17,1.03.22s.68.08,1.01.08c.49,0,.85-.07,1.08-.2s.35-.32.35-.57c0-.11-.02-.2-.06-.28s-.1-.16-.2-.24-.25-.16-.45-.24-.49-.18-.84-.28c-.27-.08-.51-.17-.74-.27s-.42-.22-.58-.35-.29-.3-.39-.48-.14-.4-.14-.65c0-.16.04-.34.11-.54s.21-.38.39-.54.43-.31.74-.42.7-.17,1.17-.17c.23,0,.49.01.77.04s.57.07.88.13v.91c-.32-.08-.62-.14-.91-.17s-.54-.06-.75-.06c-.25,0-.47.02-.64.06s-.31.09-.42.16-.18.15-.23.24-.07.19-.07.3.02.2.06.29.12.17.23.25.27.16.47.24.46.17.78.26c.35.1.64.21.88.32s.43.24.58.37.25.29.32.46.1.37.1.59Z"/>
    <path class="cls-2" d="M60.14,422.12c-.23.06-.47.1-.71.13s-.5.04-.75.04c-.74,0-1.29-.17-1.65-.5s-.54-.85-.54-1.54v-3.07h-1.65v-.86h1.65v-1.62l1.02-.26v1.88h2.64v.86h-2.64v2.99c0,.42.11.74.34.95s.56.31.99.31c.19,0,.39-.01.62-.04s.46-.08.7-.14v.88Z"/>
    <path class="cls-2" d="M65.78,422.21l-.02-.79c-.32.32-.65.54-.98.69s-.68.21-1.04.21c-.34,0-.62-.04-.86-.13s-.43-.2-.59-.35-.27-.33-.34-.53-.11-.42-.11-.66c0-.59.22-1.05.66-1.39s1.09-.5,1.95-.5h1.22v-.52c0-.35-.11-.63-.33-.83s-.56-.31-1.02-.31c-.33,0-.66.04-.98.11s-.66.18-1,.32v-.92c.13-.05.27-.09.43-.14s.33-.08.5-.12.36-.06.55-.08.38-.03.58-.03c.36,0,.68.04.96.12s.53.2.72.36.35.36.45.6.16.53.16.86v4.05h-.91ZM65.67,419.53h-1.29c-.25,0-.47.03-.66.08s-.33.12-.45.22-.2.21-.26.34-.08.28-.08.44c0,.11.02.22.05.33s.09.2.17.28.18.14.3.19.28.07.46.07c.23,0,.5-.07.81-.21s.62-.37.96-.68v-1.04Z"/>
    <path class="cls-2" d="M68.59,416.32h.91l.04.95c.17-.2.34-.37.5-.51s.32-.24.47-.33.31-.14.47-.17.33-.05.5-.05c.61,0,1.06.18,1.37.54s.47.9.47,1.61v3.84h-1.02v-3.76c0-.46-.09-.8-.26-1.02s-.43-.33-.77-.33c-.12,0-.25.02-.37.06s-.24.1-.37.19-.27.22-.42.37-.32.35-.51.59v3.9h-1.02v-5.88Z"/>
    <path class="cls-2" d="M74.89,419.39c0-.5.07-.94.21-1.33s.33-.72.58-.98.55-.47.91-.61.75-.21,1.18-.21c.19,0,.37.01.55.04s.36.06.54.11v-2.47h1.03v8.28h-.91l-.04-1.11c-.29.41-.59.72-.93.92s-.69.3-1.08.3c-.34,0-.63-.07-.89-.21s-.47-.34-.64-.59-.3-.56-.38-.92-.13-.76-.13-1.2ZM75.94,419.32c0,.71.1,1.24.31,1.59s.5.52.89.52c.26,0,.53-.12.82-.35s.59-.57.91-1.03v-2.73c-.17-.08-.35-.14-.56-.18s-.4-.06-.6-.06c-.55,0-.99.18-1.3.54s-.47.92-.47,1.69Z"/>
    <path class="cls-2" d="M83.79,417.17h-1.74v-.84h2.77v5.03h1.75v.85h-4.72v-.85h1.93v-4.19ZM84.15,413.86c.11,0,.22.02.32.06s.18.1.25.17.13.16.17.25.06.2.06.31-.02.21-.06.31-.1.18-.17.26-.16.13-.25.17-.2.06-.32.06-.22-.02-.32-.06-.18-.1-.25-.17-.13-.16-.17-.26-.06-.2-.06-.31.02-.22.06-.31.1-.18.17-.25.16-.13.25-.17.2-.06.32-.06Z"/>
    <path class="cls-2" d="M88.39,416.32h.91l.04.95c.17-.2.34-.37.5-.51s.32-.24.47-.33.31-.14.47-.17.33-.05.5-.05c.61,0,1.06.18,1.37.54s.47.9.47,1.61v3.84h-1.02v-3.76c0-.46-.09-.8-.26-1.02s-.43-.33-.77-.33c-.12,0-.25.02-.37.06s-.24.1-.37.19-.27.22-.42.37-.32.35-.51.59v3.9h-1.02v-5.88Z"/>
    <path class="cls-2" d="M99.22,417.16c.11.14.19.3.25.48s.09.38.09.59c0,.3-.06.58-.17.83s-.27.47-.47.65-.45.32-.73.42-.59.15-.93.15c-.25,0-.48-.03-.69-.08s-.38-.12-.51-.2c-.07.11-.14.21-.19.31s-.08.21-.08.33c0,.15.07.27.21.37s.33.15.57.16l1.55.06c.29,0,.56.04.81.11s.46.16.64.29.32.28.42.46.15.4.15.64c0,.26-.06.51-.17.74s-.29.44-.52.62-.54.32-.9.42-.79.16-1.29.16-.88-.04-1.22-.11-.61-.18-.82-.32-.37-.29-.47-.48-.15-.39-.15-.61c0-.29.07-.54.2-.75s.34-.42.62-.62c-.1-.05-.19-.11-.26-.18s-.13-.15-.18-.23-.08-.17-.11-.27-.04-.19-.04-.28c0-.25.06-.49.18-.7s.26-.41.42-.6c-.07-.09-.14-.18-.2-.26s-.11-.18-.15-.28-.07-.21-.09-.32-.03-.25-.03-.4c0-.3.06-.58.17-.83s.27-.47.47-.65.44-.32.73-.42.6-.15.94-.15c.14,0,.28,0,.42.03s.25.04.35.08h2.13v.83h-.94ZM95.68,423.06c0,.28.14.48.43.61s.69.19,1.21.19c.32,0,.6-.03.82-.09s.4-.14.53-.23.23-.21.29-.33.09-.25.09-.38c0-.24-.1-.41-.29-.53s-.49-.18-.9-.2l-1.54-.05c-.13.09-.24.17-.32.25s-.15.17-.2.25-.08.17-.1.25-.03.17-.03.25ZM95.99,418.25c0,.19.03.36.09.52s.15.29.26.4.25.19.4.25.33.09.51.09c.2,0,.38-.03.54-.1s.29-.16.4-.28.19-.25.25-.4.08-.31.08-.47c0-.19-.03-.36-.09-.52s-.15-.29-.26-.4-.25-.19-.4-.25-.33-.09-.51-.09c-.2,0-.38.04-.54.11s-.29.16-.4.28-.19.25-.25.4-.08.31-.08.47Z"/>
  </g>
  <g>
    <circle class="cls-7" cx="145.36" cy="449.88" r="13.56"/>
    <path class="cls-2" d="M148.15,449.06c0,1.57-.23,2.72-.68,3.45s-1.16,1.1-2.11,1.1-1.67-.37-2.12-1.12-.67-1.88-.67-3.42.23-2.73.68-3.45,1.16-1.09,2.11-1.09,1.67.38,2.12,1.13.67,1.89.67,3.4ZM146.65,451.72c.11-.29.19-.65.24-1.1s.07-.96.07-1.56-.02-1.12-.07-1.56-.13-.81-.25-1.1c-.12-.3-.28-.52-.48-.68s-.47-.23-.8-.23-.59.08-.8.23-.37.38-.5.69c-.12.3-.2.67-.24,1.12s-.06.96-.06,1.54c0,.61.02,1.12.06,1.53s.12.78.24,1.1c.11.3.27.53.48.69s.48.24.82.24.59-.08.8-.23.37-.38.49-.69Z"/>
  </g>
  <g>
    <circle class="cls-5" cx="333.9" cy="449.88" r="13.56"/>
    <path class="cls-2" d="M336.69,449.06c0,1.57-.23,2.72-.68,3.45s-1.16,1.1-2.11,1.1-1.67-.37-2.12-1.12-.67-1.88-.67-3.42.23-2.73.68-3.45,1.16-1.09,2.11-1.09,1.67.38,2.12,1.13.67,1.89.67,3.4ZM335.19,451.72c.11-.29.19-.65.24-1.1s.07-.96.07-1.56-.02-1.12-.07-1.56-.13-.81-.25-1.1c-.12-.3-.28-.52-.48-.68s-.47-.23-.8-.23-.59.08-.8.23-.37.38-.5.69c-.12.3-.2.67-.24,1.12s-.06.96-.06,1.54c0,.61.02,1.12.06,1.53s.12.78.24,1.1c.11.3.27.53.48.69s.48.24.82.24.59-.08.8-.23.37-.38.49-.69Z"/>
  </g>
  <g>
    <circle class="cls-9" cx="428.67" cy="449.88" r="13.56"/>
    <path class="cls-2" d="M431.46,449.06c0,1.57-.23,2.72-.68,3.45s-1.16,1.1-2.11,1.1-1.67-.37-2.12-1.12-.67-1.88-.67-3.42.23-2.73.68-3.45,1.16-1.09,2.11-1.09,1.67.38,2.12,1.13.67,1.89.67,3.4ZM429.96,451.72c.11-.29.19-.65.24-1.1s.07-.96.07-1.56-.02-1.12-.07-1.56-.13-.81-.25-1.1c-.12-.3-.28-.52-.48-.68s-.47-.23-.8-.23-.59.08-.8.23-.37.38-.5.69c-.12.3-.2.67-.24,1.12s-.06.96-.06,1.54c0,.61.02,1.12.06,1.53s.12.78.24,1.1c.11.3.27.53.48.69s.48.24.82.24.59-.08.8-.23.37-.38.49-.69Z"/>
  </g>
  <g>
    <circle class="cls-8" cx="61.2" cy="449.88" r="13.56"/>
    <path class="cls-2" d="M63.5,453.43h-4.25v-.89h1.58v-5.85h-1.58v-.8c.6,0,1.04-.08,1.32-.25s.44-.49.48-.96h.91v7.86h1.55v.89Z"/>
  </g>
  <g>
    <circle class="cls-3" cx="203.84" cy="449.88" r="13.56"/>
    <path class="cls-2" d="M206.14,453.43h-4.25v-.89h1.58v-5.85h-1.58v-.8c.6,0,1.04-.08,1.32-.25s.44-.49.48-.96h.91v7.86h1.55v.89Z"/>
  </g>
  <g>
    <circle class="cls-9" cx="375.58" cy="449.88" r="13.56"/>
    <path class="cls-2" d="M377.88,453.43h-4.25v-.89h1.58v-5.85h-1.58v-.8c.6,0,1.04-.08,1.32-.25s.44-.49.48-.96h.91v7.86h1.55v.89Z"/>
  </g>
  <line class="cls-4" x1="30.52" y1="436.32" x2="30.52" y2="463.45"/>
  <polyline class="cls-4" points="470.51 436.32 483.57 449.82 471.46 462.34"/>
  <g>
    <circle class="cls-6" cx="235.18" cy="449.88" r="13.56"/>
    <path class="cls-2" d="M237.92,453.43h-5.38v-1.22c.39-.37.75-.72,1.1-1.05s.68-.69,1.01-1.05c.66-.73,1.12-1.32,1.36-1.75s.36-.89.36-1.36c0-.24-.04-.46-.11-.64s-.18-.34-.31-.46c-.14-.12-.29-.21-.47-.26s-.38-.09-.59-.09-.42.03-.63.08-.42.12-.61.2c-.16.07-.32.15-.47.24s-.28.17-.37.24h-.06v-1.24c.24-.12.58-.24,1.01-.35s.84-.17,1.23-.17c.81,0,1.45.22,1.91.65s.69,1.02.69,1.75c0,.34-.04.65-.12.94s-.19.56-.33.8c-.14.25-.32.51-.52.76s-.42.5-.64.74c-.37.4-.78.81-1.23,1.24s-.81.77-1.08,1.02h4.29v1Z"/>
  </g>
  <g>
    <circle class="cls-7" cx="92.28" cy="449.88" r="13.56"/>
    <path class="cls-2" d="M95.03,453.43h-5.38v-1.22c.39-.37.75-.72,1.1-1.05s.68-.69,1.01-1.05c.66-.73,1.12-1.32,1.36-1.75s.36-.89.36-1.36c0-.24-.04-.46-.11-.64s-.18-.34-.31-.46c-.14-.12-.29-.21-.47-.26s-.38-.09-.59-.09-.42.03-.63.08-.42.12-.61.2c-.16.07-.32.15-.47.24s-.28.17-.37.24h-.06v-1.24c.24-.12.58-.24,1.01-.35s.84-.17,1.23-.17c.81,0,1.45.22,1.91.65s.69,1.02.69,1.75c0,.34-.04.65-.12.94s-.19.56-.33.8c-.14.25-.32.51-.52.76s-.42.5-.64.74c-.37.4-.78.81-1.23,1.24s-.81.77-1.08,1.02h4.29v1Z"/>
  </g>
  <g>
    <circle class="cls-8" cx="114.28" cy="449.88" r="13.56"/>
    <path class="cls-2" d="M116.59,453.43h-4.25v-.89h1.58v-5.85h-1.58v-.8c.6,0,1.04-.08,1.32-.25s.44-.49.48-.96h.91v7.86h1.55v.89Z"/>
  </g>
  <g>
    <circle class="cls-3" cx="256.38" cy="449.88" r="13.56"/>
    <path class="cls-2" d="M258.68,453.43h-4.25v-.89h1.58v-5.85h-1.58v-.8c.6,0,1.04-.08,1.32-.25s.44-.49.48-.96h.91v7.86h1.55v.89Z"/>
  </g>
  <g>
    <circle class="cls-5" cx="280.82" cy="449.88" r="13.56"/>
    <path class="cls-2" d="M274.57,453.43h-5.38v-1.22c.39-.37.75-.72,1.1-1.05s.68-.69,1.01-1.05c.66-.73,1.12-1.32,1.36-1.75s.36-.89.36-1.36c0-.24-.04-.46-.11-.64s-.18-.34-.31-.46c-.14-.12-.29-.21-.47-.26s-.38-.09-.59-.09-.42.03-.63.08-.42.12-.61.2c-.16.07-.32.15-.47.24s-.28.17-.37.24h-.06v-1.24c.24-.12.58-.24,1.01-.35s.84-.17,1.23-.17c.81,0,1.45.22,1.91.65s.69,1.02.69,1.75c0,.34-.04.65-.12.94s-.19.56-.33.8c-.14.25-.32.51-.52.76s-.42.5-.64.74c-.37.4-.78.81-1.23,1.24s-.81.77-1.08,1.02h4.29v1Z"/>
  </g>
  <g>
    <circle class="cls-6" cx="288.26" cy="449.88" r="13.56"/>
    <path class="cls-2" d="M290.56,453.43h-4.25v-.89h1.58v-5.85h-1.58v-.8c.6,0,1.04-.08,1.32-.25s.44-.49.48-.96h.91v7.86h1.55v.89Z"/>
  </g>
  <line id="source_line-2" data-name="source line" class="cls-4" x1="30.52" y1="48.3" x2="482.24" y2="48.3"/>
  <g>
    <path class="cls-2" d="M33.67,23.87c0,.21-.04.39-.11.56s-.17.31-.29.44-.26.24-.42.33-.33.16-.51.22-.37.1-.56.13-.38.04-.56.04c-.4,0-.76-.02-1.1-.05s-.66-.09-.98-.17v-.94c.34.1.69.17,1.03.22s.68.08,1.01.08c.49,0,.85-.07,1.08-.2s.35-.32.35-.57c0-.11-.02-.2-.06-.28s-.1-.16-.2-.24-.25-.16-.45-.24-.49-.18-.84-.28c-.27-.08-.51-.17-.74-.27s-.42-.22-.58-.35-.29-.3-.39-.48-.14-.4-.14-.65c0-.16.04-.34.11-.54s.21-.38.39-.54.43-.31.74-.42.7-.17,1.17-.17c.23,0,.49.01.77.04s.57.07.88.13v.91c-.32-.08-.62-.14-.91-.17s-.54-.06-.75-.06c-.25,0-.47.02-.64.06s-.31.09-.42.16-.18.15-.23.24-.07.19-.07.3.02.2.06.29.12.17.23.25.27.16.47.24.46.17.78.26c.35.1.64.21.88.32s.43.24.58.37.25.29.32.46.1.37.1.59Z"/>
    <path class="cls-2" d="M40.73,22.49c0,.46-.06.88-.19,1.26s-.31.71-.56.98-.54.48-.88.63-.74.23-1.18.23-.8-.07-1.13-.2-.62-.32-.85-.58-.41-.57-.53-.94-.18-.81-.18-1.29c0-.46.06-.87.19-1.25s.31-.7.56-.97.54-.48.88-.63.74-.23,1.18-.23.8.07,1.13.2.62.32.85.57.41.57.53.94.18.8.18,1.29ZM39.68,22.54c0-.36-.04-.68-.12-.95s-.19-.5-.34-.68-.33-.32-.54-.41-.45-.14-.71-.14c-.3,0-.57.06-.78.18s-.39.28-.53.48-.24.43-.3.69-.1.54-.1.83c0,.36.04.68.12.96s.19.5.34.68.33.32.54.41.45.14.71.14c.3,0,.57-.06.78-.18s.39-.28.53-.48.24-.43.3-.69.1-.54.1-.83Z"/>
    <path class="cls-2" d="M46.93,25.48h-.91l-.04-.95c-.18.2-.34.37-.5.51s-.32.24-.47.33-.31.14-.47.17-.33.05-.5.05c-.61,0-1.06-.18-1.37-.53s-.46-.89-.46-1.61v-3.84h1.02v3.76c0,.9.34,1.35,1.02,1.35.12,0,.25-.02.37-.06s.24-.1.38-.19.27-.22.42-.37.32-.35.51-.59v-3.9h1.02v5.88Z"/>
    <path class="cls-2" d="M49.04,19.59h.93l.03,1.08c.35-.42.69-.72,1.03-.91s.68-.28,1.02-.28c.61,0,1.07.2,1.39.59s.46.98.44,1.76h-1.03c.01-.52-.06-.89-.23-1.12s-.4-.35-.71-.35c-.14,0-.27.02-.41.07s-.28.13-.43.23-.3.25-.47.41-.34.37-.53.61v3.78h-1.03v-5.88Z"/>
    <path class="cls-2" d="M59.97,25.26c-.27.1-.54.18-.82.23s-.57.07-.86.07c-.93,0-1.65-.25-2.15-.76s-.75-1.24-.75-2.21c0-.46.07-.89.22-1.27s.35-.7.61-.97.57-.48.94-.62.76-.22,1.2-.22c.3,0,.59.02.86.06s.52.11.76.21v.97c-.25-.13-.51-.23-.78-.29s-.54-.09-.82-.09c-.26,0-.51.05-.74.15s-.44.24-.61.43-.31.42-.42.69-.15.57-.15.91c0,.71.17,1.24.52,1.6s.83.53,1.44.53c.28,0,.55-.03.81-.09s.51-.16.75-.28v.95Z"/>
    <path class="cls-2" d="M66.97,22.23c0,.14,0,.27,0,.36s0,.19-.02.28h-4.13c0,.6.17,1.06.5,1.39s.82.48,1.45.48c.17,0,.34,0,.52-.02s.34-.03.5-.06.31-.05.46-.08.28-.06.41-.1v.84c-.28.08-.59.14-.94.19s-.71.07-1.09.07c-.5,0-.94-.07-1.3-.21s-.66-.33-.89-.59-.4-.58-.52-.96-.17-.8-.17-1.28c0-.41.06-.81.18-1.17s.29-.69.52-.97.51-.5.84-.67.71-.25,1.13-.25.77.06,1.09.19.58.31.8.55.38.52.49.86.17.72.17,1.13ZM65.91,22.08c.01-.26-.01-.5-.08-.72s-.16-.4-.29-.56-.29-.28-.49-.37-.42-.13-.68-.13c-.22,0-.43.04-.61.13s-.34.21-.47.36-.24.34-.32.56-.13.46-.15.72h3.09Z"/>
  </g>
  <g>
    <path class="cls-2" d="M34.13,342.11c0,.46-.06.88-.19,1.26s-.31.71-.56.98-.54.48-.88.63-.74.23-1.18.23-.8-.07-1.13-.2-.62-.32-.85-.58-.41-.57-.53-.94-.18-.81-.18-1.29c0-.46.06-.87.19-1.25s.31-.7.56-.97.54-.48.88-.63.74-.23,1.18-.23.8.07,1.13.2.62.32.85.57.41.57.53.94.18.8.18,1.29ZM33.09,342.16c0-.36-.04-.68-.12-.95s-.19-.5-.34-.68-.33-.32-.54-.41-.45-.14-.71-.14c-.3,0-.57.06-.78.18s-.39.28-.53.48-.24.43-.3.69-.1.54-.1.83c0,.36.04.68.12.96s.19.5.34.68.33.32.54.41.45.14.71.14c.3,0,.57-.06.78-.18s.39-.28.53-.48.24-.43.3-.69.1-.54.1-.83Z"/>
    <path class="cls-2" d="M35.61,339.22h.91l.04.95c.17-.2.34-.37.5-.51s.32-.24.47-.33.31-.14.47-.17.33-.05.5-.05c.61,0,1.06.18,1.37.54s.47.9.47,1.61v3.84h-1.02v-3.76c0-.46-.09-.8-.26-1.02s-.43-.33-.77-.33c-.12,0-.25.02-.37.06s-.24.1-.37.19-.27.22-.42.37-.32.35-.51.59v3.9h-1.02v-5.88Z"/>
    <path class="cls-2" d="M47.33,342.11c0,.46-.06.88-.19,1.26s-.31.71-.56.98-.54.48-.88.63-.74.23-1.18.23-.8-.07-1.13-.2-.62-.32-.85-.58-.41-.57-.53-.94-.18-.81-.18-1.29c0-.46.06-.87.19-1.25s.31-.7.56-.97.54-.48.88-.63.74-.23,1.18-.23.8.07,1.13.2.62.32.85.57.41.57.53.94.18.8.18,1.29ZM46.28,342.16c0-.36-.04-.68-.12-.95s-.19-.5-.34-.68-.33-.32-.54-.41-.45-.14-.71-.14c-.3,0-.57.06-.78.18s-.39.28-.53.48-.24.43-.3.69-.1.54-.1.83c0,.36.04.68.12.96s.19.5.34.68.33.32.54.41.45.14.71.14c.3,0,.57-.06.78-.18s.39-.28.53-.48.24-.43.3-.69.1-.54.1-.83Z"/>
    <path class="cls-2" d="M54.02,337.77c-.54-.11-1-.17-1.38-.17-.92,0-1.38.48-1.38,1.44v1.03h2.58v.85h-2.58v4.18h-1.04v-4.18h-1.89v-.85h1.89v-.97c0-1.57.82-2.35,2.45-2.35.41,0,.86.05,1.35.14v.88Z"/>
    <path class="cls-2" d="M60.62,337.77c-.54-.11-1-.17-1.38-.17-.92,0-1.38.48-1.38,1.44v1.03h2.58v.85h-2.58v4.18h-1.04v-4.18h-1.89v-.85h1.89v-.97c0-1.57.82-2.35,2.45-2.35.41,0,.86.05,1.35.14v.88Z"/>
    <path class="cls-2" d="M66.66,343.5c0,.21-.04.39-.11.56s-.17.31-.29.44-.26.24-.42.33-.33.16-.51.22-.37.1-.56.13-.38.04-.56.04c-.4,0-.76-.02-1.1-.05s-.66-.09-.98-.17v-.94c.34.1.69.17,1.03.22s.68.08,1.01.08c.49,0,.85-.07,1.08-.2s.35-.32.35-.57c0-.11-.02-.2-.06-.28s-.1-.16-.2-.24-.25-.16-.45-.24-.49-.18-.84-.28c-.27-.08-.51-.17-.74-.27s-.42-.22-.58-.35-.29-.3-.39-.48-.14-.4-.14-.65c0-.16.04-.34.11-.54s.21-.38.39-.54.43-.31.74-.42.7-.17,1.17-.17c.23,0,.49.01.77.04s.57.07.88.13v.91c-.32-.08-.62-.14-.91-.17s-.54-.06-.75-.06c-.25,0-.47.02-.64.06s-.31.09-.42.16-.18.15-.23.24-.07.19-.07.3.02.2.06.29.12.17.23.25.27.16.47.24.46.17.78.26c.35.1.64.21.88.32s.43.24.58.37.25.29.32.46.1.37.1.59Z"/>
    <path class="cls-2" d="M75.57,347.52h-1.34c-.68-.81-1.21-1.66-1.6-2.57s-.58-1.97-.58-3.2.19-2.26.58-3.18.92-1.78,1.61-2.59h1.34v.06c-.32.29-.62.61-.91.99s-.55.81-.8,1.3c-.23.48-.42,1.01-.57,1.59s-.22,1.19-.22,1.83.07,1.28.21,1.83.33,1.08.58,1.58c.23.48.5.92.8,1.3s.6.72.9.99v.06Z"/>
    <path class="cls-2" d="M79.4,345.25c-.45,0-.86-.07-1.24-.21s-.7-.35-.97-.63-.48-.64-.63-1.06-.22-.93-.22-1.51.08-1.07.23-1.49.36-.77.62-1.05.58-.5.96-.66.8-.23,1.24-.23c.36,0,.71.05,1.04.15s.63.22.89.35v1.24h-.06c-.08-.07-.18-.14-.3-.23s-.27-.17-.45-.26c-.15-.08-.33-.15-.54-.21s-.41-.09-.6-.09c-.57,0-1.03.22-1.37.65s-.52,1.04-.52,1.83.17,1.38.5,1.81.8.65,1.39.65c.36,0,.7-.07,1.03-.22s.61-.34.86-.57h.06v1.24c-.11.05-.25.11-.41.18s-.31.13-.45.16c-.19.05-.36.1-.5.13s-.34.04-.57.04Z"/>
    <path class="cls-2" d="M87.72,341.83c0,1.1-.27,1.95-.8,2.55s-1.24.9-2.12.9-1.63-.31-2.15-.93-.78-1.46-.78-2.52.27-1.94.81-2.55,1.25-.91,2.12-.91,1.59.3,2.12.91.8,1.45.8,2.55ZM86.58,341.83c0-.85-.15-1.48-.46-1.89s-.75-.62-1.32-.62-1.02.21-1.33.62-.47,1.04-.47,1.89.16,1.44.47,1.87.75.64,1.33.64,1-.21,1.32-.62.47-1.04.47-1.88Z"/>
    <path class="cls-2" d="M89.98,345.1h-1.1v-9.12h1.1v9.12Z"/>
    <path class="cls-2" d="M92.75,345.1h-1.1v-9.12h1.1v9.12Z"/>
    <path class="cls-2" d="M97.21,345.25c-1.04,0-1.85-.29-2.43-.88s-.86-1.42-.86-2.5.28-1.92.84-2.55,1.29-.95,2.19-.95c.41,0,.77.06,1.08.18s.59.3.82.55.41.56.54.92.19.8.19,1.33v.6h-4.54c0,.76.19,1.34.57,1.75s.91.6,1.59.6c.24,0,.48-.03.71-.08s.44-.12.63-.21c.2-.09.37-.18.5-.26s.25-.16.34-.24h.06v1.2c-.13.05-.29.11-.48.19s-.36.14-.52.18c-.21.06-.41.1-.58.13s-.39.05-.66.05ZM98.5,341.1c0-.3-.04-.55-.11-.77s-.15-.4-.27-.54c-.13-.16-.29-.29-.5-.38s-.45-.13-.75-.13-.54.04-.75.13-.39.22-.56.38c-.16.17-.29.36-.38.57s-.14.45-.16.73h3.46Z"/>
    <path class="cls-2" d="M103.29,345.25c-.45,0-.86-.07-1.24-.21s-.7-.35-.97-.63-.48-.64-.63-1.06-.22-.93-.22-1.51.08-1.07.23-1.49.36-.77.62-1.05.58-.5.96-.66.8-.23,1.24-.23c.36,0,.71.05,1.04.15s.63.22.89.35v1.24h-.06c-.08-.07-.18-.14-.3-.23s-.27-.17-.45-.26c-.15-.08-.33-.15-.54-.21s-.41-.09-.6-.09c-.57,0-1.03.22-1.37.65s-.52,1.04-.52,1.83.17,1.38.5,1.81.8.65,1.39.65c.36,0,.7-.07,1.03-.22s.61-.34.86-.57h.06v1.24c-.11.05-.25.11-.41.18s-.31.13-.45.16c-.19.05-.36.1-.5.13s-.34.04-.57.04Z"/>
    <path class="cls-2" d="M108.2,345.23c-.6,0-1.07-.17-1.41-.51s-.5-.88-.5-1.62v-3.63h-.74v-.91h.74v-1.88h1.1v1.88h2.03v.91h-2.03v3.11c0,.33,0,.59.02.77s.06.35.13.5c.07.14.17.24.32.31s.35.1.6.1c.18,0,.35-.03.52-.08s.29-.1.36-.13h.06v.99c-.21.06-.42.1-.63.14s-.41.05-.59.05Z"/>
    <path class="cls-2" d="M113.08,345.25c-1.04,0-1.85-.29-2.43-.88s-.86-1.42-.86-2.5.28-1.92.84-2.55,1.29-.95,2.19-.95c.41,0,.77.06,1.08.18s.59.3.82.55.41.56.54.92.19.8.19,1.33v.6h-4.54c0,.76.19,1.34.57,1.75s.91.6,1.59.6c.24,0,.48-.03.71-.08s.44-.12.63-.21c.2-.09.37-.18.5-.26s.25-.16.34-.24h.06v1.2c-.13.05-.29.11-.48.19s-.36.14-.52.18c-.21.06-.41.1-.58.13s-.39.05-.66.05ZM114.37,341.1c0-.3-.04-.55-.11-.77s-.15-.4-.27-.54c-.13-.16-.29-.29-.5-.38s-.45-.13-.75-.13-.54.04-.75.13-.39.22-.56.38c-.16.17-.29.36-.38.57s-.14.45-.16.73h3.46Z"/>
    <path class="cls-2" d="M121.59,345.1h-1.1v-.67c-.17.14-.32.26-.45.36s-.27.18-.44.26c-.16.07-.32.13-.49.17s-.36.06-.59.06c-.36,0-.68-.07-.99-.22s-.56-.37-.77-.65c-.21-.29-.38-.65-.5-1.07s-.18-.91-.18-1.46.07-1.07.22-1.49.35-.79.62-1.1c.24-.29.53-.51.86-.67s.69-.24,1.06-.24c.33,0,.61.04.86.11s.5.18.77.34v-2.84h1.1v9.12ZM120.49,343.51v-3.77c-.27-.13-.52-.22-.74-.28s-.45-.08-.71-.08c-.57,0-1.01.21-1.33.64s-.48,1.04-.48,1.84.12,1.36.37,1.77.64.61,1.18.61c.29,0,.58-.07.87-.2s.57-.31.83-.53Z"/>
    <path class="cls-2" d="M132.43,341.72c0,1.07-.26,1.93-.78,2.58s-1.17.98-1.95.98c-.36,0-.66-.04-.91-.13s-.5-.21-.75-.35l-.07.3h-1.03v-9.12h1.1v3.26c.28-.25.58-.46.9-.62s.69-.25,1.1-.25c.74,0,1.32.3,1.75.89s.64,1.41.64,2.46ZM131.29,341.81c0-.78-.12-1.37-.36-1.78s-.62-.61-1.15-.61c-.3,0-.6.07-.91.21s-.58.32-.83.53v3.75c.28.14.52.23.74.29s.45.08.71.08c.56,0,1-.2,1.32-.6s.48-1.03.48-1.89Z"/>
    <path class="cls-2" d="M138.69,338.56l-3.52,8.96h-1.18l1.17-2.73-2.38-6.23h1.19l1.79,4.85,1.78-4.85h1.15Z"/>
    <path class="cls-1" d="M148.07,343.5c0,.21-.04.39-.11.56s-.17.31-.29.44-.26.24-.42.33-.33.16-.51.22-.37.1-.56.13-.38.04-.56.04c-.4,0-.76-.02-1.1-.05s-.66-.09-.98-.17v-.94c.34.1.69.17,1.03.22s.68.08,1.01.08c.49,0,.85-.07,1.08-.2s.35-.32.35-.57c0-.11-.02-.2-.06-.28s-.1-.16-.2-.24-.25-.16-.45-.24-.49-.18-.84-.28c-.27-.08-.51-.17-.74-.27s-.42-.22-.58-.35-.29-.3-.39-.48-.14-.4-.14-.65c0-.16.04-.34.11-.54s.21-.38.39-.54.43-.31.74-.42.7-.17,1.17-.17c.23,0,.49.01.77.04s.57.07.88.13v.91c-.32-.08-.62-.14-.91-.17s-.54-.06-.75-.06c-.25,0-.47.02-.64.06s-.31.09-.42.16-.18.15-.23.24-.07.19-.07.3.02.2.06.29.12.17.23.25.27.16.47.24.46.17.78.26c.35.1.64.21.88.32s.43.24.58.37.25.29.32.46.1.37.1.59Z"/>
    <path class="cls-1" d="M154.98,341.85c0,.14,0,.27,0,.36s0,.19-.02.28h-4.13c0,.6.17,1.06.5,1.39s.82.48,1.45.48c.17,0,.34,0,.52-.02s.34-.03.5-.06.31-.05.46-.08.28-.06.41-.1v.84c-.28.08-.59.14-.94.19s-.71.07-1.09.07c-.5,0-.94-.07-1.3-.21s-.66-.33-.89-.59-.4-.58-.52-.96-.17-.8-.17-1.28c0-.41.06-.81.18-1.17s.29-.69.52-.97.51-.5.84-.67.71-.25,1.13-.25.77.06,1.09.19.58.31.8.55.38.52.49.86.17.72.17,1.13ZM153.92,341.7c.01-.26-.01-.5-.08-.72s-.16-.4-.29-.56-.29-.28-.49-.37-.42-.13-.68-.13c-.22,0-.43.04-.61.13s-.34.21-.47.36-.24.34-.32.56-.13.46-.15.72h3.09Z"/>
    <path class="cls-1" d="M158.61,337.66h-1.74v-.84h2.77v7.43h1.75v.85h-4.72v-.85h1.93v-6.59Z"/>
    <path class="cls-1" d="M168.17,341.85c0,.14,0,.27,0,.36s0,.19-.02.28h-4.13c0,.6.17,1.06.5,1.39s.82.48,1.45.48c.17,0,.34,0,.52-.02s.34-.03.5-.06.31-.05.46-.08.28-.06.41-.1v.84c-.28.08-.59.14-.94.19s-.71.07-1.09.07c-.5,0-.94-.07-1.3-.21s-.66-.33-.89-.59-.4-.58-.52-.96-.17-.8-.17-1.28c0-.41.06-.81.18-1.17s.29-.69.52-.97.51-.5.84-.67.71-.25,1.13-.25.77.06,1.09.19.58.31.8.55.38.52.49.86.17.72.17,1.13ZM167.11,341.7c.01-.26-.01-.5-.08-.72s-.16-.4-.29-.56-.29-.28-.49-.37-.42-.13-.68-.13c-.22,0-.43.04-.61.13s-.34.21-.47.36-.24.34-.32.56-.13.46-.15.72h3.09Z"/>
    <path class="cls-1" d="M174.37,344.88c-.27.1-.54.18-.82.23s-.57.07-.86.07c-.93,0-1.65-.25-2.15-.76s-.75-1.24-.75-2.21c0-.46.07-.89.22-1.27s.35-.7.61-.97.57-.48.94-.62.76-.22,1.2-.22c.3,0,.59.02.86.06s.52.11.76.21v.97c-.25-.13-.51-.23-.78-.29s-.54-.09-.82-.09c-.26,0-.51.05-.74.15s-.44.24-.61.43-.31.42-.42.69-.15.57-.15.91c0,.71.17,1.24.52,1.6s.83.53,1.44.53c.28,0,.55-.03.81-.09s.51-.16.75-.28v.95Z"/>
    <path class="cls-1" d="M181.14,345.02c-.23.06-.47.1-.71.13s-.5.04-.75.04c-.74,0-1.29-.17-1.65-.5s-.54-.85-.54-1.54v-3.07h-1.65v-.86h1.65v-1.62l1.02-.26v1.88h2.64v.86h-2.64v2.99c0,.42.11.74.34.95s.56.31.99.31c.19,0,.39-.01.62-.04s.46-.08.7-.14v.88Z"/>
    <path class="cls-2" d="M189.3,342.28c0-.5.07-.94.21-1.33s.33-.72.58-.98.55-.47.91-.61.75-.21,1.18-.21c.19,0,.37.01.55.04s.36.06.54.11v-2.47h1.03v8.28h-.91l-.04-1.11c-.29.41-.59.72-.93.92s-.69.3-1.08.3c-.34,0-.63-.07-.89-.21s-.47-.34-.64-.59-.3-.56-.38-.92-.13-.76-.13-1.2ZM190.34,342.22c0,.71.1,1.24.31,1.59s.5.52.89.52c.26,0,.53-.12.82-.35s.59-.57.91-1.03v-2.73c-.17-.08-.35-.14-.56-.18s-.4-.06-.6-.06c-.55,0-.99.18-1.3.54s-.47.92-.47,1.69Z"/>
    <path class="cls-2" d="M201.16,341.85c0,.14,0,.27,0,.36s0,.19-.02.28h-4.13c0,.6.17,1.06.5,1.39s.82.48,1.45.48c.17,0,.34,0,.52-.02s.34-.03.5-.06.31-.05.46-.08.28-.06.41-.1v.84c-.28.08-.59.14-.94.19s-.71.07-1.09.07c-.5,0-.94-.07-1.3-.21s-.66-.33-.89-.59-.4-.58-.52-.96-.17-.8-.17-1.28c0-.41.06-.81.18-1.17s.29-.69.52-.97.51-.5.84-.67.71-.25,1.13-.25.77.06,1.09.19.58.31.8.55.38.52.49.86.17.72.17,1.13ZM200.1,341.7c.01-.26-.01-.5-.08-.72s-.16-.4-.29-.56-.29-.28-.49-.37-.42-.13-.68-.13c-.22,0-.43.04-.61.13s-.34.21-.47.36-.24.34-.32.56-.13.46-.15.72h3.09Z"/>
    <path class="cls-2" d="M204.8,337.66h-1.74v-.84h2.77v7.43h1.75v.85h-4.72v-.85h1.93v-6.59Z"/>
    <path class="cls-2" d="M214.13,345.02c-.23.06-.47.1-.71.13s-.5.04-.75.04c-.74,0-1.29-.17-1.65-.5s-.54-.85-.54-1.54v-3.07h-1.65v-.86h1.65v-1.62l1.02-.26v1.88h2.64v.86h-2.64v2.99c0,.42.11.74.34.95s.56.31.99.31c.19,0,.39-.01.62-.04s.46-.08.7-.14v.88Z"/>
    <path class="cls-2" d="M219.77,345.1l-.02-.79c-.32.32-.65.54-.98.69s-.68.21-1.04.21c-.34,0-.62-.04-.86-.13s-.43-.2-.59-.35-.27-.33-.34-.53-.11-.42-.11-.66c0-.59.22-1.05.66-1.39s1.09-.5,1.95-.5h1.22v-.52c0-.35-.11-.63-.33-.83s-.56-.31-1.02-.31c-.33,0-.66.04-.98.11s-.66.18-1,.32v-.92c.13-.05.27-.09.43-.14s.33-.08.5-.12.36-.06.55-.08.38-.03.58-.03c.36,0,.68.04.96.12s.53.2.72.36.35.36.45.6.16.53.16.86v4.05h-.91ZM219.66,342.42h-1.29c-.25,0-.47.03-.66.08s-.33.12-.45.22-.2.21-.26.34-.08.28-.08.44c0,.11.02.22.05.33s.09.2.17.28.18.14.3.19.28.07.46.07c.23,0,.5-.07.81-.21s.62-.37.96-.68v-1.04Z"/>
    <path class="cls-2" d="M224.58,343.43l-1.64,3.84h-.86l1.03-3.84h1.46Z"/>
    <path class="cls-2" d="M237.76,338.56l-1.66,6.54h-1.02l-1.6-5.04-1.59,5.04h-1.01l-1.68-6.54h1.15l1.15,5.07,1.55-5.07h.91l1.59,5.07,1.09-5.07h1.11Z"/>
    <path class="cls-2" d="M243.88,345.1h-1.1v-3.73c0-.3-.01-.58-.04-.84s-.08-.47-.17-.62c-.09-.16-.21-.29-.38-.37s-.38-.12-.66-.12-.56.07-.85.22-.58.34-.85.57v4.89h-1.1v-9.12h1.1v3.3c.33-.29.65-.52.97-.67s.66-.23,1.01-.23c.64,0,1.15.21,1.51.64s.54,1.04.54,1.84v4.25Z"/>
    <path class="cls-2" d="M246.63,337.46h-1.25v-1.14h1.25v1.14ZM246.55,345.1h-1.1v-6.54h1.1v6.54Z"/>
    <path class="cls-2" d="M250.77,345.25c-.45,0-.86-.07-1.24-.21s-.7-.35-.97-.63-.48-.64-.63-1.06-.22-.93-.22-1.51.08-1.07.23-1.49.36-.77.62-1.05.58-.5.96-.66.8-.23,1.24-.23c.36,0,.71.05,1.04.15s.63.22.89.35v1.24h-.06c-.08-.07-.18-.14-.3-.23s-.27-.17-.45-.26c-.15-.08-.33-.15-.54-.21s-.41-.09-.6-.09c-.57,0-1.03.22-1.37.65s-.52,1.04-.52,1.83.17,1.38.5,1.81.8.65,1.39.65c.36,0,.7-.07,1.03-.22s.61-.34.86-.57h.06v1.24c-.11.05-.25.11-.41.18s-.31.13-.45.16c-.19.05-.36.1-.5.13s-.34.04-.57.04Z"/>
    <path class="cls-2" d="M258.85,345.1h-1.1v-3.73c0-.3-.01-.58-.04-.84s-.08-.47-.17-.62c-.09-.16-.21-.29-.38-.37s-.38-.12-.66-.12-.56.07-.85.22-.58.34-.85.57v4.89h-1.1v-9.12h1.1v3.3c.33-.29.65-.52.97-.67s.66-.23,1.01-.23c.64,0,1.15.21,1.51.64s.54,1.04.54,1.84v4.25Z"/>
    <path class="cls-2" d="M269.24,345.1h-1.1v-.73c-.34.3-.66.52-.97.68s-.64.23-1.02.23c-.29,0-.55-.05-.81-.14s-.47-.24-.66-.45-.33-.46-.44-.77-.16-.68-.16-1.12v-4.25h1.1v3.73c0,.35.01.64.04.86s.08.43.17.6c.09.17.21.29.37.37s.38.12.67.12c.27,0,.56-.08.86-.23s.58-.34.84-.56v-4.89h1.1v6.54Z"/>
    <path class="cls-2" d="M272.61,345.26c-.44,0-.85-.06-1.23-.18s-.7-.24-.95-.38v-1.24h.06c.09.07.2.16.33.25s.3.18.51.28c.19.09.39.16.62.23s.46.1.7.1c.18,0,.36-.02.56-.06s.35-.09.45-.16c.14-.09.24-.19.3-.29s.09-.25.09-.46c0-.26-.07-.46-.21-.59s-.4-.24-.76-.33c-.14-.04-.32-.08-.55-.12s-.44-.1-.63-.15c-.5-.14-.86-.37-1.09-.67s-.34-.67-.34-1.1c0-.59.22-1.07.67-1.44s1.04-.56,1.78-.56c.36,0,.73.04,1.1.13s.68.2.93.34v1.18h-.06c-.28-.22-.59-.4-.94-.53s-.69-.19-1.05-.19-.67.08-.92.23-.38.38-.38.69c0,.27.07.48.22.61s.39.25.71.33c.16.04.35.08.55.13s.41.09.64.14c.48.12.85.32,1.09.6s.37.66.37,1.15c0,.28-.06.55-.17.8s-.27.47-.49.65c-.23.2-.5.34-.79.45s-.67.15-1.11.15Z"/>
    <path class="cls-2" d="M279.03,345.25c-1.04,0-1.85-.29-2.43-.88s-.86-1.42-.86-2.5.28-1.92.84-2.55,1.29-.95,2.19-.95c.41,0,.77.06,1.08.18s.59.3.82.55.41.56.54.92.19.8.19,1.33v.6h-4.54c0,.76.19,1.34.57,1.75s.91.6,1.59.6c.24,0,.48-.03.71-.08s.44-.12.63-.21c.2-.09.37-.18.5-.26s.25-.16.34-.24h.06v1.2c-.13.05-.29.11-.48.19s-.36.14-.52.18c-.21.06-.41.1-.58.13s-.39.05-.66.05ZM280.32,341.1c0-.3-.04-.55-.11-.77s-.15-.4-.27-.54c-.13-.16-.29-.29-.5-.38s-.45-.13-.75-.13-.54.04-.75.13-.39.22-.56.38c-.16.17-.29.36-.38.57s-.14.45-.16.73h3.46Z"/>
    <path class="cls-2" d="M284.28,345.26c-.44,0-.85-.06-1.23-.18s-.7-.24-.95-.38v-1.24h.06c.09.07.2.16.33.25s.3.18.51.28c.19.09.39.16.62.23s.46.1.7.1c.18,0,.36-.02.56-.06s.35-.09.45-.16c.14-.09.24-.19.3-.29s.09-.25.09-.46c0-.26-.07-.46-.21-.59s-.4-.24-.76-.33c-.14-.04-.32-.08-.55-.12s-.44-.1-.63-.15c-.5-.14-.86-.37-1.09-.67s-.34-.67-.34-1.1c0-.59.22-1.07.67-1.44s1.04-.56,1.78-.56c.36,0,.73.04,1.1.13s.68.2.93.34v1.18h-.06c-.28-.22-.59-.4-.94-.53s-.69-.19-1.05-.19-.67.08-.92.23-.38.38-.38.69c0,.27.07.48.22.61s.39.25.71.33c.16.04.35.08.55.13s.41.09.64.14c.48.12.85.32,1.09.6s.37.66.37,1.15c0,.28-.06.55-.17.8s-.27.47-.49.65c-.23.2-.5.34-.79.45s-.67.15-1.11.15Z"/>
    <path class="cls-2" d="M296.66,343.03c0,.36-.07.68-.22.96s-.36.5-.62.68-.58.32-.96.41-.78.13-1.23.13c-.2,0-.41,0-.61-.02s-.39-.04-.58-.06-.36-.05-.52-.08-.31-.06-.45-.1v-1.01c.29.11.62.2.99.26s.78.09,1.25.09c.34,0,.62-.03.86-.08s.43-.13.58-.23.26-.23.33-.38.1-.32.1-.51c0-.21-.06-.38-.17-.53s-.27-.28-.45-.39-.4-.22-.64-.32-.49-.19-.74-.3-.5-.21-.74-.33-.45-.26-.64-.42-.34-.35-.45-.57-.17-.48-.17-.78c0-.26.05-.52.16-.77s.28-.48.51-.68.53-.36.89-.48.79-.18,1.29-.18c.13,0,.27,0,.42.02s.3.03.46.05.31.05.46.07.29.06.42.09v.94c-.3-.09-.6-.15-.9-.2s-.59-.07-.87-.07c-.6,0-1.04.1-1.32.3s-.42.47-.42.8c0,.21.06.38.17.53s.27.28.45.4.4.22.64.32.49.19.74.3.5.21.74.33.45.26.64.43.34.36.45.58.17.49.17.79Z"/>
    <path class="cls-2" d="M303.32,341.85c0,.14,0,.27,0,.36s0,.19-.02.28h-4.13c0,.6.17,1.06.5,1.39s.82.48,1.45.48c.17,0,.34,0,.52-.02s.34-.03.5-.06.31-.05.46-.08.28-.06.41-.1v.84c-.28.08-.59.14-.94.19s-.71.07-1.09.07c-.5,0-.94-.07-1.3-.21s-.66-.33-.89-.59-.4-.58-.52-.96-.17-.8-.17-1.28c0-.41.06-.81.18-1.17s.29-.69.52-.97.51-.5.84-.67.71-.25,1.13-.25.77.06,1.09.19.58.31.8.55.38.52.49.86.17.72.17,1.13ZM302.26,341.7c.01-.26-.01-.5-.08-.72s-.16-.4-.29-.56-.29-.28-.49-.37-.42-.13-.68-.13c-.22,0-.43.04-.61.13s-.34.21-.47.36-.24.34-.32.56-.13.46-.15.72h3.09Z"/>
    <path class="cls-2" d="M306.95,337.66h-1.74v-.84h2.77v7.43h1.75v.85h-4.72v-.85h1.93v-6.59Z"/>
    <path class="cls-2" d="M316.52,341.85c0,.14,0,.27,0,.36s0,.19-.02.28h-4.13c0,.6.17,1.06.5,1.39s.82.48,1.45.48c.17,0,.34,0,.52-.02s.34-.03.5-.06.31-.05.46-.08.28-.06.41-.1v.84c-.28.08-.59.14-.94.19s-.71.07-1.09.07c-.5,0-.94-.07-1.3-.21s-.66-.33-.89-.59-.4-.58-.52-.96-.17-.8-.17-1.28c0-.41.06-.81.18-1.17s.29-.69.52-.97.51-.5.84-.67.71-.25,1.13-.25.77.06,1.09.19.58.31.8.55.38.52.49.86.17.72.17,1.13ZM315.46,341.7c.01-.26-.01-.5-.08-.72s-.16-.4-.29-.56-.29-.28-.49-.37-.42-.13-.68-.13c-.22,0-.43.04-.61.13s-.34.21-.47.36-.24.34-.32.56-.13.46-.15.72h3.09Z"/>
    <path class="cls-2" d="M322.72,344.88c-.27.1-.54.18-.82.23s-.57.07-.86.07c-.93,0-1.65-.25-2.15-.76s-.75-1.24-.75-2.21c0-.46.07-.89.22-1.27s.35-.7.61-.97.57-.48.94-.62.76-.22,1.2-.22c.3,0,.59.02.86.06s.52.11.76.21v.97c-.25-.13-.51-.23-.78-.29s-.54-.09-.82-.09c-.26,0-.51.05-.74.15s-.44.24-.61.43-.31.42-.42.69-.15.57-.15.91c0,.71.17,1.24.52,1.6s.83.53,1.44.53c.28,0,.55-.03.81-.09s.51-.16.75-.28v.95Z"/>
    <path class="cls-2" d="M329.48,345.02c-.23.06-.47.1-.71.13s-.5.04-.75.04c-.74,0-1.29-.17-1.65-.5s-.54-.85-.54-1.54v-3.07h-1.65v-.86h1.65v-1.62l1.02-.26v1.88h2.64v.86h-2.64v2.99c0,.42.11.74.34.95s.56.31.99.31c.19,0,.39-.01.62-.04s.46-.08.7-.14v.88Z"/>
    <path class="cls-2" d="M336.71,345.1h-1.02l-.15-4.78-.06-1.83-.36,1.07-1.13,3.05h-.72l-1.08-2.93-.36-1.18-.02,1.92-.13,4.69h-.98l.38-7.66h1.24l1.03,2.88.33.97.32-.97,1.08-2.88h1.27l.37,7.66Z"/>
    <path class="cls-2" d="M341.72,345.1l-.02-.79c-.32.32-.65.54-.98.69s-.68.21-1.04.21c-.34,0-.62-.04-.86-.13s-.43-.2-.59-.35-.27-.33-.34-.53-.11-.42-.11-.66c0-.59.22-1.05.66-1.39s1.09-.5,1.95-.5h1.22v-.52c0-.35-.11-.63-.33-.83s-.56-.31-1.02-.31c-.33,0-.66.04-.98.11s-.66.18-1,.32v-.92c.13-.05.27-.09.43-.14s.33-.08.5-.12.36-.06.55-.08.38-.03.58-.03c.36,0,.68.04.96.12s.53.2.72.36.35.36.45.6.16.53.16.86v4.05h-.91ZM341.61,342.42h-1.29c-.25,0-.47.03-.66.08s-.33.12-.45.22-.2.21-.26.34-.08.28-.08.44c0,.11.02.22.05.33s.09.2.17.28.18.14.3.19.28.07.46.07c.23,0,.5-.07.81-.21s.62-.37.96-.68v-1.04Z"/>
    <path class="cls-2" d="M344.54,339.22h.91l.04.95c.17-.2.34-.37.5-.51s.32-.24.47-.33.31-.14.47-.17.33-.05.5-.05c.61,0,1.06.18,1.37.54s.47.9.47,1.61v3.84h-1.02v-3.76c0-.46-.09-.8-.26-1.02s-.43-.33-.77-.33c-.12,0-.25.02-.37.06s-.24.1-.37.19-.27.22-.42.37-.32.35-.51.59v3.9h-1.02v-5.88Z"/>
    <path class="cls-2" d="M356.37,339.22l-2,5.26c-.21.54-.42,1-.64,1.38s-.46.7-.72.95-.55.43-.86.55-.66.18-1.05.18c-.1,0-.19,0-.28,0s-.17,0-.27-.02v-.93c.09.01.18.02.28.03s.21.01.32.01c.19,0,.36-.03.52-.08s.32-.14.46-.27.28-.28.42-.48.26-.43.39-.71l-2.35-5.88h1.16l1.49,3.89.3.91.34-.94,1.38-3.87h1.12Z"/>
    <path class="cls-2" d="M360.75,341.75c0,1.21-.19,2.27-.58,3.18s-.92,1.78-1.61,2.58h-1.34v-.06c.3-.27.6-.6.91-.99s.57-.83.8-1.3c.24-.5.43-1.04.58-1.6s.21-1.17.21-1.82-.07-1.25-.22-1.83-.34-1.1-.57-1.59-.51-.92-.81-1.31-.6-.71-.9-.98v-.06h1.34c.68.81,1.21,1.67,1.6,2.58s.58,1.97.58,3.19Z"/>
  </g>
  <g>
    <path class="cls-1" d="M33.2,83.73c-.45-.09-.83-.14-1.15-.14-.77,0-1.15.4-1.15,1.2v.86h2.15v.71h-2.15v3.48h-.86v-3.48h-1.58v-.71h1.58v-.81c0-1.3.68-1.96,2.04-1.96.34,0,.71.04,1.12.12v.73Z"/>
    <path class="cls-1" d="M34.55,84.93h.78l.02.9c.29-.35.58-.6.86-.76s.57-.23.85-.23c.51,0,.89.17,1.15.49.26.33.38.82.36,1.46h-.86c0-.43-.05-.74-.19-.93-.14-.19-.33-.29-.59-.29-.11,0-.23.02-.34.06-.12.04-.23.11-.36.2-.12.09-.25.2-.39.34-.14.14-.28.31-.44.51v3.15h-.86v-4.9Z"/>
    <path class="cls-1" d="M44.12,87.35c0,.38-.05.73-.16,1.05s-.26.59-.46.82c-.2.23-.45.4-.74.53-.29.12-.62.19-.99.19s-.67-.05-.94-.16c-.28-.11-.51-.27-.71-.48-.19-.21-.34-.47-.44-.79s-.15-.67-.15-1.08c0-.38.05-.73.16-1.04.11-.31.26-.58.46-.81.2-.23.45-.4.74-.53.29-.13.62-.19.99-.19s.67.05.94.16c.28.11.51.27.71.48s.34.47.44.78.15.67.15,1.07ZM43.25,87.39c0-.3-.03-.57-.1-.79-.07-.23-.16-.42-.29-.57s-.27-.27-.45-.34c-.18-.08-.38-.12-.59-.12-.25,0-.47.05-.65.15-.18.1-.33.23-.44.4s-.2.36-.25.58-.08.45-.08.69c0,.3.03.57.1.8.07.23.16.42.29.57s.27.26.45.34c.18.08.37.11.6.11.25,0,.47-.05.65-.15.18-.1.33-.23.44-.4s.2-.36.25-.58.08-.45.08-.7Z"/>
    <path class="cls-1" d="M48.84,89.84v-3.52c0-.15,0-.28-.02-.38s-.03-.17-.05-.23c-.02-.06-.06-.1-.09-.12-.04-.02-.08-.03-.14-.03-.06,0-.13.02-.18.06s-.11.1-.18.19-.13.2-.21.35c-.08.14-.17.32-.27.53v3.15h-.78v-3.43c0-.18,0-.32-.02-.43-.01-.11-.03-.2-.05-.26-.02-.06-.06-.1-.1-.13-.04-.02-.09-.03-.14-.03-.06,0-.11.02-.17.05-.05.03-.11.09-.17.18-.06.08-.13.2-.21.35s-.17.33-.28.56v3.15h-.78v-4.9h.65l.04.93c.08-.19.17-.34.25-.47.08-.13.16-.24.25-.31.08-.08.17-.14.27-.18.1-.04.2-.06.32-.06.26,0,.46.09.6.26.14.17.21.44.21.8.08-.17.15-.32.23-.45s.16-.24.24-.33c.09-.09.18-.16.29-.21.1-.05.22-.07.36-.07.62,0,.92.47.92,1.42v3.57h-.78Z"/>
    <path class="cls-2" d="M61.06,91.84h-5.5v-.7h5.5v.7Z"/>
    <path class="cls-1" d="M69.01,85.64h-1.45v-.7h2.31v4.19h1.46v.71h-3.93v-.71h1.61v-3.49ZM69.31,82.88c.09,0,.18.02.26.05s.15.08.21.14c.06.06.11.13.14.21.03.08.05.17.05.26s-.02.18-.05.26c-.03.08-.08.15-.14.21-.06.06-.13.11-.21.14s-.17.05-.26.05-.18-.02-.26-.05-.15-.08-.21-.14c-.06-.06-.11-.13-.14-.21-.03-.08-.05-.17-.05-.26s.02-.18.05-.26c.03-.08.08-.15.14-.21.06-.06.13-.11.21-.14s.17-.05.26-.05Z"/>
    <path class="cls-1" d="M72.84,84.93h.76l.03.79c.14-.17.28-.31.42-.42s.26-.2.39-.27.26-.12.39-.14c.13-.03.27-.04.42-.04.5,0,.89.15,1.15.45s.39.75.39,1.34v3.2h-.85v-3.13c0-.38-.07-.67-.21-.85-.14-.18-.36-.28-.64-.28-.1,0-.21.02-.31.05-.1.03-.2.08-.31.16-.11.08-.22.18-.35.31-.13.13-.27.29-.42.49v3.25h-.85v-4.9Z"/>
    <path class="cls-2" d="M87.71,88.5c0,.17-.03.33-.09.46s-.14.26-.24.36c-.1.11-.22.2-.35.27-.13.08-.28.14-.43.19s-.31.08-.47.11c-.16.02-.32.03-.47.03-.33,0-.64-.01-.92-.04s-.55-.08-.82-.14v-.78c.29.08.57.14.85.19.28.04.56.06.84.06.41,0,.71-.05.9-.17.2-.11.29-.27.29-.47,0-.09-.02-.17-.05-.24-.03-.07-.09-.14-.17-.2s-.21-.13-.38-.2-.4-.15-.7-.23c-.22-.06-.43-.14-.61-.22s-.35-.18-.49-.3c-.14-.11-.24-.25-.32-.4-.08-.15-.12-.33-.12-.54,0-.14.03-.29.1-.45.06-.16.17-.31.32-.45.15-.14.36-.26.62-.35s.59-.14.98-.14c.19,0,.41.01.64.03.23.02.48.06.73.11v.76c-.27-.06-.52-.11-.76-.14-.24-.03-.45-.05-.62-.05-.21,0-.39.02-.53.05-.15.03-.26.08-.35.13-.09.06-.15.12-.19.2-.04.08-.06.16-.06.25s.02.17.05.24c.03.07.1.14.19.21.09.07.22.13.39.2.17.07.38.14.65.22.29.08.53.17.73.27s.36.2.48.31c.12.11.21.24.27.39.05.14.08.31.08.49Z"/>
    <path class="cls-2" d="M89.53,84.93h.78l.02.9c.29-.35.58-.6.86-.76s.57-.23.85-.23c.51,0,.89.17,1.15.49.26.33.38.82.36,1.46h-.86c0-.43-.05-.74-.19-.93-.14-.19-.33-.29-.59-.29-.11,0-.23.02-.34.06-.12.04-.23.11-.36.2-.12.09-.25.2-.39.34-.14.14-.28.31-.44.51v3.15h-.86v-4.9Z"/>
    <path class="cls-2" d="M98.64,89.66c-.22.08-.45.15-.68.19-.23.04-.47.06-.72.06-.77,0-1.37-.21-1.79-.63s-.63-1.03-.63-1.84c0-.39.06-.74.18-1.05.12-.32.29-.59.51-.81s.48-.4.78-.52.64-.18,1-.18c.25,0,.49.02.71.05.22.04.43.09.63.18v.81c-.21-.11-.43-.19-.65-.24-.22-.05-.45-.08-.68-.08-.22,0-.42.04-.62.12s-.36.2-.51.36-.26.35-.35.57-.13.48-.13.76c0,.59.14,1.04.43,1.33.29.29.69.44,1.2.44.23,0,.46-.03.67-.08.22-.05.43-.13.63-.23v.79Z"/>
    <path class="cls-1" d="M33.2,95.73c-.45-.09-.83-.14-1.15-.14-.77,0-1.15.4-1.15,1.2v.86h2.15v.71h-2.15v3.48h-.86v-3.48h-1.58v-.71h1.58v-.81c0-1.3.68-1.96,2.04-1.96.34,0,.71.04,1.12.12v.73Z"/>
    <path class="cls-1" d="M34.55,96.93h.78l.02.9c.29-.35.58-.6.86-.76s.57-.23.85-.23c.51,0,.89.17,1.15.49.26.33.38.82.36,1.46h-.86c0-.43-.05-.74-.19-.93-.14-.19-.33-.29-.59-.29-.11,0-.23.02-.34.06-.12.04-.23.11-.36.2-.12.09-.25.2-.39.34-.14.14-.28.31-.44.51v3.15h-.86v-4.9Z"/>
    <path class="cls-1" d="M44.12,99.35c0,.38-.05.73-.16,1.05s-.26.59-.46.82c-.2.23-.45.4-.74.53-.29.12-.62.19-.99.19s-.67-.05-.94-.16c-.28-.11-.51-.27-.71-.48-.19-.21-.34-.47-.44-.79s-.15-.67-.15-1.08c0-.38.05-.73.16-1.04.11-.31.26-.58.46-.81.2-.23.45-.4.74-.53.29-.13.62-.19.99-.19s.67.05.94.16c.28.11.51.27.71.48s.34.47.44.78.15.67.15,1.07ZM43.25,99.39c0-.3-.03-.57-.1-.79-.07-.23-.16-.42-.29-.57s-.27-.27-.45-.34c-.18-.08-.38-.12-.59-.12-.25,0-.47.05-.65.15-.18.1-.33.23-.44.4s-.2.36-.25.58-.08.45-.08.69c0,.3.03.57.1.8.07.23.16.42.29.57s.27.26.45.34c.18.08.37.11.6.11.25,0,.47-.05.65-.15.18-.1.33-.23.44-.4s.2-.36.25-.58.08-.45.08-.7Z"/>
    <path class="cls-1" d="M48.84,101.84v-3.52c0-.15,0-.28-.02-.38s-.03-.17-.05-.23c-.02-.06-.06-.1-.09-.12-.04-.02-.08-.03-.14-.03-.06,0-.13.02-.18.06s-.11.1-.18.19-.13.2-.21.35c-.08.14-.17.32-.27.53v3.15h-.78v-3.43c0-.18,0-.32-.02-.43-.01-.11-.03-.2-.05-.26-.02-.06-.06-.1-.1-.13-.04-.02-.09-.03-.14-.03-.06,0-.11.02-.17.05-.05.03-.11.09-.17.18-.06.08-.13.2-.21.35s-.17.33-.28.56v3.15h-.78v-4.9h.65l.04.93c.08-.19.17-.34.25-.47.08-.13.16-.24.25-.31.08-.08.17-.14.27-.18.1-.04.2-.06.32-.06.26,0,.46.09.6.26.14.17.21.44.21.8.08-.17.15-.32.23-.45s.16-.24.24-.33c.09-.09.18-.16.29-.21.1-.05.22-.07.36-.07.62,0,.92.47.92,1.42v3.57h-.78Z"/>
    <path class="cls-2" d="M56.09,99.49c0-.42.06-.79.17-1.11.11-.32.28-.6.49-.82.21-.22.46-.39.76-.51.29-.12.62-.17.98-.17.16,0,.31,0,.46.03s.3.05.45.09v-2.06h.85v6.9h-.76l-.03-.93c-.24.35-.49.6-.77.77s-.58.25-.9.25c-.28,0-.53-.06-.74-.18s-.39-.28-.53-.5c-.14-.21-.25-.47-.32-.77-.07-.3-.11-.63-.11-1ZM56.96,99.43c0,.59.09,1.03.26,1.33.17.29.42.44.74.44.21,0,.44-.1.68-.29.24-.19.49-.48.75-.85v-2.28c-.14-.06-.29-.11-.46-.15s-.34-.05-.5-.05c-.46,0-.82.15-1.08.45-.26.3-.39.77-.39,1.41Z"/>
    <path class="cls-2" d="M65.98,99.13c0,.12,0,.22,0,.3,0,.08,0,.16-.01.23h-3.44c0,.5.14.89.42,1.16s.68.4,1.21.4c.14,0,.29,0,.43-.02.14-.01.28-.03.42-.05s.26-.04.38-.07.24-.05.34-.08v.7c-.23.07-.49.12-.78.16-.29.04-.59.06-.91.06-.42,0-.78-.06-1.08-.17-.3-.11-.55-.28-.74-.5-.19-.22-.34-.48-.43-.8-.09-.31-.14-.67-.14-1.07,0-.34.05-.67.15-.98s.24-.58.43-.81c.19-.23.42-.42.7-.55s.59-.21.94-.21.64.05.91.16.49.26.67.46c.18.2.32.44.41.72.09.28.14.6.14.94ZM65.1,99c0-.22-.01-.42-.06-.6s-.13-.34-.24-.47c-.11-.13-.25-.23-.41-.3s-.35-.11-.57-.11c-.19,0-.35.04-.51.11-.15.07-.28.17-.4.3-.11.13-.2.29-.27.47-.07.18-.11.38-.13.6h2.58Z"/>
    <path class="cls-2" d="M69.01,95.64h-1.45v-.7h2.31v6.19h1.46v.71h-3.93v-.71h1.61v-5.49Z"/>
    <path class="cls-2" d="M76.79,101.77c-.19.05-.39.08-.6.11-.21.02-.41.03-.62.03-.62,0-1.07-.14-1.38-.42s-.45-.71-.45-1.28v-2.56h-1.37v-.71h1.37v-1.35l.85-.22v1.57h2.2v.71h-2.2v2.49c0,.35.09.61.28.79.19.17.46.26.83.26.16,0,.33-.01.51-.04s.38-.06.58-.12v.73Z"/>
    <path class="cls-2" d="M81.48,101.84l-.02-.66c-.27.26-.54.45-.81.57s-.56.18-.87.18c-.28,0-.52-.04-.72-.11-.2-.07-.36-.17-.49-.29-.13-.13-.22-.27-.28-.44-.06-.17-.09-.35-.09-.55,0-.49.18-.88.55-1.15s.91-.42,1.62-.42h1.02v-.43c0-.29-.09-.52-.28-.7-.19-.17-.47-.26-.85-.26-.28,0-.55.03-.82.09-.27.06-.55.15-.83.26v-.77c.11-.04.23-.08.36-.11.13-.04.27-.07.42-.1s.3-.05.46-.07c.16-.02.32-.03.48-.03.3,0,.56.03.8.1.24.07.44.17.6.3.16.13.29.3.38.5.09.2.13.44.13.71v3.38h-.76ZM81.39,99.61h-1.08c-.21,0-.39.02-.55.06-.15.04-.28.1-.38.18s-.17.17-.22.28c-.05.11-.07.23-.07.37,0,.09.01.18.04.27.03.09.08.16.14.23.06.07.15.12.25.16s.23.06.38.06c.2,0,.42-.06.67-.18.25-.12.52-.31.8-.56v-.87Z"/>
    <path class="cls-1" d="M91,97.64h-1.45v-.7h2.31v4.19h1.46v.71h-3.93v-.71h1.61v-3.49ZM91.3,94.88c.09,0,.18.02.26.05s.15.08.21.14c.06.06.11.13.14.21.03.08.05.17.05.26s-.02.18-.05.26c-.03.08-.08.15-.14.21-.06.06-.13.11-.21.14s-.17.05-.26.05-.18-.02-.26-.05-.15-.08-.21-.14c-.06-.06-.11-.13-.14-.21-.03-.08-.05-.17-.05-.26s.02-.18.05-.26c.03-.08.08-.15.14-.21.06-.06.13-.11.21-.14s.17-.05.26-.05Z"/>
    <path class="cls-1" d="M94.83,96.93h.76l.03.79c.14-.17.28-.31.42-.42s.26-.2.39-.27.26-.12.39-.14c.13-.03.27-.04.42-.04.5,0,.89.15,1.15.45s.39.75.39,1.34v3.2h-.85v-3.13c0-.38-.07-.67-.21-.85-.14-.18-.36-.28-.64-.28-.1,0-.21.02-.31.05-.1.03-.2.08-.31.16-.11.08-.22.18-.35.31-.13.13-.27.29-.42.49v3.25h-.85v-4.9Z"/>
    <path class="cls-2" d="M110.27,98.6c0,.57-.07,1.07-.2,1.48-.14.42-.32.76-.55,1.03-.23.27-.5.47-.81.61s-.63.2-.97.2c-.41,0-.77-.07-1.07-.22-.3-.15-.56-.36-.76-.64-.2-.28-.35-.62-.45-1.02-.1-.4-.15-.86-.15-1.36,0-.57.07-1.06.2-1.47.13-.42.31-.76.54-1.03.23-.27.5-.47.8-.61s.63-.2.97-.2c.41,0,.77.08,1.07.22.3.15.56.36.76.64s.35.62.45,1.02.15.85.15,1.35ZM109.37,98.67c0-.37-.03-.72-.09-1.03-.06-.31-.15-.58-.28-.8s-.29-.4-.49-.52c-.2-.12-.44-.19-.73-.19s-.51.07-.71.2-.36.31-.49.54c-.13.23-.22.49-.28.8-.06.3-.09.63-.09.97,0,.38.03.72.09,1.03.06.31.15.58.28.8.13.22.29.4.49.52.2.12.44.19.72.19s.51-.07.71-.2.36-.31.49-.54c.13-.23.22-.49.29-.79s.09-.63.09-.97Z"/>
    <path class="cls-2" d="M115.51,99.3c0,.41-.06.77-.17,1.09-.11.32-.27.59-.48.82-.21.22-.46.39-.75.51-.3.12-.63.18-1,.18-.29,0-.59-.03-.89-.08-.3-.05-.6-.14-.9-.26v-6.61h.85v1.9l-.04.91c.24-.33.51-.56.78-.7.28-.14.58-.2.9-.2.28,0,.53.06.74.18s.39.28.53.5c.14.21.25.47.32.77.07.3.11.64.11,1.01ZM114.64,99.34c0-.26-.02-.49-.06-.71s-.1-.4-.18-.55c-.08-.15-.19-.27-.31-.36-.13-.09-.28-.13-.45-.13-.11,0-.22.02-.33.05s-.23.09-.34.17c-.12.08-.24.19-.38.32s-.27.29-.42.49v2.38c.17.07.34.12.51.15.17.04.34.06.49.06.2,0,.38-.03.56-.09.18-.06.33-.17.47-.31.14-.15.24-.34.32-.58s.12-.54.12-.89Z"/>
    <path class="cls-2" d="M120.7,100.5c0,.17-.03.33-.09.46s-.14.26-.24.36c-.1.11-.22.2-.35.27-.13.08-.28.14-.43.19s-.31.08-.47.11c-.16.02-.32.03-.47.03-.33,0-.64-.01-.92-.04s-.55-.08-.82-.14v-.78c.29.08.57.14.85.19.28.04.56.06.84.06.41,0,.71-.05.9-.17.2-.11.29-.27.29-.47,0-.09-.02-.17-.05-.24-.03-.07-.09-.14-.17-.2s-.21-.13-.38-.2-.4-.15-.7-.23c-.22-.06-.43-.14-.61-.22s-.35-.18-.49-.3c-.14-.11-.24-.25-.32-.4-.08-.15-.12-.33-.12-.54,0-.14.03-.29.1-.45.06-.16.17-.31.32-.45.15-.14.36-.26.62-.35s.59-.14.98-.14c.19,0,.41.01.64.03.23.02.48.06.73.11v.76c-.27-.06-.52-.11-.76-.14-.24-.03-.45-.05-.62-.05-.21,0-.39.02-.53.05-.15.03-.26.08-.35.13-.09.06-.15.12-.19.2-.04.08-.06.16-.06.25s.02.17.05.24c.03.07.1.14.19.21.09.07.22.13.39.2.17.07.38.14.65.22.29.08.53.17.73.27s.36.2.48.31c.12.11.21.24.27.39.05.14.08.31.08.49Z"/>
    <path class="cls-2" d="M126.46,99.13c0,.12,0,.22,0,.3,0,.08,0,.16-.01.23h-3.44c0,.5.14.89.42,1.16s.68.4,1.21.4c.14,0,.29,0,.43-.02.14-.01.28-.03.42-.05s.26-.04.38-.07.24-.05.34-.08v.7c-.23.07-.49.12-.78.16-.29.04-.59.06-.91.06-.42,0-.78-.06-1.08-.17-.3-.11-.55-.28-.74-.5-.19-.22-.34-.48-.43-.8-.09-.31-.14-.67-.14-1.07,0-.34.05-.67.15-.98s.24-.58.43-.81c.19-.23.42-.42.7-.55s.59-.21.94-.21.64.05.91.16.49.26.67.46c.18.2.32.44.41.72.09.28.14.6.14.94ZM125.58,99c0-.22-.01-.42-.06-.6s-.13-.34-.24-.47c-.11-.13-.25-.23-.41-.3s-.35-.11-.57-.11c-.19,0-.35.04-.51.11-.15.07-.28.17-.4.3-.11.13-.2.29-.27.47-.07.18-.11.38-.13.6h2.58Z"/>
    <path class="cls-2" d="M128.02,96.93h.78l.02.9c.29-.35.58-.6.86-.76s.57-.23.85-.23c.51,0,.89.17,1.15.49.26.33.38.82.36,1.46h-.86c0-.43-.05-.74-.19-.93-.14-.19-.33-.29-.59-.29-.11,0-.23.02-.34.06-.12.04-.23.11-.36.2-.12.09-.25.2-.39.34-.14.14-.28.31-.44.51v3.15h-.86v-4.9Z"/>
    <path class="cls-2" d="M132.86,96.93h.97l1.2,3.24.26.79.27-.81,1.19-3.22h.93l-1.92,4.9h-.98l-1.92-4.9Z"/>
    <path class="cls-2" d="M141.96,101.84l-.02-.66c-.27.26-.54.45-.81.57s-.56.18-.87.18c-.28,0-.52-.04-.72-.11-.2-.07-.36-.17-.49-.29-.13-.13-.22-.27-.28-.44-.06-.17-.09-.35-.09-.55,0-.49.18-.88.55-1.15s.91-.42,1.62-.42h1.02v-.43c0-.29-.09-.52-.28-.7-.19-.17-.47-.26-.85-.26-.28,0-.55.03-.82.09-.27.06-.55.15-.83.26v-.77c.11-.04.23-.08.36-.11.13-.04.27-.07.42-.1s.3-.05.46-.07c.16-.02.32-.03.48-.03.3,0,.56.03.8.1.24.07.44.17.6.3.16.13.29.3.38.5.09.2.13.44.13.71v3.38h-.76ZM141.87,99.61h-1.08c-.21,0-.39.02-.55.06-.15.04-.28.1-.38.18s-.17.17-.22.28c-.05.11-.07.23-.07.37,0,.09.01.18.04.27.03.09.08.16.14.23.06.07.15.12.25.16s.23.06.38.06c.2,0,.42-.06.67-.18.25-.12.52-.31.8-.56v-.87Z"/>
    <path class="cls-2" d="M148.5,99.3c0,.41-.06.77-.17,1.09-.11.32-.27.59-.48.82-.21.22-.46.39-.75.51-.3.12-.63.18-1,.18-.29,0-.59-.03-.89-.08-.3-.05-.6-.14-.9-.26v-6.61h.85v1.9l-.04.91c.24-.33.51-.56.78-.7.28-.14.58-.2.9-.2.28,0,.53.06.74.18s.39.28.53.5c.14.21.25.47.32.77.07.3.11.64.11,1.01ZM147.63,99.34c0-.26-.02-.49-.06-.71s-.1-.4-.18-.55c-.08-.15-.19-.27-.31-.36-.13-.09-.28-.13-.45-.13-.11,0-.22.02-.33.05s-.23.09-.34.17c-.12.08-.24.19-.38.32s-.27.29-.42.49v2.38c.17.07.34.12.51.15.17.04.34.06.49.06.2,0,.38-.03.56-.09.18-.06.33-.17.47-.31.14-.15.24-.34.32-.58s.12-.54.12-.89Z"/>
    <path class="cls-2" d="M151.48,95.64h-1.45v-.7h2.31v6.19h1.46v.71h-3.93v-.71h1.61v-5.49Z"/>
    <path class="cls-2" d="M159.45,99.13c0,.12,0,.22,0,.3,0,.08,0,.16-.01.23h-3.44c0,.5.14.89.42,1.16s.68.4,1.21.4c.14,0,.29,0,.43-.02.14-.01.28-.03.42-.05s.26-.04.38-.07.24-.05.34-.08v.7c-.23.07-.49.12-.78.16-.29.04-.59.06-.91.06-.42,0-.78-.06-1.08-.17-.3-.11-.55-.28-.74-.5-.19-.22-.34-.48-.43-.8-.09-.31-.14-.67-.14-1.07,0-.34.05-.67.15-.98s.24-.58.43-.81c.19-.23.42-.42.7-.55s.59-.21.94-.21.64.05.91.16.49.26.67.46c.18.2.32.44.41.72.09.28.14.6.14.94ZM158.56,99c0-.22-.01-.42-.06-.6s-.13-.34-.24-.47c-.11-.13-.25-.23-.41-.3s-.35-.11-.57-.11c-.19,0-.35.04-.51.11-.15.07-.28.17-.4.3-.11.13-.2.29-.27.47-.07.18-.11.38-.13.6h2.58Z"/>
    <path class="cls-2" d="M47.28,112.3c.11,0,.22.02.31.06.1.04.19.1.26.18.07.08.13.16.17.26.04.1.06.21.06.32s-.02.21-.06.31-.1.18-.17.26-.16.13-.26.17c-.1.04-.2.06-.31.06s-.22-.02-.32-.06c-.1-.04-.18-.1-.26-.17s-.13-.16-.17-.26-.06-.2-.06-.31.02-.22.06-.32c.04-.1.1-.19.17-.26.07-.07.16-.13.26-.18.1-.04.2-.06.32-.06Z"/>
    <path class="cls-2" d="M55.2,113.84h-.98l-.95-2.04c-.07-.16-.15-.29-.22-.39s-.16-.18-.24-.24c-.09-.06-.18-.1-.28-.13-.1-.03-.22-.04-.34-.04h-.41v2.84h-.87v-6.38h1.71c.37,0,.69.04.96.12.27.08.49.2.66.34s.3.32.38.53c.08.21.12.44.12.69,0,.2-.03.39-.09.56-.06.18-.15.34-.26.48-.12.14-.26.27-.43.38-.17.11-.37.18-.59.24.18.06.33.17.46.33.13.15.25.36.38.62l1.01,2.1ZM53.8,109.21c0-.34-.11-.6-.32-.77-.21-.17-.51-.25-.9-.25h-.82v2.11h.7c.21,0,.39-.02.55-.07.16-.05.3-.12.42-.21s.21-.21.27-.34c.06-.14.1-.29.1-.47Z"/>
    <path class="cls-2" d="M60.48,111.13c0,.12,0,.22,0,.3,0,.08,0,.16-.01.23h-3.44c0,.5.14.89.42,1.16s.68.4,1.21.4c.14,0,.29,0,.43-.02.14-.01.28-.03.42-.05s.26-.04.38-.07.24-.05.34-.08v.7c-.23.07-.49.12-.78.16-.29.04-.59.06-.91.06-.42,0-.78-.06-1.08-.17-.3-.11-.55-.28-.74-.5-.19-.22-.34-.48-.43-.8-.09-.31-.14-.67-.14-1.07,0-.34.05-.67.15-.98s.24-.58.43-.81c.19-.23.42-.42.7-.55s.59-.21.94-.21.64.05.91.16.49.26.67.46c.18.2.32.44.41.72.09.28.14.6.14.94ZM59.6,111c0-.22-.01-.42-.06-.6s-.13-.34-.24-.47c-.11-.13-.25-.23-.41-.3s-.35-.11-.57-.11c-.19,0-.35.04-.51.11-.15.07-.28.17-.4.3-.11.13-.2.29-.27.47-.07.18-.11.38-.13.6h2.58Z"/>
    <path class="cls-2" d="M65.79,113.77c-.19.05-.39.08-.6.11-.21.02-.41.03-.62.03-.62,0-1.07-.14-1.38-.42s-.45-.71-.45-1.28v-2.56h-1.37v-.71h1.37v-1.35l.85-.22v1.57h2.2v.71h-2.2v2.49c0,.35.09.61.28.79.19.17.46.26.83.26.16,0,.33-.01.51-.04s.38-.06.58-.12v.73Z"/>
    <path class="cls-2" d="M71.28,113.84h-.76l-.03-.79c-.15.17-.29.31-.42.42s-.26.2-.39.27-.26.12-.39.14c-.13.03-.27.04-.42.04-.5,0-.89-.15-1.14-.44-.26-.3-.39-.74-.39-1.34v-3.2h.85v3.13c0,.75.28,1.13.85,1.13.1,0,.21-.02.31-.05.1-.03.2-.08.31-.16.11-.08.23-.18.35-.31.13-.13.27-.29.42-.49v-3.25h.85v4.9Z"/>
    <path class="cls-2" d="M73.04,108.93h.78l.02.9c.29-.35.58-.6.86-.76s.57-.23.85-.23c.51,0,.89.17,1.15.49.26.33.38.82.36,1.46h-.86c0-.43-.05-.74-.19-.93-.14-.19-.33-.29-.59-.29-.11,0-.23.02-.34.06-.12.04-.23.11-.36.2-.12.09-.25.2-.39.34-.14.14-.28.31-.44.51v3.15h-.86v-4.9Z"/>
    <path class="cls-2" d="M78.33,108.93h.76l.03.79c.14-.17.28-.31.42-.42s.26-.2.39-.27.26-.12.39-.14c.13-.03.27-.04.42-.04.5,0,.89.15,1.15.45s.39.75.39,1.34v3.2h-.85v-3.13c0-.38-.07-.67-.21-.85-.14-.18-.36-.28-.64-.28-.1,0-.21.02-.31.05-.1.03-.2.08-.31.16-.11.08-.22.18-.35.31-.13.13-.27.29-.42.49v3.25h-.85v-4.9Z"/>
    <path class="cls-2" d="M86.77,115.89c-1.5-1.39-2.25-2.93-2.25-4.61,0-.39.04-.79.12-1.18.08-.39.21-.79.39-1.18.18-.39.41-.79.7-1.18.29-.39.65-.78,1.06-1.17l.49.5c-1.26,1.25-1.89,2.63-1.89,4.15,0,.76.16,1.48.48,2.18.32.7.79,1.35,1.42,1.97l-.51.52Z"/>
    <path class="cls-2" d="M93.42,113.84h-4.01v-.79h1.64v-4.66l-1.53.83-.31-.72,2.03-1.07h.75v5.62h1.43v.79Z"/>
    <path class="cls-2" d="M95.21,114.84c.17,0,.33,0,.48-.04.16-.04.29-.09.41-.16.12-.07.21-.16.29-.26.07-.1.11-.22.11-.36s-.02-.25-.07-.33c-.05-.08-.1-.16-.16-.23-.06-.07-.11-.15-.16-.23-.05-.08-.07-.19-.07-.33,0-.07.01-.14.04-.21.03-.07.07-.14.12-.21.05-.06.12-.11.21-.15s.18-.06.3-.06.22.02.33.07c.11.05.2.12.28.22s.14.22.19.37.07.32.07.52c0,.27-.05.53-.15.78s-.25.47-.44.66c-.2.19-.44.35-.74.46-.29.11-.64.17-1.03.17v-.67Z"/>
    <path class="cls-2" d="M109.71,112.5c0,.17-.03.33-.09.46s-.14.26-.24.36c-.1.11-.22.2-.35.27-.13.08-.28.14-.43.19s-.31.08-.47.11c-.16.02-.32.03-.47.03-.33,0-.64-.01-.92-.04s-.55-.08-.82-.14v-.78c.29.08.57.14.85.19.28.04.56.06.84.06.41,0,.71-.05.9-.17.2-.11.29-.27.29-.47,0-.09-.02-.17-.05-.24-.03-.07-.09-.14-.17-.2s-.21-.13-.38-.2-.4-.15-.7-.23c-.22-.06-.43-.14-.61-.22s-.35-.18-.49-.3c-.14-.11-.24-.25-.32-.4-.08-.15-.12-.33-.12-.54,0-.14.03-.29.1-.45.06-.16.17-.31.32-.45.15-.14.36-.26.62-.35s.59-.14.98-.14c.19,0,.41.01.64.03.23.02.48.06.73.11v.76c-.27-.06-.52-.11-.76-.14-.24-.03-.45-.05-.62-.05-.21,0-.39.02-.53.05-.15.03-.26.08-.35.13-.09.06-.15.12-.19.2-.04.08-.06.16-.06.25s.02.17.05.24c.03.07.1.14.19.21.09.07.22.13.39.2.17.07.38.14.65.22.29.08.53.17.73.27s.36.2.48.31c.12.11.21.24.27.39.05.14.08.31.08.49Z"/>
    <path class="cls-2" d="M115.13,113.66c-.22.08-.45.15-.68.19-.23.04-.47.06-.72.06-.77,0-1.37-.21-1.79-.63s-.63-1.03-.63-1.84c0-.39.06-.74.18-1.05.12-.32.29-.59.51-.81s.48-.4.78-.52.64-.18,1-.18c.25,0,.49.02.71.05.22.04.43.09.63.18v.81c-.21-.11-.43-.19-.65-.24-.22-.05-.45-.08-.68-.08-.22,0-.42.04-.62.12s-.36.2-.51.36-.26.35-.35.57-.13.48-.13.76c0,.59.14,1.04.43,1.33.29.29.69.44,1.2.44.23,0,.46-.03.67-.08.22-.05.43-.13.63-.23v.79Z"/>
    <path class="cls-2" d="M120.76,113.84h-.85v-3.13c0-.38-.07-.66-.21-.85-.14-.19-.34-.28-.61-.28-.11,0-.22.02-.32.05-.1.03-.2.08-.31.16-.11.08-.22.18-.35.31-.13.13-.27.29-.44.49v3.25h-.85v-6.9h.85v2l-.03.77c.13-.16.26-.29.39-.4.13-.11.26-.2.39-.27s.26-.12.39-.15.27-.04.42-.04c.49,0,.87.15,1.13.45s.4.75.4,1.34v3.2Z"/>
    <path class="cls-2" d="M126.46,111.13c0,.12,0,.22,0,.3,0,.08,0,.16-.01.23h-3.44c0,.5.14.89.42,1.16s.68.4,1.21.4c.14,0,.29,0,.43-.02.14-.01.28-.03.42-.05s.26-.04.38-.07.24-.05.34-.08v.7c-.23.07-.49.12-.78.16-.29.04-.59.06-.91.06-.42,0-.78-.06-1.08-.17-.3-.11-.55-.28-.74-.5-.19-.22-.34-.48-.43-.8-.09-.31-.14-.67-.14-1.07,0-.34.05-.67.15-.98s.24-.58.43-.81c.19-.23.42-.42.7-.55s.59-.21.94-.21.64.05.91.16.49.26.67.46c.18.2.32.44.41.72.09.28.14.6.14.94ZM125.58,111c0-.22-.01-.42-.06-.6s-.13-.34-.24-.47c-.11-.13-.25-.23-.41-.3s-.35-.11-.57-.11c-.19,0-.35.04-.51.11-.15.07-.28.17-.4.3-.11.13-.2.29-.27.47-.07.18-.11.38-.13.6h2.58Z"/>
    <path class="cls-2" d="M127.57,111.49c0-.42.06-.79.17-1.11.11-.32.28-.6.49-.82.21-.22.46-.39.76-.51.29-.12.62-.17.98-.17.16,0,.31,0,.46.03s.3.05.45.09v-2.06h.85v6.9h-.76l-.03-.93c-.24.35-.49.6-.77.77s-.58.25-.9.25c-.28,0-.53-.06-.74-.18s-.39-.28-.53-.5c-.14-.21-.25-.47-.32-.77-.07-.3-.11-.63-.11-1ZM128.44,111.43c0,.59.09,1.03.26,1.33.17.29.42.44.74.44.21,0,.44-.1.68-.29.24-.19.49-.48.75-.85v-2.28c-.14-.06-.29-.11-.46-.15s-.34-.05-.5-.05c-.46,0-.82.15-1.08.45-.26.3-.39.77-.39,1.41Z"/>
    <path class="cls-2" d="M137.26,113.84h-.76l-.03-.79c-.15.17-.29.31-.42.42s-.26.2-.39.27-.26.12-.39.14c-.13.03-.27.04-.42.04-.5,0-.89-.15-1.14-.44-.26-.3-.39-.74-.39-1.34v-3.2h.85v3.13c0,.75.28,1.13.85,1.13.1,0,.21-.02.31-.05.1-.03.2-.08.31-.16.11-.08.23-.18.35-.31.13-.13.27-.29.42-.49v-3.25h.85v4.9Z"/>
    <path class="cls-2" d="M140.48,107.64h-1.45v-.7h2.31v6.19h1.46v.71h-3.93v-.71h1.61v-5.49Z"/>
    <path class="cls-2" d="M148.45,111.13c0,.12,0,.22,0,.3,0,.08,0,.16-.01.23h-3.44c0,.5.14.89.42,1.16s.68.4,1.21.4c.14,0,.29,0,.43-.02.14-.01.28-.03.42-.05s.26-.04.38-.07.24-.05.34-.08v.7c-.23.07-.49.12-.78.16-.29.04-.59.06-.91.06-.42,0-.78-.06-1.08-.17-.3-.11-.55-.28-.74-.5-.19-.22-.34-.48-.43-.8-.09-.31-.14-.67-.14-1.07,0-.34.05-.67.15-.98s.24-.58.43-.81c.19-.23.42-.42.7-.55s.59-.21.94-.21.64.05.91.16.49.26.67.46c.18.2.32.44.41.72.09.28.14.6.14.94ZM147.57,111c0-.22-.01-.42-.06-.6s-.13-.34-.24-.47c-.11-.13-.25-.23-.41-.3s-.35-.11-.57-.11c-.19,0-.35.04-.51.11-.15.07-.28.17-.4.3-.11.13-.2.29-.27.47-.07.18-.11.38-.13.6h2.58Z"/>
    <path class="cls-2" d="M150.01,108.93h.78l.02.9c.29-.35.58-.6.86-.76s.57-.23.85-.23c.51,0,.89.17,1.15.49.26.33.38.82.36,1.46h-.86c0-.43-.05-.74-.19-.93-.14-.19-.33-.29-.59-.29-.11,0-.23.02-.34.06-.12.04-.23.11-.36.2-.12.09-.25.2-.39.34-.14.14-.28.31-.44.51v3.15h-.86v-4.9Z"/>
    <path class="cls-2" d="M156.31,106.57c1.5,1.39,2.25,2.94,2.25,4.64,0,.35-.04.72-.11,1.09-.07.38-.19.76-.37,1.16s-.4.8-.7,1.2c-.29.41-.66.82-1.1,1.23l-.49-.5c.63-.63,1.11-1.28,1.42-1.97s.47-1.4.47-2.15c0-1.55-.63-2.94-1.89-4.18l.51-.52Z"/>
    <path class="cls-2" d="M47.28,124.3c.11,0,.22.02.31.06.1.04.19.1.26.18.07.08.13.16.17.26.04.1.06.21.06.32s-.02.21-.06.31-.1.18-.17.26-.16.13-.26.17c-.1.04-.2.06-.31.06s-.22-.02-.32-.06c-.1-.04-.18-.1-.26-.17s-.13-.16-.17-.26-.06-.2-.06-.31.02-.22.06-.32c.04-.1.1-.19.17-.26.07-.07.16-.13.26-.18.1-.04.2-.06.32-.06Z"/>
    <path class="cls-2" d="M54.92,125.6c-.51.21-1.05.32-1.61.32-.9,0-1.59-.27-2.08-.81-.48-.54-.73-1.34-.73-2.39,0-.51.07-.97.2-1.39.13-.41.32-.76.57-1.05s.55-.51.9-.67.75-.23,1.18-.23c.3,0,.57.03.83.08.25.05.5.13.73.23v.85c-.23-.13-.47-.22-.72-.29-.25-.07-.52-.1-.81-.1s-.57.06-.81.17-.45.27-.62.49c-.17.21-.3.47-.39.78s-.14.66-.14,1.05c0,.83.17,1.45.5,1.87s.83.63,1.47.63c.27,0,.54-.03.79-.09s.49-.15.72-.27v.82Z"/>
    <path class="cls-2" d="M60.61,123.35c0,.38-.05.73-.16,1.05s-.26.59-.46.82c-.2.23-.45.4-.74.53-.29.12-.62.19-.99.19s-.67-.05-.94-.16c-.28-.11-.51-.27-.71-.48-.19-.21-.34-.47-.44-.79s-.15-.67-.15-1.08c0-.38.05-.73.16-1.04.11-.31.26-.58.46-.81.2-.23.45-.4.74-.53.29-.13.62-.19.99-.19s.67.05.94.16c.28.11.51.27.71.48s.34.47.44.78.15.67.15,1.07ZM59.74,123.39c0-.3-.03-.57-.1-.79-.07-.23-.16-.42-.29-.57s-.27-.27-.45-.34c-.18-.08-.38-.12-.59-.12-.25,0-.47.05-.65.15-.18.1-.33.23-.44.4s-.2.36-.25.58-.08.45-.08.69c0,.3.03.57.1.8.07.23.16.42.29.57s.27.26.45.34c.18.08.37.11.6.11.25,0,.47-.05.65-.15.18-.1.33-.23.44-.4s.2-.36.25-.58.08-.45.08-.7Z"/>
    <path class="cls-2" d="M61.84,120.93h.76l.03.79c.14-.17.28-.31.42-.42s.26-.2.39-.27.26-.12.39-.14c.13-.03.27-.04.42-.04.5,0,.89.15,1.15.45s.39.75.39,1.34v3.2h-.85v-3.13c0-.38-.07-.67-.21-.85-.14-.18-.36-.28-.64-.28-.1,0-.21.02-.31.05-.1.03-.2.08-.31.16-.11.08-.22.18-.35.31-.13.13-.27.29-.42.49v3.25h-.85v-4.9Z"/>
    <path class="cls-2" d="M71.15,125.66c-.22.08-.45.15-.68.19-.23.04-.47.06-.72.06-.77,0-1.37-.21-1.79-.63s-.63-1.03-.63-1.84c0-.39.06-.74.18-1.05.12-.32.29-.59.51-.81s.48-.4.78-.52.64-.18,1-.18c.25,0,.49.02.71.05.22.04.43.09.63.18v.81c-.21-.11-.43-.19-.65-.24-.22-.05-.45-.08-.68-.08-.22,0-.42.04-.62.12s-.36.2-.51.36-.26.35-.35.57-.13.48-.13.76c0,.59.14,1.04.43,1.33.29.29.69.44,1.2.44.23,0,.46-.03.67-.08.22-.05.43-.13.63-.23v.79Z"/>
    <path class="cls-2" d="M75.99,125.84l-.02-.66c-.27.26-.54.45-.81.57s-.56.18-.87.18c-.28,0-.52-.04-.72-.11-.2-.07-.36-.17-.49-.29-.13-.13-.22-.27-.28-.44-.06-.17-.09-.35-.09-.55,0-.49.18-.88.55-1.15s.91-.42,1.62-.42h1.02v-.43c0-.29-.09-.52-.28-.7-.19-.17-.47-.26-.85-.26-.28,0-.55.03-.82.09-.27.06-.55.15-.83.26v-.77c.11-.04.23-.08.36-.11.13-.04.27-.07.42-.1s.3-.05.46-.07c.16-.02.32-.03.48-.03.3,0,.56.03.8.1.24.07.44.17.6.3.16.13.29.3.38.5.09.2.13.44.13.71v3.38h-.76ZM75.89,123.61h-1.08c-.21,0-.39.02-.55.06-.15.04-.28.1-.38.18s-.17.17-.22.28c-.05.11-.07.23-.07.37,0,.09.01.18.04.27.03.09.08.16.14.23.06.07.15.12.25.16s.23.06.38.06c.2,0,.42-.06.67-.18.25-.12.52-.31.8-.56v-.87Z"/>
    <path class="cls-2" d="M82.29,125.77c-.19.05-.39.08-.6.11-.21.02-.41.03-.62.03-.62,0-1.07-.14-1.38-.42s-.45-.71-.45-1.28v-2.56h-1.37v-.71h1.37v-1.35l.85-.22v1.57h2.2v.71h-2.2v2.49c0,.35.09.61.28.79.19.17.46.26.83.26.16,0,.33-.01.51-.04s.38-.06.58-.12v.73Z"/>
    <path class="cls-2" d="M86.77,127.89c-1.5-1.39-2.25-2.93-2.25-4.61,0-.39.04-.79.12-1.18.08-.39.21-.79.39-1.18.18-.39.41-.79.7-1.18.29-.39.65-.78,1.06-1.17l.49.5c-1.26,1.25-1.89,2.63-1.89,4.15,0,.76.16,1.48.48,2.18.32.7.79,1.35,1.42,1.97l-.51.52Z"/>
    <path class="cls-2" d="M93.78,122.6c0,.57-.07,1.07-.2,1.48-.14.42-.32.76-.55,1.03-.23.27-.5.47-.81.61s-.63.2-.97.2c-.41,0-.77-.07-1.07-.22-.3-.15-.56-.36-.76-.64-.2-.28-.35-.62-.45-1.02-.1-.4-.15-.86-.15-1.36,0-.57.07-1.06.2-1.47.13-.42.31-.76.54-1.03.23-.27.5-.47.8-.61s.63-.2.97-.2c.41,0,.77.08,1.07.22.3.15.56.36.76.64s.35.62.45,1.02.15.85.15,1.35ZM92.88,122.67c0-.37-.03-.72-.09-1.03-.06-.31-.15-.58-.28-.8s-.29-.4-.49-.52c-.2-.12-.44-.19-.73-.19s-.51.07-.71.2-.36.31-.49.54c-.13.23-.22.49-.28.8-.06.3-.09.63-.09.97,0,.38.03.72.09,1.03.06.31.15.58.28.8.13.22.29.4.49.52.2.12.44.19.72.19s.51-.07.71-.2.36-.31.49-.54c.13-.23.22-.49.29-.79s.09-.63.09-.97Z"/>
    <path class="cls-2" d="M99.02,123.3c0,.41-.06.77-.17,1.09-.11.32-.27.59-.48.82-.21.22-.46.39-.75.51-.3.12-.63.18-1,.18-.29,0-.59-.03-.89-.08-.3-.05-.6-.14-.9-.26v-6.61h.85v1.9l-.04.91c.24-.33.51-.56.78-.7.28-.14.58-.2.9-.2.28,0,.53.06.74.18s.39.28.53.5c.14.21.25.47.32.77.07.3.11.64.11,1.01ZM98.15,123.34c0-.26-.02-.49-.06-.71s-.1-.4-.18-.55c-.08-.15-.19-.27-.31-.36-.13-.09-.28-.13-.45-.13-.11,0-.22.02-.33.05s-.23.09-.34.17c-.12.08-.24.19-.38.32s-.27.29-.42.49v2.38c.17.07.34.12.51.15.17.04.34.06.49.06.2,0,.38-.03.56-.09.18-.06.33-.17.47-.31.14-.15.24-.34.32-.58s.12-.54.12-.89Z"/>
    <path class="cls-2" d="M104.21,124.5c0,.17-.03.33-.09.46s-.14.26-.24.36c-.1.11-.22.2-.35.27-.13.08-.28.14-.43.19s-.31.08-.47.11c-.16.02-.32.03-.47.03-.33,0-.64-.01-.92-.04s-.55-.08-.82-.14v-.78c.29.08.57.14.85.19.28.04.56.06.84.06.41,0,.71-.05.9-.17.2-.11.29-.27.29-.47,0-.09-.02-.17-.05-.24-.03-.07-.09-.14-.17-.2s-.21-.13-.38-.2-.4-.15-.7-.23c-.22-.06-.43-.14-.61-.22s-.35-.18-.49-.3c-.14-.11-.24-.25-.32-.4-.08-.15-.12-.33-.12-.54,0-.14.03-.29.1-.45.06-.16.17-.31.32-.45.15-.14.36-.26.62-.35s.59-.14.98-.14c.19,0,.41.01.64.03.23.02.48.06.73.11v.76c-.27-.06-.52-.11-.76-.14-.24-.03-.45-.05-.62-.05-.21,0-.39.02-.53.05-.15.03-.26.08-.35.13-.09.06-.15.12-.19.2-.04.08-.06.16-.06.25s.02.17.05.24c.03.07.1.14.19.21.09.07.22.13.39.2.17.07.38.14.65.22.29.08.53.17.73.27s.36.2.48.31c.12.11.21.24.27.39.05.14.08.31.08.49Z"/>
    <path class="cls-2" d="M109.97,123.13c0,.12,0,.22,0,.3,0,.08,0,.16-.01.23h-3.44c0,.5.14.89.42,1.16s.68.4,1.21.4c.14,0,.29,0,.43-.02.14-.01.28-.03.42-.05s.26-.04.38-.07.24-.05.34-.08v.7c-.23.07-.49.12-.78.16-.29.04-.59.06-.91.06-.42,0-.78-.06-1.08-.17-.3-.11-.55-.28-.74-.5-.19-.22-.34-.48-.43-.8-.09-.31-.14-.67-.14-1.07,0-.34.05-.67.15-.98s.24-.58.43-.81c.19-.23.42-.42.7-.55s.59-.21.94-.21.64.05.91.16.49.26.67.46c.18.2.32.44.41.72.09.28.14.6.14.94ZM109.08,123c0-.22-.01-.42-.06-.6s-.13-.34-.24-.47c-.11-.13-.25-.23-.41-.3s-.35-.11-.57-.11c-.19,0-.35.04-.51.11-.15.07-.28.17-.4.3-.11.13-.2.29-.27.47-.07.18-.11.38-.13.6h2.58Z"/>
    <path class="cls-2" d="M111.52,120.93h.78l.02.9c.29-.35.58-.6.86-.76s.57-.23.85-.23c.51,0,.89.17,1.15.49.26.33.38.82.36,1.46h-.86c0-.43-.05-.74-.19-.93-.14-.19-.33-.29-.59-.29-.11,0-.23.02-.34.06-.12.04-.23.11-.36.2-.12.09-.25.2-.39.34-.14.14-.28.31-.44.51v3.15h-.86v-4.9Z"/>
    <path class="cls-2" d="M116.36,120.93h.97l1.2,3.24.26.79.27-.81,1.19-3.22h.93l-1.92,4.9h-.98l-1.92-4.9Z"/>
    <path class="cls-2" d="M125.47,125.84l-.02-.66c-.27.26-.54.45-.81.57s-.56.18-.87.18c-.28,0-.52-.04-.72-.11-.2-.07-.36-.17-.49-.29-.13-.13-.22-.27-.28-.44-.06-.17-.09-.35-.09-.55,0-.49.18-.88.55-1.15s.91-.42,1.62-.42h1.02v-.43c0-.29-.09-.52-.28-.7-.19-.17-.47-.26-.85-.26-.28,0-.55.03-.82.09-.27.06-.55.15-.83.26v-.77c.11-.04.23-.08.36-.11.13-.04.27-.07.42-.1s.3-.05.46-.07c.16-.02.32-.03.48-.03.3,0,.56.03.8.1.24.07.44.17.6.3.16.13.29.3.38.5.09.2.13.44.13.71v3.38h-.76ZM125.38,123.61h-1.08c-.21,0-.39.02-.55.06-.15.04-.28.1-.38.18s-.17.17-.22.28c-.05.11-.07.23-.07.37,0,.09.01.18.04.27.03.09.08.16.14.23.06.07.15.12.25.16s.23.06.38.06c.2,0,.42-.06.67-.18.25-.12.52-.31.8-.56v-.87Z"/>
    <path class="cls-2" d="M132.01,123.3c0,.41-.06.77-.17,1.09-.11.32-.27.59-.48.82-.21.22-.46.39-.75.51-.3.12-.63.18-1,.18-.29,0-.59-.03-.89-.08-.3-.05-.6-.14-.9-.26v-6.61h.85v1.9l-.04.91c.24-.33.51-.56.78-.7.28-.14.58-.2.9-.2.28,0,.53.06.74.18s.39.28.53.5c.14.21.25.47.32.77.07.3.11.64.11,1.01ZM131.14,123.34c0-.26-.02-.49-.06-.71s-.1-.4-.18-.55c-.08-.15-.19-.27-.31-.36-.13-.09-.28-.13-.45-.13-.11,0-.22.02-.33.05s-.23.09-.34.17c-.12.08-.24.19-.38.32s-.27.29-.42.49v2.38c.17.07.34.12.51.15.17.04.34.06.49.06.2,0,.38-.03.56-.09.18-.06.33-.17.47-.31.14-.15.24-.34.32-.58s.12-.54.12-.89Z"/>
    <path class="cls-2" d="M134.99,119.64h-1.45v-.7h2.31v6.19h1.46v.71h-3.93v-.71h1.61v-5.49Z"/>
    <path class="cls-2" d="M142.95,123.13c0,.12,0,.22,0,.3,0,.08,0,.16-.01.23h-3.44c0,.5.14.89.42,1.16s.68.4,1.21.4c.14,0,.29,0,.43-.02.14-.01.28-.03.42-.05s.26-.04.38-.07.24-.05.34-.08v.7c-.23.07-.49.12-.78.16-.29.04-.59.06-.91.06-.42,0-.78-.06-1.08-.17-.3-.11-.55-.28-.74-.5-.19-.22-.34-.48-.43-.8-.09-.31-.14-.67-.14-1.07,0-.34.05-.67.15-.98s.24-.58.43-.81c.19-.23.42-.42.7-.55s.59-.21.94-.21.64.05.91.16.49.26.67.46c.18.2.32.44.41.72.09.28.14.6.14.94ZM142.07,123c0-.22-.01-.42-.06-.6s-.13-.34-.24-.47c-.11-.13-.25-.23-.41-.3s-.35-.11-.57-.11c-.19,0-.35.04-.51.11-.15.07-.28.17-.4.3-.11.13-.2.29-.27.47-.07.18-.11.38-.13.6h2.58Z"/>
    <path class="cls-2" d="M146.24,124.3c.11,0,.22.02.31.06.1.04.19.1.26.18.07.08.13.16.17.26.04.1.06.21.06.32s-.02.21-.06.31-.1.18-.17.26-.16.13-.26.17c-.1.04-.2.06-.31.06s-.22-.02-.32-.06c-.1-.04-.18-.1-.26-.17s-.13-.16-.17-.26-.06-.2-.06-.31.02-.22.06-.32c.04-.1.1-.19.17-.26.07-.07.16-.13.26-.18.1-.04.2-.06.32-.06Z"/>
    <path class="cls-2" d="M154.16,125.84h-.98l-.95-2.04c-.07-.16-.15-.29-.22-.39s-.16-.18-.24-.24c-.09-.06-.18-.1-.28-.13-.1-.03-.22-.04-.34-.04h-.41v2.84h-.87v-6.38h1.71c.37,0,.69.04.96.12.27.08.49.2.66.34s.3.32.38.53c.08.21.12.44.12.69,0,.2-.03.39-.09.56-.06.18-.15.34-.26.48-.12.14-.26.27-.43.38-.17.11-.37.18-.59.24.18.06.33.17.46.33.13.15.25.36.38.62l1.01,2.1ZM152.77,121.21c0-.34-.11-.6-.32-.77-.21-.17-.51-.25-.9-.25h-.82v2.11h.7c.21,0,.39-.02.55-.07.16-.05.3-.12.42-.21s.21-.21.27-.34c.06-.14.1-.29.1-.47Z"/>
    <path class="cls-2" d="M159.45,123.13c0,.12,0,.22,0,.3,0,.08,0,.16-.01.23h-3.44c0,.5.14.89.42,1.16s.68.4,1.21.4c.14,0,.29,0,.43-.02.14-.01.28-.03.42-.05s.26-.04.38-.07.24-.05.34-.08v.7c-.23.07-.49.12-.78.16-.29.04-.59.06-.91.06-.42,0-.78-.06-1.08-.17-.3-.11-.55-.28-.74-.5-.19-.22-.34-.48-.43-.8-.09-.31-.14-.67-.14-1.07,0-.34.05-.67.15-.98s.24-.58.43-.81c.19-.23.42-.42.7-.55s.59-.21.94-.21.64.05.91.16.49.26.67.46c.18.2.32.44.41.72.09.28.14.6.14.94ZM158.56,123c0-.22-.01-.42-.06-.6s-.13-.34-.24-.47c-.11-.13-.25-.23-.41-.3s-.35-.11-.57-.11c-.19,0-.35.04-.51.11-.15.07-.28.17-.4.3-.11.13-.2.29-.27.47-.07.18-.11.38-.13.6h2.58Z"/>
    <path class="cls-2" d="M164.76,125.77c-.19.05-.39.08-.6.11-.21.02-.41.03-.62.03-.62,0-1.07-.14-1.38-.42s-.45-.71-.45-1.28v-2.56h-1.37v-.71h1.37v-1.35l.85-.22v1.57h2.2v.71h-2.2v2.49c0,.35.09.61.28.79.19.17.46.26.83.26.16,0,.33-.01.51-.04s.38-.06.58-.12v.73Z"/>
    <path class="cls-2" d="M170.24,125.84h-.76l-.03-.79c-.15.17-.29.31-.42.42s-.26.2-.39.27-.26.12-.39.14c-.13.03-.27.04-.42.04-.5,0-.89-.15-1.14-.44-.26-.3-.39-.74-.39-1.34v-3.2h.85v3.13c0,.75.28,1.13.85,1.13.1,0,.21-.02.31-.05.1-.03.2-.08.31-.16.11-.08.23-.18.35-.31.13-.13.27-.29.42-.49v-3.25h.85v4.9Z"/>
    <path class="cls-2" d="M172,120.93h.78l.02.9c.29-.35.58-.6.86-.76s.57-.23.85-.23c.51,0,.89.17,1.15.49.26.33.38.82.36,1.46h-.86c0-.43-.05-.74-.19-.93-.14-.19-.33-.29-.59-.29-.11,0-.23.02-.34.06-.12.04-.23.11-.36.2-.12.09-.25.2-.39.34-.14.14-.28.31-.44.51v3.15h-.86v-4.9Z"/>
    <path class="cls-2" d="M177.3,120.93h.76l.03.79c.14-.17.28-.31.42-.42s.26-.2.39-.27.26-.12.39-.14c.13-.03.27-.04.42-.04.5,0,.89.15,1.15.45s.39.75.39,1.34v3.2h-.85v-3.13c0-.38-.07-.67-.21-.85-.14-.18-.36-.28-.64-.28-.1,0-.21.02-.31.05-.1.03-.2.08-.31.16-.11.08-.22.18-.35.31-.13.13-.27.29-.42.49v3.25h-.85v-4.9Z"/>
    <path class="cls-2" d="M185.73,127.89c-1.5-1.39-2.25-2.93-2.25-4.61,0-.39.04-.79.12-1.18.08-.39.21-.79.39-1.18.18-.39.41-.79.7-1.18.29-.39.65-.78,1.06-1.17l.49.5c-1.26,1.25-1.89,2.63-1.89,4.15,0,.76.16,1.48.48,2.18.32.7.79,1.35,1.42,1.97l-.51.52Z"/>
    <path class="cls-2" d="M191.72,123.58h-2.92v-.8h2.92v.8Z"/>
    <path class="cls-2" d="M197.88,125.84h-4.01v-.79h1.64v-4.66l-1.53.83-.31-.72,2.03-1.07h.75v5.62h1.43v.79Z"/>
    <path class="cls-2" d="M199.67,126.84c.17,0,.33,0,.48-.04.16-.04.29-.09.41-.16.12-.07.21-.16.29-.26.07-.1.11-.22.11-.36s-.02-.25-.07-.33c-.05-.08-.1-.16-.16-.23-.06-.07-.11-.15-.16-.23-.05-.08-.07-.19-.07-.33,0-.07.01-.14.04-.21.03-.07.07-.14.12-.21.05-.06.12-.11.21-.15s.18-.06.3-.06.22.02.33.07c.11.05.2.12.28.22s.14.22.19.37.07.32.07.52c0,.27-.05.53-.15.78s-.25.47-.44.66c-.2.19-.44.35-.74.46-.29.11-.64.17-1.03.17v-.67Z"/>
    <path class="cls-2" d="M214.17,124.5c0,.17-.03.33-.09.46s-.14.26-.24.36c-.1.11-.22.2-.35.27-.13.08-.28.14-.43.19s-.31.08-.47.11c-.16.02-.32.03-.47.03-.33,0-.64-.01-.92-.04s-.55-.08-.82-.14v-.78c.29.08.57.14.85.19.28.04.56.06.84.06.41,0,.71-.05.9-.17.2-.11.29-.27.29-.47,0-.09-.02-.17-.05-.24-.03-.07-.09-.14-.17-.2s-.21-.13-.38-.2-.4-.15-.7-.23c-.22-.06-.43-.14-.61-.22s-.35-.18-.49-.3c-.14-.11-.24-.25-.32-.4-.08-.15-.12-.33-.12-.54,0-.14.03-.29.1-.45.06-.16.17-.31.32-.45.15-.14.36-.26.62-.35s.59-.14.98-.14c.19,0,.41.01.64.03.23.02.48.06.73.11v.76c-.27-.06-.52-.11-.76-.14-.24-.03-.45-.05-.62-.05-.21,0-.39.02-.53.05-.15.03-.26.08-.35.13-.09.06-.15.12-.19.2-.04.08-.06.16-.06.25s.02.17.05.24c.03.07.1.14.19.21.09.07.22.13.39.2.17.07.38.14.65.22.29.08.53.17.73.27s.36.2.48.31c.12.11.21.24.27.39.05.14.08.31.08.49Z"/>
    <path class="cls-2" d="M219.59,125.66c-.22.08-.45.15-.68.19-.23.04-.47.06-.72.06-.77,0-1.37-.21-1.79-.63s-.63-1.03-.63-1.84c0-.39.06-.74.18-1.05.12-.32.29-.59.51-.81s.48-.4.78-.52.64-.18,1-.18c.25,0,.49.02.71.05.22.04.43.09.63.18v.81c-.21-.11-.43-.19-.65-.24-.22-.05-.45-.08-.68-.08-.22,0-.42.04-.62.12s-.36.2-.51.36-.26.35-.35.57-.13.48-.13.76c0,.59.14,1.04.43,1.33.29.29.69.44,1.2.44.23,0,.46-.03.67-.08.22-.05.43-.13.63-.23v.79Z"/>
    <path class="cls-2" d="M225.22,125.84h-.85v-3.13c0-.38-.07-.66-.21-.85-.14-.19-.34-.28-.61-.28-.11,0-.22.02-.32.05-.1.03-.2.08-.31.16-.11.08-.22.18-.35.31-.13.13-.27.29-.44.49v3.25h-.85v-6.9h.85v2l-.03.77c.13-.16.26-.29.39-.4.13-.11.26-.2.39-.27s.26-.12.39-.15.27-.04.42-.04c.49,0,.87.15,1.13.45s.4.75.4,1.34v3.2Z"/>
    <path class="cls-2" d="M230.92,123.13c0,.12,0,.22,0,.3,0,.08,0,.16-.01.23h-3.44c0,.5.14.89.42,1.16s.68.4,1.21.4c.14,0,.29,0,.43-.02.14-.01.28-.03.42-.05s.26-.04.38-.07.24-.05.34-.08v.7c-.23.07-.49.12-.78.16-.29.04-.59.06-.91.06-.42,0-.78-.06-1.08-.17-.3-.11-.55-.28-.74-.5-.19-.22-.34-.48-.43-.8-.09-.31-.14-.67-.14-1.07,0-.34.05-.67.15-.98s.24-.58.43-.81c.19-.23.42-.42.7-.55s.59-.21.94-.21.64.05.91.16.49.26.67.46c.18.2.32.44.41.72.09.28.14.6.14.94ZM230.04,123c0-.22-.01-.42-.06-.6s-.13-.34-.24-.47c-.11-.13-.25-.23-.41-.3s-.35-.11-.57-.11c-.19,0-.35.04-.51.11-.15.07-.28.17-.4.3-.11.13-.2.29-.27.47-.07.18-.11.38-.13.6h2.58Z"/>
    <path class="cls-2" d="M232.03,123.49c0-.42.06-.79.17-1.11.11-.32.28-.6.49-.82.21-.22.46-.39.76-.51.29-.12.62-.17.98-.17.16,0,.31,0,.46.03s.3.05.45.09v-2.06h.85v6.9h-.76l-.03-.93c-.24.35-.49.6-.77.77s-.58.25-.9.25c-.28,0-.53-.06-.74-.18s-.39-.28-.53-.5c-.14-.21-.25-.47-.32-.77-.07-.3-.11-.63-.11-1ZM232.9,123.43c0,.59.09,1.03.26,1.33.17.29.42.44.74.44.21,0,.44-.1.68-.29.24-.19.49-.48.75-.85v-2.28c-.14-.06-.29-.11-.46-.15s-.34-.05-.5-.05c-.46,0-.82.15-1.08.45-.26.3-.39.77-.39,1.41Z"/>
    <path class="cls-2" d="M241.72,125.84h-.76l-.03-.79c-.15.17-.29.31-.42.42s-.26.2-.39.27-.26.12-.39.14c-.13.03-.27.04-.42.04-.5,0-.89-.15-1.14-.44-.26-.3-.39-.74-.39-1.34v-3.2h.85v3.13c0,.75.28,1.13.85,1.13.1,0,.21-.02.31-.05.1-.03.2-.08.31-.16.11-.08.23-.18.35-.31.13-.13.27-.29.42-.49v-3.25h.85v4.9Z"/>
    <path class="cls-2" d="M244.95,119.64h-1.45v-.7h2.31v6.19h1.46v.71h-3.93v-.71h1.61v-5.49Z"/>
    <path class="cls-2" d="M252.92,123.13c0,.12,0,.22,0,.3,0,.08,0,.16-.01.23h-3.44c0,.5.14.89.42,1.16s.68.4,1.21.4c.14,0,.29,0,.43-.02.14-.01.28-.03.42-.05s.26-.04.38-.07.24-.05.34-.08v.7c-.23.07-.49.12-.78.16-.29.04-.59.06-.91.06-.42,0-.78-.06-1.08-.17-.3-.11-.55-.28-.74-.5-.19-.22-.34-.48-.43-.8-.09-.31-.14-.67-.14-1.07,0-.34.05-.67.15-.98s.24-.58.43-.81c.19-.23.42-.42.7-.55s.59-.21.94-.21.64.05.91.16.49.26.67.46c.18.2.32.44.41.72.09.28.14.6.14.94ZM252.03,123c0-.22-.01-.42-.06-.6s-.13-.34-.24-.47c-.11-.13-.25-.23-.41-.3s-.35-.11-.57-.11c-.19,0-.35.04-.51.11-.15.07-.28.17-.4.3-.11.13-.2.29-.27.47-.07.18-.11.38-.13.6h2.58Z"/>
    <path class="cls-2" d="M254.47,120.93h.78l.02.9c.29-.35.58-.6.86-.76s.57-.23.85-.23c.51,0,.89.17,1.15.49.26.33.38.82.36,1.46h-.86c0-.43-.05-.74-.19-.93-.14-.19-.33-.29-.59-.29-.11,0-.23.02-.34.06-.12.04-.23.11-.36.2-.12.09-.25.2-.39.34-.14.14-.28.31-.44.51v3.15h-.86v-4.9Z"/>
    <path class="cls-2" d="M260.77,118.57c1.5,1.39,2.25,2.94,2.25,4.64,0,.35-.04.72-.11,1.09-.07.38-.19.76-.37,1.16s-.4.8-.7,1.2c-.29.41-.66.82-1.1,1.23l-.49-.5c.63-.63,1.11-1.28,1.42-1.97s.47-1.4.47-2.15c0-1.55-.63-2.94-1.89-4.18l.51-.52Z"/>
    <path class="cls-2" d="M267.2,124.3c.11,0,.22.02.31.06.1.04.19.1.26.18.07.08.13.16.17.26.04.1.06.21.06.32s-.02.21-.06.31-.1.18-.17.26-.16.13-.26.17c-.1.04-.2.06-.31.06s-.22-.02-.32-.06c-.1-.04-.18-.1-.26-.17s-.13-.16-.17-.26-.06-.2-.06-.31.02-.22.06-.32c.04-.1.1-.19.17-.26.07-.07.16-.13.26-.18.1-.04.2-.06.32-.06Z"/>
    <path class="cls-2" d="M275.13,122.57c0,.31-.02.6-.07.88-.05.28-.12.54-.23.78-.1.24-.24.46-.41.66-.17.2-.37.37-.61.5-.24.14-.52.25-.84.33-.32.08-.68.11-1.09.11h-1.37v-6.38h1.65c1,0,1.74.26,2.23.77s.73,1.3.73,2.35ZM274.21,122.64c0-.45-.04-.83-.13-1.15s-.21-.56-.39-.76c-.17-.19-.39-.33-.65-.42-.26-.09-.57-.13-.92-.13h-.75v4.9h.65c1.45,0,2.18-.82,2.18-2.45Z"/>
    <path class="cls-2" d="M280.41,123.13c0,.12,0,.22,0,.3,0,.08,0,.16-.01.23h-3.44c0,.5.14.89.42,1.16s.68.4,1.21.4c.14,0,.29,0,.43-.02.14-.01.28-.03.42-.05s.26-.04.38-.07.24-.05.34-.08v.7c-.23.07-.49.12-.78.16-.29.04-.59.06-.91.06-.42,0-.78-.06-1.08-.17-.3-.11-.55-.28-.74-.5-.19-.22-.34-.48-.43-.8-.09-.31-.14-.67-.14-1.07,0-.34.05-.67.15-.98s.24-.58.43-.81c.19-.23.42-.42.7-.55s.59-.21.94-.21.64.05.91.16.49.26.67.46c.18.2.32.44.41.72.09.28.14.6.14.94ZM279.52,123c0-.22-.01-.42-.06-.6s-.13-.34-.24-.47c-.11-.13-.25-.23-.41-.3s-.35-.11-.57-.11c-.19,0-.35.04-.51.11-.15.07-.28.17-.4.3-.11.13-.2.29-.27.47-.07.18-.11.38-.13.6h2.58Z"/>
    <path class="cls-2" d="M283.43,119.64h-1.45v-.7h2.31v6.19h1.46v.71h-3.93v-.71h1.61v-5.49Z"/>
    <path class="cls-2" d="M290.41,125.84l-.02-.66c-.27.26-.54.45-.81.57s-.56.18-.87.18c-.28,0-.52-.04-.72-.11-.2-.07-.36-.17-.49-.29-.13-.13-.22-.27-.28-.44-.06-.17-.09-.35-.09-.55,0-.49.18-.88.55-1.15s.91-.42,1.62-.42h1.02v-.43c0-.29-.09-.52-.28-.7-.19-.17-.47-.26-.85-.26-.28,0-.55.03-.82.09-.27.06-.55.15-.83.26v-.77c.11-.04.23-.08.36-.11.13-.04.27-.07.42-.1s.3-.05.46-.07c.16-.02.32-.03.48-.03.3,0,.56.03.8.1.24.07.44.17.6.3.16.13.29.3.38.5.09.2.13.44.13.71v3.38h-.76ZM290.32,123.61h-1.08c-.21,0-.39.02-.55.06-.15.04-.28.1-.38.18s-.17.17-.22.28c-.05.11-.07.23-.07.37,0,.09.01.18.04.27.03.09.08.16.14.23.06.07.15.12.25.16s.23.06.38.06c.2,0,.42-.06.67-.18.25-.12.52-.31.8-.56v-.87Z"/>
    <path class="cls-2" d="M297.12,120.93l-1.67,4.38c-.17.45-.35.83-.53,1.15s-.38.59-.6.79c-.22.21-.46.36-.72.46s-.55.15-.87.15c-.08,0-.16,0-.23,0-.07,0-.14,0-.22-.01v-.77c.07,0,.15.02.23.03.08,0,.17.01.27.01.16,0,.3-.02.44-.07.14-.04.26-.12.38-.22s.24-.24.35-.4c.11-.16.22-.36.32-.59l-1.96-4.9h.97l1.24,3.24.25.76.28-.78,1.15-3.22h.93Z"/>
    <path class="cls-2" d="M301.19,127.89c-1.5-1.39-2.25-2.93-2.25-4.61,0-.39.04-.79.12-1.18.08-.39.21-.79.39-1.18.18-.39.41-.79.7-1.18.29-.39.65-.78,1.06-1.17l.49.5c-1.26,1.25-1.89,2.63-1.89,4.15,0,.76.16,1.48.48,2.18.32.7.79,1.35,1.42,1.97l-.51.52Z"/>
    <path class="cls-2" d="M307.25,125.84v-3.52c0-.15,0-.28-.02-.38s-.03-.17-.05-.23c-.02-.06-.06-.1-.09-.12-.04-.02-.08-.03-.14-.03-.06,0-.13.02-.18.06s-.11.1-.18.19-.13.2-.21.35c-.08.14-.17.32-.27.53v3.15h-.78v-3.43c0-.18,0-.32-.02-.43-.01-.11-.03-.2-.05-.26-.02-.06-.06-.1-.1-.13-.04-.02-.09-.03-.14-.03-.06,0-.11.02-.17.05-.05.03-.11.09-.17.18-.06.08-.13.2-.21.35s-.17.33-.28.56v3.15h-.78v-4.9h.65l.04.93c.08-.19.17-.34.25-.47.08-.13.16-.24.25-.31.08-.08.17-.14.27-.18.1-.04.2-.06.32-.06.26,0,.46.09.6.26.14.17.21.44.21.8.08-.17.15-.32.23-.45s.16-.24.24-.33c.09-.09.18-.16.29-.21.1-.05.22-.07.36-.07.62,0,.92.47.92,1.42v3.57h-.78Z"/>
    <path class="cls-2" d="M310.92,121.64h-1.45v-.7h2.31v4.19h1.46v.71h-3.93v-.71h1.61v-3.49ZM311.22,118.88c.09,0,.18.02.26.05s.15.08.21.14c.06.06.11.13.14.21.03.08.05.17.05.26s-.02.18-.05.26c-.03.08-.08.15-.14.21-.06.06-.13.11-.21.14s-.17.05-.26.05-.18-.02-.26-.05-.15-.08-.21-.14c-.06-.06-.11-.13-.14-.21-.03-.08-.05-.17-.05-.26s.02-.18.05-.26c.03-.08.08-.15.14-.21.06-.06.13-.11.21-.14s.17-.05.26-.05Z"/>
    <path class="cls-2" d="M314.75,120.93h.76l.03.79c.14-.17.28-.31.42-.42s.26-.2.39-.27.26-.12.39-.14c.13-.03.27-.04.42-.04.5,0,.89.15,1.15.45s.39.75.39,1.34v3.2h-.85v-3.13c0-.38-.07-.67-.21-.85-.14-.18-.36-.28-.64-.28-.1,0-.21.02-.31.05-.1.03-.2.08-.31.16-.11.08-.22.18-.35.31-.13.13-.27.29-.42.49v3.25h-.85v-4.9Z"/>
    <path class="cls-2" d="M321.92,121.64h-1.45v-.7h2.31v4.19h1.46v.71h-3.93v-.71h1.61v-3.49ZM322.22,118.88c.09,0,.18.02.26.05s.15.08.21.14c.06.06.11.13.14.21.03.08.05.17.05.26s-.02.18-.05.26c-.03.08-.08.15-.14.21-.06.06-.13.11-.21.14s-.17.05-.26.05-.18-.02-.26-.05-.15-.08-.21-.14c-.06-.06-.11-.13-.14-.21-.03-.08-.05-.17-.05-.26s.02-.18.05-.26c.03-.08.08-.15.14-.21.06-.06.13-.11.21-.14s.17-.05.26-.05Z"/>
    <path class="cls-2" d="M329.24,125.84v-3.52c0-.15,0-.28-.02-.38s-.03-.17-.05-.23c-.02-.06-.06-.1-.09-.12-.04-.02-.08-.03-.14-.03-.06,0-.13.02-.18.06s-.11.1-.18.19-.13.2-.21.35c-.08.14-.17.32-.27.53v3.15h-.78v-3.43c0-.18,0-.32-.02-.43-.01-.11-.03-.2-.05-.26-.02-.06-.06-.1-.1-.13-.04-.02-.09-.03-.14-.03-.06,0-.11.02-.17.05-.05.03-.11.09-.17.18-.06.08-.13.2-.21.35s-.17.33-.28.56v3.15h-.78v-4.9h.65l.04.93c.08-.19.17-.34.25-.47.08-.13.16-.24.25-.31.08-.08.17-.14.27-.18.1-.04.2-.06.32-.06.26,0,.46.09.6.26.14.17.21.44.21.8.08-.17.15-.32.23-.45s.16-.24.24-.33c.09-.09.18-.16.29-.21.1-.05.22-.07.36-.07.62,0,.92.47.92,1.42v3.57h-.78Z"/>
    <path class="cls-2" d="M335.19,125.84h-.76l-.03-.79c-.15.17-.29.31-.42.42s-.26.2-.39.27-.26.12-.39.14c-.13.03-.27.04-.42.04-.5,0-.89-.15-1.14-.44-.26-.3-.39-.74-.39-1.34v-3.2h.85v3.13c0,.75.28,1.13.85,1.13.1,0,.21-.02.31-.05.1-.03.2-.08.31-.16.11-.08.23-.18.35-.31.13-.13.27-.29.42-.49v-3.25h.85v4.9Z"/>
    <path class="cls-2" d="M340.24,125.84v-3.52c0-.15,0-.28-.02-.38s-.03-.17-.05-.23c-.02-.06-.06-.1-.09-.12-.04-.02-.08-.03-.14-.03-.06,0-.13.02-.18.06s-.11.1-.18.19-.13.2-.21.35c-.08.14-.17.32-.27.53v3.15h-.78v-3.43c0-.18,0-.32-.02-.43-.01-.11-.03-.2-.05-.26-.02-.06-.06-.1-.1-.13-.04-.02-.09-.03-.14-.03-.06,0-.11.02-.17.05-.05.03-.11.09-.17.18-.06.08-.13.2-.21.35s-.17.33-.28.56v3.15h-.78v-4.9h.65l.04.93c.08-.19.17-.34.25-.47.08-.13.16-.24.25-.31.08-.08.17-.14.27-.18.1-.04.2-.06.32-.06.26,0,.46.09.6.26.14.17.21.44.21.8.08-.17.15-.32.23-.45s.16-.24.24-.33c.09-.09.18-.16.29-.21.1-.05.22-.07.36-.07.62,0,.92.47.92,1.42v3.57h-.78Z"/>
    <path class="cls-2" d="M343.77,120.19h-1.47v-.73h3.82v.73h-1.47v4.91h1.47v.74h-3.82v-.74h1.47v-4.91Z"/>
    <path class="cls-2" d="M347.74,120.93h.76l.03.79c.14-.17.28-.31.42-.42s.26-.2.39-.27.26-.12.39-.14c.13-.03.27-.04.42-.04.5,0,.89.15,1.15.45s.39.75.39,1.34v3.2h-.85v-3.13c0-.38-.07-.67-.21-.85-.14-.18-.36-.28-.64-.28-.1,0-.21.02-.31.05-.1.03-.2.08-.31.16-.11.08-.22.18-.35.31-.13.13-.27.29-.42.49v3.25h-.85v-4.9Z"/>
    <path class="cls-2" d="M356.39,125.84l-.02-.66c-.27.26-.54.45-.81.57s-.56.18-.87.18c-.28,0-.52-.04-.72-.11-.2-.07-.36-.17-.49-.29-.13-.13-.22-.27-.28-.44-.06-.17-.09-.35-.09-.55,0-.49.18-.88.55-1.15s.91-.42,1.62-.42h1.02v-.43c0-.29-.09-.52-.28-.7-.19-.17-.47-.26-.85-.26-.28,0-.55.03-.82.09-.27.06-.55.15-.83.26v-.77c.11-.04.23-.08.36-.11.13-.04.27-.07.42-.1s.3-.05.46-.07c.16-.02.32-.03.48-.03.3,0,.56.03.8.1.24.07.44.17.6.3.16.13.29.3.38.5.09.2.13.44.13.71v3.38h-.76ZM356.29,123.61h-1.08c-.21,0-.39.02-.55.06-.15.04-.28.1-.38.18s-.17.17-.22.28c-.05.11-.07.23-.07.37,0,.09.01.18.04.27.03.09.08.16.14.23.06.07.15.12.25.16s.23.06.38.06c.2,0,.42-.06.67-.18.25-.12.52-.31.8-.56v-.87Z"/>
    <path class="cls-2" d="M362.54,125.66c-.22.08-.45.15-.68.19-.23.04-.47.06-.72.06-.77,0-1.37-.21-1.79-.63s-.63-1.03-.63-1.84c0-.39.06-.74.18-1.05.12-.32.29-.59.51-.81s.48-.4.78-.52.64-.18,1-.18c.25,0,.49.02.71.05.22.04.43.09.63.18v.81c-.21-.11-.43-.19-.65-.24-.22-.05-.45-.08-.68-.08-.22,0-.42.04-.62.12s-.36.2-.51.36-.26.35-.35.57-.13.48-.13.76c0,.59.14,1.04.43,1.33.29.29.69.44,1.2.44.23,0,.46-.03.67-.08.22-.05.43-.13.63-.23v.79Z"/>
    <path class="cls-2" d="M368.18,125.77c-.19.05-.39.08-.6.11-.21.02-.41.03-.62.03-.62,0-1.07-.14-1.38-.42s-.45-.71-.45-1.28v-2.56h-1.37v-.71h1.37v-1.35l.85-.22v1.57h2.2v.71h-2.2v2.49c0,.35.09.61.28.79.19.17.46.26.83.26.16,0,.33-.01.51-.04s.38-.06.58-.12v.73Z"/>
    <path class="cls-2" d="M371.4,121.64h-1.45v-.7h2.31v4.19h1.46v.71h-3.93v-.71h1.61v-3.49ZM371.7,118.88c.09,0,.18.02.26.05s.15.08.21.14c.06.06.11.13.14.21.03.08.05.17.05.26s-.02.18-.05.26c-.03.08-.08.15-.14.21-.06.06-.13.11-.21.14s-.17.05-.26.05-.18-.02-.26-.05-.15-.08-.21-.14c-.06-.06-.11-.13-.14-.21-.03-.08-.05-.17-.05-.26s.02-.18.05-.26c.03-.08.08-.15.14-.21.06-.06.13-.11.21-.14s.17-.05.26-.05Z"/>
    <path class="cls-2" d="M374.77,120.93h.97l1.2,3.24.26.79.27-.81,1.19-3.22h.93l-1.92,4.9h-.98l-1.92-4.9Z"/>
    <path class="cls-2" d="M382.4,121.64h-1.45v-.7h2.31v4.19h1.46v.71h-3.93v-.71h1.61v-3.49ZM382.7,118.88c.09,0,.18.02.26.05s.15.08.21.14c.06.06.11.13.14.21.03.08.05.17.05.26s-.02.18-.05.26c-.03.08-.08.15-.14.21-.06.06-.13.11-.21.14s-.17.05-.26.05-.18-.02-.26-.05-.15-.08-.21-.14c-.06-.06-.11-.13-.14-.21-.03-.08-.05-.17-.05-.26s.02-.18.05-.26c.03-.08.08-.15.14-.21.06-.06.13-.11.21-.14s.17-.05.26-.05Z"/>
    <path class="cls-2" d="M390.18,125.77c-.19.05-.39.08-.6.11-.21.02-.41.03-.62.03-.62,0-1.07-.14-1.38-.42s-.45-.71-.45-1.28v-2.56h-1.37v-.71h1.37v-1.35l.85-.22v1.57h2.2v.71h-2.2v2.49c0,.35.09.61.28.79.19.17.46.26.83.26.16,0,.33-.01.51-.04s.38-.06.58-.12v.73Z"/>
    <path class="cls-2" d="M396.08,120.93l-1.67,4.38c-.17.45-.35.83-.53,1.15s-.38.59-.6.79c-.22.21-.46.36-.72.46s-.55.15-.87.15c-.08,0-.16,0-.23,0-.07,0-.14,0-.22-.01v-.77c.07,0,.15.02.23.03.08,0,.17.01.27.01.16,0,.3-.02.44-.07.14-.04.26-.12.38-.22s.24-.24.35-.4c.11-.16.22-.36.32-.59l-1.96-4.9h.97l1.24,3.24.25.76.28-.78,1.15-3.22h.93Z"/>
    <path class="cls-2" d="M401.4,121.41c0,.26-.05.52-.15.77-.1.25-.25.48-.45.69-.21.2-.47.37-.79.49-.32.12-.7.19-1.14.19h-.79v2.29h-.87v-6.38h1.8c.32,0,.62.04.91.11.29.07.54.18.76.34s.39.36.52.61c.13.25.2.55.2.9ZM400.5,121.45c0-.41-.13-.72-.4-.94-.27-.22-.64-.33-1.13-.33h-.89v2.63h.81c.51,0,.91-.11,1.19-.34s.42-.56.42-1.02Z"/>
    <path class="cls-2" d="M406.86,123.13c0,.12,0,.22,0,.3,0,.08,0,.16-.01.23h-3.44c0,.5.14.89.42,1.16s.68.4,1.21.4c.14,0,.29,0,.43-.02.14-.01.28-.03.42-.05s.26-.04.38-.07.24-.05.34-.08v.7c-.23.07-.49.12-.78.16-.29.04-.59.06-.91.06-.42,0-.78-.06-1.08-.17-.3-.11-.55-.28-.74-.5-.19-.22-.34-.48-.43-.8-.09-.31-.14-.67-.14-1.07,0-.34.05-.67.15-.98s.24-.58.43-.81c.19-.23.42-.42.7-.55s.59-.21.94-.21.64.05.91.16.49.26.67.46c.18.2.32.44.41.72.09.28.14.6.14.94ZM405.98,123c0-.22-.01-.42-.06-.6s-.13-.34-.24-.47c-.11-.13-.25-.23-.41-.3s-.35-.11-.57-.11c-.19,0-.35.04-.51.11-.15.07-.28.17-.4.3-.11.13-.2.29-.27.47-.07.18-.11.38-.13.6h2.58Z"/>
    <path class="cls-2" d="M408.42,120.93h.78l.02.9c.29-.35.58-.6.86-.76s.57-.23.85-.23c.51,0,.89.17,1.15.49.26.33.38.82.36,1.46h-.86c0-.43-.05-.74-.19-.93-.14-.19-.33-.29-.59-.29-.11,0-.23.02-.34.06-.12.04-.23.11-.36.2-.12.09-.25.2-.39.34-.14.14-.28.31-.44.51v3.15h-.86v-4.9Z"/>
    <path class="cls-2" d="M415.39,121.64h-1.45v-.7h2.31v4.19h1.46v.71h-3.93v-.71h1.61v-3.49ZM415.68,118.88c.09,0,.18.02.26.05s.15.08.21.14c.06.06.11.13.14.21.03.08.05.17.05.26s-.02.18-.05.26c-.03.08-.08.15-.14.21-.06.06-.13.11-.21.14s-.17.05-.26.05-.18-.02-.26-.05-.15-.08-.21-.14c-.06-.06-.11-.13-.14-.21-.03-.08-.05-.17-.05-.26s.02-.18.05-.26c.03-.08.08-.15.14-.21.06-.06.13-.11.21-.14s.17-.05.26-.05Z"/>
    <path class="cls-2" d="M423.48,123.35c0,.38-.05.73-.16,1.05s-.26.59-.46.82c-.2.23-.45.4-.74.53-.29.12-.62.19-.99.19s-.67-.05-.94-.16c-.28-.11-.51-.27-.71-.48-.19-.21-.34-.47-.44-.79s-.15-.67-.15-1.08c0-.38.05-.73.16-1.04.11-.31.26-.58.46-.81.2-.23.45-.4.74-.53.29-.13.62-.19.99-.19s.67.05.94.16c.28.11.51.27.71.48s.34.47.44.78.15.67.15,1.07ZM422.61,123.39c0-.3-.03-.57-.1-.79-.07-.23-.16-.42-.29-.57s-.27-.27-.45-.34c-.18-.08-.38-.12-.59-.12-.25,0-.47.05-.65.15-.18.1-.33.23-.44.4s-.2.36-.25.58-.08.45-.08.69c0,.3.03.57.1.8.07.23.16.42.29.57s.27.26.45.34c.18.08.37.11.6.11.25,0,.47-.05.65-.15.18-.1.33-.23.44-.4s.2-.36.25-.58.08-.45.08-.7Z"/>
    <path class="cls-2" d="M424.46,123.49c0-.42.06-.79.17-1.11.11-.32.28-.6.49-.82.21-.22.46-.39.76-.51.29-.12.62-.17.98-.17.16,0,.31,0,.46.03s.3.05.45.09v-2.06h.85v6.9h-.76l-.03-.93c-.24.35-.49.6-.77.77s-.58.25-.9.25c-.28,0-.53-.06-.74-.18s-.39-.28-.53-.5c-.14-.21-.25-.47-.32-.77-.07-.3-.11-.63-.11-1ZM425.33,123.43c0,.59.09,1.03.26,1.33.17.29.42.44.74.44.21,0,.44-.1.68-.29.24-.19.49-.48.75-.85v-2.28c-.14-.06-.29-.11-.46-.15s-.34-.05-.5-.05c-.46,0-.82.15-1.08.45-.26.3-.39.77-.39,1.41Z"/>
    <path class="cls-2" d="M430.59,126.84c.17,0,.33,0,.48-.04.16-.04.29-.09.41-.16.12-.07.21-.16.29-.26.07-.1.11-.22.11-.36s-.02-.25-.07-.33c-.05-.08-.1-.16-.16-.23-.06-.07-.11-.15-.16-.23-.05-.08-.07-.19-.07-.33,0-.07.01-.14.04-.21.03-.07.07-.14.12-.21.05-.06.12-.11.21-.15s.18-.06.3-.06.22.02.33.07c.11.05.2.12.28.22s.14.22.19.37.07.32.07.52c0,.27-.05.53-.15.78s-.25.47-.44.66c-.2.19-.44.35-.74.46-.29.11-.64.17-1.03.17v-.67Z"/>
    <path class="cls-2" d="M445.09,124.5c0,.17-.03.33-.09.46s-.14.26-.24.36c-.1.11-.22.2-.35.27-.13.08-.28.14-.43.19s-.31.08-.47.11c-.16.02-.32.03-.47.03-.33,0-.64-.01-.92-.04s-.55-.08-.82-.14v-.78c.29.08.57.14.85.19.28.04.56.06.84.06.41,0,.71-.05.9-.17.2-.11.29-.27.29-.47,0-.09-.02-.17-.05-.24-.03-.07-.09-.14-.17-.2s-.21-.13-.38-.2-.4-.15-.7-.23c-.22-.06-.43-.14-.61-.22s-.35-.18-.49-.3c-.14-.11-.24-.25-.32-.4-.08-.15-.12-.33-.12-.54,0-.14.03-.29.1-.45.06-.16.17-.31.32-.45.15-.14.36-.26.62-.35s.59-.14.98-.14c.19,0,.41.01.64.03.23.02.48.06.73.11v.76c-.27-.06-.52-.11-.76-.14-.24-.03-.45-.05-.62-.05-.21,0-.39.02-.53.05-.15.03-.26.08-.35.13-.09.06-.15.12-.19.2-.04.08-.06.16-.06.25s.02.17.05.24c.03.07.1.14.19.21.09.07.22.13.39.2.17.07.38.14.65.22.29.08.53.17.73.27s.36.2.48.31c.12.11.21.24.27.39.05.14.08.31.08.49Z"/>
    <path class="cls-2" d="M450.51,125.66c-.22.08-.45.15-.68.19-.23.04-.47.06-.72.06-.77,0-1.37-.21-1.79-.63s-.63-1.03-.63-1.84c0-.39.06-.74.18-1.05.12-.32.29-.59.51-.81s.48-.4.78-.52.64-.18,1-.18c.25,0,.49.02.71.05.22.04.43.09.63.18v.81c-.21-.11-.43-.19-.65-.24-.22-.05-.45-.08-.68-.08-.22,0-.42.04-.62.12s-.36.2-.51.36-.26.35-.35.57-.13.48-.13.76c0,.59.14,1.04.43,1.33.29.29.69.44,1.2.44.23,0,.46-.03.67-.08.22-.05.43-.13.63-.23v.79Z"/>
    <path class="cls-2" d="M456.14,125.84h-.85v-3.13c0-.38-.07-.66-.21-.85-.14-.19-.34-.28-.61-.28-.11,0-.22.02-.32.05-.1.03-.2.08-.31.16-.11.08-.22.18-.35.31-.13.13-.27.29-.44.49v3.25h-.85v-6.9h.85v2l-.03.77c.13-.16.26-.29.39-.4.13-.11.26-.2.39-.27s.26-.12.39-.15.27-.04.42-.04c.49,0,.87.15,1.13.45s.4.75.4,1.34v3.2Z"/>
    <path class="cls-2" d="M461.84,123.13c0,.12,0,.22,0,.3,0,.08,0,.16-.01.23h-3.44c0,.5.14.89.42,1.16s.68.4,1.21.4c.14,0,.29,0,.43-.02.14-.01.28-.03.42-.05s.26-.04.38-.07.24-.05.34-.08v.7c-.23.07-.49.12-.78.16-.29.04-.59.06-.91.06-.42,0-.78-.06-1.08-.17-.3-.11-.55-.28-.74-.5-.19-.22-.34-.48-.43-.8-.09-.31-.14-.67-.14-1.07,0-.34.05-.67.15-.98s.24-.58.43-.81c.19-.23.42-.42.7-.55s.59-.21.94-.21.64.05.91.16.49.26.67.46c.18.2.32.44.41.72.09.28.14.6.14.94ZM460.96,123c0-.22-.01-.42-.06-.6s-.13-.34-.24-.47c-.11-.13-.25-.23-.41-.3s-.35-.11-.57-.11c-.19,0-.35.04-.51.11-.15.07-.28.17-.4.3-.11.13-.2.29-.27.47-.07.18-.11.38-.13.6h2.58Z"/>
    <path class="cls-2" d="M462.95,123.49c0-.42.06-.79.17-1.11.11-.32.28-.6.49-.82.21-.22.46-.39.76-.51.29-.12.62-.17.98-.17.16,0,.31,0,.46.03s.3.05.45.09v-2.06h.85v6.9h-.76l-.03-.93c-.24.35-.49.6-.77.77s-.58.25-.9.25c-.28,0-.53-.06-.74-.18s-.39-.28-.53-.5c-.14-.21-.25-.47-.32-.77-.07-.3-.11-.63-.11-1ZM463.82,123.43c0,.59.09,1.03.26,1.33.17.29.42.44.74.44.21,0,.44-.1.68-.29.24-.19.49-.48.75-.85v-2.28c-.14-.06-.29-.11-.46-.15s-.34-.05-.5-.05c-.46,0-.82.15-1.08.45-.26.3-.39.77-.39,1.41Z"/>
    <path class="cls-2" d="M472.64,125.84h-.76l-.03-.79c-.15.17-.29.31-.42.42s-.26.2-.39.27-.26.12-.39.14c-.13.03-.27.04-.42.04-.5,0-.89-.15-1.14-.44-.26-.3-.39-.74-.39-1.34v-3.2h.85v3.13c0,.75.28,1.13.85,1.13.1,0,.21-.02.31-.05.1-.03.2-.08.31-.16.11-.08.23-.18.35-.31.13-.13.27-.29.42-.49v-3.25h.85v4.9Z"/>
    <path class="cls-2" d="M475.86,119.64h-1.45v-.7h2.31v6.19h1.46v.71h-3.93v-.71h1.61v-5.49Z"/>
    <path class="cls-2" d="M483.83,123.13c0,.12,0,.22,0,.3,0,.08,0,.16-.01.23h-3.44c0,.5.14.89.42,1.16s.68.4,1.21.4c.14,0,.29,0,.43-.02.14-.01.28-.03.42-.05s.26-.04.38-.07.24-.05.34-.08v.7c-.23.07-.49.12-.78.16-.29.04-.59.06-.91.06-.42,0-.78-.06-1.08-.17-.3-.11-.55-.28-.74-.5-.19-.22-.34-.48-.43-.8-.09-.31-.14-.67-.14-1.07,0-.34.05-.67.15-.98s.24-.58.43-.81c.19-.23.42-.42.7-.55s.59-.21.94-.21.64.05.91.16.49.26.67.46c.18.2.32.44.41.72.09.28.14.6.14.94ZM482.95,123c0-.22-.01-.42-.06-.6s-.13-.34-.24-.47c-.11-.13-.25-.23-.41-.3s-.35-.11-.57-.11c-.19,0-.35.04-.51.11-.15.07-.28.17-.4.3-.11.13-.2.29-.27.47-.07.18-.11.38-.13.6h2.58Z"/>
    <path class="cls-2" d="M485.39,120.93h.78l.02.9c.29-.35.58-.6.86-.76s.57-.23.85-.23c.51,0,.89.17,1.15.49.26.33.38.82.36,1.46h-.86c0-.43-.05-.74-.19-.93-.14-.19-.33-.29-.59-.29-.11,0-.23.02-.34.06-.12.04-.23.11-.36.2-.12.09-.25.2-.39.34-.14.14-.28.31-.44.51v3.15h-.86v-4.9Z"/>
    <path class="cls-2" d="M491.69,118.57c1.5,1.39,2.25,2.94,2.25,4.64,0,.35-.04.72-.11,1.09-.07.38-.19.76-.37,1.16s-.4.8-.7,1.2c-.29.41-.66.82-1.1,1.23l-.49-.5c.63-.63,1.11-1.28,1.42-1.97s.47-1.4.47-2.15c0-1.55-.63-2.94-1.89-4.18l.51-.52Z"/>
    <path class="cls-2" d="M497.19,118.57c1.5,1.39,2.25,2.94,2.25,4.64,0,.35-.04.72-.11,1.09-.07.38-.19.76-.37,1.16s-.4.8-.7,1.2c-.29.41-.66.82-1.1,1.23l-.49-.5c.63-.63,1.11-1.28,1.42-1.97s.47-1.4.47-2.15c0-1.55-.63-2.94-1.89-4.18l.51-.52Z"/>
  </g>
  <g>
    <circle class="cls-8" cx="61.2" cy="48.3" r="13.56"/>
    <path class="cls-2" d="M63.5,51.85h-4.25v-.89h1.58v-5.85h-1.58v-.8c.6,0,1.04-.08,1.32-.25s.44-.49.48-.96h.91v7.86h1.55v.89Z"/>
  </g>
  <g>
    <circle class="cls-7" cx="92.28" cy="48.3" r="13.56"/>
    <path class="cls-2" d="M95.03,51.85h-5.38v-1.22c.39-.37.75-.72,1.1-1.05s.68-.69,1.01-1.05c.66-.73,1.12-1.32,1.36-1.75s.36-.89.36-1.36c0-.24-.04-.46-.11-.64s-.18-.34-.31-.46c-.14-.12-.29-.21-.47-.26s-.38-.09-.59-.09-.42.03-.63.08-.42.12-.61.2c-.16.07-.32.15-.47.24s-.28.17-.37.24h-.06v-1.24c.24-.12.58-.24,1.01-.35s.84-.17,1.23-.17c.81,0,1.45.22,1.91.65s.69,1.02.69,1.75c0,.34-.04.65-.12.94s-.19.56-.33.8c-.14.25-.32.51-.52.76s-.42.5-.64.74c-.37.4-.78.81-1.23,1.24s-.81.77-1.08,1.02h4.29v1Z"/>
  </g>
  <g>
    <circle class="cls-3" cx="203.84" cy="48.3" r="13.56"/>
    <path class="cls-2" d="M203.56,43.95c-.21,0-.42.03-.63.08s-.42.12-.62.2c-.19.08-.35.16-.49.25s-.26.17-.37.24h-.07v-1.24c.25-.14.6-.26,1.03-.37s.85-.17,1.25-.17.74.04,1.03.12.56.2.8.37c.26.19.45.41.58.68s.2.58.2.93c0,.48-.16.9-.47,1.27s-.7.59-1.14.69v.08c.18.04.38.1.59.18s.4.21.58.38.33.38.44.65.17.58.17.96-.07.76-.2,1.09-.33.62-.57.88c-.25.27-.56.47-.92.6s-.77.21-1.22.21-.87-.05-1.3-.16-.79-.23-1.08-.38v-1.24h.08c.25.18.58.35.99.52s.83.25,1.24.25c.24,0,.48-.04.72-.11s.44-.2.6-.37c.16-.17.28-.36.36-.57s.12-.47.12-.79-.05-.58-.14-.78-.22-.36-.38-.48-.36-.2-.58-.24-.47-.07-.73-.07h-.5v-.97h.39c.53,0,.96-.12,1.29-.38s.5-.61.5-1.09c0-.22-.04-.41-.13-.57s-.2-.28-.33-.38c-.15-.1-.31-.17-.49-.21s-.37-.06-.57-.06Z"/>
  </g>
  <g>
    <circle class="cls-6" cx="235.18" cy="48.3" r="13.56"/>
    <path class="cls-2" d="M238.15,48.85h-1.04v3h-1.12v-3h-3.86v-1.23l3.9-4.49h1.08v4.79h1.04v.94ZM235.99,47.91v-3.41l-2.94,3.41h2.94Z"/>
  </g>
  <g>
    <circle class="cls-5" cx="280.82" cy="48.3" r="13.56"/>
    <path class="cls-2" d="M283.47,49.07c0,.42-.07.81-.2,1.17s-.32.67-.57.93c-.25.27-.55.47-.92.63s-.77.23-1.23.23c-.42,0-.83-.05-1.23-.14s-.75-.21-1.05-.36v-1.24h.08c.09.07.22.14.39.23s.35.16.56.24c.23.08.44.15.63.19s.41.07.64.07.46-.04.69-.13.41-.22.57-.41c.14-.17.25-.37.33-.6s.11-.5.11-.81-.04-.56-.13-.76-.21-.36-.37-.49c-.17-.15-.37-.25-.62-.31s-.52-.09-.82-.09c-.32,0-.63.02-.96.07s-.58.09-.77.14v-4.49h4.79v1.03h-3.66v2.32c.14-.02.28-.03.42-.04s.26-.01.38-.01c.45,0,.82.04,1.13.11s.61.22.89.43c.29.22.51.49.67.82s.23.76.23,1.28Z"/>
  </g>
  <g>
    <circle class="cls-9" cx="375.58" cy="48.3" r="13.56"/>
    <path class="cls-2" d="M378.46,49.02c0,.45-.07.86-.22,1.24s-.35.7-.6.95c-.26.27-.55.47-.88.61s-.68.21-1.07.21-.75-.07-1.08-.2-.61-.33-.85-.59c-.3-.32-.54-.74-.71-1.27s-.25-1.18-.25-1.95.08-1.44.23-2.05.4-1.14.72-1.6c.32-.44.72-.79,1.22-1.03s1.08-.37,1.73-.37c.2,0,.38,0,.54.03s.32.05.45.09v1.12h-.05c-.11-.06-.26-.11-.46-.16s-.41-.07-.64-.07c-.73,0-1.31.25-1.76.74s-.71,1.22-.79,2.18c.28-.2.56-.35.86-.45s.61-.16.96-.16.64.03.89.1.52.21.8.41c.32.24.56.55.71.92s.23.81.23,1.31ZM377.27,49.06c0-.36-.05-.66-.14-.9s-.25-.45-.46-.62c-.15-.12-.33-.21-.52-.25s-.39-.06-.59-.06c-.27,0-.54.04-.8.12s-.51.2-.76.36c0,.09-.01.17-.02.25s0,.18,0,.3c0,.61.06,1.09.18,1.46s.27.65.44.84c.17.18.34.31.52.39s.37.11.58.11c.47,0,.85-.17,1.14-.5s.44-.84.44-1.51Z"/>
  </g>
  <line class="cls-4" x1="30.52" y1="34.73" x2="30.52" y2="61.86"/>
  <polyline class="cls-4" points="469.19 34.73 482.24 48.24 470.14 60.76"/>
  <line id="source_line-3" data-name="source line" class="cls-4" x1="30.52" y1="378.32" x2="482.24" y2="378.32"/>
  <line class="cls-4" x1="30.52" y1="364.76" x2="30.52" y2="391.89"/>
  <polyline class="cls-4" points="469.19 364.76 482.24 378.26 470.14 390.78"/>
  <g>
    <circle class="cls-8" cx="61.2" cy="165.14" r="13.56"/>
    <path class="cls-2" d="M63.5,168.69h-4.25v-.89h1.58v-5.85h-1.58v-.8c.6,0,1.04-.08,1.32-.25s.44-.49.48-.96h.91v7.86h1.55v.89Z"/>
  </g>
  <g>
    <circle class="cls-8" cx="61.2" cy="378.32" r="13.56"/>
    <path class="cls-2" d="M63.5,381.87h-4.25v-.89h1.58v-5.85h-1.58v-.8c.6,0,1.04-.08,1.32-.25s.44-.49.48-.96h.91v7.86h1.55v.89Z"/>
  </g>
  <line id="source_line-4" data-name="source line" class="cls-4" x1="92.23" y1="190.59" x2="143.69" y2="190.85"/>
  <g>
    <circle class="cls-7" cx="145.31" cy="190.59" r="13.56"/>
    <g>
      <path class="cls-2" d="M143.69,190.85h-3.3v-1.06h3.3v1.06Z"/>
      <path class="cls-2" d="M149.79,194.14h-4.25v-.89h1.58v-5.85h-1.58v-.8c.6,0,1.04-.08,1.32-.25s.44-.49.48-.96h.91v7.86h1.55v.89Z"/>
    </g>
  </g>
  <line class="cls-4" x1="92.23" y1="173.22" x2="92.23" y2="208.23"/>
  <g>
    <circle class="cls-7" cx="92.23" cy="190.59" r="13.56"/>
    <path class="cls-2" d="M94.53,194.14h-4.25v-.89h1.58v-5.85h-1.58v-.8c.6,0,1.04-.08,1.32-.25s.44-.49.48-.96h.91v7.86h1.55v.89Z"/>
  </g>
  <g>
    <circle class="cls-7" cx="145.31" cy="378.32" r="13.56"/>
    <g>
      <path class="cls-2" d="M143.69,378.58h-3.3v-1.06h3.3v1.06Z"/>
      <path class="cls-2" d="M149.79,381.87h-4.25v-.89h1.58v-5.85h-1.58v-.8c.6,0,1.04-.08,1.32-.25s.44-.49.48-.96h.91v7.86h1.55v.89Z"/>
    </g>
  </g>
  <g>
    <circle class="cls-7" cx="92.23" cy="378.32" r="13.56"/>
    <path class="cls-2" d="M94.53,381.87h-4.25v-.89h1.58v-5.85h-1.58v-.8c.6,0,1.04-.08,1.32-.25s.44-.49.48-.96h.91v7.86h1.55v.89Z"/>
  </g>
  <line id="source_line-5" data-name="source line" class="cls-4" x1="203.84" y1="211.52" x2="255.3" y2="211.78"/>
  <g>
    <circle class="cls-3" cx="256.92" cy="211.52" r="13.56"/>
    <g>
      <path class="cls-2" d="M255.3,211.78h-3.3v-1.06h3.3v1.06Z"/>
      <path class="cls-2" d="M261.41,215.06h-4.25v-.89h1.58v-5.85h-1.58v-.8c.6,0,1.04-.08,1.32-.25s.44-.49.48-.96h.91v7.86h1.55v.89Z"/>
    </g>
  </g>
  <line class="cls-4" x1="203.84" y1="194.14" x2="203.84" y2="229.15"/>
  <g>
    <circle class="cls-3" cx="203.84" cy="211.52" r="13.56"/>
    <path class="cls-2" d="M206.14,215.06h-4.25v-.89h1.58v-5.85h-1.58v-.8c.6,0,1.04-.08,1.32-.25s.44-.49.48-.96h.91v7.86h1.55v.89Z"/>
  </g>
  <g>
    <circle class="cls-3" cx="203.84" cy="378.32" r="13.56"/>
    <path class="cls-2" d="M206.14,381.87h-4.25v-.89h1.58v-5.85h-1.58v-.8c.6,0,1.04-.08,1.32-.25s.44-.49.48-.96h.91v7.86h1.55v.89Z"/>
  </g>
  <line id="source_line-6" data-name="source line" class="cls-4" x1="235.18" y1="237.78" x2="286.64" y2="238.04"/>
  <g>
    <circle class="cls-6" cx="288.26" cy="237.78" r="13.56"/>
    <g>
      <path class="cls-2" d="M286.64,238.04h-3.3v-1.06h3.3v1.06Z"/>
      <path class="cls-2" d="M292.74,241.33h-4.25v-.89h1.58v-5.85h-1.58v-.8c.6,0,1.04-.08,1.32-.25s.44-.49.48-.96h.91v7.86h1.55v.89Z"/>
    </g>
  </g>
  <line class="cls-4" x1="235.18" y1="220.4" x2="235.18" y2="255.41"/>
  <g>
    <circle class="cls-6" cx="235.18" cy="237.78" r="13.56"/>
    <path class="cls-2" d="M237.48,241.33h-4.25v-.89h1.58v-5.85h-1.58v-.8c.6,0,1.04-.08,1.32-.25s.44-.49.48-.96h.91v7.86h1.55v.89Z"/>
  </g>
  <g>
    <circle class="cls-6" cx="235.18" cy="378.32" r="13.56"/>
    <path class="cls-2" d="M237.48,381.87h-4.25v-.89h1.58v-5.85h-1.58v-.8c.6,0,1.04-.08,1.32-.25s.44-.49.48-.96h.91v7.86h1.55v.89Z"/>
  </g>
  <line id="source_line-7" data-name="source line" class="cls-4" x1="280.82" y1="268.72" x2="332.28" y2="268.98"/>
  <g>
    <circle class="cls-5" cx="333.9" cy="268.72" r="13.56"/>
    <g>
      <path class="cls-2" d="M332.28,268.98h-3.3v-1.06h3.3v1.06Z"/>
      <path class="cls-2" d="M338.39,272.27h-4.25v-.89h1.58v-5.85h-1.58v-.8c.6,0,1.04-.08,1.32-.25s.44-.49.48-.96h.91v7.86h1.55v.89Z"/>
    </g>
  </g>
  <line class="cls-4" x1="280.82" y1="251.34" x2="280.82" y2="286.35"/>
  <g>
    <circle class="cls-5" cx="280.82" cy="268.72" r="13.56"/>
    <path class="cls-2" d="M283.12,272.27h-4.25v-.89h1.58v-5.85h-1.58v-.8c.6,0,1.04-.08,1.32-.25s.44-.49.48-.96h.91v7.86h1.55v.89Z"/>
  </g>
  <g>
    <circle class="cls-5" cx="333.9" cy="378.32" r="13.56"/>
    <g>
      <path class="cls-2" d="M332.28,378.58h-3.3v-1.06h3.3v1.06Z"/>
      <path class="cls-2" d="M338.39,381.87h-4.25v-.89h1.58v-5.85h-1.58v-.8c.6,0,1.04-.08,1.32-.25s.44-.49.48-.96h.91v7.86h1.55v.89Z"/>
    </g>
  </g>
  <line id="source_line-8" data-name="source line" class="cls-4" x1="375.58" y1="289.64" x2="427.04" y2="289.91"/>
  <g>
    <circle class="cls-9" cx="428.67" cy="289.64" r="13.56"/>
    <g>
      <path class="cls-2" d="M427.04,289.91h-3.3v-1.06h3.3v1.06Z"/>
      <path class="cls-2" d="M433.15,293.19h-4.25v-.89h1.58v-5.85h-1.58v-.8c.6,0,1.04-.08,1.32-.25s.44-.49.48-.96h.91v7.86h1.55v.89Z"/>
    </g>
  </g>
  <line class="cls-4" x1="375.58" y1="272.27" x2="375.58" y2="307.28"/>
  <g>
    <circle class="cls-9" cx="375.58" cy="289.64" r="13.56"/>
    <path class="cls-2" d="M377.88,293.19h-4.25v-.89h1.58v-5.85h-1.58v-.8c.6,0,1.04-.08,1.32-.25s.44-.49.48-.96h.91v7.86h1.55v.89Z"/>
  </g>
  <g>
    <circle class="cls-9" cx="428.67" cy="377.77" r="13.56"/>
    <g>
      <path class="cls-2" d="M427.04,378.03h-3.3v-1.06h3.3v1.06Z"/>
      <path class="cls-2" d="M433.15,381.32h-4.25v-.89h1.58v-5.85h-1.58v-.8c.6,0,1.04-.08,1.32-.25s.44-.49.48-.96h.91v7.86h1.55v.89Z"/>
    </g>
  </g>
  <g>
    <circle class="cls-9" cx="375.58" cy="377.77" r="13.56"/>
    <path class="cls-2" d="M377.88,381.32h-4.25v-.89h1.58v-5.85h-1.58v-.8c.6,0,1.04-.08,1.32-.25s.44-.49.48-.96h.91v7.86h1.55v.89Z"/>
  </g>
  <g>
    <circle class="cls-8" cx="114.28" cy="378.32" r="13.56"/>
    <g>
      <path class="cls-2" d="M112.66,378.58h-3.3v-1.06h3.3v1.06Z"/>
      <path class="cls-2" d="M118.77,381.87h-4.25v-.89h1.58v-5.85h-1.58v-.8c.6,0,1.04-.08,1.32-.25s.44-.49.48-.96h.91v7.86h1.55v.89Z"/>
    </g>
  </g>
  <g>
    <circle class="cls-3" cx="256.92" cy="378.32" r="13.56"/>
    <g>
      <path class="cls-2" d="M255.3,378.58h-3.3v-1.06h3.3v1.06Z"/>
      <path class="cls-2" d="M261.41,381.87h-4.25v-.89h1.58v-5.85h-1.58v-.8c.6,0,1.04-.08,1.32-.25s.44-.49.48-.96h.91v7.86h1.55v.89Z"/>
    </g>
  </g>
  <g>
    <circle class="cls-5" cx="280.82" cy="378.32" r="13.56"/>
    <path class="cls-2" d="M274.12,381.87h-4.25v-.89h1.58v-5.85h-1.58v-.8c.6,0,1.04-.08,1.32-.25s.44-.49.48-.96h.91v7.86h1.55v.89Z"/>
  </g>
  <g>
    <circle class="cls-6" cx="288.26" cy="378.32" r="13.56"/>
    <g>
      <path class="cls-2" d="M286.64,378.58h-3.3v-1.06h3.3v1.06Z"/>
      <path class="cls-2" d="M292.74,381.87h-4.25v-.89h1.58v-5.85h-1.58v-.8c.6,0,1.04-.08,1.32-.25s.44-.49.48-.96h.91v7.86h1.55v.89Z"/>
    </g>
  </g>
</svg>