<?xml version="1.0" encoding="UTF-8"?>
<svg id="Layer_1" data-name="Layer 1" xmlns="http://www.w3.org/2000/svg" viewBox="0 0 504.81 337.68">
  <defs>
    <style>
      .cls-1 {
        fill: #f0ff8b;
      }

      .cls-1, .cls-2, .cls-3, .cls-4, .cls-5, .cls-6 {
        stroke: #000;
        stroke-miterlimit: 10;
      }

      .cls-2 {
        fill: none;
      }

      .cls-3 {
        fill: #ff8be8;
      }

      .cls-4 {
        fill: #ff8b8b;
      }

      .cls-7 {
        stroke-width: 0px;
      }

      .cls-5 {
        fill: #8be2ff;
      }

      .cls-6 {
        fill: #8bffbc;
      }
    </style>
  </defs>
  <line id="source_line" data-name="source line" class="cls-2" x1="30.52" y1="48.3" x2="278.9" y2="48.3"/>
  <g>
    <path class="cls-7" d="M34.23,25.48h-1.18l-1.14-2.45c-.09-.19-.17-.34-.26-.47s-.19-.22-.29-.29-.22-.12-.34-.16-.26-.05-.41-.05h-.49v3.41h-1.04v-7.66h2.05c.45,0,.83.05,1.15.15s.58.23.79.41.36.39.45.64.14.52.14.82c0,.24-.04.46-.11.68s-.17.41-.31.58-.31.32-.52.45-.44.22-.71.28c.21.07.4.2.55.39s.3.43.46.74l1.21,2.52ZM32.56,19.92c0-.41-.13-.72-.38-.92s-.62-.3-1.08-.3h-.98v2.53h.84c.25,0,.47-.03.67-.08s.37-.14.5-.25.25-.25.32-.41.11-.35.11-.56Z"/>
    <path class="cls-7" d="M39.39,25.48l-.02-.79c-.32.32-.65.54-.98.69s-.68.21-1.04.21c-.34,0-.62-.04-.86-.13s-.43-.2-.59-.35-.27-.33-.34-.53-.11-.42-.11-.66c0-.59.22-1.05.66-1.39s1.09-.5,1.95-.5h1.22v-.52c0-.35-.11-.63-.33-.83s-.56-.31-1.02-.31c-.33,0-.66.04-.98.11s-.66.18-1,.32v-.92c.13-.05.27-.09.43-.14s.33-.08.5-.12.36-.06.55-.08.38-.03.58-.03c.36,0,.68.04.96.12s.53.2.72.36.35.36.45.6.16.53.16.86v4.05h-.91ZM39.27,22.8h-1.29c-.25,0-.47.03-.66.08s-.33.12-.45.22-.2.21-.26.34-.08.28-.08.44c0,.11.02.22.05.33s.09.2.17.28.18.14.3.19.28.07.46.07c.23,0,.5-.07.81-.21s.62-.37.96-.68v-1.04Z"/>
    <path class="cls-7" d="M42.2,19.6h.91l.04.95c.17-.2.34-.37.5-.51s.32-.24.47-.33.31-.14.47-.17.33-.05.5-.05c.61,0,1.06.18,1.37.54s.47.9.47,1.61v3.84h-1.02v-3.76c0-.46-.09-.8-.26-1.02s-.43-.33-.77-.33c-.12,0-.25.02-.37.06s-.24.1-.37.19-.27.22-.42.37-.32.35-.51.59v3.9h-1.02v-5.88Z"/>
    <path class="cls-7" d="M53.04,20.43c.11.14.19.3.25.48s.09.38.09.59c0,.3-.06.58-.17.83s-.27.47-.47.65-.45.32-.73.42-.59.15-.93.15c-.25,0-.48-.03-.69-.08s-.38-.12-.51-.2c-.07.11-.14.21-.19.31s-.08.21-.08.33c0,.15.07.27.21.37s.33.15.57.16l1.55.06c.29,0,.56.04.81.11s.46.16.64.29.32.28.42.46.15.4.15.64c0,.26-.06.51-.17.74s-.29.44-.52.62-.54.32-.9.42-.79.16-1.29.16-.88-.04-1.22-.11-.61-.18-.82-.32-.37-.29-.47-.48-.15-.39-.15-.61c0-.29.07-.54.2-.75s.34-.42.62-.62c-.1-.05-.19-.11-.26-.18s-.13-.15-.18-.23-.08-.17-.11-.27-.04-.19-.04-.28c0-.25.06-.49.18-.7s.26-.41.42-.6c-.07-.09-.14-.18-.2-.26s-.11-.18-.15-.28-.07-.21-.09-.32-.03-.25-.03-.4c0-.3.06-.58.17-.83s.27-.47.47-.65.44-.32.73-.42.6-.15.94-.15c.14,0,.28,0,.42.03s.25.04.35.08h2.13v.83h-.94ZM49.5,26.33c0,.28.14.48.43.61s.69.19,1.21.19c.32,0,.6-.03.82-.09s.4-.14.53-.23.23-.21.29-.33.09-.25.09-.38c0-.24-.1-.41-.29-.53s-.49-.18-.9-.2l-1.54-.05c-.13.09-.24.17-.32.25s-.15.17-.2.25-.08.17-.1.25-.03.17-.03.25ZM49.81,21.52c0,.19.03.36.09.52s.15.29.26.4.25.19.4.25.33.09.51.09c.2,0,.38-.03.54-.1s.29-.16.4-.28.19-.25.25-.4.08-.31.08-.47c0-.19-.03-.36-.09-.52s-.15-.29-.26-.4-.25-.19-.4-.25-.33-.09-.51-.09c-.2,0-.38.04-.54.11s-.29.16-.4.28-.19.25-.25.4-.08.31-.08.47Z"/>
    <path class="cls-7" d="M60.37,22.23c0,.14,0,.27,0,.36s0,.19-.02.28h-4.13c0,.6.17,1.06.5,1.39s.82.48,1.45.48c.17,0,.34,0,.52-.02s.34-.03.5-.06.31-.05.46-.08.28-.06.41-.1v.84c-.28.08-.59.14-.94.19s-.71.07-1.09.07c-.5,0-.94-.07-1.3-.21s-.66-.33-.89-.59-.4-.58-.52-.96-.17-.8-.17-1.28c0-.41.06-.81.18-1.17s.29-.69.52-.97.51-.5.84-.67.71-.25,1.13-.25.77.06,1.09.19.58.31.8.55.38.52.49.86.17.72.17,1.13ZM59.31,22.08c.01-.26-.01-.5-.08-.72s-.16-.4-.29-.56-.29-.28-.49-.37-.42-.13-.68-.13c-.22,0-.43.04-.61.13s-.34.21-.47.36-.24.34-.32.56-.13.46-.15.72h3.09Z"/>
    <path class="cls-7" d="M65.52,27.94c-1.8-1.67-2.7-3.51-2.7-5.53,0-.47.05-.94.14-1.42s.25-.94.46-1.42.49-.95.84-1.42.77-.94,1.27-1.41l.59.6c-1.52,1.5-2.27,3.15-2.27,4.97,0,.91.19,1.78.57,2.61s.95,1.62,1.7,2.37l-.62.63Z"/>
    <path class="cls-7" d="M73.5,25.48h-4.81v-.95h1.97v-5.59l-1.83,1-.38-.87,2.44-1.28h.9v6.74h1.71v.95Z"/>
    <path class="cls-7" d="M75.65,26.68c.2,0,.39,0,.58-.05s.35-.11.5-.19.26-.19.34-.31.13-.27.13-.43-.03-.3-.08-.4-.12-.2-.19-.28-.13-.18-.19-.28-.08-.23-.08-.39c0-.08.02-.17.05-.26s.08-.17.14-.25.15-.13.25-.18.22-.07.35-.07.27.03.4.08.24.14.33.26.17.26.23.44.08.38.08.62c0,.32-.06.64-.18.93s-.3.56-.53.79-.53.41-.88.55-.76.21-1.23.21v-.8Z"/>
    <path class="cls-7" d="M93.16,23.03c0,.38-.08.72-.25,1.04s-.39.58-.68.81-.63.4-1.02.52-.81.19-1.27.19c-.11,0-.24,0-.37,0s-.26-.01-.39-.02-.25-.02-.38-.03-.23-.03-.33-.04v-.93c.21.05.45.09.72.11s.55.04.82.04c.31,0,.59-.04.84-.11s.46-.18.64-.32.31-.31.4-.5.14-.42.14-.67c0-.48-.17-.82-.51-1.04s-.83-.33-1.47-.33h-1.45v-3.91h4.12v.89h-3.16v2.15h.67c.37,0,.72.03,1.07.1s.66.18.93.35.49.39.66.67.25.63.25,1.05Z"/>
    <path class="cls-7" d="M96.19,16.75c1.8,1.67,2.7,3.52,2.7,5.57,0,.42-.04.86-.13,1.31s-.23.92-.44,1.39-.49.96-.83,1.44-.79.98-1.32,1.47l-.59-.6c.76-.75,1.33-1.54,1.71-2.36s.56-1.68.56-2.58c0-1.86-.76-3.53-2.27-5.02l.62-.63Z"/>
  </g>
  <g>
    <path class="cls-7" d="M31.32,100.36c.13,0,.26.03.38.08s.22.12.31.21.16.19.21.31.08.25.08.38-.03.26-.08.38-.12.22-.21.31-.19.16-.31.21-.25.08-.38.08-.26-.03-.38-.08-.22-.12-.31-.21-.16-.19-.21-.31-.08-.24-.08-.38.03-.26.08-.38.12-.22.21-.31.19-.16.31-.21.24-.08.38-.08Z"/>
    <path class="cls-7" d="M40.51,100.13c0,.36-.07.68-.22.96s-.36.5-.62.68-.58.32-.96.41-.78.13-1.23.13c-.2,0-.41,0-.61-.02s-.39-.04-.58-.06-.36-.05-.52-.08-.31-.06-.45-.1v-1.01c.29.11.62.2.99.26s.78.09,1.25.09c.34,0,.62-.03.86-.08s.43-.13.58-.23.26-.23.33-.38.1-.32.1-.51c0-.21-.06-.38-.17-.53s-.27-.28-.45-.39-.4-.22-.64-.32-.49-.19-.74-.3-.5-.21-.74-.33-.45-.26-.64-.42-.34-.35-.45-.57-.17-.48-.17-.78c0-.26.05-.52.16-.77s.28-.48.51-.68.53-.36.89-.48.79-.18,1.29-.18c.13,0,.27,0,.42.02s.3.03.46.05.31.05.46.07.29.06.42.09v.94c-.3-.09-.6-.15-.9-.2s-.59-.07-.87-.07c-.6,0-1.04.1-1.32.3s-.42.47-.42.8c0,.21.06.38.17.53s.27.28.45.4.4.22.64.32.49.19.74.3.5.21.74.33.45.26.64.43.34.36.45.58.17.49.17.79Z"/>
    <path class="cls-7" d="M47.17,98.95c0,.14,0,.27,0,.36s0,.19-.02.28h-4.13c0,.6.17,1.06.5,1.39s.82.48,1.45.48c.17,0,.34,0,.52-.02s.34-.03.5-.06.31-.05.46-.08.28-.06.41-.1v.84c-.28.08-.59.14-.94.19s-.71.07-1.09.07c-.5,0-.94-.07-1.3-.21s-.66-.33-.89-.59-.4-.58-.52-.96-.17-.8-.17-1.28c0-.41.06-.81.18-1.17s.29-.69.52-.97.51-.5.84-.67.71-.25,1.13-.25.77.06,1.09.19.58.31.8.55.38.52.49.86.17.72.17,1.13ZM46.11,98.8c.01-.26-.01-.5-.08-.72s-.16-.4-.29-.56-.29-.28-.49-.37-.42-.13-.68-.13c-.22,0-.43.04-.61.13s-.34.21-.47.36-.24.34-.32.56-.13.46-.15.72h3.09Z"/>
    <path class="cls-7" d="M50.81,94.76h-1.74v-.84h2.77v7.43h1.75v.85h-4.72v-.85h1.93v-6.59Z"/>
    <path class="cls-7" d="M60.37,98.95c0,.14,0,.27,0,.36s0,.19-.02.28h-4.13c0,.6.17,1.06.5,1.39s.82.48,1.45.48c.17,0,.34,0,.52-.02s.34-.03.5-.06.31-.05.46-.08.28-.06.41-.1v.84c-.28.08-.59.14-.94.19s-.71.07-1.09.07c-.5,0-.94-.07-1.3-.21s-.66-.33-.89-.59-.4-.58-.52-.96-.17-.8-.17-1.28c0-.41.06-.81.18-1.17s.29-.69.52-.97.51-.5.84-.67.71-.25,1.13-.25.77.06,1.09.19.58.31.8.55.38.52.49.86.17.72.17,1.13ZM59.31,98.8c.01-.26-.01-.5-.08-.72s-.16-.4-.29-.56-.29-.28-.49-.37-.42-.13-.68-.13c-.22,0-.43.04-.61.13s-.34.21-.47.36-.24.34-.32.56-.13.46-.15.72h3.09Z"/>
    <path class="cls-7" d="M66.57,101.99c-.27.1-.54.18-.82.23s-.57.07-.86.07c-.93,0-1.65-.25-2.15-.76s-.75-1.24-.75-2.21c0-.46.07-.89.22-1.27s.35-.7.61-.97.57-.48.94-.62.76-.22,1.2-.22c.3,0,.59.02.86.06s.52.11.76.21v.97c-.25-.13-.51-.23-.78-.29s-.54-.09-.82-.09c-.26,0-.51.05-.74.15s-.44.24-.61.43-.31.42-.42.69-.15.57-.15.91c0,.71.17,1.24.52,1.6s.83.53,1.44.53c.28,0,.55-.03.81-.09s.51-.16.75-.28v.95Z"/>
    <path class="cls-7" d="M73.33,102.12c-.23.06-.47.1-.71.13s-.5.04-.75.04c-.74,0-1.29-.17-1.65-.5s-.54-.85-.54-1.54v-3.07h-1.65v-.86h1.65v-1.62l1.02-.26v1.88h2.64v.86h-2.64v2.99c0,.42.11.74.34.95s.56.31.99.31c.19,0,.39-.01.62-.04s.46-.08.7-.14v.88Z"/>
    <path class="cls-7" d="M80.57,102.2h-1.02l-.15-4.78-.06-1.83-.36,1.07-1.13,3.05h-.72l-1.08-2.93-.36-1.18-.02,1.92-.13,4.69h-.98l.38-7.66h1.24l1.03,2.88.33.97.32-.97,1.08-2.88h1.27l.37,7.66Z"/>
    <path class="cls-7" d="M85.57,102.2l-.02-.79c-.32.32-.65.54-.98.69s-.68.21-1.04.21c-.34,0-.62-.04-.86-.13s-.43-.2-.59-.35-.27-.33-.34-.53-.11-.42-.11-.66c0-.59.22-1.05.66-1.39s1.09-.5,1.95-.5h1.22v-.52c0-.35-.11-.63-.33-.83s-.56-.31-1.02-.31c-.33,0-.66.04-.98.11s-.66.18-1,.32v-.92c.13-.05.27-.09.43-.14s.33-.08.5-.12.36-.06.55-.08.38-.03.58-.03c.36,0,.68.04.96.12s.53.2.72.36.35.36.45.6.16.53.16.86v4.05h-.91ZM85.46,99.53h-1.29c-.25,0-.47.03-.66.08s-.33.12-.45.22-.2.21-.26.34-.08.28-.08.44c0,.11.02.22.05.33s.09.2.17.28.18.14.3.19.28.07.46.07c.23,0,.5-.07.81-.21s.62-.37.96-.68v-1.04Z"/>
    <path class="cls-7" d="M88.39,96.32h.91l.04.95c.17-.2.34-.37.5-.51s.32-.24.47-.33.31-.14.47-.17.33-.05.5-.05c.61,0,1.06.18,1.37.54s.47.9.47,1.61v3.84h-1.02v-3.76c0-.46-.09-.8-.26-1.02s-.43-.33-.77-.33c-.12,0-.25.02-.37.06s-.24.1-.37.19-.27.22-.42.37-.32.35-.51.59v3.9h-1.02v-5.88Z"/>
    <path class="cls-7" d="M100.22,96.32l-2,5.26c-.21.54-.42,1-.64,1.38s-.46.7-.72.95-.55.43-.86.55-.66.18-1.05.18c-.1,0-.19,0-.28,0s-.17,0-.27-.02v-.93c.09.01.18.02.28.03s.21.01.32.01c.19,0,.36-.03.52-.08s.32-.14.46-.27.28-.28.42-.48.26-.43.39-.71l-2.35-5.88h1.16l1.49,3.89.3.91.34-.94,1.38-3.87h1.12Z"/>
    <path class="cls-7" d="M105.1,104.66c-1.8-1.67-2.7-3.51-2.7-5.53,0-.47.05-.94.14-1.42s.25-.94.46-1.42.49-.95.84-1.42.77-.94,1.27-1.41l.59.6c-1.52,1.5-2.27,3.15-2.27,4.97,0,.91.19,1.78.57,2.61s.95,1.62,1.7,2.37l-.62.63Z"/>
    <path class="cls-7" d="M110.18,97.16h-1.74v-.84h2.77v5.03h1.75v.85h-4.72v-.85h1.93v-4.19ZM110.54,93.85c.11,0,.22.02.32.06s.18.1.25.17.13.16.17.25.06.2.06.31-.02.21-.06.31-.1.18-.17.26-.16.13-.25.17-.2.06-.32.06-.22-.02-.32-.06-.18-.1-.25-.17-.13-.16-.17-.26-.06-.2-.06-.31.02-.22.06-.31.1-.18.17-.25.16-.13.25-.17.2-.06.32-.06Z"/>
    <path class="cls-7" d="M126.26,98.42h-5.04v-.86h5.04v.86ZM126.26,100.46h-5.04v-.86h5.04v.86Z"/>
    <path class="cls-7" d="M128.26,96.37l.63-.65,3.94,3.29-3.94,3.29-.63-.64,3.19-2.63-3.19-2.65Z"/>
    <path class="cls-7" d="M141.17,96.32h.91l.04.95c.17-.2.34-.37.5-.51s.32-.24.47-.33.31-.14.47-.17.33-.05.5-.05c.61,0,1.06.18,1.37.54s.47.9.47,1.61v3.84h-1.02v-3.76c0-.46-.09-.8-.26-1.02s-.43-.33-.77-.33c-.12,0-.25.02-.37.06s-.24.1-.37.19-.27.22-.42.37-.32.35-.51.59v3.9h-1.02v-5.88Z"/>
    <path class="cls-7" d="M152.74,98.95c0,.14,0,.27,0,.36s0,.19-.02.28h-4.13c0,.6.17,1.06.5,1.39s.82.48,1.45.48c.17,0,.34,0,.52-.02s.34-.03.5-.06.31-.05.46-.08.28-.06.41-.1v.84c-.28.08-.59.14-.94.19s-.71.07-1.09.07c-.5,0-.94-.07-1.3-.21s-.66-.33-.89-.59-.4-.58-.52-.96-.17-.8-.17-1.28c0-.41.06-.81.18-1.17s.29-.69.52-.97.51-.5.84-.67.71-.25,1.13-.25.77.06,1.09.19.58.31.8.55.38.52.49.86.17.72.17,1.13ZM151.67,98.8c.01-.26-.01-.5-.08-.72s-.16-.4-.29-.56-.29-.28-.49-.37-.42-.13-.68-.13c-.22,0-.43.04-.61.13s-.34.21-.47.36-.24.34-.32.56-.13.46-.15.72h3.09Z"/>
    <path class="cls-7" d="M159.81,96.32l-.86,5.88h-1.24l-.85-2.46-.17-.6-.19.63-.81,2.43h-1.2l-.85-5.88h1l.49,4,.11.89.25-.78.86-2.64h.73l.92,2.61.26.78.09-.83.46-4.03h1.01Z"/>
    <path class="cls-7" d="M172.22,100.6c0,.21-.04.39-.11.56s-.17.31-.29.44-.26.24-.42.33-.33.16-.51.22-.37.1-.56.13-.38.04-.56.04c-.4,0-.76-.02-1.1-.05s-.66-.09-.98-.17v-.94c.34.1.69.17,1.03.22s.68.08,1.01.08c.49,0,.85-.07,1.08-.2s.35-.32.35-.57c0-.11-.02-.2-.06-.28s-.1-.16-.2-.24-.25-.16-.45-.24-.49-.18-.84-.28c-.27-.08-.51-.17-.74-.27s-.42-.22-.58-.35-.29-.3-.39-.48-.14-.4-.14-.65c0-.16.04-.34.11-.54s.21-.38.39-.54.43-.31.74-.42.7-.17,1.17-.17c.23,0,.49.01.77.04s.57.07.88.13v.91c-.32-.08-.62-.14-.91-.17s-.54-.06-.75-.06c-.25,0-.47.02-.64.06s-.31.09-.42.16-.18.15-.23.24-.07.19-.07.3.02.2.06.29.12.17.23.25.27.16.47.24.46.17.78.26c.35.1.64.21.88.32s.43.24.58.37.25.29.32.46.1.37.1.59Z"/>
    <path class="cls-7" d="M178.9,102.12c-.23.06-.47.1-.71.13s-.5.04-.75.04c-.74,0-1.29-.17-1.65-.5s-.54-.85-.54-1.54v-3.07h-1.65v-.86h1.65v-1.62l1.02-.26v1.88h2.64v.86h-2.64v2.99c0,.42.11.74.34.95s.56.31.99.31c.19,0,.39-.01.62-.04s.46-.08.7-.14v.88Z"/>
    <path class="cls-7" d="M181,96.32h.93l.03,1.08c.35-.42.69-.72,1.03-.91s.68-.28,1.02-.28c.61,0,1.07.2,1.39.59s.46.98.44,1.76h-1.03c.01-.52-.06-.89-.23-1.12s-.4-.35-.71-.35c-.14,0-.27.02-.41.07s-.28.13-.43.23-.3.25-.47.41-.34.37-.53.61v3.78h-1.03v-5.88Z"/>
    <path class="cls-7" d="M189.36,97.16h-1.74v-.84h2.77v5.03h1.75v.85h-4.72v-.85h1.93v-4.19ZM189.71,93.85c.11,0,.22.02.32.06s.18.1.25.17.13.16.17.25.06.2.06.31-.02.21-.06.31-.1.18-.17.26-.16.13-.25.17-.2.06-.32.06-.22-.02-.32-.06-.18-.1-.25-.17-.13-.16-.17-.26-.06-.2-.06-.31.02-.22.06-.31.1-.18.17-.25.16-.13.25-.17.2-.06.32-.06Z"/>
    <path class="cls-7" d="M193.95,96.32h.91l.04.95c.17-.2.34-.37.5-.51s.32-.24.47-.33.31-.14.47-.17.33-.05.5-.05c.61,0,1.06.18,1.37.54s.47.9.47,1.61v3.84h-1.02v-3.76c0-.46-.09-.8-.26-1.02s-.43-.33-.77-.33c-.12,0-.25.02-.37.06s-.24.1-.37.19-.27.22-.42.37-.32.35-.51.59v3.9h-1.02v-5.88Z"/>
    <path class="cls-7" d="M204.78,97.15c.11.14.19.3.25.48s.09.38.09.59c0,.3-.06.58-.17.83s-.27.47-.47.65-.45.32-.73.42-.59.15-.93.15c-.25,0-.48-.03-.69-.08s-.38-.12-.51-.2c-.07.11-.14.21-.19.31s-.08.21-.08.33c0,.15.07.27.21.37s.33.15.57.16l1.55.06c.29,0,.56.04.81.11s.46.16.64.29.32.28.42.46.15.4.15.64c0,.26-.06.51-.17.74s-.29.44-.52.62-.54.32-.9.42-.79.16-1.29.16-.88-.04-1.22-.11-.61-.18-.82-.32-.37-.29-.47-.48-.15-.39-.15-.61c0-.29.07-.54.2-.75s.34-.42.62-.62c-.1-.05-.19-.11-.26-.18s-.13-.15-.18-.23-.08-.17-.11-.27-.04-.19-.04-.28c0-.25.06-.49.18-.7s.26-.41.42-.6c-.07-.09-.14-.18-.2-.26s-.11-.18-.15-.28-.07-.21-.09-.32-.03-.25-.03-.4c0-.3.06-.58.17-.83s.27-.47.47-.65.44-.32.73-.42.6-.15.94-.15c.14,0,.28,0,.42.03s.25.04.35.08h2.13v.83h-.94ZM201.25,103.05c0,.28.14.48.43.61s.69.19,1.21.19c.32,0,.6-.03.82-.09s.4-.14.53-.23.23-.21.29-.33.09-.25.09-.38c0-.24-.1-.41-.29-.53s-.49-.18-.9-.2l-1.54-.05c-.13.09-.24.17-.32.25s-.15.17-.2.25-.08.17-.1.25-.03.17-.03.25ZM201.56,98.24c0,.19.03.36.09.52s.15.29.26.4.25.19.4.25.33.09.51.09c.2,0,.38-.03.54-.1s.29-.16.4-.28.19-.25.25-.4.08-.31.08-.47c0-.19-.03-.36-.09-.52s-.15-.29-.26-.4-.25-.19-.4-.25-.33-.09-.51-.09c-.2,0-.38.04-.54.11s-.29.16-.4.28-.19.25-.25.4-.08.31-.08.47Z"/>
    <path class="cls-7" d="M210.67,104.66c-1.8-1.67-2.7-3.51-2.7-5.53,0-.47.05-.94.14-1.42s.25-.94.46-1.42.49-.95.84-1.42.77-.94,1.27-1.41l.59.6c-1.52,1.5-2.27,3.15-2.27,4.97,0,.91.19,1.78.57,2.61s.95,1.62,1.7,2.37l-.62.63Z"/>
    <path class="cls-7" d="M217.26,104.66c-1.8-1.67-2.7-3.51-2.7-5.53,0-.47.05-.94.14-1.42s.25-.94.46-1.42.49-.95.84-1.42.77-.94,1.27-1.41l.59.6c-1.52,1.5-2.27,3.15-2.27,4.97,0,.91.19,1.78.57,2.61s.95,1.62,1.7,2.37l-.62.63Z"/>
    <path class="cls-7" d="M224.91,101.99c-.27.1-.54.18-.82.23s-.57.07-.86.07c-.93,0-1.65-.25-2.15-.76s-.75-1.24-.75-2.21c0-.46.07-.89.22-1.27s.35-.7.61-.97.57-.48.94-.62.76-.22,1.2-.22c.3,0,.59.02.86.06s.52.11.76.21v.97c-.25-.13-.51-.23-.78-.29s-.54-.09-.82-.09c-.26,0-.51.05-.74.15s-.44.24-.61.43-.31.42-.42.69-.15.57-.15.91c0,.71.17,1.24.52,1.6s.83.53,1.44.53c.28,0,.55-.03.81-.09s.51-.16.75-.28v.95Z"/>
    <path class="cls-7" d="M231.67,102.2h-1.02v-3.76c0-.45-.08-.79-.25-1.02s-.41-.34-.73-.34c-.14,0-.26.02-.38.06s-.24.1-.37.19-.27.22-.42.37-.33.35-.53.59v3.9h-1.02v-8.28h1.02v2.4l-.04.93c.16-.19.32-.35.47-.48s.31-.24.46-.32.31-.14.47-.18.33-.05.5-.05c.59,0,1.04.18,1.36.54s.48.9.48,1.61v3.84Z"/>
    <path class="cls-7" d="M237.32,102.2l-.02-.79c-.32.32-.65.54-.98.69s-.68.21-1.04.21c-.34,0-.62-.04-.86-.13s-.43-.2-.59-.35-.27-.33-.34-.53-.11-.42-.11-.66c0-.59.22-1.05.66-1.39s1.09-.5,1.95-.5h1.22v-.52c0-.35-.11-.63-.33-.83s-.56-.31-1.02-.31c-.33,0-.66.04-.98.11s-.66.18-1,.32v-.92c.13-.05.27-.09.43-.14s.33-.08.5-.12.36-.06.55-.08.38-.03.58-.03c.36,0,.68.04.96.12s.53.2.72.36.35.36.45.6.16.53.16.86v4.05h-.91ZM237.2,99.53h-1.29c-.25,0-.47.03-.66.08s-.33.12-.45.22-.2.21-.26.34-.08.28-.08.44c0,.11.02.22.05.33s.09.2.17.28.18.14.3.19.28.07.46.07c.23,0,.5-.07.81-.21s.62-.37.96-.68v-1.04Z"/>
    <path class="cls-7" d="M240.37,96.32h.93l.03,1.08c.35-.42.69-.72,1.03-.91s.68-.28,1.02-.28c.61,0,1.07.2,1.39.59s.46.98.44,1.76h-1.03c.01-.52-.06-.89-.23-1.12s-.4-.35-.71-.35c-.14,0-.27.02-.41.07s-.28.13-.43.23-.3.25-.47.41-.34.37-.53.61v3.78h-1.03v-5.88Z"/>
    <path class="cls-7" d="M247.93,93.48c1.8,1.67,2.7,3.52,2.7,5.57,0,.42-.04.86-.13,1.31s-.23.92-.44,1.39-.49.96-.83,1.44-.79.98-1.32,1.47l-.59-.6c.76-.75,1.33-1.54,1.71-2.36s.56-1.68.56-2.58c0-1.86-.76-3.53-2.27-5.02l.62-.63Z"/>
    <path class="cls-7" d="M256.85,104.66c-1.8-1.67-2.7-3.51-2.7-5.53,0-.47.05-.94.14-1.42s.25-.94.46-1.42.49-.95.84-1.42.77-.94,1.27-1.41l.59.6c-1.52,1.5-2.27,3.15-2.27,4.97,0,.91.19,1.78.57,2.61s.95,1.62,1.7,2.37l-.62.63Z"/>
    <path class="cls-7" d="M261.93,97.16h-1.74v-.84h2.77v5.03h1.75v.85h-4.72v-.85h1.93v-4.19ZM262.29,93.85c.11,0,.22.02.32.06s.18.1.25.17.13.16.17.25.06.2.06.31-.02.21-.06.31-.1.18-.17.26-.16.13-.25.17-.2.06-.32.06-.22-.02-.32-.06-.18-.1-.25-.17-.13-.16-.17-.26-.06-.2-.06-.31.02-.22.06-.31.1-.18.17-.25.16-.13.25-.17.2-.06.32-.06Z"/>
    <path class="cls-7" d="M271.69,99.46h-2.3v2.39h-1.01v-2.39h-2.3v-.89h2.3v-2.37h1.01v2.37h2.3v.89Z"/>
    <path class="cls-7" d="M278.18,99.78c0,.35-.06.68-.19.99s-.31.58-.54.81-.52.41-.85.54-.7.2-1.1.2-.79-.07-1.12-.2-.6-.34-.81-.62-.38-.63-.5-1.06-.17-.93-.17-1.51c0-.39.03-.77.08-1.14s.13-.71.25-1.04.27-.62.47-.89.44-.5.73-.69.63-.34,1.03-.45.85-.16,1.37-.16h.76v.89h-.82c-.46,0-.85.05-1.19.16s-.62.26-.84.46-.4.44-.52.72-.2.6-.23.94l-.02.24c.25-.14.53-.26.85-.35s.67-.13,1.05-.13.73.06,1.02.17.53.27.73.47.34.44.44.72.15.59.15.93ZM277.12,99.84c0-.23-.03-.45-.08-.64s-.15-.35-.27-.48-.27-.23-.46-.3-.41-.11-.67-.11c-.15,0-.3.01-.45.04s-.3.07-.45.11-.29.1-.42.17-.25.13-.36.2c0,.5.04.92.11,1.26s.17.61.31.81.31.35.51.43.44.13.7.13c.22,0,.43-.04.61-.11s.35-.18.48-.32.24-.31.32-.51.11-.43.11-.69Z"/>
    <path class="cls-7" d="M285.07,100.51h-1.31v1.69h-1.04v-1.69h-3.69v-.9l3.26-5.07h1.46v5.07h1.31v.9ZM282.72,95.53l-2.67,4.08h2.67v-4.08Z"/>
    <path class="cls-7" d="M287.52,93.48c1.8,1.67,2.7,3.52,2.7,5.57,0,.42-.04.86-.13,1.31s-.23.92-.44,1.39-.49.96-.83,1.44-.79.98-1.32,1.47l-.59-.6c.76-.75,1.33-1.54,1.71-2.36s.56-1.68.56-2.58c0-1.86-.76-3.53-2.27-5.02l.62-.63Z"/>
    <path class="cls-7" d="M293.37,103.4c.2,0,.39,0,.58-.05s.35-.11.5-.19.26-.19.34-.31.13-.27.13-.43-.03-.3-.08-.4-.12-.2-.19-.28-.13-.18-.19-.28-.08-.23-.08-.39c0-.08.02-.17.05-.26s.08-.17.14-.25.15-.13.25-.18.22-.07.35-.07.27.03.4.08.24.14.33.26.17.26.23.44.08.38.08.62c0,.32-.06.64-.18.93s-.3.56-.53.79-.53.41-.88.55-.76.21-1.23.21v-.8Z"/>
    <path class="cls-7" d="M308.11,97.16h-1.74v-.84h2.77v5.03h1.75v.85h-4.72v-.85h1.93v-4.19ZM308.47,93.85c.11,0,.22.02.32.06s.18.1.25.17.13.16.17.25.06.2.06.31-.02.21-.06.31-.1.18-.17.26-.16.13-.25.17-.2.06-.32.06-.22-.02-.32-.06-.18-.1-.25-.17-.13-.16-.17-.26-.06-.2-.06-.31.02-.22.06-.31.1-.18.17-.25.16-.13.25-.17.2-.06.32-.06Z"/>
    <path class="cls-7" d="M313.91,93.48c1.8,1.67,2.7,3.52,2.7,5.57,0,.42-.04.86-.13,1.31s-.23.92-.44,1.39-.49.96-.83,1.44-.79.98-1.32,1.47l-.59-.6c.76-.75,1.33-1.54,1.71-2.36s.56-1.68.56-2.58c0-1.86-.76-3.53-2.27-5.02l.62-.63Z"/>
    <path class="cls-7" d="M321.62,100.36c.13,0,.26.03.38.08s.22.12.31.21.16.19.21.31.08.25.08.38-.03.26-.08.38-.12.22-.21.31-.19.16-.31.21-.25.08-.38.08-.26-.03-.38-.08-.22-.12-.31-.21-.16-.19-.21-.31-.08-.24-.08-.38.03-.26.08-.38.12-.22.21-.31.19-.16.31-.21.24-.08.38-.08Z"/>
    <path class="cls-7" d="M331.06,95.44h-2.27v6.77h-1.05v-6.77h-2.27v-.89h5.59v.89Z"/>
    <path class="cls-7" d="M337.62,99.21c0,.46-.06.88-.19,1.26s-.31.71-.56.98-.54.48-.88.63-.74.23-1.18.23-.8-.07-1.13-.2-.62-.32-.85-.58-.41-.57-.53-.94-.18-.81-.18-1.29c0-.46.06-.87.19-1.25s.31-.7.56-.97.54-.48.88-.63.74-.23,1.18-.23.8.07,1.13.2.62.32.85.57.41.57.53.94.18.8.18,1.29ZM336.58,99.26c0-.36-.04-.68-.12-.95s-.19-.5-.34-.68-.33-.32-.54-.41-.45-.14-.71-.14c-.3,0-.57.06-.78.18s-.39.28-.53.48-.24.43-.3.69-.1.54-.1.83c0,.36.04.68.12.96s.19.5.34.68.33.32.54.41.45.14.71.14c.3,0,.57-.06.78-.18s.39-.28.53-.48.24-.43.3-.69.1-.54.1-.83Z"/>
    <path class="cls-7" d="M344.44,98.32c0,.69-.08,1.28-.24,1.78s-.38.91-.66,1.24-.6.57-.97.73-.76.24-1.17.24c-.49,0-.92-.09-1.29-.27s-.67-.43-.91-.77-.42-.75-.54-1.23-.18-1.03-.18-1.63c0-.68.08-1.27.24-1.77s.38-.91.65-1.24.6-.57.96-.73.76-.24,1.17-.24c.49,0,.92.09,1.29.27s.67.44.91.77.42.74.54,1.22.18,1.02.18,1.62ZM343.35,98.4c0-.45-.03-.86-.1-1.23s-.18-.69-.33-.96-.35-.48-.59-.63-.53-.22-.87-.22-.61.08-.85.24-.43.37-.58.64-.27.59-.34.96-.11.75-.11,1.16c0,.45.04.87.11,1.24s.18.69.33.96.34.48.58.62.53.22.86.22.61-.08.85-.24.43-.37.59-.64.27-.59.34-.95.11-.75.11-1.17Z"/>
    <path class="cls-7" d="M350.72,99.16c0,.49-.07.92-.2,1.31s-.33.71-.57.98-.55.47-.91.62-.76.21-1.2.21c-.35,0-.7-.03-1.07-.1s-.72-.17-1.08-.32v-7.93h1.02v2.28l-.05,1.09c.29-.39.61-.67.94-.83s.69-.24,1.08-.24c.34,0,.63.07.88.21s.47.34.64.59.3.56.39.93.13.76.13,1.21ZM349.68,99.2c0-.31-.02-.59-.07-.85s-.12-.48-.21-.66-.22-.33-.38-.43-.33-.16-.54-.16c-.13,0-.26.02-.39.06s-.27.11-.41.21-.29.22-.45.38-.33.35-.51.59v2.85c.2.08.4.14.61.18s.4.07.59.07c.23,0,.46-.04.67-.11s.4-.2.56-.37.29-.4.39-.69.14-.64.14-1.07Z"/>
    <path class="cls-7" d="M356.95,100.6c0,.21-.04.39-.11.56s-.17.31-.29.44-.26.24-.42.33-.33.16-.51.22-.37.1-.56.13-.38.04-.56.04c-.4,0-.76-.02-1.1-.05s-.66-.09-.98-.17v-.94c.34.1.69.17,1.03.22s.68.08,1.01.08c.49,0,.85-.07,1.08-.2s.35-.32.35-.57c0-.11-.02-.2-.06-.28s-.1-.16-.2-.24-.25-.16-.45-.24-.49-.18-.84-.28c-.27-.08-.51-.17-.74-.27s-.42-.22-.58-.35-.29-.3-.39-.48-.14-.4-.14-.65c0-.16.04-.34.11-.54s.21-.38.39-.54.43-.31.74-.42.7-.17,1.17-.17c.23,0,.49.01.77.04s.57.07.88.13v.91c-.32-.08-.62-.14-.91-.17s-.54-.06-.75-.06c-.25,0-.47.02-.64.06s-.31.09-.42.16-.18.15-.23.24-.07.19-.07.3.02.2.06.29.12.17.23.25.27.16.47.24.46.17.78.26c.35.1.64.21.88.32s.43.24.58.37.25.29.32.46.1.37.1.59Z"/>
    <path class="cls-7" d="M363.86,98.95c0,.14,0,.27,0,.36s0,.19-.02.28h-4.13c0,.6.17,1.06.5,1.39s.82.48,1.45.48c.17,0,.34,0,.52-.02s.34-.03.5-.06.31-.05.46-.08.28-.06.41-.1v.84c-.28.08-.59.14-.94.19s-.71.07-1.09.07c-.5,0-.94-.07-1.3-.21s-.66-.33-.89-.59-.4-.58-.52-.96-.17-.8-.17-1.28c0-.41.06-.81.18-1.17s.29-.69.52-.97.51-.5.84-.67.71-.25,1.13-.25.77.06,1.09.19.58.31.8.55.38.52.49.86.17.72.17,1.13ZM362.8,98.8c.01-.26-.01-.5-.08-.72s-.16-.4-.29-.56-.29-.28-.49-.37-.42-.13-.68-.13c-.22,0-.43.04-.61.13s-.34.21-.47.36-.24.34-.32.56-.13.46-.15.72h3.09Z"/>
    <path class="cls-7" d="M365.73,96.32h.93l.03,1.08c.35-.42.69-.72,1.03-.91s.68-.28,1.02-.28c.61,0,1.07.2,1.39.59s.46.98.44,1.76h-1.03c.01-.52-.06-.89-.23-1.12s-.4-.35-.71-.35c-.14,0-.27.02-.41.07s-.28.13-.43.23-.3.25-.47.41-.34.37-.53.61v3.78h-1.03v-5.88Z"/>
    <path class="cls-7" d="M371.54,96.32h1.16l1.44,3.89.31.95.32-.97,1.43-3.87h1.12l-2.31,5.88h-1.17l-2.3-5.88Z"/>
    <path class="cls-7" d="M382.46,102.2l-.02-.79c-.32.32-.65.54-.98.69s-.68.21-1.04.21c-.34,0-.62-.04-.86-.13s-.43-.2-.59-.35-.27-.33-.34-.53-.11-.42-.11-.66c0-.59.22-1.05.66-1.39s1.09-.5,1.95-.5h1.22v-.52c0-.35-.11-.63-.33-.83s-.56-.31-1.02-.31c-.33,0-.66.04-.98.11s-.66.18-1,.32v-.92c.13-.05.27-.09.43-.14s.33-.08.5-.12.36-.06.55-.08.38-.03.58-.03c.36,0,.68.04.96.12s.53.2.72.36.35.36.45.6.16.53.16.86v4.05h-.91ZM382.35,99.53h-1.29c-.25,0-.47.03-.66.08s-.33.12-.45.22-.2.21-.26.34-.08.28-.08.44c0,.11.02.22.05.33s.09.2.17.28.18.14.3.19.28.07.46.07c.23,0,.5-.07.81-.21s.62-.37.96-.68v-1.04Z"/>
    <path class="cls-7" d="M390.31,99.16c0,.49-.07.92-.2,1.31s-.33.71-.57.98-.55.47-.91.62-.76.21-1.2.21c-.35,0-.7-.03-1.07-.1s-.72-.17-1.08-.32v-7.93h1.02v2.28l-.05,1.09c.29-.39.61-.67.94-.83s.69-.24,1.08-.24c.34,0,.63.07.88.21s.47.34.64.59.3.56.39.93.13.76.13,1.21ZM389.27,99.2c0-.31-.02-.59-.07-.85s-.12-.48-.21-.66-.22-.33-.38-.43-.33-.16-.54-.16c-.13,0-.26.02-.39.06s-.27.11-.41.21-.29.22-.45.38-.33.35-.51.59v2.85c.2.08.4.14.61.18s.4.07.59.07c.23,0,.46-.04.67-.11s.4-.2.56-.37.29-.4.39-.69.14-.64.14-1.07Z"/>
    <path class="cls-7" d="M393.88,94.76h-1.74v-.84h2.77v7.43h1.75v.85h-4.72v-.85h1.93v-6.59Z"/>
    <path class="cls-7" d="M403.45,98.95c0,.14,0,.27,0,.36s0,.19-.02.28h-4.13c0,.6.17,1.06.5,1.39s.82.48,1.45.48c.17,0,.34,0,.52-.02s.34-.03.5-.06.31-.05.46-.08.28-.06.41-.1v.84c-.28.08-.59.14-.94.19s-.71.07-1.09.07c-.5,0-.94-.07-1.3-.21s-.66-.33-.89-.59-.4-.58-.52-.96-.17-.8-.17-1.28c0-.41.06-.81.18-1.17s.29-.69.52-.97.51-.5.84-.67.71-.25,1.13-.25.77.06,1.09.19.58.31.8.55.38.52.49.86.17.72.17,1.13ZM402.39,98.8c.01-.26-.01-.5-.08-.72s-.16-.4-.29-.56-.29-.28-.49-.37-.42-.13-.68-.13c-.22,0-.43.04-.61.13s-.34.21-.47.36-.24.34-.32.56-.13.46-.15.72h3.09Z"/>
    <path class="cls-7" d="M408.6,104.66c-1.8-1.67-2.7-3.51-2.7-5.53,0-.47.05-.94.14-1.42s.25-.94.46-1.42.49-.95.84-1.42.77-.94,1.27-1.41l.59.6c-1.52,1.5-2.27,3.15-2.27,4.97,0,.91.19,1.78.57,2.61s.95,1.62,1.7,2.37l-.62.63Z"/>
    <path class="cls-7" d="M412.87,93.48c1.8,1.67,2.7,3.52,2.7,5.57,0,.42-.04.86-.13,1.31s-.23.92-.44,1.39-.49.96-.83,1.44-.79.98-1.32,1.47l-.59-.6c.76-.75,1.33-1.54,1.71-2.36s.56-1.68.56-2.58c0-1.86-.76-3.53-2.27-5.02l.62-.63Z"/>
    <path class="cls-7" d="M419.47,93.48c1.8,1.67,2.7,3.52,2.7,5.57,0,.42-.04.86-.13,1.31s-.23.92-.44,1.39-.49.96-.83,1.44-.79.98-1.32,1.47l-.59-.6c.76-.75,1.33-1.54,1.71-2.36s.56-1.68.56-2.58c0-1.86-.76-3.53-2.27-5.02l.62-.63Z"/>
  </g>
  <line id="source_line-2" data-name="source line" class="cls-2" x1="30.52" y1="302.91" x2="463.63" y2="302.91"/>
  <line class="cls-2" x1="30.2" y1="129.86" x2="30.2" y2="164.87"/>
  <line class="cls-2" x1="30.52" y1="30.79" x2="30.52" y2="65.8"/>
  <line class="cls-2" x1="30.52" y1="285.4" x2="30.52" y2="320.41"/>
  <g>
    <circle class="cls-6" cx="30.2" cy="48.3" r="13.56"/>
    <path class="cls-7" d="M32.5,51.85h-4.25v-.89h1.58v-5.85h-1.58v-.8c.6,0,1.04-.08,1.32-.25s.44-.49.48-.96h.91v7.86h1.55v.89Z"/>
  </g>
  <g>
    <circle class="cls-5" cx="61.23" cy="48.3" r="13.56"/>
    <path class="cls-7" d="M63.97,51.85h-5.38v-1.22c.39-.37.75-.72,1.1-1.05s.68-.69,1.01-1.05c.66-.73,1.12-1.32,1.36-1.75s.36-.89.36-1.36c0-.24-.04-.46-.11-.64s-.18-.34-.31-.46c-.14-.12-.29-.21-.47-.26s-.38-.09-.59-.09-.42.03-.63.08-.42.12-.61.2c-.16.07-.32.15-.47.24s-.28.17-.37.24h-.06v-1.24c.24-.12.58-.24,1.01-.35s.84-.17,1.23-.17c.81,0,1.45.22,1.91.65s.69,1.02.69,1.75c0,.34-.04.65-.12.94s-.19.56-.33.8c-.14.25-.32.51-.52.76s-.42.5-.64.74c-.37.4-.78.81-1.23,1.24s-.81.77-1.08,1.02h4.29v1Z"/>
  </g>
  <g>
    <circle class="cls-1" cx="123.73" cy="48.3" r="13.56"/>
    <path class="cls-7" d="M123.45,43.95c-.21,0-.42.03-.63.08s-.42.12-.62.2c-.19.08-.35.16-.49.25s-.26.17-.37.24h-.07v-1.24c.25-.14.6-.26,1.03-.37s.85-.17,1.25-.17.74.04,1.03.12.56.2.8.37c.26.19.45.41.58.68s.2.58.2.93c0,.48-.16.9-.47,1.27s-.7.59-1.14.69v.08c.18.04.38.1.59.18s.4.21.58.38.33.38.44.65.17.58.17.96-.07.76-.2,1.09-.33.62-.57.88c-.25.27-.56.47-.92.6s-.77.21-1.22.21-.87-.05-1.3-.16-.79-.23-1.08-.38v-1.24h.08c.25.18.58.35.99.52s.83.25,1.24.25c.24,0,.48-.04.72-.11s.44-.2.6-.37c.16-.17.28-.36.36-.57s.12-.47.12-.79-.05-.58-.14-.78-.22-.36-.38-.48-.36-.2-.58-.24-.47-.07-.73-.07h-.5v-.97h.39c.53,0,.96-.12,1.29-.38s.5-.61.5-1.09c0-.22-.04-.41-.13-.57s-.2-.28-.33-.38c-.15-.1-.31-.17-.49-.21s-.37-.06-.57-.06Z"/>
  </g>
  <g>
    <circle class="cls-4" cx="185.79" cy="48.3" r="13.56"/>
    <path class="cls-7" d="M188.76,48.85h-1.04v3h-1.12v-3h-3.86v-1.23l3.9-4.49h1.08v4.79h1.04v.94ZM186.6,47.91v-3.41l-2.94,3.41h2.94Z"/>
  </g>
  <g>
    <circle class="cls-3" cx="278.9" cy="48.3" r="13.56"/>
    <path class="cls-7" d="M281.55,49.07c0,.42-.07.81-.2,1.17s-.32.67-.57.93c-.25.27-.55.47-.92.63s-.77.23-1.23.23c-.42,0-.83-.05-1.23-.14s-.75-.21-1.05-.36v-1.24h.08c.09.07.22.14.39.23s.35.16.56.24c.23.08.44.15.63.19s.41.07.64.07.46-.04.69-.13.41-.22.57-.41c.14-.17.25-.37.33-.6s.11-.5.11-.81-.04-.56-.13-.76-.21-.36-.37-.49c-.17-.15-.37-.25-.62-.31s-.52-.09-.82-.09c-.32,0-.63.02-.96.07s-.58.09-.77.14v-4.49h4.79v1.03h-3.66v2.32c.14-.02.28-.03.42-.04s.26-.01.38-.01c.45,0,.82.04,1.13.11s.61.22.89.43c.29.22.51.49.67.82s.23.76.23,1.28Z"/>
  </g>
  <g>
    <circle class="cls-6" cx="30.2" cy="147.24" r="13.56"/>
    <path class="cls-7" d="M26.54,150.79l2.94-8.72h1.43l2.94,8.72h-1.22l-.79-2.44h-3.33l-.79,2.44h-1.17ZM31.52,147.36l-1.35-4.11-1.34,4.11h2.69Z"/>
  </g>
  <g>
    <circle class="cls-6" cx="30.2" cy="302.91" r="13.56"/>
    <path class="cls-7" d="M26.54,306.46l2.94-8.72h1.43l2.94,8.72h-1.22l-.79-2.44h-3.33l-.79,2.44h-1.17ZM31.52,303.03l-1.35-4.11-1.34,4.11h2.69Z"/>
  </g>
  <line id="source_line-3" data-name="source line" class="cls-2" x1="61.23" y1="172.69" x2="92.31" y2="172.69"/>
  <g>
    <circle class="cls-5" cx="92.31" cy="172.69" r="13.56"/>
    <path class="cls-7" d="M95.57,173.56c0,.43-.08.82-.25,1.15s-.38.61-.66.82c-.33.26-.68.44-1.05.55s-.86.16-1.45.16h-2.5v-8.72h2.31c.62,0,1.09.02,1.4.06s.61.14.89.29c.31.17.54.39.69.66s.22.59.22.96c0,.41-.11.78-.33,1.1s-.52.58-.9.76v.05c.52.14.92.4,1.21.77s.43.84.43,1.4ZM93.96,169.65c0-.21-.04-.39-.11-.55s-.18-.28-.34-.37c-.19-.11-.4-.17-.63-.19s-.55-.04-.96-.04h-1.11v2.55h1.32c.36,0,.63-.02.8-.06s.35-.11.53-.23c.18-.11.3-.26.38-.45s.11-.41.11-.68ZM94.37,173.61c0-.33-.05-.6-.14-.81s-.28-.39-.57-.54c-.18-.1-.38-.16-.6-.19s-.52-.04-.92-.04h-1.32v3.22h.94c.51,0,.91-.02,1.2-.07s.55-.15.77-.3c.22-.15.38-.33.48-.52s.15-.44.15-.75Z"/>
  </g>
  <line class="cls-2" x1="61.23" y1="155.32" x2="61.23" y2="190.33"/>
  <g>
    <circle class="cls-5" cx="61.23" cy="172.69" r="13.56"/>
    <path class="cls-7" d="M64.49,173.56c0,.43-.08.82-.25,1.15s-.38.61-.66.82c-.33.26-.68.44-1.05.55s-.86.16-1.45.16h-2.5v-8.72h2.31c.62,0,1.09.02,1.4.06s.61.14.89.29c.31.17.54.39.69.66s.22.59.22.96c0,.41-.11.78-.33,1.1s-.52.58-.9.76v.05c.52.14.92.4,1.21.77s.43.84.43,1.4ZM62.88,169.65c0-.21-.04-.39-.11-.55s-.18-.28-.34-.37c-.19-.11-.4-.17-.63-.19s-.55-.04-.96-.04h-1.11v2.55h1.32c.36,0,.63-.02.8-.06s.35-.11.53-.23c.18-.11.3-.26.38-.45s.11-.41.11-.68ZM63.29,173.61c0-.33-.05-.6-.14-.81s-.28-.39-.57-.54c-.18-.1-.38-.16-.6-.19s-.52-.04-.92-.04h-1.32v3.22h.94c.51,0,.91-.02,1.2-.07s.55-.15.77-.3c.22-.15.38-.33.48-.52s.15-.44.15-.75Z"/>
  </g>
  <g>
    <circle class="cls-5" cx="92.31" cy="302.91" r="13.56"/>
    <path class="cls-7" d="M95.57,303.78c0,.43-.08.82-.25,1.15s-.38.61-.66.82c-.33.26-.68.44-1.05.55s-.86.16-1.45.16h-2.5v-8.72h2.31c.62,0,1.09.02,1.4.06s.61.14.89.29c.31.17.54.39.69.66s.22.59.22.96c0,.41-.11.78-.33,1.1s-.52.58-.9.76v.05c.52.14.92.4,1.21.77s.43.84.43,1.4ZM93.96,299.86c0-.21-.04-.39-.11-.55s-.18-.28-.34-.37c-.19-.11-.4-.17-.63-.19s-.55-.04-.96-.04h-1.11v2.55h1.32c.36,0,.63-.02.8-.06s.35-.11.53-.23c.18-.11.3-.26.38-.45s.11-.41.11-.68ZM94.37,303.83c0-.33-.05-.6-.14-.81s-.28-.39-.57-.54c-.18-.1-.38-.16-.6-.19s-.52-.04-.92-.04h-1.32v3.22h.94c.51,0,.91-.02,1.2-.07s.55-.15.77-.3c.22-.15.38-.33.48-.52s.15-.44.15-.75Z"/>
  </g>
  <g>
    <circle class="cls-5" cx="61.23" cy="302.91" r="13.56"/>
    <path class="cls-7" d="M64.49,303.78c0,.43-.08.82-.25,1.15s-.38.61-.66.82c-.33.26-.68.44-1.05.55s-.86.16-1.45.16h-2.5v-8.72h2.31c.62,0,1.09.02,1.4.06s.61.14.89.29c.31.17.54.39.69.66s.22.59.22.96c0,.41-.11.78-.33,1.1s-.52.58-.9.76v.05c.52.14.92.4,1.21.77s.43.84.43,1.4ZM62.88,299.86c0-.21-.04-.39-.11-.55s-.18-.28-.34-.37c-.19-.11-.4-.17-.63-.19s-.55-.04-.96-.04h-1.11v2.55h1.32c.36,0,.63-.02.8-.06s.35-.11.53-.23c.18-.11.3-.26.38-.45s.11-.41.11-.68ZM63.29,303.83c0-.33-.05-.6-.14-.81s-.28-.39-.57-.54c-.18-.1-.38-.16-.6-.19s-.52-.04-.92-.04h-1.32v3.22h.94c.51,0,.91-.02,1.2-.07s.55-.15.77-.3c.22-.15.38-.33.48-.52s.15-.44.15-.75Z"/>
  </g>
  <line id="source_line-4" data-name="source line" class="cls-2" x1="122.73" y1="193.62" x2="216.71" y2="193.62"/>
  <g>
    <circle class="cls-1" cx="154.76" cy="193.62" r="13.56"/>
    <path class="cls-7" d="M155.45,197.32c-.57,0-1.09-.1-1.57-.29s-.89-.48-1.24-.86-.62-.85-.81-1.42-.29-1.22-.29-1.95.09-1.37.28-1.91.46-1.02.81-1.42c.35-.39.76-.69,1.24-.89s1.01-.31,1.6-.31c.29,0,.57.02.82.06s.49.1.71.16c.19.06.38.13.58.22s.39.18.58.29v1.4h-.09c-.1-.09-.23-.21-.39-.34s-.36-.26-.59-.39c-.22-.12-.46-.22-.73-.3s-.56-.12-.91-.12c-.37,0-.72.08-1.05.23s-.62.38-.87.67c-.25.3-.44.67-.57,1.12s-.21.96-.21,1.52c0,.6.07,1.11.22,1.54s.34.8.59,1.09c.24.29.53.51.86.65s.68.22,1.04.22c.34,0,.65-.04.93-.12s.54-.19.76-.31c.21-.12.4-.25.56-.37s.28-.24.37-.33h.09v1.38c-.19.09-.37.18-.54.26s-.38.16-.62.24c-.25.08-.49.14-.71.19s-.5.06-.85.06Z"/>
  </g>
  <g>
    <circle class="cls-1" cx="216.71" cy="193.62" r="13.56"/>
    <path class="cls-7" d="M217.4,197.32c-.57,0-1.09-.1-1.57-.29s-.89-.48-1.24-.86-.62-.85-.81-1.42-.29-1.22-.29-1.95.09-1.37.28-1.91.46-1.02.81-1.42c.35-.39.76-.69,1.24-.89s1.01-.31,1.6-.31c.29,0,.57.02.82.06s.49.1.71.16c.19.06.38.13.58.22s.39.18.58.29v1.4h-.09c-.1-.09-.23-.21-.39-.34s-.36-.26-.59-.39c-.22-.12-.46-.22-.73-.3s-.56-.12-.91-.12c-.37,0-.72.08-1.05.23s-.62.38-.87.67c-.25.3-.44.67-.57,1.12s-.21.96-.21,1.52c0,.6.07,1.11.22,1.54s.34.8.59,1.09c.24.29.53.51.86.65s.68.22,1.04.22c.34,0,.65-.04.93-.12s.54-.19.76-.31c.21-.12.4-.25.56-.37s.28-.24.37-.33h.09v1.38c-.19.09-.37.18-.54.26s-.38.16-.62.24c-.25.08-.49.14-.71.19s-.5.06-.85.06Z"/>
  </g>
  <line class="cls-2" x1="123.73" y1="176.24" x2="123.73" y2="211.25"/>
  <g>
    <circle class="cls-1" cx="123.73" cy="193.62" r="13.56"/>
    <path class="cls-7" d="M124.42,197.32c-.57,0-1.09-.1-1.57-.29s-.89-.48-1.24-.86-.62-.85-.81-1.42-.29-1.22-.29-1.95.09-1.37.28-1.91.46-1.02.81-1.42c.35-.39.76-.69,1.24-.89s1.01-.31,1.6-.31c.29,0,.57.02.82.06s.49.1.71.16c.19.06.38.13.58.22s.39.18.58.29v1.4h-.09c-.1-.09-.23-.21-.39-.34s-.36-.26-.59-.39c-.22-.12-.46-.22-.73-.3s-.56-.12-.91-.12c-.37,0-.72.08-1.05.23s-.62.38-.87.67c-.25.3-.44.67-.57,1.12s-.21.96-.21,1.52c0,.6.07,1.11.22,1.54s.34.8.59,1.09c.24.29.53.51.86.65s.68.22,1.04.22c.34,0,.65-.04.93-.12s.54-.19.76-.31c.21-.12.4-.25.56-.37s.28-.24.37-.33h.09v1.38c-.19.09-.37.18-.54.26s-.38.16-.62.24c-.25.08-.49.14-.71.19s-.5.06-.85.06Z"/>
  </g>
  <g>
    <circle class="cls-1" cx="154.76" cy="302.91" r="13.56"/>
    <path class="cls-7" d="M155.45,306.61c-.57,0-1.09-.1-1.57-.29s-.89-.48-1.24-.86-.62-.85-.81-1.42-.29-1.22-.29-1.95.09-1.37.28-1.91.46-1.02.81-1.42c.35-.39.76-.69,1.24-.89s1.01-.31,1.6-.31c.29,0,.57.02.82.06s.49.1.71.16c.19.06.38.13.58.22s.39.18.58.29v1.4h-.09c-.1-.09-.23-.21-.39-.34s-.36-.26-.59-.39c-.22-.12-.46-.22-.73-.3s-.56-.12-.91-.12c-.37,0-.72.08-1.05.23s-.62.38-.87.67c-.25.3-.44.67-.57,1.12s-.21.96-.21,1.52c0,.6.07,1.11.22,1.54s.34.8.59,1.09c.24.29.53.51.86.65s.68.22,1.04.22c.34,0,.65-.04.93-.12s.54-.19.76-.31c.21-.12.4-.25.56-.37s.28-.24.37-.33h.09v1.38c-.19.09-.37.18-.54.26s-.38.16-.62.24c-.25.08-.49.14-.71.19s-.5.06-.85.06Z"/>
  </g>
  <g>
    <circle class="cls-1" cx="216.71" cy="302.91" r="13.56"/>
    <path class="cls-7" d="M217.4,306.61c-.57,0-1.09-.1-1.57-.29s-.89-.48-1.24-.86-.62-.85-.81-1.42-.29-1.22-.29-1.95.09-1.37.28-1.91.46-1.02.81-1.42c.35-.39.76-.69,1.24-.89s1.01-.31,1.6-.31c.29,0,.57.02.82.06s.49.1.71.16c.19.06.38.13.58.22s.39.18.58.29v1.4h-.09c-.1-.09-.23-.21-.39-.34s-.36-.26-.59-.39c-.22-.12-.46-.22-.73-.3s-.56-.12-.91-.12c-.37,0-.72.08-1.05.23s-.62.38-.87.67c-.25.3-.44.67-.57,1.12s-.21.96-.21,1.52c0,.6.07,1.11.22,1.54s.34.8.59,1.09c.24.29.53.51.86.65s.68.22,1.04.22c.34,0,.65-.04.93-.12s.54-.19.76-.31c.21-.12.4-.25.56-.37s.28-.24.37-.33h.09v1.38c-.19.09-.37.18-.54.26s-.38.16-.62.24c-.25.08-.49.14-.71.19s-.5.06-.85.06Z"/>
  </g>
  <g>
    <circle class="cls-1" cx="123.73" cy="302.91" r="13.56"/>
    <path class="cls-7" d="M124.42,306.61c-.57,0-1.09-.1-1.57-.29s-.89-.48-1.24-.86-.62-.85-.81-1.42-.29-1.22-.29-1.95.09-1.37.28-1.91.46-1.02.81-1.42c.35-.39.76-.69,1.24-.89s1.01-.31,1.6-.31c.29,0,.57.02.82.06s.49.1.71.16c.19.06.38.13.58.22s.39.18.58.29v1.4h-.09c-.1-.09-.23-.21-.39-.34s-.36-.26-.59-.39c-.22-.12-.46-.22-.73-.3s-.56-.12-.91-.12c-.37,0-.72.08-1.05.23s-.62.38-.87.67c-.25.3-.44.67-.57,1.12s-.21.96-.21,1.52c0,.6.07,1.11.22,1.54s.34.8.59,1.09c.24.29.53.51.86.65s.68.22,1.04.22c.34,0,.65-.04.93-.12s.54-.19.76-.31c.21-.12.4-.25.56-.37s.28-.24.37-.33h.09v1.38c-.19.09-.37.18-.54.26s-.38.16-.62.24c-.25.08-.49.14-.71.19s-.5.06-.85.06Z"/>
  </g>
  <line id="source_line-5" data-name="source line" class="cls-2" x1="184.79" y1="219.88" x2="372.25" y2="219.88"/>
  <g>
    <circle class="cls-4" cx="247.77" cy="219.88" r="13.56"/>
    <path class="cls-7" d="M251.46,219.08c0,.8-.16,1.52-.48,2.16s-.75,1.14-1.3,1.5c-.44.28-.89.46-1.34.56s-1.04.14-1.74.14h-2.01v-8.72h1.99c.82,0,1.46.06,1.93.18s.86.29,1.19.51c.56.37,1,.86,1.31,1.48s.46,1.35.46,2.2ZM250.26,219.06c0-.67-.11-1.25-.33-1.72s-.55-.84-.99-1.11c-.31-.19-.64-.32-.99-.4s-.79-.12-1.31-.12h-.88v6.73h.88c.52,0,.97-.04,1.35-.12s.74-.23,1.06-.46c.4-.27.71-.64.91-1.09s.3-1.02.3-1.7Z"/>
  </g>
  <g>
    <circle class="cls-4" cx="308.93" cy="219.88" r="13.56"/>
    <path class="cls-7" d="M312.62,219.08c0,.8-.16,1.52-.48,2.16s-.75,1.14-1.3,1.5c-.44.28-.89.46-1.34.56s-1.04.14-1.74.14h-2.01v-8.72h1.99c.82,0,1.46.06,1.93.18s.86.29,1.19.51c.56.37,1,.86,1.31,1.48s.46,1.35.46,2.2ZM311.41,219.06c0-.67-.11-1.25-.33-1.72s-.55-.84-.99-1.11c-.31-.19-.64-.32-.99-.4s-.79-.12-1.31-.12h-.88v6.73h.88c.52,0,.97-.04,1.35-.12s.74-.23,1.06-.46c.4-.27.71-.64.91-1.09s.3-1.02.3-1.7Z"/>
  </g>
  <g>
    <circle class="cls-4" cx="370.98" cy="219.88" r="13.56"/>
    <path class="cls-7" d="M374.67,219.08c0,.8-.16,1.52-.48,2.16s-.75,1.14-1.3,1.5c-.44.28-.89.46-1.34.56s-1.04.14-1.74.14h-2.01v-8.72h1.99c.82,0,1.46.06,1.93.18s.86.29,1.19.51c.56.37,1,.86,1.31,1.48s.46,1.35.46,2.2ZM373.47,219.06c0-.67-.11-1.25-.33-1.72s-.55-.84-.99-1.11c-.31-.19-.64-.32-.99-.4s-.79-.12-1.31-.12h-.88v6.73h.88c.52,0,.97-.04,1.35-.12s.74-.23,1.06-.46c.4-.27.71-.64.91-1.09s.3-1.02.3-1.7Z"/>
  </g>
  <line class="cls-2" x1="185.79" y1="202.51" x2="185.79" y2="237.52"/>
  <g>
    <circle class="cls-4" cx="185.79" cy="219.88" r="13.56"/>
    <path class="cls-7" d="M189.48,219.08c0,.8-.16,1.52-.48,2.16s-.75,1.14-1.3,1.5c-.44.28-.89.46-1.34.56s-1.04.14-1.74.14h-2.01v-8.72h1.99c.82,0,1.46.06,1.93.18s.86.29,1.19.51c.56.37,1,.86,1.31,1.48s.46,1.35.46,2.2ZM188.27,219.06c0-.67-.11-1.25-.33-1.72s-.55-.84-.99-1.11c-.31-.19-.64-.32-.99-.4s-.79-.12-1.31-.12h-.88v6.73h.88c.52,0,.97-.04,1.35-.12s.74-.23,1.06-.46c.4-.27.71-.64.91-1.09s.3-1.02.3-1.7Z"/>
  </g>
  <g>
    <circle class="cls-4" cx="247.77" cy="302.91" r="13.56"/>
    <path class="cls-7" d="M251.46,302.1c0,.8-.16,1.52-.48,2.16s-.75,1.14-1.3,1.5c-.44.28-.89.46-1.34.56s-1.04.14-1.74.14h-2.01v-8.72h1.99c.82,0,1.46.06,1.93.18s.86.29,1.19.51c.56.37,1,.86,1.31,1.48s.46,1.35.46,2.2ZM250.26,302.08c0-.67-.11-1.25-.33-1.72s-.55-.84-.99-1.11c-.31-.19-.64-.32-.99-.4s-.79-.12-1.31-.12h-.88v6.73h.88c.52,0,.97-.04,1.35-.12s.74-.23,1.06-.46c.4-.27.71-.64.91-1.09s.3-1.02.3-1.7Z"/>
  </g>
  <g>
    <circle class="cls-4" cx="308.93" cy="302.91" r="13.56"/>
    <path class="cls-7" d="M312.62,302.1c0,.8-.16,1.52-.48,2.16s-.75,1.14-1.3,1.5c-.44.28-.89.46-1.34.56s-1.04.14-1.74.14h-2.01v-8.72h1.99c.82,0,1.46.06,1.93.18s.86.29,1.19.51c.56.37,1,.86,1.31,1.48s.46,1.35.46,2.2ZM311.41,302.08c0-.67-.11-1.25-.33-1.72s-.55-.84-.99-1.11c-.31-.19-.64-.32-.99-.4s-.79-.12-1.31-.12h-.88v6.73h.88c.52,0,.97-.04,1.35-.12s.74-.23,1.06-.46c.4-.27.71-.64.91-1.09s.3-1.02.3-1.7Z"/>
  </g>
  <g>
    <circle class="cls-4" cx="370.98" cy="302.91" r="13.56"/>
    <path class="cls-7" d="M374.67,302.1c0,.8-.16,1.52-.48,2.16s-.75,1.14-1.3,1.5c-.44.28-.89.46-1.34.56s-1.04.14-1.74.14h-2.01v-8.72h1.99c.82,0,1.46.06,1.93.18s.86.29,1.19.51c.56.37,1,.86,1.31,1.48s.46,1.35.46,2.2ZM373.47,302.08c0-.67-.11-1.25-.33-1.72s-.55-.84-.99-1.11c-.31-.19-.64-.32-.99-.4s-.79-.12-1.31-.12h-.88v6.73h.88c.52,0,.97-.04,1.35-.12s.74-.23,1.06-.46c.4-.27.71-.64.91-1.09s.3-1.02.3-1.7Z"/>
  </g>
  <g>
    <circle class="cls-4" cx="185.79" cy="302.91" r="13.56"/>
    <path class="cls-7" d="M189.48,302.1c0,.8-.16,1.52-.48,2.16s-.75,1.14-1.3,1.5c-.44.28-.89.46-1.34.56s-1.04.14-1.74.14h-2.01v-8.72h1.99c.82,0,1.46.06,1.93.18s.86.29,1.19.51c.56.37,1,.86,1.31,1.48s.46,1.35.46,2.2ZM188.27,302.08c0-.67-.11-1.25-.33-1.72s-.55-.84-.99-1.11c-.31-.19-.64-.32-.99-.4s-.79-.12-1.31-.12h-.88v6.73h.88c.52,0,.97-.04,1.35-.12s.74-.23,1.06-.46c.4-.27.71-.64.91-1.09s.3-1.02.3-1.7Z"/>
  </g>
  <line id="source_line-6" data-name="source line" class="cls-2" x1="277.75" y1="250.82" x2="463.63" y2="250.82"/>
  <g>
    <circle class="cls-3" cx="339.95" cy="250.82" r="13.56"/>
    <path class="cls-7" d="M337.47,254.37v-8.72h5.46v1.03h-4.29v2.39h4v1.03h-4v3.24h4.29v1.03h-5.46Z"/>
  </g>
  <g>
    <circle class="cls-3" cx="402.01" cy="250.82" r="13.56"/>
    <path class="cls-7" d="M399.53,254.37v-8.72h5.46v1.03h-4.29v2.39h4v1.03h-4v3.24h4.29v1.03h-5.46Z"/>
  </g>
  <g>
    <circle class="cls-3" cx="432.6" cy="250.82" r="13.56"/>
    <path class="cls-7" d="M430.12,254.37v-8.72h5.46v1.03h-4.29v2.39h4v1.03h-4v3.24h4.29v1.03h-5.46Z"/>
  </g>
  <g>
    <circle class="cls-3" cx="463.63" cy="250.82" r="13.56"/>
    <path class="cls-7" d="M461.15,254.37v-8.72h5.46v1.03h-4.29v2.39h4v1.03h-4v3.24h4.29v1.03h-5.46Z"/>
  </g>
  <line class="cls-2" x1="277.75" y1="233.45" x2="277.75" y2="268.46"/>
  <g>
    <circle class="cls-3" cx="277.75" cy="250.82" r="13.56"/>
    <path class="cls-7" d="M275.27,254.37v-8.72h5.46v1.03h-4.29v2.39h4v1.03h-4v3.24h4.29v1.03h-5.46Z"/>
  </g>
  <g>
    <circle class="cls-3" cx="339.95" cy="302.91" r="13.56"/>
    <path class="cls-7" d="M337.47,306.46v-8.72h5.46v1.03h-4.29v2.39h4v1.03h-4v3.24h4.29v1.03h-5.46Z"/>
  </g>
  <g>
    <circle class="cls-3" cx="402.01" cy="302.91" r="13.56"/>
    <path class="cls-7" d="M399.53,306.46v-8.72h5.46v1.03h-4.29v2.39h4v1.03h-4v3.24h4.29v1.03h-5.46Z"/>
  </g>
  <g>
    <circle class="cls-3" cx="432.6" cy="302.91" r="13.56"/>
    <path class="cls-7" d="M430.12,306.46v-8.72h5.46v1.03h-4.29v2.39h4v1.03h-4v3.24h4.29v1.03h-5.46Z"/>
  </g>
  <g>
    <circle class="cls-3" cx="463.63" cy="302.91" r="13.56"/>
    <path class="cls-7" d="M461.15,306.46v-8.72h5.46v1.03h-4.29v2.39h4v1.03h-4v3.24h4.29v1.03h-5.46Z"/>
  </g>
  <g>
    <circle class="cls-3" cx="277.75" cy="302.91" r="13.56"/>
    <path class="cls-7" d="M275.27,306.46v-8.72h5.46v1.03h-4.29v2.39h4v1.03h-4v3.24h4.29v1.03h-5.46Z"/>
  </g>
</svg>