<?xml version="1.0" encoding="UTF-8"?>
<svg id="a" data-name="Layer 1" xmlns="http://www.w3.org/2000/svg" width="504.81" height="337.68" viewBox="0 0 504.81 337.68">
  <defs>
    <style>
      .h {
        fill: #f0ff8b;
      }

      .h, .i, .j, .k, .l, .m {
        stroke: #000;
        stroke-miterlimit: 10;
      }

      .n {
        font-family: Consolas, Consolas;
      }

      .n, .o {
        font-size: 12px;
      }

      .i {
        fill: none;
      }

      .j {
        fill: #ff8be8;
      }

      .k {
        fill: #ff8b8b;
      }

      .l {
        fill: #8be2ff;
      }

      .o {
        font-family: Tahoma, Tahoma;
      }

      .m {
        fill: #8bffbc;
      }
    </style>
  </defs>
  <line id="b" data-name="source line" class="i" x1="30.52" y1="48.3" x2="278.9" y2="48.3"/>
  <text class="n" transform="translate(28.07 25.48)"><tspan x="0" y="0">Range(1, 5)</tspan></text>
  <text class="n" transform="translate(28.07 102.2)"><tspan x="0" y="0">.SelectMany(i =&gt; new string((char)(i+64), i).ToObservable())</tspan></text>
  <line id="c" data-name="source line" class="i" x1="30.52" y1="302.91" x2="463.63" y2="302.91"/>
  <line class="i" x1="30.2" y1="129.86" x2="30.2" y2="164.87"/>
  <line class="i" x1="30.52" y1="30.79" x2="30.52" y2="65.8"/>
  <line class="i" x1="30.52" y1="285.4" x2="30.52" y2="320.41"/>
  <g>
    <circle class="m" cx="30.2" cy="48.3" r="13.56"/>
    <text class="o" transform="translate(26.92 51.85)"><tspan x="0" y="0">1</tspan></text>
  </g>
  <g>
    <circle class="l" cx="61.23" cy="48.3" r="13.56"/>
    <text class="o" transform="translate(57.95 51.85)"><tspan x="0" y="0">2</tspan></text>
  </g>
  <g>
    <circle class="h" cx="123.73" cy="48.3" r="13.56"/>
    <text class="o" transform="translate(120.46 51.85)"><tspan x="0" y="0">3</tspan></text>
  </g>
  <g>
    <circle class="k" cx="185.79" cy="48.3" r="13.56"/>
    <text class="o" transform="translate(182.51 51.85)"><tspan x="0" y="0">4</tspan></text>
  </g>
  <g>
    <circle class="j" cx="278.9" cy="48.3" r="13.56"/>
    <text class="o" transform="translate(275.62 51.85)"><tspan x="0" y="0">5</tspan></text>
  </g>
  <g>
    <circle class="m" cx="30.2" cy="147.24" r="13.56"/>
    <text class="o" transform="translate(26.6 150.79)"><tspan x="0" y="0">A</tspan></text>
  </g>
  <g>
    <circle class="m" cx="30.2" cy="302.91" r="13.56"/>
    <text class="o" transform="translate(26.6 306.46)"><tspan x="0" y="0">A</tspan></text>
  </g>
  <line id="d" data-name="source line" class="i" x1="61.23" y1="172.69" x2="92.31" y2="172.69"/>
  <g>
    <circle class="l" cx="92.31" cy="172.69" r="13.56"/>
    <text class="o" transform="translate(88.77 176.24)"><tspan x="0" y="0">B</tspan></text>
  </g>
  <line class="i" x1="61.23" y1="155.32" x2="61.23" y2="190.33"/>
  <g>
    <circle class="l" cx="61.23" cy="172.69" r="13.56"/>
    <text class="o" transform="translate(57.69 176.24)"><tspan x="0" y="0">B</tspan></text>
  </g>
  <g>
    <circle class="l" cx="92.31" cy="302.91" r="13.56"/>
    <text class="o" transform="translate(88.77 306.46)"><tspan x="0" y="0">B</tspan></text>
  </g>
  <g>
    <circle class="l" cx="61.23" cy="302.91" r="13.56"/>
    <text class="o" transform="translate(57.69 306.46)"><tspan x="0" y="0">B</tspan></text>
  </g>
  <line id="e" data-name="source line" class="i" x1="122.73" y1="193.62" x2="216.71" y2="193.62"/>
  <g>
    <circle class="h" cx="154.76" cy="193.62" r="13.56"/>
    <text class="o" transform="translate(151.16 197.17)"><tspan x="0" y="0">C</tspan></text>
  </g>
  <g>
    <circle class="h" cx="216.71" cy="193.62" r="13.56"/>
    <text class="o" transform="translate(213.1 197.17)"><tspan x="0" y="0">C</tspan></text>
  </g>
  <line class="i" x1="123.73" y1="176.24" x2="123.73" y2="211.25"/>
  <g>
    <circle class="h" cx="123.73" cy="193.62" r="13.56"/>
    <text class="o" transform="translate(120.13 197.17)"><tspan x="0" y="0">C</tspan></text>
  </g>
  <g>
    <circle class="h" cx="154.76" cy="302.91" r="13.56"/>
    <text class="o" transform="translate(151.16 306.46)"><tspan x="0" y="0">C</tspan></text>
  </g>
  <g>
    <circle class="h" cx="216.71" cy="302.91" r="13.56"/>
    <text class="o" transform="translate(213.1 306.46)"><tspan x="0" y="0">C</tspan></text>
  </g>
  <g>
    <circle class="h" cx="123.73" cy="302.91" r="13.56"/>
    <text class="o" transform="translate(120.13 306.46)"><tspan x="0" y="0">C</tspan></text>
  </g>
  <line id="f" data-name="source line" class="i" x1="184.79" y1="219.88" x2="372.25" y2="219.88"/>
  <g>
    <circle class="k" cx="247.77" cy="219.88" r="13.56"/>
    <text class="o" transform="translate(243.7 223.43)"><tspan x="0" y="0">D</tspan></text>
  </g>
  <g>
    <circle class="k" cx="308.93" cy="219.88" r="13.56"/>
    <text class="o" transform="translate(304.86 223.43)"><tspan x="0" y="0">D</tspan></text>
  </g>
  <g>
    <circle class="k" cx="370.98" cy="219.88" r="13.56"/>
    <text class="o" transform="translate(366.91 223.43)"><tspan x="0" y="0">D</tspan></text>
  </g>
  <line class="i" x1="185.79" y1="202.51" x2="185.79" y2="237.52"/>
  <g>
    <circle class="k" cx="185.79" cy="219.88" r="13.56"/>
    <text class="o" transform="translate(181.72 223.43)"><tspan x="0" y="0">D</tspan></text>
  </g>
  <g>
    <circle class="k" cx="247.77" cy="302.91" r="13.56"/>
    <text class="o" transform="translate(243.7 306.46)"><tspan x="0" y="0">D</tspan></text>
  </g>
  <g>
    <circle class="k" cx="308.93" cy="302.91" r="13.56"/>
    <text class="o" transform="translate(304.86 306.46)"><tspan x="0" y="0">D</tspan></text>
  </g>
  <g>
    <circle class="k" cx="370.98" cy="302.91" r="13.56"/>
    <text class="o" transform="translate(366.91 306.46)"><tspan x="0" y="0">D</tspan></text>
  </g>
  <g>
    <circle class="k" cx="185.79" cy="302.91" r="13.56"/>
    <text class="o" transform="translate(181.72 306.46)"><tspan x="0" y="0">D</tspan></text>
  </g>
  <line id="g" data-name="source line" class="i" x1="277.75" y1="250.82" x2="463.63" y2="250.82"/>
  <g>
    <circle class="j" cx="339.95" cy="250.82" r="13.56"/>
    <text class="o" transform="translate(336.59 254.37)"><tspan x="0" y="0">E</tspan></text>
  </g>
  <g>
    <circle class="j" cx="402.01" cy="250.82" r="13.56"/>
    <text class="o" transform="translate(398.64 254.37)"><tspan x="0" y="0">E</tspan></text>
  </g>
  <g>
    <circle class="j" cx="432.6" cy="250.82" r="13.56"/>
    <text class="o" transform="translate(429.23 254.37)"><tspan x="0" y="0">E</tspan></text>
  </g>
  <g>
    <circle class="j" cx="463.63" cy="250.82" r="13.56"/>
    <text class="o" transform="translate(460.26 254.37)"><tspan x="0" y="0">E</tspan></text>
  </g>
  <line class="i" x1="277.75" y1="233.45" x2="277.75" y2="268.46"/>
  <g>
    <circle class="j" cx="277.75" cy="250.82" r="13.56"/>
    <text class="o" transform="translate(274.38 254.37)"><tspan x="0" y="0">E</tspan></text>
  </g>
  <g>
    <circle class="j" cx="339.95" cy="302.91" r="13.56"/>
    <text class="o" transform="translate(336.59 306.46)"><tspan x="0" y="0">E</tspan></text>
  </g>
  <g>
    <circle class="j" cx="402.01" cy="302.91" r="13.56"/>
    <text class="o" transform="translate(398.64 306.46)"><tspan x="0" y="0">E</tspan></text>
  </g>
  <g>
    <circle class="j" cx="432.6" cy="302.91" r="13.56"/>
    <text class="o" transform="translate(429.23 306.46)"><tspan x="0" y="0">E</tspan></text>
  </g>
  <g>
    <circle class="j" cx="463.63" cy="302.91" r="13.56"/>
    <text class="o" transform="translate(460.26 306.46)"><tspan x="0" y="0">E</tspan></text>
  </g>
  <g>
    <circle class="j" cx="277.75" cy="302.91" r="13.56"/>
    <text class="o" transform="translate(274.38 306.46)"><tspan x="0" y="0">E</tspan></text>
  </g>
</svg>