<?xml version="1.0" encoding="UTF-8"?>
<svg id="Layer_1" data-name="Layer 1" xmlns="http://www.w3.org/2000/svg" viewBox="0 0 227.37 191.02">
  <defs>
    <style>
      .cls-1 {
        fill: #f0ff8b;
      }

      .cls-1, .cls-2, .cls-3, .cls-4, .cls-5, .cls-6, .cls-7 {
        stroke: #000;
        stroke-miterlimit: 10;
      }

      .cls-2 {
        fill: none;
      }

      .cls-3 {
        fill: #ff8be8;
      }

      .cls-4 {
        fill: #ff8b8b;
      }

      .cls-8 {
        stroke-width: 0px;
      }

      .cls-5 {
        fill: #8be2ff;
      }

      .cls-6 {
        fill: #ffa532;
      }

      .cls-7 {
        fill: #8bffbc;
      }
    </style>
  </defs>
  <line id="source_line" data-name="source line" class="cls-2" x1="30.52" y1="48.3" x2="216.71" y2="48.3"/>
  <g>
    <path class="cls-8" d="M34.23,25.48h-1.18l-1.14-2.45c-.09-.19-.17-.34-.26-.47s-.19-.22-.29-.29-.22-.12-.34-.16-.26-.05-.41-.05h-.49v3.41h-1.04v-7.66h2.05c.45,0,.83.05,1.15.15s.58.23.79.41.36.39.45.64.14.52.14.82c0,.24-.04.46-.11.68s-.17.41-.31.58-.31.32-.52.45-.44.22-.71.28c.21.07.4.2.55.39s.3.43.46.74l1.21,2.52ZM32.56,19.92c0-.41-.13-.72-.38-.92s-.62-.3-1.08-.3h-.98v2.53h.84c.25,0,.47-.03.67-.08s.37-.14.5-.25.25-.25.32-.41.11-.35.11-.56Z"/>
    <path class="cls-8" d="M39.39,25.48l-.02-.79c-.32.32-.65.54-.98.69s-.68.21-1.04.21c-.34,0-.62-.04-.86-.13s-.43-.2-.59-.35-.27-.33-.34-.53-.11-.42-.11-.66c0-.59.22-1.05.66-1.39s1.09-.5,1.95-.5h1.22v-.52c0-.35-.11-.63-.33-.83s-.56-.31-1.02-.31c-.33,0-.66.04-.98.11s-.66.18-1,.32v-.92c.13-.05.27-.09.43-.14s.33-.08.5-.12.36-.06.55-.08.38-.03.58-.03c.36,0,.68.04.96.12s.53.2.72.36.35.36.45.6.16.53.16.86v4.05h-.91ZM39.27,22.8h-1.29c-.25,0-.47.03-.66.08s-.33.12-.45.22-.2.21-.26.34-.08.28-.08.44c0,.11.02.22.05.33s.09.2.17.28.18.14.3.19.28.07.46.07c.23,0,.5-.07.81-.21s.62-.37.96-.68v-1.04Z"/>
    <path class="cls-8" d="M42.2,19.6h.91l.04.95c.17-.2.34-.37.5-.51s.32-.24.47-.33.31-.14.47-.17.33-.05.5-.05c.61,0,1.06.18,1.37.54s.47.9.47,1.61v3.84h-1.02v-3.76c0-.46-.09-.8-.26-1.02s-.43-.33-.77-.33c-.12,0-.25.02-.37.06s-.24.1-.37.19-.27.22-.42.37-.32.35-.51.59v3.9h-1.02v-5.88Z"/>
    <path class="cls-8" d="M53.04,20.43c.11.14.19.3.25.48s.09.38.09.59c0,.3-.06.58-.17.83s-.27.47-.47.65-.45.32-.73.42-.59.15-.93.15c-.25,0-.48-.03-.69-.08s-.38-.12-.51-.2c-.07.11-.14.21-.19.31s-.08.21-.08.33c0,.15.07.27.21.37s.33.15.57.16l1.55.06c.29,0,.56.04.81.11s.46.16.64.29.32.28.42.46.15.4.15.64c0,.26-.06.51-.17.74s-.29.44-.52.62-.54.32-.9.42-.79.16-1.29.16-.88-.04-1.22-.11-.61-.18-.82-.32-.37-.29-.47-.48-.15-.39-.15-.61c0-.29.07-.54.2-.75s.34-.42.62-.62c-.1-.05-.19-.11-.26-.18s-.13-.15-.18-.23-.08-.17-.11-.27-.04-.19-.04-.28c0-.25.06-.49.18-.7s.26-.41.42-.6c-.07-.09-.14-.18-.2-.26s-.11-.18-.15-.28-.07-.21-.09-.32-.03-.25-.03-.4c0-.3.06-.58.17-.83s.27-.47.47-.65.44-.32.73-.42.6-.15.94-.15c.14,0,.28,0,.42.03s.25.04.35.08h2.13v.83h-.94ZM49.5,26.33c0,.28.14.48.43.61s.69.19,1.21.19c.32,0,.6-.03.82-.09s.4-.14.53-.23.23-.21.29-.33.09-.25.09-.38c0-.24-.1-.41-.29-.53s-.49-.18-.9-.2l-1.54-.05c-.13.09-.24.17-.32.25s-.15.17-.2.25-.08.17-.1.25-.03.17-.03.25ZM49.81,21.52c0,.19.03.36.09.52s.15.29.26.4.25.19.4.25.33.09.51.09c.2,0,.38-.03.54-.1s.29-.16.4-.28.19-.25.25-.4.08-.31.08-.47c0-.19-.03-.36-.09-.52s-.15-.29-.26-.4-.25-.19-.4-.25-.33-.09-.51-.09c-.2,0-.38.04-.54.11s-.29.16-.4.28-.19.25-.25.4-.08.31-.08.47Z"/>
    <path class="cls-8" d="M60.37,22.23c0,.14,0,.27,0,.36s0,.19-.02.28h-4.13c0,.6.17,1.06.5,1.39s.82.48,1.45.48c.17,0,.34,0,.52-.02s.34-.03.5-.06.31-.05.46-.08.28-.06.41-.1v.84c-.28.08-.59.14-.94.19s-.71.07-1.09.07c-.5,0-.94-.07-1.3-.21s-.66-.33-.89-.59-.4-.58-.52-.96-.17-.8-.17-1.28c0-.41.06-.81.18-1.17s.29-.69.52-.97.51-.5.84-.67.71-.25,1.13-.25.77.06,1.09.19.58.31.8.55.38.52.49.86.17.72.17,1.13ZM59.31,22.08c.01-.26-.01-.5-.08-.72s-.16-.4-.29-.56-.29-.28-.49-.37-.42-.13-.68-.13c-.22,0-.43.04-.61.13s-.34.21-.47.36-.24.34-.32.56-.13.46-.15.72h3.09Z"/>
    <path class="cls-8" d="M65.52,27.94c-1.8-1.67-2.7-3.51-2.7-5.53,0-.47.05-.94.14-1.42s.25-.94.46-1.42.49-.95.84-1.42.77-.94,1.27-1.41l.59.6c-1.52,1.5-2.27,3.15-2.27,4.97,0,.91.19,1.78.57,2.61s.95,1.62,1.7,2.37l-.62.63Z"/>
    <path class="cls-8" d="M73.5,25.48h-4.81v-.95h1.97v-5.59l-1.83,1-.38-.87,2.44-1.28h.9v6.74h1.71v.95Z"/>
    <path class="cls-8" d="M75.65,26.68c.2,0,.39,0,.58-.05s.35-.11.5-.19.26-.19.34-.31.13-.27.13-.43-.03-.3-.08-.4-.12-.2-.19-.28-.13-.18-.19-.28-.08-.23-.08-.39c0-.08.02-.17.05-.26s.08-.17.14-.25.15-.13.25-.18.22-.07.35-.07.27.03.4.08.24.14.33.26.17.26.23.44.08.38.08.62c0,.32-.06.64-.18.93s-.3.56-.53.79-.53.41-.88.55-.76.21-1.23.21v-.8Z"/>
    <path class="cls-8" d="M93.45,23.05c0,.35-.06.68-.19.99s-.31.58-.54.81-.52.41-.85.54-.7.2-1.1.2-.79-.07-1.12-.2-.6-.34-.81-.62-.38-.63-.5-1.06-.17-.93-.17-1.51c0-.39.03-.77.08-1.14s.13-.71.25-1.04.27-.62.47-.89.44-.5.73-.69.63-.34,1.03-.45.85-.16,1.37-.16h.76v.89h-.82c-.46,0-.85.05-1.19.16s-.62.26-.84.46-.4.44-.52.72-.2.6-.23.94l-.02.24c.25-.14.53-.26.85-.35s.67-.13,1.05-.13.73.06,1.02.17.53.27.73.47.34.44.44.72.15.59.15.93ZM92.38,23.12c0-.23-.03-.45-.08-.64s-.15-.35-.27-.48-.27-.23-.46-.3-.41-.11-.67-.11c-.15,0-.3.01-.45.04s-.3.07-.45.11-.29.1-.42.17-.25.13-.36.2c0,.5.04.92.11,1.26s.17.61.31.81.31.35.51.43.44.13.7.13c.22,0,.43-.04.61-.11s.35-.18.48-.32.24-.31.32-.51.11-.43.11-.69Z"/>
    <path class="cls-8" d="M96.19,16.75c1.8,1.67,2.7,3.52,2.7,5.57,0,.42-.04.86-.13,1.31s-.23.92-.44,1.39-.49.96-.83,1.44-.79.98-1.32,1.47l-.59-.6c.76-.75,1.33-1.54,1.71-2.36s.56-1.68.56-2.58c0-1.86-.76-3.53-2.27-5.02l.62-.63Z"/>
  </g>
  <g>
    <path class="cls-8" d="M31.32,100.36c.13,0,.26.03.38.08s.22.12.31.21.16.19.21.31.08.25.08.38-.03.26-.08.38-.12.22-.21.31-.19.16-.31.21-.25.08-.38.08-.26-.03-.38-.08-.22-.12-.31-.21-.16-.19-.21-.31-.08-.24-.08-.38.03-.26.08-.38.12-.22.21-.31.19-.16.31-.21.24-.08.38-.08Z"/>
    <path class="cls-8" d="M40.62,99.91c0,.37-.07.69-.21.98s-.35.52-.61.72-.58.34-.96.45-.79.15-1.25.15h-2v-7.66h2.19c1.71,0,2.56.62,2.56,1.86,0,.41-.1.77-.3,1.07s-.52.52-.96.66c.21.04.4.11.59.2s.35.21.49.36.25.32.33.53.12.43.12.69ZM39.26,96.55c0-.16-.02-.3-.07-.44s-.13-.26-.25-.36-.28-.18-.47-.24-.45-.09-.76-.09h-1.08v2.4h1.04c.24,0,.45-.03.65-.08s.36-.13.5-.23.25-.24.32-.4.11-.35.11-.57ZM39.51,99.95c0-.2-.04-.37-.12-.53s-.2-.29-.36-.4-.35-.19-.57-.25-.48-.09-.76-.09h-1.07v2.64h1.1c.6,0,1.04-.11,1.34-.33s.44-.57.44-1.04Z"/>
    <path class="cls-8" d="M46.93,102.2h-.91l-.04-.95c-.18.2-.34.37-.5.51s-.32.24-.47.33-.31.14-.47.17-.33.05-.5.05c-.61,0-1.06-.18-1.37-.53s-.46-.89-.46-1.61v-3.84h1.02v3.76c0,.9.34,1.35,1.02,1.35.12,0,.25-.02.37-.06s.24-.1.38-.19.27-.22.42-.37.32-.35.51-.59v-3.9h1.02v5.88Z"/>
    <path class="cls-8" d="M54.02,94.87c-.54-.11-1-.17-1.38-.17-.92,0-1.38.48-1.38,1.44v1.03h2.58v.85h-2.58v4.18h-1.04v-4.18h-1.89v-.85h1.89v-.97c0-1.57.82-2.35,2.45-2.35.41,0,.86.05,1.35.14v.88Z"/>
    <path class="cls-8" d="M60.62,94.87c-.54-.11-1-.17-1.38-.17-.92,0-1.38.48-1.38,1.44v1.03h2.58v.85h-2.58v4.18h-1.04v-4.18h-1.89v-.85h1.89v-.97c0-1.57.82-2.35,2.45-2.35.41,0,.86.05,1.35.14v.88Z"/>
    <path class="cls-8" d="M66.97,98.95c0,.14,0,.27,0,.36s0,.19-.02.28h-4.13c0,.6.17,1.06.5,1.39s.82.48,1.45.48c.17,0,.34,0,.52-.02s.34-.03.5-.06.31-.05.46-.08.28-.06.41-.1v.84c-.28.08-.59.14-.94.19s-.71.07-1.09.07c-.5,0-.94-.07-1.3-.21s-.66-.33-.89-.59-.4-.58-.52-.96-.17-.8-.17-1.28c0-.41.06-.81.18-1.17s.29-.69.52-.97.51-.5.84-.67.71-.25,1.13-.25.77.06,1.09.19.58.31.8.55.38.52.49.86.17.72.17,1.13ZM65.91,98.8c.01-.26-.01-.5-.08-.72s-.16-.4-.29-.56-.29-.28-.49-.37-.42-.13-.68-.13c-.22,0-.43.04-.61.13s-.34.21-.47.36-.24.34-.32.56-.13.46-.15.72h3.09Z"/>
    <path class="cls-8" d="M68.83,96.32h.93l.03,1.08c.35-.42.69-.72,1.03-.91s.68-.28,1.02-.28c.61,0,1.07.2,1.39.59s.46.98.44,1.76h-1.03c.01-.52-.06-.89-.23-1.12s-.4-.35-.71-.35c-.14,0-.27.02-.41.07s-.28.13-.43.23-.3.25-.47.41-.34.37-.53.61v3.78h-1.03v-5.88Z"/>
    <path class="cls-8" d="M78.71,104.66c-1.8-1.67-2.7-3.51-2.7-5.53,0-.47.05-.94.14-1.42s.25-.94.46-1.42.49-.95.84-1.42.77-.94,1.27-1.41l.59.6c-1.52,1.5-2.27,3.15-2.27,4.97,0,.91.19,1.78.57,2.61s.95,1.62,1.7,2.37l-.62.63Z"/>
    <path class="cls-8" d="M87.14,100.51h-1.31v1.69h-1.04v-1.69h-3.69v-.9l3.26-5.07h1.46v5.07h1.31v.9ZM84.79,95.53l-2.67,4.08h2.67v-4.08Z"/>
    <path class="cls-8" d="M88.84,103.4c.2,0,.39,0,.58-.05s.35-.11.5-.19.26-.19.34-.31.13-.27.13-.43-.03-.3-.08-.4-.12-.2-.19-.28-.13-.18-.19-.28-.08-.23-.08-.39c0-.08.02-.17.05-.26s.08-.17.14-.25.15-.13.25-.18.22-.07.35-.07.27.03.4.08.24.14.33.26.17.26.23.44.08.38.08.62c0,.32-.06.64-.18.93s-.3.56-.53.79-.53.41-.88.55-.76.21-1.23.21v-.8Z"/>
    <path class="cls-8" d="M106.49,102.2h-4.81v-.95h1.97v-5.59l-1.83,1-.38-.87,2.44-1.28h.9v6.74h1.71v.95Z"/>
    <path class="cls-8" d="M109.38,93.48c1.8,1.67,2.7,3.52,2.7,5.57,0,.42-.04.86-.13,1.31s-.23.92-.44,1.39-.49.96-.83,1.44-.79.98-1.32,1.47l-.59-.6c.76-.75,1.33-1.54,1.71-2.36s.56-1.68.56-2.58c0-1.86-.76-3.53-2.27-5.02l.62-.63Z"/>
  </g>
  <line class="cls-2" x1="30.2" y1="129.86" x2="30.2" y2="164.87"/>
  <line class="cls-2" x1="30.52" y1="30.79" x2="30.52" y2="65.8"/>
  <g>
    <circle class="cls-7" cx="30.2" cy="48.3" r="13.56"/>
    <path class="cls-8" d="M32.5,51.85h-4.25v-.89h1.58v-5.85h-1.58v-.8c.6,0,1.04-.08,1.32-.25s.44-.49.48-.96h.91v7.86h1.55v.89Z"/>
  </g>
  <g>
    <circle class="cls-5" cx="61.23" cy="48.3" r="13.56"/>
    <path class="cls-8" d="M63.97,51.85h-5.38v-1.22c.39-.37.75-.72,1.1-1.05s.68-.69,1.01-1.05c.66-.73,1.12-1.32,1.36-1.75s.36-.89.36-1.36c0-.24-.04-.46-.11-.64s-.18-.34-.31-.46c-.14-.12-.29-.21-.47-.26s-.38-.09-.59-.09-.42.03-.63.08-.42.12-.61.2c-.16.07-.32.15-.47.24s-.28.17-.37.24h-.06v-1.24c.24-.12.58-.24,1.01-.35s.84-.17,1.23-.17c.81,0,1.45.22,1.91.65s.69,1.02.69,1.75c0,.34-.04.65-.12.94s-.19.56-.33.8c-.14.25-.32.51-.52.76s-.42.5-.64.74c-.37.4-.78.81-1.23,1.24s-.81.77-1.08,1.02h4.29v1Z"/>
  </g>
  <g>
    <circle class="cls-1" cx="92.48" cy="48.3" r="13.56"/>
    <path class="cls-8" d="M92.2,43.95c-.21,0-.42.03-.63.08s-.42.12-.62.2c-.19.08-.35.16-.49.25s-.26.17-.37.24h-.07v-1.24c.25-.14.6-.26,1.03-.37s.85-.17,1.25-.17.74.04,1.03.12.56.2.8.37c.26.19.45.41.58.68s.2.58.2.93c0,.48-.16.9-.47,1.27s-.7.59-1.14.69v.08c.18.04.38.1.59.18s.4.21.58.38.33.38.44.65.17.58.17.96-.07.76-.2,1.09-.33.62-.57.88c-.25.27-.56.47-.92.6s-.77.21-1.22.21-.87-.05-1.3-.16-.79-.23-1.08-.38v-1.24h.08c.25.18.58.35.99.52s.83.25,1.24.25c.24,0,.48-.04.72-.11s.44-.2.6-.37c.16-.17.28-.36.36-.57s.12-.47.12-.79-.05-.58-.14-.78-.22-.36-.38-.48-.36-.2-.58-.24-.47-.07-.73-.07h-.5v-.97h.39c.53,0,.96-.12,1.29-.38s.5-.61.5-1.09c0-.22-.04-.41-.13-.57s-.2-.28-.33-.38c-.15-.1-.31-.17-.49-.21s-.37-.06-.57-.06Z"/>
  </g>
  <g>
    <circle class="cls-4" cx="123.73" cy="48.3" r="13.56"/>
    <path class="cls-8" d="M126.71,48.85h-1.04v3h-1.12v-3h-3.86v-1.23l3.9-4.49h1.08v4.79h1.04v.94ZM124.55,47.91v-3.41l-2.94,3.41h2.94Z"/>
  </g>
  <g>
    <circle class="cls-3" cx="154.76" cy="48.3" r="13.56"/>
    <path class="cls-8" d="M157.41,49.07c0,.42-.07.81-.2,1.17s-.32.67-.57.93c-.25.27-.55.47-.92.63s-.77.23-1.23.23c-.42,0-.83-.05-1.23-.14s-.75-.21-1.05-.36v-1.24h.08c.09.07.22.14.39.23s.35.16.56.24c.23.08.44.15.63.19s.41.07.64.07.46-.04.69-.13.41-.22.57-.41c.14-.17.25-.37.33-.6s.11-.5.11-.81-.04-.56-.13-.76-.21-.36-.37-.49c-.17-.15-.37-.25-.62-.31s-.52-.09-.82-.09c-.32,0-.63.02-.96.07s-.58.09-.77.14v-4.49h4.79v1.03h-3.66v2.32c.14-.02.28-.03.42-.04s.26-.01.38-.01c.45,0,.82.04,1.13.11s.61.22.89.43c.29.22.51.49.67.82s.23.76.23,1.28Z"/>
  </g>
  <g>
    <circle class="cls-6" cx="185.79" cy="48.3" r="13.56"/>
    <path class="cls-8" d="M188.67,49.02c0,.45-.07.86-.22,1.24s-.35.7-.6.95c-.26.27-.55.47-.88.61s-.68.21-1.07.21-.75-.07-1.08-.2-.61-.33-.85-.59c-.3-.32-.54-.74-.71-1.27s-.25-1.18-.25-1.95.08-1.44.23-2.05.4-1.14.72-1.6c.32-.44.72-.79,1.22-1.03s1.08-.37,1.73-.37c.2,0,.38,0,.54.03s.32.05.45.09v1.12h-.05c-.11-.06-.26-.11-.46-.16s-.41-.07-.64-.07c-.73,0-1.31.25-1.76.74s-.71,1.22-.79,2.18c.28-.2.56-.35.86-.45s.61-.16.96-.16.64.03.89.1.52.21.8.41c.32.24.56.55.71.92s.23.81.23,1.31ZM187.48,49.06c0-.36-.05-.66-.14-.9s-.25-.45-.46-.62c-.15-.12-.33-.21-.52-.25s-.39-.06-.59-.06c-.27,0-.54.04-.8.12s-.51.2-.76.36c0,.09-.01.17-.02.25s0,.18,0,.3c0,.61.06,1.09.18,1.46s.27.65.44.84c.17.18.34.31.52.39s.37.11.58.11c.47,0,.85-.17,1.14-.5s.44-.84.44-1.51Z"/>
  </g>
  <line id="source_line-2" data-name="source line" class="cls-2" x1="29.78" y1="147.24" x2="216.71" y2="147.24"/>
  <circle class="cls-4" cx="123.73" cy="147.24" r="13.56"/>
  <circle class="cls-3" cx="154.76" cy="147.24" r="13.56"/>
  <g>
    <path class="cls-8" d="M120.6,144.14h-4.01v-.79h1.64v-4.66l-1.53.83-.31-.72,2.03-1.07h.75v5.62h1.43v.79Z"/>
    <path class="cls-8" d="M122.4,145.14c.17,0,.33,0,.48-.04s.29-.09.41-.16.21-.16.29-.26.11-.22.11-.36-.02-.25-.07-.33-.1-.16-.16-.23-.11-.15-.16-.23-.07-.19-.07-.33c0-.07.01-.14.04-.21s.07-.14.12-.21.12-.11.21-.15.18-.06.3-.06.22.02.33.07.2.12.28.22.14.22.19.37.07.32.07.52c0,.27-.05.53-.15.78s-.25.47-.44.66-.44.35-.74.46-.64.17-1.03.17v-.67Z"/>
    <path class="cls-8" d="M131.65,144.14h-4.2v-.76l1.65-1.64c.27-.27.49-.5.66-.69s.3-.37.4-.53.16-.31.19-.46.05-.3.05-.46c0-.16-.02-.31-.06-.45s-.11-.27-.2-.37-.2-.19-.34-.25-.31-.09-.5-.09c-.27,0-.52.06-.74.18s-.42.28-.61.47l-.47-.56c.24-.25.52-.46.83-.61s.68-.23,1.1-.23c.28,0,.54.04.77.13s.43.21.6.37.3.35.39.59.14.49.14.78c0,.24-.03.47-.1.68s-.16.42-.3.62-.3.42-.5.64-.44.46-.71.73l-1.16,1.13h3.1v.81Z"/>
    <path class="cls-8" d="M133.39,145.14c.17,0,.33,0,.48-.04s.29-.09.41-.16.21-.16.29-.26.11-.22.11-.36-.02-.25-.07-.33-.1-.16-.16-.23-.11-.15-.16-.23-.07-.19-.07-.33c0-.07.01-.14.04-.21s.07-.14.12-.21.12-.11.21-.15.18-.06.3-.06.22.02.33.07.2.12.28.22.14.22.19.37.07.32.07.52c0,.27-.05.53-.15.78s-.25.47-.44.66-.44.35-.74.46-.64.17-1.03.17v-.67Z"/>
    <path class="cls-8" d="M120.54,154.2c0,.28-.06.54-.17.79s-.28.46-.51.64-.51.33-.86.43-.75.16-1.21.16c-.25,0-.48,0-.68-.02s-.39-.04-.57-.06v-.76c.2.04.42.06.64.08s.45.03.69.03c.32,0,.59-.03.82-.09s.41-.14.55-.25.25-.24.31-.39.1-.33.1-.52c0-.18-.04-.33-.12-.46s-.19-.24-.33-.33-.31-.15-.51-.2-.41-.07-.65-.07h-.73v-.7h.74c.19,0,.37-.03.52-.08s.29-.12.41-.22.2-.21.26-.35.09-.3.09-.47c0-.34-.1-.59-.31-.75s-.51-.23-.92-.23c-.21,0-.44.02-.66.06s-.47.11-.73.19v-.74c.11-.04.23-.07.35-.1s.25-.06.38-.08.25-.04.37-.05.24-.02.36-.02c.34,0,.64.04.89.11s.47.18.64.31.3.3.39.5.13.42.13.66c0,.36-.09.67-.28.92s-.44.44-.77.59c.17.03.33.08.49.16s.31.18.43.3.23.27.31.43.12.35.12.55Z"/>
    <path class="cls-8" d="M122.4,157.14c.17,0,.33,0,.48-.04s.29-.09.41-.16.21-.16.29-.26.11-.22.11-.36-.02-.25-.07-.33-.1-.16-.16-.23-.11-.15-.16-.23-.07-.19-.07-.33c0-.07.01-.14.04-.21s.07-.14.12-.21.12-.11.21-.15.18-.06.3-.06.22.02.33.07.2.12.28.22.14.22.19.37.07.32.07.52c0,.27-.05.53-.15.78s-.25.47-.44.66-.44.35-.74.46-.64.17-1.03.17v-.67Z"/>
    <path class="cls-8" d="M131.97,154.73h-1.09v1.41h-.87v-1.41h-3.07v-.75l2.72-4.22h1.22v4.22h1.09v.75ZM130.01,150.58l-2.22,3.4h2.22v-3.4Z"/>
  </g>
  <g>
    <path class="cls-8" d="M150.69,144.14h-4.2v-.76l1.65-1.64c.27-.27.49-.5.66-.69s.3-.37.4-.53.16-.31.19-.46.05-.3.05-.46c0-.16-.02-.31-.06-.45s-.11-.27-.2-.37-.2-.19-.34-.25-.31-.09-.5-.09c-.27,0-.52.06-.74.18s-.42.28-.61.47l-.47-.56c.24-.25.52-.46.83-.61s.68-.23,1.1-.23c.28,0,.54.04.77.13s.43.21.6.37.3.35.39.59.14.49.14.78c0,.24-.03.47-.1.68s-.16.42-.3.62-.3.42-.5.64-.44.46-.71.73l-1.16,1.13h3.1v.81Z"/>
    <path class="cls-8" d="M152.42,145.14c.17,0,.33,0,.48-.04s.29-.09.41-.16.21-.16.29-.26.11-.22.11-.36-.02-.25-.07-.33-.1-.16-.16-.23-.11-.15-.16-.23-.07-.19-.07-.33c0-.07.01-.14.04-.21s.07-.14.12-.21.12-.11.21-.15.18-.06.3-.06.22.02.33.07.2.12.28.22.14.22.19.37.07.32.07.52c0,.27-.05.53-.15.78s-.25.47-.44.66-.44.35-.74.46-.64.17-1.03.17v-.67Z"/>
    <path class="cls-8" d="M161.56,142.2c0,.28-.06.54-.17.79s-.28.46-.51.64-.51.33-.86.43-.75.16-1.21.16c-.25,0-.48,0-.68-.02s-.39-.04-.57-.06v-.76c.2.04.42.06.64.08s.45.03.69.03c.32,0,.59-.03.82-.09s.41-.14.55-.25.25-.24.31-.39.1-.33.1-.52c0-.18-.04-.33-.12-.46s-.19-.24-.33-.33-.31-.15-.51-.2-.41-.07-.65-.07h-.73v-.7h.74c.19,0,.37-.03.52-.08s.29-.12.41-.22.2-.21.26-.35.09-.3.09-.47c0-.34-.1-.59-.31-.75s-.51-.23-.92-.23c-.21,0-.44.02-.66.06s-.47.11-.73.19v-.74c.11-.04.23-.07.35-.1s.25-.06.38-.08.25-.04.37-.05.24-.02.36-.02c.34,0,.64.04.89.11s.47.18.64.31.3.3.39.5.13.42.13.66c0,.36-.09.67-.28.92s-.44.44-.77.59c.17.03.33.08.49.16s.31.18.43.3.23.27.31.43.12.35.12.55Z"/>
    <path class="cls-8" d="M163.42,145.14c.17,0,.33,0,.48-.04s.29-.09.41-.16.21-.16.29-.26.11-.22.11-.36-.02-.25-.07-.33-.1-.16-.16-.23-.11-.15-.16-.23-.07-.19-.07-.33c0-.07.01-.14.04-.21s.07-.14.12-.21.12-.11.21-.15.18-.06.3-.06.22.02.33.07.2.12.28.22.14.22.19.37.07.32.07.52c0,.27-.05.53-.15.78s-.25.47-.44.66-.44.35-.74.46-.64.17-1.03.17v-.67Z"/>
    <path class="cls-8" d="M151,154.73h-1.09v1.41h-.87v-1.41h-3.07v-.75l2.72-4.22h1.22v4.22h1.09v.75ZM149.04,150.58l-2.22,3.4h2.22v-3.4Z"/>
    <path class="cls-8" d="M152.42,157.14c.17,0,.33,0,.48-.04s.29-.09.41-.16.21-.16.29-.26.11-.22.11-.36-.02-.25-.07-.33-.1-.16-.16-.23-.11-.15-.16-.23-.07-.19-.07-.33c0-.07.01-.14.04-.21s.07-.14.12-.21.12-.11.21-.15.18-.06.3-.06.22.02.33.07.2.12.28.22.14.22.19.37.07.32.07.52c0,.27-.05.53-.15.78s-.25.47-.44.66-.44.35-.74.46-.64.17-1.03.17v-.67Z"/>
    <path class="cls-8" d="M161.52,154.1c0,.32-.07.6-.21.86s-.32.48-.56.67-.52.33-.85.44-.68.16-1.05.16c-.09,0-.2,0-.31,0s-.22-.01-.32-.02-.21-.02-.31-.03-.19-.02-.28-.03v-.77c.18.04.38.07.6.09s.46.03.69.03c.26,0,.49-.03.7-.09s.39-.15.53-.27.26-.26.34-.42.12-.35.12-.55c0-.4-.14-.69-.43-.87s-.69-.27-1.23-.27h-1.21v-3.26h3.44v.74h-2.64v1.79h.56c.31,0,.6.03.89.08s.55.15.77.29.41.32.55.56.21.52.21.88Z"/>
  </g>
  <circle class="cls-6" cx="185.79" cy="147.37" r="13.56"/>
  <g>
    <path class="cls-8" d="M182.59,142.2c0,.28-.06.54-.17.79s-.28.46-.51.64-.51.33-.86.43-.75.16-1.21.16c-.25,0-.48,0-.68-.02s-.39-.04-.57-.06v-.76c.2.04.42.06.64.08s.45.03.69.03c.32,0,.59-.03.82-.09s.41-.14.55-.25.25-.24.31-.39.1-.33.1-.52c0-.18-.04-.33-.12-.46s-.19-.24-.33-.33-.31-.15-.51-.2-.41-.07-.65-.07h-.73v-.7h.74c.19,0,.37-.03.52-.08s.29-.12.41-.22.2-.21.26-.35.09-.3.09-.47c0-.34-.1-.59-.31-.75s-.51-.23-.92-.23c-.21,0-.44.02-.66.06s-.47.11-.73.19v-.74c.11-.04.23-.07.35-.1s.25-.06.38-.08.25-.04.37-.05.24-.02.36-.02c.34,0,.64.04.89.11s.47.18.64.31.3.3.39.5.13.42.13.66c0,.36-.09.67-.28.92s-.44.44-.77.59c.17.03.33.08.49.16s.31.18.43.3.23.27.31.43.12.35.12.55Z"/>
    <path class="cls-8" d="M184.45,145.14c.17,0,.33,0,.48-.04s.29-.09.41-.16.21-.16.29-.26.11-.22.11-.36-.02-.25-.07-.33-.1-.16-.16-.23-.11-.15-.16-.23-.07-.19-.07-.33c0-.07.01-.14.04-.21s.07-.14.12-.21.12-.11.21-.15.18-.06.3-.06.22.02.33.07.2.12.28.22.14.22.19.37.07.32.07.52c0,.27-.05.53-.15.78s-.25.47-.44.66-.44.35-.74.46-.64.17-1.03.17v-.67Z"/>
    <path class="cls-8" d="M194.03,142.73h-1.09v1.41h-.87v-1.41h-3.07v-.75l2.72-4.22h1.22v4.22h1.09v.75ZM192.07,138.58l-2.22,3.4h2.22v-3.4Z"/>
    <path class="cls-8" d="M195.45,145.14c.17,0,.33,0,.48-.04s.29-.09.41-.16.21-.16.29-.26.11-.22.11-.36-.02-.25-.07-.33-.1-.16-.16-.23-.11-.15-.16-.23-.07-.19-.07-.33c0-.07.01-.14.04-.21s.07-.14.12-.21.12-.11.21-.15.18-.06.3-.06.22.02.33.07.2.12.28.22.14.22.19.37.07.32.07.52c0,.27-.05.53-.15.78s-.25.47-.44.66-.44.35-.74.46-.64.17-1.03.17v-.67Z"/>
    <path class="cls-8" d="M182.55,154.1c0,.32-.07.6-.21.86s-.32.48-.56.67-.52.33-.85.44-.68.16-1.05.16c-.09,0-.2,0-.31,0s-.22-.01-.32-.02-.21-.02-.31-.03-.19-.02-.28-.03v-.77c.18.04.38.07.6.09s.46.03.69.03c.26,0,.49-.03.7-.09s.39-.15.53-.27.26-.26.34-.42.12-.35.12-.55c0-.4-.14-.69-.43-.87s-.69-.27-1.23-.27h-1.21v-3.26h3.44v.74h-2.64v1.79h.56c.31,0,.6.03.89.08s.55.15.77.29.41.32.55.56.21.52.21.88Z"/>
    <path class="cls-8" d="M184.45,157.14c.17,0,.33,0,.48-.04s.29-.09.41-.16.21-.16.29-.26.11-.22.11-.36-.02-.25-.07-.33-.1-.16-.16-.23-.11-.15-.16-.23-.07-.19-.07-.33c0-.07.01-.14.04-.21s.07-.14.12-.21.12-.11.21-.15.18-.06.3-.06.22.02.33.07.2.12.28.22.14.22.19.37.07.32.07.52c0,.27-.05.53-.15.78s-.25.47-.44.66-.44.35-.74.46-.64.17-1.03.17v-.67Z"/>
    <path class="cls-8" d="M193.79,154.12c0,.29-.05.57-.16.83s-.26.48-.45.67-.43.34-.71.45-.58.16-.92.16-.66-.06-.93-.17-.5-.28-.68-.52-.32-.53-.42-.88-.14-.77-.14-1.26c0-.33.02-.64.06-.95s.11-.59.21-.86.23-.52.39-.74.37-.42.61-.58.53-.29.86-.38.71-.13,1.14-.13h.63v.74h-.68c-.38,0-.71.05-.99.14s-.51.22-.7.39-.33.37-.43.6-.16.5-.19.79l-.02.2c.21-.12.44-.22.71-.29s.56-.11.87-.11.6.05.85.14.44.23.61.39.28.37.36.6.12.49.12.77ZM192.9,154.17c0-.2-.02-.37-.07-.53s-.12-.29-.22-.4-.23-.19-.38-.25-.34-.09-.55-.09c-.12,0-.25.01-.38.03s-.25.05-.37.1-.24.09-.35.14-.21.11-.3.17c0,.42.03.77.09,1.05s.15.51.26.68.26.29.43.36.36.11.59.11c.19,0,.36-.03.51-.09s.29-.15.4-.27.2-.26.26-.43.1-.36.1-.57Z"/>
  </g>
</svg>