<?xml version="1.0" encoding="UTF-8"?>
<svg id="Layer_1" data-name="Layer 1" xmlns="http://www.w3.org/2000/svg" viewBox="0 0 309.61 127.97">
  <defs>
    <style>
      .cls-1 {
        fill: none;
      }

      .cls-1, .cls-2, .cls-3 {
        stroke: #000;
        stroke-miterlimit: 10;
      }

      .cls-2 {
        fill: #ff8b8b;
      }

      .cls-4 {
        stroke-width: 0px;
      }

      .cls-3 {
        fill: #8bffbc;
      }
    </style>
  </defs>
  <line class="cls-1" x1="70.94" y1="86.72" x2="70.94" y2="121.73"/>
  <line id="source_line" data-name="source line" class="cls-1" x1="71.26" y1="23.2" x2="150.91" y2="23.2"/>
  <line id="source_line-2" data-name="source line" class="cls-1" x1="71.26" y1="104.23" x2="286.51" y2="104.23"/>
  <g>
    <path class="cls-4" d="M33.67,23.87c0,.21-.04.39-.11.56s-.17.31-.29.44-.26.24-.42.33-.33.16-.51.22-.37.1-.56.13-.38.04-.56.04c-.4,0-.76-.02-1.1-.05s-.66-.09-.98-.17v-.94c.34.1.69.17,1.03.22s.68.08,1.01.08c.49,0,.85-.07,1.08-.2s.35-.32.35-.57c0-.11-.02-.2-.06-.28s-.1-.16-.2-.24-.25-.16-.45-.24-.49-.18-.84-.28c-.27-.08-.51-.17-.74-.27s-.42-.22-.58-.35-.29-.3-.39-.48-.14-.4-.14-.65c0-.16.04-.34.11-.54s.21-.38.39-.54.43-.31.74-.42.7-.17,1.17-.17c.23,0,.49.01.77.04s.57.07.88.13v.91c-.32-.08-.62-.14-.91-.17s-.54-.06-.75-.06c-.25,0-.47.02-.64.06s-.31.09-.42.16-.18.15-.23.24-.07.19-.07.3.02.2.06.29.12.17.23.25.27.16.47.24.46.17.78.26c.35.1.64.21.88.32s.43.24.58.37.25.29.32.46.1.37.1.59Z"/>
    <path class="cls-4" d="M40.51,25.48h-4.81v-.95h1.97v-5.59l-1.83,1-.38-.87,2.44-1.28h.9v6.74h1.71v.95Z"/>
    <path class="cls-4" d="M44.57,19.49c.12,0,.24.02.35.07s.21.11.29.2.15.18.2.29.07.22.07.35-.02.24-.07.35-.11.2-.2.28-.18.15-.29.19-.22.07-.35.07-.24-.02-.35-.07-.2-.11-.28-.19-.15-.18-.19-.28-.07-.22-.07-.35.02-.24.07-.35.11-.21.19-.29.18-.15.28-.2.22-.07.35-.07ZM44.57,23.78c.12,0,.24.02.35.07s.21.11.29.2.15.18.2.29.07.22.07.35-.02.24-.07.35-.11.2-.2.28-.18.15-.29.19-.22.07-.35.07-.24-.02-.35-.07-.2-.11-.28-.19-.15-.18-.19-.28-.07-.22-.07-.35.02-.24.07-.35.11-.21.19-.29.18-.15.28-.2.22-.07.35-.07Z"/>
  </g>
  <g>
    <path class="cls-4" d="M33.67,65.65c0,.21-.04.39-.11.56s-.17.31-.29.44-.26.24-.42.33-.33.16-.51.22-.37.1-.56.13-.38.04-.56.04c-.4,0-.76-.02-1.1-.05s-.66-.09-.98-.17v-.94c.34.1.69.17,1.03.22s.68.08,1.01.08c.49,0,.85-.07,1.08-.2s.35-.32.35-.57c0-.11-.02-.2-.06-.28s-.1-.16-.2-.24-.25-.16-.45-.24-.49-.18-.84-.28c-.27-.08-.51-.17-.74-.27s-.42-.22-.58-.35-.29-.3-.39-.48-.14-.4-.14-.65c0-.16.04-.34.11-.54s.21-.38.39-.54.43-.31.74-.42.7-.17,1.17-.17c.23,0,.49.01.77.04s.57.07.88.13v.91c-.32-.08-.62-.14-.91-.17s-.54-.06-.75-.06c-.25,0-.47.02-.64.06s-.31.09-.42.16-.18.15-.23.24-.07.19-.07.3.02.2.06.29.12.17.23.25.27.16.47.24.46.17.78.26c.35.1.64.21.88.32s.43.24.58.37.25.29.32.46.1.37.1.59Z"/>
    <path class="cls-4" d="M40.58,67.26h-5.04v-.91l1.98-1.97c.32-.32.59-.6.79-.83s.36-.45.47-.64.19-.38.23-.55.06-.36.06-.56c0-.19-.03-.37-.08-.54s-.13-.32-.23-.45-.24-.23-.41-.3-.37-.11-.6-.11c-.32,0-.62.07-.88.22s-.51.33-.73.56l-.56-.67c.29-.3.62-.55,1-.73s.82-.28,1.32-.28c.34,0,.65.05.93.15s.52.25.72.44.36.43.47.7.17.59.17.94c0,.29-.04.56-.12.81s-.2.5-.35.75-.36.5-.6.77-.52.56-.85.87l-1.39,1.35h3.72v.97Z"/>
    <path class="cls-4" d="M44.57,61.27c.12,0,.24.02.35.07s.21.11.29.2.15.18.2.29.07.22.07.35-.02.24-.07.35-.11.2-.2.28-.18.15-.29.19-.22.07-.35.07-.24-.02-.35-.07-.2-.11-.28-.19-.15-.18-.19-.28-.07-.22-.07-.35.02-.24.07-.35.11-.21.19-.29.18-.15.28-.2.22-.07.35-.07ZM44.57,65.57c.12,0,.24.02.35.07s.21.11.29.2.15.18.2.29.07.22.07.35-.02.24-.07.35-.11.2-.2.28-.18.15-.29.19-.22.07-.35.07-.24-.02-.35-.07-.2-.11-.28-.19-.15-.18-.19-.28-.07-.22-.07-.35.02-.24.07-.35.11-.21.19-.29.18-.15.28-.2.22-.07.35-.07Z"/>
  </g>
  <g>
    <path class="cls-4" d="M33.58,107.76c-.27.1-.54.18-.82.23s-.57.07-.86.07c-.93,0-1.65-.25-2.15-.76s-.75-1.24-.75-2.21c0-.46.07-.89.22-1.27s.35-.7.61-.97.57-.48.94-.62.76-.22,1.2-.22c.3,0,.59.02.86.06s.52.11.76.21v.97c-.25-.13-.51-.23-.78-.29s-.54-.09-.82-.09c-.26,0-.51.05-.74.15s-.44.24-.61.43-.31.42-.42.69-.15.57-.15.91c0,.71.17,1.24.52,1.6s.83.53,1.44.53c.28,0,.55-.03.81-.09s.51-.16.75-.28v.95Z"/>
    <path class="cls-4" d="M37.97,101.99c.12,0,.24.02.35.07s.21.11.29.2.15.18.2.29.07.22.07.35-.02.24-.07.35-.11.2-.2.28-.18.15-.29.19-.22.07-.35.07-.24-.02-.35-.07-.2-.11-.28-.19-.15-.18-.19-.28-.07-.22-.07-.35.02-.24.07-.35.11-.21.19-.29.18-.15.28-.2.22-.07.35-.07ZM37.97,106.28c.12,0,.24.02.35.07s.21.11.29.2.15.18.2.29.07.22.07.35-.02.24-.07.35-.11.2-.2.28-.18.15-.29.19-.22.07-.35.07-.24-.02-.35-.07-.2-.11-.28-.19-.15-.18-.19-.28-.07-.22-.07-.35.02-.24.07-.35.11-.21.19-.29.18-.15.28-.2.22-.07.35-.07Z"/>
  </g>
  <line class="cls-1" x1="71.26" y1="5.69" x2="71.26" y2="40.7"/>
  <line class="cls-1" x1="150.91" y1="5.69" x2="150.91" y2="40.7"/>
  <g>
    <circle class="cls-3" cx="70.94" cy="23.2" r="13.56"/>
    <path class="cls-4" d="M73.73,22.38c0,1.57-.23,2.72-.68,3.45s-1.16,1.1-2.11,1.1-1.67-.37-2.12-1.12-.67-1.88-.67-3.42.23-2.73.68-3.45,1.16-1.09,2.11-1.09,1.67.38,2.12,1.13.67,1.89.67,3.4ZM72.23,25.04c.11-.29.19-.65.24-1.1s.07-.96.07-1.56-.02-1.12-.07-1.56-.13-.81-.25-1.1c-.12-.3-.28-.52-.48-.68s-.47-.23-.8-.23-.59.08-.8.23-.37.38-.5.69c-.12.3-.2.67-.24,1.12s-.06.96-.06,1.54c0,.61.02,1.12.06,1.53s.12.78.24,1.1c.11.3.27.53.48.69s.48.24.82.24.59-.08.8-.23.37-.38.49-.69Z"/>
  </g>
  <g>
    <circle class="cls-3" cx="101.97" cy="23.2" r="13.56"/>
    <path class="cls-4" d="M104.27,26.75h-4.25v-.89h1.58v-5.85h-1.58v-.8c.6,0,1.04-.08,1.32-.25s.44-.49.48-.96h.91v7.86h1.55v.89Z"/>
  </g>
  <g>
    <circle class="cls-3" cx="133.22" cy="23.2" r="13.56"/>
    <path class="cls-4" d="M135.97,26.75h-5.38v-1.22c.39-.37.75-.72,1.1-1.05s.68-.69,1.01-1.05c.66-.73,1.12-1.32,1.36-1.75s.36-.89.36-1.36c0-.24-.04-.46-.11-.64s-.18-.34-.31-.46c-.14-.12-.29-.21-.47-.26s-.38-.09-.59-.09-.42.03-.63.08-.42.12-.61.2c-.16.07-.32.15-.47.24s-.28.17-.37.24h-.06v-1.24c.24-.12.58-.24,1.01-.35s.84-.17,1.23-.17c.81,0,1.45.22,1.91.65s.69,1.02.69,1.75c0,.34-.04.65-.12.94s-.19.56-.33.8c-.14.25-.32.51-.52.76s-.42.5-.64.74c-.37.4-.78.81-1.23,1.24s-.81.77-1.08,1.02h4.29v1Z"/>
  </g>
  <g>
    <circle class="cls-3" cx="70.94" cy="104.13" r="13.56"/>
    <path class="cls-4" d="M73.73,103.31c0,1.57-.23,2.72-.68,3.45s-1.16,1.1-2.11,1.1-1.67-.37-2.12-1.12-.67-1.88-.67-3.42.23-2.73.68-3.45,1.16-1.09,2.11-1.09,1.67.38,2.12,1.13.67,1.89.67,3.4ZM72.23,105.97c.11-.29.19-.65.24-1.1s.07-.96.07-1.56-.02-1.12-.07-1.56-.13-.81-.25-1.1c-.12-.3-.28-.52-.48-.68s-.47-.23-.8-.23-.59.08-.8.23-.37.38-.5.69c-.12.3-.2.67-.24,1.12s-.06.96-.06,1.54c0,.61.02,1.12.06,1.53s.12.78.24,1.1c.11.3.27.53.48.69s.48.24.82.24.59-.08.8-.23.37-.38.49-.69Z"/>
  </g>
  <g>
    <circle class="cls-3" cx="101.97" cy="104.13" r="13.56"/>
    <path class="cls-4" d="M104.27,107.67h-4.25v-.89h1.58v-5.85h-1.58v-.8c.6,0,1.04-.08,1.32-.25s.44-.49.48-.96h.91v7.86h1.55v.89Z"/>
  </g>
  <g>
    <circle class="cls-3" cx="133.22" cy="104.13" r="13.56"/>
    <path class="cls-4" d="M135.97,107.67h-5.38v-1.22c.39-.37.75-.72,1.1-1.05s.68-.69,1.01-1.05c.66-.73,1.12-1.32,1.36-1.75s.36-.89.36-1.36c0-.24-.04-.46-.11-.64s-.18-.34-.31-.46c-.14-.12-.29-.21-.47-.26s-.38-.09-.59-.09-.42.03-.63.08-.42.12-.61.2c-.16.07-.32.15-.47.24s-.28.17-.37.24h-.06v-1.24c.24-.12.58-.24,1.01-.35s.84-.17,1.23-.17c.81,0,1.45.22,1.91.65s.69,1.02.69,1.75c0,.34-.04.65-.12.94s-.19.56-.33.8c-.14.25-.32.51-.52.76s-.42.5-.64.74c-.37.4-.78.81-1.23,1.24s-.81.77-1.08,1.02h4.29v1Z"/>
  </g>
  <line id="source_line-3" data-name="source line" class="cls-1" x1="164.47" y1="63.71" x2="288.44" y2="63.71"/>
  <line class="cls-1" x1="288.68" y1="46.21" x2="288.68" y2="81.22"/>
  <line class="cls-1" x1="164.47" y1="46.21" x2="164.47" y2="81.22"/>
  <g>
    <circle class="cls-2" cx="257.66" cy="63.71" r="13.56"/>
    <path class="cls-4" d="M257.66,67.46c-.43,0-.83-.06-1.18-.19s-.66-.31-.91-.56c-.25-.23-.43-.51-.56-.83s-.19-.66-.19-1.02c0-.47.13-.91.38-1.3s.62-.71,1.1-.95v-.04c-.43-.25-.75-.52-.96-.82s-.31-.67-.31-1.11c0-.66.25-1.2.74-1.64s1.12-.66,1.89-.66,1.43.21,1.91.62.72.95.72,1.6c0,.39-.11.78-.34,1.16s-.56.68-.99.9v.04c.51.24.89.53,1.15.87s.39.78.39,1.31c0,.75-.27,1.37-.81,1.88s-1.22.76-2.03.76ZM259.3,64.94c0-.36-.07-.64-.21-.86s-.41-.43-.81-.64c-.13-.07-.31-.15-.53-.24s-.47-.19-.75-.3c-.32.21-.57.48-.74.79s-.26.67-.26,1.08c0,.53.16.96.48,1.31s.72.52,1.2.52.89-.15,1.18-.44.45-.7.45-1.2ZM259.13,60.57c0-.39-.13-.72-.39-.98s-.62-.39-1.09-.39c-.43,0-.77.12-1.05.35s-.41.55-.41.95c0,.29.07.53.21.73s.35.38.62.54c.12.07.31.16.55.28s.47.21.68.28c.34-.26.57-.53.69-.81s.18-.59.18-.95Z"/>
  </g>
  <g>
    <circle class="cls-2" cx="288.68" cy="63.71" r="13.56"/>
    <path class="cls-4" d="M285.8,61.37c0-.45.07-.86.22-1.23s.35-.69.6-.96c.24-.26.54-.46.89-.6s.7-.22,1.06-.22c.4,0,.77.07,1.09.2s.61.33.85.58c.3.32.53.74.7,1.26s.25,1.18.25,1.97c0,.72-.08,1.41-.24,2.05s-.4,1.18-.72,1.61c-.34.45-.74.8-1.21,1.04s-1.05.36-1.74.36c-.16,0-.32,0-.5-.03s-.34-.05-.49-.1v-1.12h.06c.1.05.25.11.46.16s.42.08.63.08c.77,0,1.37-.25,1.8-.76s.69-1.22.74-2.16c-.31.21-.61.37-.89.46s-.59.15-.92.15-.62-.04-.88-.11-.53-.21-.8-.41c-.31-.24-.55-.54-.71-.91s-.24-.81-.24-1.32ZM290.28,62.12c0-.59-.05-1.08-.16-1.45s-.26-.66-.45-.86c-.17-.19-.35-.32-.52-.39s-.37-.11-.58-.11c-.48,0-.86.17-1.15.52s-.43.84-.43,1.49c0,.37.05.67.14.91s.25.44.46.62c.15.12.32.2.5.24s.39.06.6.06c.25,0,.52-.04.81-.13s.54-.2.76-.35c0-.06,0-.14.01-.23s0-.2,0-.32Z"/>
  </g>
  <g>
    <circle class="cls-2" cx="164.47" cy="63.71" r="13.56"/>
    <path class="cls-4" d="M167.12,64.48c0,.42-.07.81-.2,1.17s-.32.67-.57.93c-.25.27-.55.47-.92.63s-.77.23-1.23.23c-.42,0-.83-.05-1.23-.14s-.75-.21-1.05-.36v-1.24h.08c.09.07.22.14.39.23s.35.16.56.24c.23.08.44.15.63.19s.41.07.64.07.46-.04.69-.13.41-.22.57-.41c.14-.17.25-.37.33-.6s.11-.5.11-.81-.04-.56-.13-.76-.21-.36-.37-.49c-.17-.15-.37-.25-.62-.31s-.52-.09-.82-.09c-.32,0-.63.02-.96.07s-.58.09-.77.14v-4.49h4.79v1.03h-3.66v2.32c.14-.02.28-.03.42-.04s.26-.01.38-.01c.45,0,.82.04,1.13.11s.61.22.89.43c.29.22.51.49.67.82s.23.76.23,1.28Z"/>
  </g>
  <g>
    <circle class="cls-2" cx="195.5" cy="63.71" r="13.56"/>
    <path class="cls-4" d="M198.38,64.43c0,.45-.07.86-.22,1.24s-.35.7-.6.95c-.26.27-.55.47-.88.61s-.68.21-1.07.21-.75-.07-1.08-.2-.61-.33-.85-.59c-.3-.32-.54-.74-.71-1.27s-.25-1.18-.25-1.95.08-1.44.23-2.05.4-1.14.72-1.6c.32-.44.72-.79,1.22-1.03s1.08-.37,1.73-.37c.2,0,.38,0,.54.03s.32.05.45.09v1.12h-.05c-.11-.06-.26-.11-.46-.16s-.41-.07-.64-.07c-.73,0-1.31.25-1.76.74s-.71,1.22-.79,2.18c.28-.2.56-.35.86-.45s.61-.16.96-.16.64.03.89.1.52.21.8.41c.32.24.56.55.71.92s.23.81.23,1.31ZM197.2,64.48c0-.36-.05-.66-.14-.9s-.25-.45-.46-.62c-.15-.12-.33-.21-.52-.25s-.39-.06-.59-.06c-.27,0-.54.04-.8.12s-.51.2-.76.36c0,.09-.01.17-.02.25s0,.18,0,.3c0,.61.06,1.09.18,1.46s.27.65.44.84c.17.18.34.31.52.39s.37.11.58.11c.47,0,.85-.17,1.14-.5s.44-.84.44-1.51Z"/>
  </g>
  <g>
    <circle class="cls-2" cx="226.53" cy="63.71" r="13.56"/>
    <path class="cls-4" d="M229.37,59.84l-3.77,7.42h-1.25l4-7.7h-4.51v-1.03h5.54v1.31Z"/>
  </g>
  <g>
    <circle class="cls-2" cx="257.66" cy="104.23" r="13.56"/>
    <path class="cls-4" d="M257.66,107.97c-.43,0-.83-.06-1.18-.19s-.66-.31-.91-.56c-.25-.23-.43-.51-.56-.83s-.19-.66-.19-1.02c0-.47.13-.91.38-1.3s.62-.71,1.1-.95v-.04c-.43-.25-.75-.52-.96-.82s-.31-.67-.31-1.11c0-.66.25-1.2.74-1.64s1.12-.66,1.89-.66,1.43.21,1.91.62.72.95.72,1.6c0,.39-.11.78-.34,1.16s-.56.68-.99.9v.04c.51.24.89.53,1.15.87s.39.78.39,1.31c0,.75-.27,1.37-.81,1.88s-1.22.76-2.03.76ZM259.3,105.45c0-.36-.07-.64-.21-.86s-.41-.43-.81-.64c-.13-.07-.31-.15-.53-.24s-.47-.19-.75-.3c-.32.21-.57.48-.74.79s-.26.67-.26,1.08c0,.53.16.96.48,1.31s.72.52,1.2.52.89-.15,1.18-.44.45-.7.45-1.2ZM259.13,101.08c0-.39-.13-.72-.39-.98s-.62-.39-1.09-.39c-.43,0-.77.12-1.05.35s-.41.55-.41.95c0,.29.07.53.21.73s.35.38.62.54c.12.07.31.16.55.28s.47.21.68.28c.34-.26.57-.53.69-.81s.18-.59.18-.95Z"/>
  </g>
  <g>
    <circle class="cls-2" cx="164.47" cy="104.23" r="13.56"/>
    <path class="cls-4" d="M167.12,105c0,.42-.07.81-.2,1.17s-.32.67-.57.93c-.25.27-.55.47-.92.63s-.77.23-1.23.23c-.42,0-.83-.05-1.23-.14s-.75-.21-1.05-.36v-1.24h.08c.09.07.22.14.39.23s.35.16.56.24c.23.08.44.15.63.19s.41.07.64.07.46-.04.69-.13.41-.22.57-.41c.14-.17.25-.37.33-.6s.11-.5.11-.81-.04-.56-.13-.76-.21-.36-.37-.49c-.17-.15-.37-.25-.62-.31s-.52-.09-.82-.09c-.32,0-.63.02-.96.07s-.58.09-.77.14v-4.49h4.79v1.03h-3.66v2.32c.14-.02.28-.03.42-.04s.26-.01.38-.01c.45,0,.82.04,1.13.11s.61.22.89.43c.29.22.51.49.67.82s.23.76.23,1.28Z"/>
  </g>
  <g>
    <circle class="cls-2" cx="195.5" cy="104.23" r="13.56"/>
    <path class="cls-4" d="M198.38,104.94c0,.45-.07.86-.22,1.24s-.35.7-.6.95c-.26.27-.55.47-.88.61s-.68.21-1.07.21-.75-.07-1.08-.2-.61-.33-.85-.59c-.3-.32-.54-.74-.71-1.27s-.25-1.18-.25-1.95.08-1.44.23-2.05.4-1.14.72-1.6c.32-.44.72-.79,1.22-1.03s1.08-.37,1.73-.37c.2,0,.38,0,.54.03s.32.05.45.09v1.12h-.05c-.11-.06-.26-.11-.46-.16s-.41-.07-.64-.07c-.73,0-1.31.25-1.76.74s-.71,1.22-.79,2.18c.28-.2.56-.35.86-.45s.61-.16.96-.16.64.03.89.1.52.21.8.41c.32.24.56.55.71.92s.23.81.23,1.31ZM197.2,104.99c0-.36-.05-.66-.14-.9s-.25-.45-.46-.62c-.15-.12-.33-.21-.52-.25s-.39-.06-.59-.06c-.27,0-.54.04-.8.12s-.51.2-.76.36c0,.09-.01.17-.02.25s0,.18,0,.3c0,.61.06,1.09.18,1.46s.27.65.44.84c.17.18.34.31.52.39s.37.11.58.11c.47,0,.85-.17,1.14-.5s.44-.84.44-1.51Z"/>
  </g>
  <g>
    <circle class="cls-2" cx="226.53" cy="104.23" r="13.56"/>
    <path class="cls-4" d="M229.37,100.36l-3.77,7.42h-1.25l4-7.7h-4.51v-1.03h5.54v1.31Z"/>
  </g>
  <line class="cls-1" x1="288.63" y1="86.72" x2="288.63" y2="121.73"/>
  <g>
    <circle class="cls-2" cx="288.68" cy="104.23" r="13.56"/>
    <path class="cls-4" d="M285.8,101.89c0-.45.07-.86.22-1.23s.35-.69.6-.96c.24-.26.54-.46.89-.6s.7-.22,1.06-.22c.4,0,.77.07,1.09.2s.61.33.85.58c.3.32.53.74.7,1.26s.25,1.18.25,1.97c0,.72-.08,1.41-.24,2.05s-.4,1.18-.72,1.61c-.34.45-.74.8-1.21,1.04s-1.05.36-1.74.36c-.16,0-.32,0-.5-.03s-.34-.05-.49-.1v-1.12h.06c.1.05.25.11.46.16s.42.08.63.08c.77,0,1.37-.25,1.8-.76s.69-1.22.74-2.16c-.31.21-.61.37-.89.46s-.59.15-.92.15-.62-.04-.88-.11-.53-.21-.8-.41c-.31-.24-.55-.54-.71-.91s-.24-.81-.24-1.32ZM290.28,102.64c0-.59-.05-1.08-.16-1.45s-.26-.66-.45-.86c-.17-.19-.35-.32-.52-.39s-.37-.11-.58-.11c-.48,0-.86.17-1.15.52s-.43.84-.43,1.49c0,.37.05.67.14.91s.25.44.46.62c.15.12.32.2.5.24s.39.06.6.06c.25,0,.52-.04.81-.13s.54-.2.76-.35c0-.06,0-.14.01-.23s0-.2,0-.32Z"/>
  </g>
</svg>