<?xml version="1.0" encoding="UTF-8"?>
<svg id="a" data-name="Layer 1" xmlns="http://www.w3.org/2000/svg" width="461.98" height="528.68" viewBox="0 0 461.98 528.68">
  <defs>
    <style>
      .p {
        fill: #f0ff8b;
      }

      .p, .q, .r, .s {
        stroke: #000;
        stroke-miterlimit: 10;
      }

      .t {
        font-family: Consolas, Consolas;
      }

      .t, .u {
        font-size: 12px;
      }

      .q {
        fill: none;
      }

      .r {
        fill: #ff8b8b;
      }

      .u {
        font-family: Tahoma, Tahoma;
      }

      .s {
        fill: #8bffbc;
      }
    </style>
  </defs>
  <line class="q" x1="168.47" y1="233.01" x2="168.47" y2="268.02"/>
  <line id="b" data-name="source line" class="q" x1="168.79" y1="25.84" x2="449.31" y2="25.84"/>
  <line id="c" data-name="source line" class="q" x1="168.79" y1="250.52" x2="449.31" y2="250.52"/>
  <text class="t" transform="translate(28.07 28.12)"><tspan x="0" y="0">left:</tspan></text>
  <text class="t" transform="translate(28.07 137.28)"><tspan x="0" y="0">right:</tspan></text>
  <text class="t" transform="translate(28.07 240.2)"><tspan x="0" y="0">Right observable</tspan><tspan x="0" y="14.4">passed to selector</tspan><tspan x="0" y="28.8">for 0:</tspan></text>
  <line class="q" x1="215.43" y1="280.34" x2="215.43" y2="315.35"/>
  <line id="d" data-name="source line" class="q" x1="215.74" y1="297.85" x2="449.31" y2="297.85"/>
  <text class="t" transform="translate(28.07 287.52)"><tspan x="0" y="0">Right observable</tspan><tspan x="0" y="14.4">passed to selector</tspan><tspan x="0" y="28.8">for 1:</tspan></text>
  <line class="q" x1="264.75" y1="329.32" x2="264.75" y2="364.33"/>
  <line id="e" data-name="source line" class="q" x1="265.06" y1="346.82" x2="449.31" y2="346.82"/>
  <text class="t" transform="translate(28.07 336.5)"><tspan x="0" y="0">Right observable</tspan><tspan x="0" y="14.4">passed to selector</tspan><tspan x="0" y="28.8">for 2:</tspan></text>
  <line class="q" x1="314.68" y1="375.81" x2="314.68" y2="410.82"/>
  <line id="f" data-name="source line" class="q" x1="314.99" y1="393.32" x2="449.31" y2="393.32"/>
  <text class="t" transform="translate(28.07 383)"><tspan x="0" y="0">Right observable</tspan><tspan x="0" y="14.4">passed to selector</tspan><tspan x="0" y="28.8">for 3:</tspan></text>
  <line class="q" x1="360.27" y1="427.25" x2="360.27" y2="462.26"/>
  <line id="g" data-name="source line" class="q" x1="360.59" y1="444.75" x2="449.31" y2="444.75"/>
  <text class="t" transform="translate(28.07 434.43)"><tspan x="0" y="0">Right observable</tspan><tspan x="0" y="14.4">passed to selector</tspan><tspan x="0" y="28.8">for 4:</tspan></text>
  <line class="q" x1="407.83" y1="473.74" x2="407.83" y2="508.75"/>
  <line id="h" data-name="source line" class="q" x1="408.15" y1="491.24" x2="449.31" y2="491.24"/>
  <text class="t" transform="translate(28.07 480.92)"><tspan x="0" y="0">Right observable</tspan><tspan x="0" y="14.4">passed to selector</tspan><tspan x="0" y="28.8">for 5:</tspan></text>
  <line class="q" x1="168.79" y1="8.33" x2="168.79" y2="43.34"/>
  <g>
    <circle class="s" cx="217.17" cy="25.84" r="13.56"/>
    <text class="u" transform="translate(213.9 29.39)"><tspan x="0" y="0">1</tspan></text>
  </g>
  <g>
    <circle class="s" cx="168.79" cy="25.84" r="13.56"/>
    <text class="u" transform="translate(165.52 29.39)"><tspan x="0" y="0">0</tspan></text>
  </g>
  <g>
    <circle class="s" cx="267.43" cy="25.84" r="13.56"/>
    <text class="u" transform="translate(264.15 29.39)"><tspan x="0" y="0">2</tspan></text>
  </g>
  <g>
    <circle class="s" cx="314.91" cy="25.84" r="13.56"/>
    <text class="u" transform="translate(311.64 29.39)"><tspan x="0" y="0">3</tspan></text>
  </g>
  <g>
    <circle class="s" cx="360.43" cy="25.84" r="13.56"/>
    <text class="u" transform="translate(357.16 29.39)"><tspan x="0" y="0">4</tspan></text>
  </g>
  <g>
    <circle class="s" cx="407.99" cy="25.84" r="13.56"/>
    <text class="u" transform="translate(404.72 29.39)"><tspan x="0" y="0">5</tspan></text>
  </g>
  <line id="i" data-name="source line" class="q" x1="168.79" y1="52.72" x2="449.31" y2="52.72"/>
  <text class="t" transform="translate(28.07 68.32)"><tspan x="0" y="0">left</tspan><tspan x="0" y="14.4">durations:</tspan></text>
  <line class="q" x1="168.79" y1="48.54" x2="168.79" y2="58.11"/>
  <line id="j" data-name="source line" class="q" x1="215.58" y1="62.83" x2="449.31" y2="62.83"/>
  <line class="q" x1="215.58" y1="58.64" x2="215.58" y2="68.22"/>
  <text class="t" transform="translate(28.07 180.6)"><tspan x="0" y="0">right</tspan><tspan x="0" y="14.4">durations:</tspan></text>
  <line class="q" x1="242.57" y1="160.82" x2="242.57" y2="170.39"/>
  <line class="q" x1="337.25" y1="170.92" x2="337.25" y2="180.49"/>
  <line class="q" x1="426.02" y1="181.08" x2="426.02" y2="190.65"/>
  <line id="k" data-name="source line" class="q" x1="264.9" y1="72.4" x2="449.31" y2="72.4"/>
  <line class="q" x1="264.9" y1="68.22" x2="264.9" y2="77.79"/>
  <line id="l" data-name="source line" class="q" x1="314.83" y1="82.12" x2="449.31" y2="82.12"/>
  <line class="q" x1="314.83" y1="77.94" x2="314.83" y2="87.51"/>
  <line id="m" data-name="source line" class="q" x1="360.43" y1="91.69" x2="449.31" y2="91.69"/>
  <line class="q" x1="360.43" y1="87.51" x2="360.43" y2="97.08"/>
  <line id="n" data-name="source line" class="q" x1="407.99" y1="101.26" x2="449.31" y2="101.26"/>
  <line class="q" x1="407.99" y1="97.08" x2="407.99" y2="106.65"/>
  <g>
    <circle class="p" cx="242.57" cy="250.52" r="13.56"/>
    <text class="u" transform="translate(238.97 254.06)"><tspan x="0" y="0">A</tspan></text>
  </g>
  <g>
    <circle class="p" cx="242.57" cy="297.85" r="13.56"/>
    <text class="u" transform="translate(238.97 301.39)"><tspan x="0" y="0">A</tspan></text>
  </g>
  <g>
    <circle class="p" cx="336.25" cy="250.52" r="13.56"/>
    <text class="u" transform="translate(332.72 254.06)"><tspan x="0" y="0">B</tspan></text>
  </g>
  <g>
    <circle class="p" cx="336.25" cy="297.85" r="13.56"/>
    <text class="u" transform="translate(332.72 301.39)"><tspan x="0" y="0">B</tspan></text>
  </g>
  <g>
    <circle class="p" cx="336.25" cy="346.82" r="13.56"/>
    <text class="u" transform="translate(332.72 350.37)"><tspan x="0" y="0">B</tspan></text>
  </g>
  <g>
    <circle class="p" cx="335.14" cy="391.83" r="13.56"/>
    <text class="u" transform="translate(331.61 395.37)"><tspan x="0" y="0">B</tspan></text>
  </g>
  <g>
    <circle class="p" cx="426.02" cy="250.52" r="13.56"/>
    <text class="u" transform="translate(422.42 254.06)"><tspan x="0" y="0">C</tspan></text>
  </g>
  <g>
    <circle class="p" cx="426.02" cy="297.85" r="13.56"/>
    <text class="u" transform="translate(422.42 301.39)"><tspan x="0" y="0">C</tspan></text>
  </g>
  <g>
    <circle class="p" cx="426.02" cy="347.71" r="13.56"/>
    <text class="u" transform="translate(422.42 351.26)"><tspan x="0" y="0">C</tspan></text>
  </g>
  <g>
    <circle class="p" cx="426.02" cy="393.32" r="13.56"/>
    <text class="u" transform="translate(422.42 396.86)"><tspan x="0" y="0">C</tspan></text>
  </g>
  <g>
    <circle class="p" cx="426.02" cy="444.91" r="13.56"/>
    <text class="u" transform="translate(422.42 448.46)"><tspan x="0" y="0">C</tspan></text>
  </g>
  <g>
    <circle class="p" cx="426.02" cy="491.24" r="13.56"/>
    <text class="u" transform="translate(422.42 494.79)"><tspan x="0" y="0">C</tspan></text>
  </g>
  <line id="o" data-name="source line" class="q" x1="168.79" y1="133.73" x2="449.31" y2="133.73"/>
  <line class="q" x1="168.79" y1="116.23" x2="168.79" y2="151.24"/>
  <g>
    <circle class="r" cx="242.57" cy="133.73" r="13.56"/>
    <text class="u" transform="translate(238.97 137.28)"><tspan x="0" y="0">A</tspan></text>
  </g>
  <g>
    <circle class="r" cx="336.25" cy="133.73" r="13.56"/>
    <text class="u" transform="translate(332.72 137.28)"><tspan x="0" y="0">B</tspan></text>
  </g>
  <g>
    <circle class="r" cx="426.02" cy="133.73" r="13.56"/>
    <text class="u" transform="translate(422.42 137.28)"><tspan x="0" y="0">C</tspan></text>
  </g>
</svg>