<?xml version="1.0" encoding="UTF-8"?>
<svg id="Layer_1" data-name="Layer 1" xmlns="http://www.w3.org/2000/svg" viewBox="0 0 281.21 136.45">
  <defs>
    <style>
      .cls-1 {
        fill: none;
      }

      .cls-1, .cls-2, .cls-3 {
        stroke: #000;
        stroke-miterlimit: 10;
      }

      .cls-2 {
        fill: #ff8b8b;
      }

      .cls-4 {
        stroke-width: 0px;
      }

      .cls-3 {
        fill: #8bffbc;
      }
    </style>
  </defs>
  <line class="cls-1" x1="70.94" y1="89.36" x2="70.94" y2="124.37"/>
  <line id="source_line" data-name="source line" class="cls-1" x1="71.26" y1="25.84" x2="233.03" y2="25.84"/>
  <line id="source_line-2" data-name="source line" class="cls-1" x1="71.26" y1="106.87" x2="266.88" y2="106.87"/>
  <g>
    <path class="cls-4" d="M33.67,26.51c0,.21-.04.39-.11.56s-.17.31-.29.44-.26.24-.42.33-.33.16-.51.22-.37.1-.56.13-.38.04-.56.04c-.4,0-.76-.02-1.1-.05s-.66-.09-.98-.17v-.94c.34.1.69.17,1.03.22s.68.08,1.01.08c.49,0,.85-.07,1.08-.2s.35-.32.35-.57c0-.11-.02-.2-.06-.28s-.1-.16-.2-.24-.25-.16-.45-.24-.49-.18-.84-.28c-.27-.08-.51-.17-.74-.27s-.42-.22-.58-.35-.29-.3-.39-.48-.14-.4-.14-.65c0-.16.04-.34.11-.54s.21-.38.39-.54.43-.31.74-.42.7-.17,1.17-.17c.23,0,.49.01.77.04s.57.07.88.13v.91c-.32-.08-.62-.14-.91-.17s-.54-.06-.75-.06c-.25,0-.47.02-.64.06s-.31.09-.42.16-.18.15-.23.24-.07.19-.07.3.02.2.06.29.12.17.23.25.27.16.47.24.46.17.78.26c.35.1.64.21.88.32s.43.24.58.37.25.29.32.46.1.37.1.59Z"/>
    <path class="cls-4" d="M40.51,28.12h-4.81v-.95h1.97v-5.59l-1.83,1-.38-.87,2.44-1.28h.9v6.74h1.71v.95Z"/>
    <path class="cls-4" d="M44.57,22.13c.12,0,.24.02.35.07s.21.11.29.2.15.18.2.29.07.22.07.35-.02.24-.07.35-.11.2-.2.28-.18.15-.29.19-.22.07-.35.07-.24-.02-.35-.07-.2-.11-.28-.19-.15-.18-.19-.28-.07-.22-.07-.35.02-.24.07-.35.11-.21.19-.29.18-.15.28-.2.22-.07.35-.07ZM44.57,26.43c.12,0,.24.02.35.07s.21.11.29.2.15.18.2.29.07.22.07.35-.02.24-.07.35-.11.2-.2.28-.18.15-.29.19-.22.07-.35.07-.24-.02-.35-.07-.2-.11-.28-.19-.15-.18-.19-.28-.07-.22-.07-.35.02-.24.07-.35.11-.21.19-.29.18-.15.28-.2.22-.07.35-.07Z"/>
  </g>
  <g>
    <path class="cls-4" d="M33.67,68.3c0,.21-.04.39-.11.56s-.17.31-.29.44-.26.24-.42.33-.33.16-.51.22-.37.1-.56.13-.38.04-.56.04c-.4,0-.76-.02-1.1-.05s-.66-.09-.98-.17v-.94c.34.1.69.17,1.03.22s.68.08,1.01.08c.49,0,.85-.07,1.08-.2s.35-.32.35-.57c0-.11-.02-.2-.06-.28s-.1-.16-.2-.24-.25-.16-.45-.24-.49-.18-.84-.28c-.27-.08-.51-.17-.74-.27s-.42-.22-.58-.35-.29-.3-.39-.48-.14-.4-.14-.65c0-.16.04-.34.11-.54s.21-.38.39-.54.43-.31.74-.42.7-.17,1.17-.17c.23,0,.49.01.77.04s.57.07.88.13v.91c-.32-.08-.62-.14-.91-.17s-.54-.06-.75-.06c-.25,0-.47.02-.64.06s-.31.09-.42.16-.18.15-.23.24-.07.19-.07.3.02.2.06.29.12.17.23.25.27.16.47.24.46.17.78.26c.35.1.64.21.88.32s.43.24.58.37.25.29.32.46.1.37.1.59Z"/>
    <path class="cls-4" d="M40.58,69.9h-5.04v-.91l1.98-1.97c.32-.32.59-.6.79-.83s.36-.45.47-.64.19-.38.23-.55.06-.36.06-.56c0-.19-.03-.37-.08-.54s-.13-.32-.23-.45-.24-.23-.41-.3-.37-.11-.6-.11c-.32,0-.62.07-.88.22s-.51.33-.73.56l-.56-.67c.29-.3.62-.55,1-.73s.82-.28,1.32-.28c.34,0,.65.05.93.15s.52.25.72.44.36.43.47.7.17.59.17.94c0,.29-.04.56-.12.81s-.2.5-.35.75-.36.5-.6.77-.52.56-.85.87l-1.39,1.35h3.72v.97Z"/>
    <path class="cls-4" d="M44.57,63.91c.12,0,.24.02.35.07s.21.11.29.2.15.18.2.29.07.22.07.35-.02.24-.07.35-.11.2-.2.28-.18.15-.29.19-.22.07-.35.07-.24-.02-.35-.07-.2-.11-.28-.19-.15-.18-.19-.28-.07-.22-.07-.35.02-.24.07-.35.11-.21.19-.29.18-.15.28-.2.22-.07.35-.07ZM44.57,68.21c.12,0,.24.02.35.07s.21.11.29.2.15.18.2.29.07.22.07.35-.02.24-.07.35-.11.2-.2.28-.18.15-.29.19-.22.07-.35.07-.24-.02-.35-.07-.2-.11-.28-.19-.15-.18-.19-.28-.07-.22-.07-.35.02-.24.07-.35.11-.21.19-.29.18-.15.28-.2.22-.07.35-.07Z"/>
  </g>
  <g>
    <path class="cls-4" d="M33.58,110.4c-.27.1-.54.18-.82.23s-.57.07-.86.07c-.93,0-1.65-.25-2.15-.76s-.75-1.24-.75-2.21c0-.46.07-.89.22-1.27s.35-.7.61-.97.57-.48.94-.62.76-.22,1.2-.22c.3,0,.59.02.86.06s.52.11.76.21v.97c-.25-.13-.51-.23-.78-.29s-.54-.09-.82-.09c-.26,0-.51.05-.74.15s-.44.24-.61.43-.31.42-.42.69-.15.57-.15.91c0,.71.17,1.24.52,1.6s.83.53,1.44.53c.28,0,.55-.03.81-.09s.51-.16.75-.28v.95Z"/>
    <path class="cls-4" d="M37.97,104.63c.12,0,.24.02.35.07s.21.11.29.2.15.18.2.29.07.22.07.35-.02.24-.07.35-.11.2-.2.28-.18.15-.29.19-.22.07-.35.07-.24-.02-.35-.07-.2-.11-.28-.19-.15-.18-.19-.28-.07-.22-.07-.35.02-.24.07-.35.11-.21.19-.29.18-.15.28-.2.22-.07.35-.07ZM37.97,108.93c.12,0,.24.02.35.07s.21.11.29.2.15.18.2.29.07.22.07.35-.02.24-.07.35-.11.2-.2.28-.18.15-.29.19-.22.07-.35.07-.24-.02-.35-.07-.2-.11-.28-.19-.15-.18-.19-.28-.07-.22-.07-.35.02-.24.07-.35.11-.21.19-.29.18-.15.28-.2.22-.07.35-.07Z"/>
  </g>
  <line class="cls-1" x1="71.26" y1="8.33" x2="71.26" y2="43.34"/>
  <line class="cls-1" x1="233.03" y1="8.33" x2="233.03" y2="43.34"/>
  <g>
    <circle class="cls-3" cx="88.75" cy="25.84" r="13.56"/>
    <path class="cls-4" d="M91.06,29.39h-4.25v-.89h1.58v-5.85h-1.58v-.8c.6,0,1.04-.08,1.32-.25s.44-.49.48-.96h.91v7.86h1.55v.89Z"/>
  </g>
  <g>
    <circle class="cls-3" cx="151.21" cy="25.84" r="13.56"/>
    <path class="cls-4" d="M153.52,29.39h-4.25v-.89h1.58v-5.85h-1.58v-.8c.6,0,1.04-.08,1.32-.25s.44-.49.48-.96h.91v7.86h1.55v.89Z"/>
  </g>
  <g>
    <circle class="cls-3" cx="214.69" cy="25.84" r="13.56"/>
    <path class="cls-4" d="M216.99,29.39h-4.25v-.89h1.58v-5.85h-1.58v-.8c.6,0,1.04-.08,1.32-.25s.44-.49.48-.96h.91v7.86h1.55v.89Z"/>
  </g>
  <g>
    <circle class="cls-3" cx="88.75" cy="106.87" r="13.56"/>
    <path class="cls-4" d="M91.06,110.42h-4.25v-.89h1.58v-5.85h-1.58v-.8c.6,0,1.04-.08,1.32-.25s.44-.49.48-.96h.91v7.86h1.55v.89Z"/>
  </g>
  <g>
    <circle class="cls-3" cx="151.21" cy="106.87" r="13.56"/>
    <path class="cls-4" d="M153.52,110.42h-4.25v-.89h1.58v-5.85h-1.58v-.8c.6,0,1.04-.08,1.32-.25s.44-.49.48-.96h.91v7.86h1.55v.89Z"/>
  </g>
  <g>
    <circle class="cls-3" cx="214.69" cy="106.87" r="13.56"/>
    <path class="cls-4" d="M216.99,110.42h-4.25v-.89h1.58v-5.85h-1.58v-.8c.6,0,1.04-.08,1.32-.25s.44-.49.48-.96h.91v7.86h1.55v.89Z"/>
  </g>
  <line id="source_line-3" data-name="source line" class="cls-1" x1="71.26" y1="66.35" x2="266.88" y2="66.35"/>
  <line class="cls-1" x1="266.88" y1="48.85" x2="266.88" y2="83.86"/>
  <line class="cls-1" x1="71.26" y1="48.85" x2="71.26" y2="83.86"/>
  <g>
    <circle class="cls-2" cx="122.69" cy="66.35" r="13.56"/>
    <path class="cls-4" d="M125.44,69.9h-5.38v-1.22c.39-.37.75-.72,1.1-1.05s.68-.69,1.01-1.05c.66-.73,1.12-1.32,1.36-1.75s.36-.89.36-1.36c0-.24-.04-.46-.11-.64s-.18-.34-.31-.46c-.14-.12-.29-.21-.47-.26s-.38-.09-.59-.09-.42.03-.63.08-.42.12-.61.2c-.16.07-.32.15-.47.24s-.28.17-.37.24h-.06v-1.24c.24-.12.58-.24,1.01-.35s.84-.17,1.23-.17c.81,0,1.45.22,1.91.65s.69,1.02.69,1.75c0,.34-.04.65-.12.94s-.19.56-.33.8c-.14.25-.32.51-.52.76s-.42.5-.64.74c-.37.4-.78.81-1.23,1.24s-.81.77-1.08,1.02h4.29v1Z"/>
  </g>
  <g>
    <circle class="cls-2" cx="182.61" cy="66.35" r="13.56"/>
    <path class="cls-4" d="M185.35,69.9h-5.38v-1.22c.39-.37.75-.72,1.1-1.05s.68-.69,1.01-1.05c.66-.73,1.12-1.32,1.36-1.75s.36-.89.36-1.36c0-.24-.04-.46-.11-.64s-.18-.34-.31-.46c-.14-.12-.29-.21-.47-.26s-.38-.09-.59-.09-.42.03-.63.08-.42.12-.61.2c-.16.07-.32.15-.47.24s-.28.17-.37.24h-.06v-1.24c.24-.12.58-.24,1.01-.35s.84-.17,1.23-.17c.81,0,1.45.22,1.91.65s.69,1.02.69,1.75c0,.34-.04.65-.12.94s-.19.56-.33.8c-.14.25-.32.51-.52.76s-.42.5-.64.74c-.37.4-.78.81-1.23,1.24s-.81.77-1.08,1.02h4.29v1Z"/>
  </g>
  <g>
    <circle class="cls-2" cx="243.39" cy="66.35" r="13.56"/>
    <path class="cls-4" d="M246.14,69.9h-5.38v-1.22c.39-.37.75-.72,1.1-1.05s.68-.69,1.01-1.05c.66-.73,1.12-1.32,1.36-1.75s.36-.89.36-1.36c0-.24-.04-.46-.11-.64s-.18-.34-.31-.46c-.14-.12-.29-.21-.47-.26s-.38-.09-.59-.09-.42.03-.63.08-.42.12-.61.2c-.16.07-.32.15-.47.24s-.28.17-.37.24h-.06v-1.24c.24-.12.58-.24,1.01-.35s.84-.17,1.23-.17c.81,0,1.45.22,1.91.65s.69,1.02.69,1.75c0,.34-.04.65-.12.94s-.19.56-.33.8c-.14.25-.32.51-.52.76s-.42.5-.64.74c-.37.4-.78.81-1.23,1.24s-.81.77-1.08,1.02h4.29v1Z"/>
  </g>
  <g>
    <circle class="cls-2" cx="122.69" cy="106.87" r="13.56"/>
    <path class="cls-4" d="M125.44,110.42h-5.38v-1.22c.39-.37.75-.72,1.1-1.05s.68-.69,1.01-1.05c.66-.73,1.12-1.32,1.36-1.75s.36-.89.36-1.36c0-.24-.04-.46-.11-.64s-.18-.34-.31-.46c-.14-.12-.29-.21-.47-.26s-.38-.09-.59-.09-.42.03-.63.08-.42.12-.61.2c-.16.07-.32.15-.47.24s-.28.17-.37.24h-.06v-1.24c.24-.12.58-.24,1.01-.35s.84-.17,1.23-.17c.81,0,1.45.22,1.91.65s.69,1.02.69,1.75c0,.34-.04.65-.12.94s-.19.56-.33.8c-.14.25-.32.51-.52.76s-.42.5-.64.74c-.37.4-.78.81-1.23,1.24s-.81.77-1.08,1.02h4.29v1Z"/>
  </g>
  <g>
    <circle class="cls-2" cx="182.61" cy="106.87" r="13.56"/>
    <path class="cls-4" d="M185.35,110.42h-5.38v-1.22c.39-.37.75-.72,1.1-1.05s.68-.69,1.01-1.05c.66-.73,1.12-1.32,1.36-1.75s.36-.89.36-1.36c0-.24-.04-.46-.11-.64s-.18-.34-.31-.46c-.14-.12-.29-.21-.47-.26s-.38-.09-.59-.09-.42.03-.63.08-.42.12-.61.2c-.16.07-.32.15-.47.24s-.28.17-.37.24h-.06v-1.24c.24-.12.58-.24,1.01-.35s.84-.17,1.23-.17c.81,0,1.45.22,1.91.65s.69,1.02.69,1.75c0,.34-.04.65-.12.94s-.19.56-.33.8c-.14.25-.32.51-.52.76s-.42.5-.64.74c-.37.4-.78.81-1.23,1.24s-.81.77-1.08,1.02h4.29v1Z"/>
  </g>
  <g>
    <circle class="cls-2" cx="243.39" cy="106.87" r="13.56"/>
    <path class="cls-4" d="M246.14,110.42h-5.38v-1.22c.39-.37.75-.72,1.1-1.05s.68-.69,1.01-1.05c.66-.73,1.12-1.32,1.36-1.75s.36-.89.36-1.36c0-.24-.04-.46-.11-.64s-.18-.34-.31-.46c-.14-.12-.29-.21-.47-.26s-.38-.09-.59-.09-.42.03-.63.08-.42.12-.61.2c-.16.07-.32.15-.47.24s-.28.17-.37.24h-.06v-1.24c.24-.12.58-.24,1.01-.35s.84-.17,1.23-.17c.81,0,1.45.22,1.91.65s.69,1.02.69,1.75c0,.34-.04.65-.12.94s-.19.56-.33.8c-.14.25-.32.51-.52.76s-.42.5-.64.74c-.37.4-.78.81-1.23,1.24s-.81.77-1.08,1.02h4.29v1Z"/>
  </g>
  <line class="cls-1" x1="266.88" y1="89.36" x2="266.88" y2="124.37"/>
</svg>