<?xml version="1.0" encoding="UTF-8"?>
<svg id="a" data-name="Layer 1" xmlns="http://www.w3.org/2000/svg" width="314.12" height="136.45" viewBox="0 0 314.12 136.45">
  <defs>
    <style>
      .e {
        font-family: Consolas, Consolas;
      }

      .e, .f {
        font-size: 12px;
      }

      .g {
        fill: none;
      }

      .g, .h, .i {
        stroke: #000;
        stroke-miterlimit: 10;
      }

      .h {
        fill: #ff8b8b;
      }

      .f {
        font-family: Tahoma, Tahoma;
      }

      .i {
        fill: #8bffbc;
      }
    </style>
  </defs>
  <line class="g" x1="70.94" y1="89.36" x2="70.94" y2="124.37"/>
  <line id="b" data-name="source line" class="g" x1="71.26" y1="25.84" x2="245.04" y2="25.84"/>
  <line id="c" data-name="source line" class="g" x1="71.26" y1="106.87" x2="245.94" y2="106.87"/>
  <text class="e" transform="translate(28.07 28.12)"><tspan x="0" y="0">s1:</tspan></text>
  <text class="e" transform="translate(28.07 69.9)"><tspan x="0" y="0">s2:</tspan></text>
  <text class="e" transform="translate(28.07 110.62)"><tspan x="0" y="0">c:</tspan></text>
  <line class="g" x1="71.26" y1="8.33" x2="71.26" y2="43.34"/>
  <line class="g" x1="245.94" y1="8.33" x2="245.94" y2="43.34"/>
  <g>
    <circle class="i" cx="119.64" cy="25.84" r="13.56"/>
    <text class="f" transform="translate(116.36 29.39)"><tspan x="0" y="0">0</tspan></text>
  </g>
  <g>
    <circle class="i" cx="182.1" cy="25.84" r="13.56"/>
    <text class="f" transform="translate(178.82 29.39)"><tspan x="0" y="0">1</tspan></text>
  </g>
  <g>
    <circle class="i" cx="245.57" cy="25.84" r="13.56"/>
    <text class="f" transform="translate(242.3 29.39)"><tspan x="0" y="0">2</tspan></text>
  </g>
  <g>
    <circle class="i" cx="119.64" cy="106.87" r="13.56"/>
    <text class="f" transform="translate(111.4 110.42)"><tspan x="0" y="0">0,a</tspan></text>
  </g>
  <g>
    <circle class="i" cx="182.1" cy="106.87" r="13.56"/>
    <text class="f" transform="translate(173.69 110.42)"><tspan x="0" y="0">1,b</tspan></text>
  </g>
  <line id="d" data-name="source line" class="g" x1="71.26" y1="66.35" x2="280.44" y2="66.35"/>
  <line class="g" x1="280.44" y1="48.85" x2="280.44" y2="83.86"/>
  <line class="g" x1="71.26" y1="48.85" x2="71.26" y2="83.86"/>
  <g>
    <circle class="h" cx="104.62" cy="66.35" r="13.56"/>
    <text class="f" transform="translate(101.47 69.9)"><tspan x="0" y="0">a</tspan></text>
  </g>
  <g>
    <circle class="h" cx="141.61" cy="66.35" r="13.56"/>
    <text class="f" transform="translate(138.29 69.9)"><tspan x="0" y="0">b</tspan></text>
  </g>
  <g>
    <circle class="h" cx="177.01" cy="66.35" r="13.56"/>
    <text class="f" transform="translate(174.25 69.9)"><tspan x="0" y="0">c</tspan></text>
  </g>
  <g>
    <circle class="h" cx="211.73" cy="66.35" r="13.56"/>
    <text class="f" transform="translate(208.42 69.9)"><tspan x="0" y="0">d</tspan></text>
  </g>
  <g>
    <circle class="h" cx="246.13" cy="66.35" r="13.56"/>
    <text class="f" transform="translate(242.97 69.9)"><tspan x="0" y="0">e</tspan></text>
  </g>
  <g>
    <circle class="h" cx="280.44" cy="66.35" r="13.56"/>
    <text class="f" transform="translate(278.53 69.9)"><tspan x="0" y="0">f</tspan></text>
  </g>
  <line class="g" x1="245.94" y1="89.36" x2="245.94" y2="124.37"/>
  <g>
    <circle class="i" cx="245.94" cy="106.87" r="13.56"/>
    <text class="f" transform="translate(238.08 110.42)"><tspan x="0" y="0">2,c</tspan></text>
  </g>
</svg>