<?xml version="1.0" encoding="UTF-8"?>
<svg id="Layer_1" data-name="Layer 1" xmlns="http://www.w3.org/2000/svg" viewBox="0 0 302.18 177.91">
  <defs>
    <style>
      .cls-1 {
        fill: #f0ff8b;
      }

      .cls-1, .cls-2, .cls-3, .cls-4 {
        stroke: #000;
        stroke-miterlimit: 10;
      }

      .cls-2 {
        fill: none;
      }

      .cls-3 {
        fill: #ff8b8b;
      }

      .cls-5 {
        stroke-width: 0px;
      }

      .cls-4 {
        fill: #8bffbc;
      }
    </style>
  </defs>
  <line class="cls-2" x1="71.26" y1="87.53" x2="71.26" y2="122.54"/>
  <line id="source_line" data-name="source line" class="cls-2" x1="71.58" y1="105.03" x2="286.12" y2="105.03"/>
  <g>
    <path class="cls-5" d="M33.67,24.68c0,.21-.04.39-.11.56s-.17.31-.29.44-.26.24-.42.33-.33.16-.51.22-.37.1-.56.13-.38.04-.56.04c-.4,0-.76-.02-1.1-.05s-.66-.09-.98-.17v-.94c.34.1.69.17,1.03.22s.68.08,1.01.08c.49,0,.85-.07,1.08-.2s.35-.32.35-.57c0-.11-.02-.2-.06-.28s-.1-.16-.2-.24-.25-.16-.45-.24-.49-.18-.84-.28c-.27-.08-.51-.17-.74-.27s-.42-.22-.58-.35-.29-.3-.39-.48-.14-.4-.14-.65c0-.16.04-.34.11-.54s.21-.38.39-.54.43-.31.74-.42.7-.17,1.17-.17c.23,0,.49.01.77.04s.57.07.88.13v.91c-.32-.08-.62-.14-.91-.17s-.54-.06-.75-.06c-.25,0-.47.02-.64.06s-.31.09-.42.16-.18.15-.23.24-.07.19-.07.3.02.2.06.29.12.17.23.25.27.16.47.24.46.17.78.26c.35.1.64.21.88.32s.43.24.58.37.25.29.32.46.1.37.1.59Z"/>
    <path class="cls-5" d="M40.51,26.29h-4.81v-.95h1.97v-5.59l-1.83,1-.38-.87,2.44-1.28h.9v6.74h1.71v.95Z"/>
    <path class="cls-5" d="M44.57,20.3c.12,0,.24.02.35.07s.21.11.29.2.15.18.2.29.07.22.07.35-.02.24-.07.35-.11.2-.2.28-.18.15-.29.19-.22.07-.35.07-.24-.02-.35-.07-.2-.11-.28-.19-.15-.18-.19-.28-.07-.22-.07-.35.02-.24.07-.35.11-.21.19-.29.18-.15.28-.2.22-.07.35-.07ZM44.57,24.59c.12,0,.24.02.35.07s.21.11.29.2.15.18.2.29.07.22.07.35-.02.24-.07.35-.11.2-.2.28-.18.15-.29.19-.22.07-.35.07-.24-.02-.35-.07-.2-.11-.28-.19-.15-.18-.19-.28-.07-.22-.07-.35.02-.24.07-.35.11-.21.19-.29.18-.15.28-.2.22-.07.35-.07Z"/>
  </g>
  <g>
    <path class="cls-5" d="M33.67,66.46c0,.21-.04.39-.11.56s-.17.31-.29.44-.26.24-.42.33-.33.16-.51.22-.37.1-.56.13-.38.04-.56.04c-.4,0-.76-.02-1.1-.05s-.66-.09-.98-.17v-.94c.34.1.69.17,1.03.22s.68.08,1.01.08c.49,0,.85-.07,1.08-.2s.35-.32.35-.57c0-.11-.02-.2-.06-.28s-.1-.16-.2-.24-.25-.16-.45-.24-.49-.18-.84-.28c-.27-.08-.51-.17-.74-.27s-.42-.22-.58-.35-.29-.3-.39-.48-.14-.4-.14-.65c0-.16.04-.34.11-.54s.21-.38.39-.54.43-.31.74-.42.7-.17,1.17-.17c.23,0,.49.01.77.04s.57.07.88.13v.91c-.32-.08-.62-.14-.91-.17s-.54-.06-.75-.06c-.25,0-.47.02-.64.06s-.31.09-.42.16-.18.15-.23.24-.07.19-.07.3.02.2.06.29.12.17.23.25.27.16.47.24.46.17.78.26c.35.1.64.21.88.32s.43.24.58.37.25.29.32.46.1.37.1.59Z"/>
    <path class="cls-5" d="M40.58,68.07h-5.04v-.91l1.98-1.97c.32-.32.59-.6.79-.83s.36-.45.47-.64.19-.38.23-.55.06-.36.06-.56c0-.19-.03-.37-.08-.54s-.13-.32-.23-.45-.24-.23-.41-.3-.37-.11-.6-.11c-.32,0-.62.07-.88.22s-.51.33-.73.56l-.56-.67c.29-.3.62-.55,1-.73s.82-.28,1.32-.28c.34,0,.65.05.93.15s.52.25.72.44.36.43.47.7.17.59.17.94c0,.29-.04.56-.12.81s-.2.5-.35.75-.36.5-.6.77-.52.56-.85.87l-1.39,1.35h3.72v.97Z"/>
    <path class="cls-5" d="M44.57,62.08c.12,0,.24.02.35.07s.21.11.29.2.15.18.2.29.07.22.07.35-.02.24-.07.35-.11.2-.2.28-.18.15-.29.19-.22.07-.35.07-.24-.02-.35-.07-.2-.11-.28-.19-.15-.18-.19-.28-.07-.22-.07-.35.02-.24.07-.35.11-.21.19-.29.18-.15.28-.2.22-.07.35-.07ZM44.57,66.37c.12,0,.24.02.35.07s.21.11.29.2.15.18.2.29.07.22.07.35-.02.24-.07.35-.11.2-.2.28-.18.15-.29.19-.22.07-.35.07-.24-.02-.35-.07-.2-.11-.28-.19-.15-.18-.19-.28-.07-.22-.07-.35.02-.24.07-.35.11-.21.19-.29.18-.15.28-.2.22-.07.35-.07Z"/>
  </g>
  <g>
    <path class="cls-5" d="M33.67,107.18c0,.21-.04.39-.11.56s-.17.31-.29.44-.26.24-.42.33-.33.16-.51.22-.37.1-.56.13-.38.04-.56.04c-.4,0-.76-.02-1.1-.05s-.66-.09-.98-.17v-.94c.34.1.69.17,1.03.22s.68.08,1.01.08c.49,0,.85-.07,1.08-.2s.35-.32.35-.57c0-.11-.02-.2-.06-.28s-.1-.16-.2-.24-.25-.16-.45-.24-.49-.18-.84-.28c-.27-.08-.51-.17-.74-.27s-.42-.22-.58-.35-.29-.3-.39-.48-.14-.4-.14-.65c0-.16.04-.34.11-.54s.21-.38.39-.54.43-.31.74-.42.7-.17,1.17-.17c.23,0,.49.01.77.04s.57.07.88.13v.91c-.32-.08-.62-.14-.91-.17s-.54-.06-.75-.06c-.25,0-.47.02-.64.06s-.31.09-.42.16-.18.15-.23.24-.07.19-.07.3.02.2.06.29.12.17.23.25.27.16.47.24.46.17.78.26c.35.1.64.21.88.32s.43.24.58.37.25.29.32.46.1.37.1.59Z"/>
    <path class="cls-5" d="M40.43,106.46c0,.34-.07.65-.21.95s-.34.55-.62.77-.62.39-1.03.52-.9.19-1.45.19c-.3,0-.58,0-.82-.03s-.47-.04-.68-.08v-.91c.24.04.5.08.77.1s.54.04.83.04c.38,0,.71-.03.98-.1s.49-.17.67-.3.3-.29.38-.47.12-.39.12-.62c0-.21-.05-.39-.14-.55s-.23-.29-.4-.39-.37-.18-.61-.24-.5-.08-.78-.08h-.87v-.84h.88c.23,0,.44-.03.63-.09s.35-.15.49-.26.24-.25.31-.42.11-.35.11-.57c0-.41-.12-.71-.38-.9s-.62-.28-1.1-.28c-.26,0-.52.03-.8.08s-.57.13-.88.23v-.89c.13-.05.27-.09.42-.13s.3-.07.45-.09.3-.04.45-.06.29-.02.43-.02c.41,0,.76.04,1.07.13s.57.21.77.38.36.36.47.6.16.5.16.79c0,.44-.11.8-.34,1.1s-.53.53-.92.71c.2.03.4.09.59.19s.37.21.52.36.28.32.38.52.14.42.14.66Z"/>
    <path class="cls-5" d="M44.57,102.8c.12,0,.24.02.35.07s.21.11.29.2.15.18.2.29.07.22.07.35-.02.24-.07.35-.11.2-.2.28-.18.15-.29.19-.22.07-.35.07-.24-.02-.35-.07-.2-.11-.28-.19-.15-.18-.19-.28-.07-.22-.07-.35.02-.24.07-.35.11-.21.19-.29.18-.15.28-.2.22-.07.35-.07ZM44.57,107.09c.12,0,.24.02.35.07s.21.11.29.2.15.18.2.29.07.22.07.35-.02.24-.07.35-.11.2-.2.28-.18.15-.29.19-.22.07-.35.07-.24-.02-.35-.07-.2-.11-.28-.19-.15-.18-.19-.28-.07-.22-.07-.35.02-.24.07-.35.11-.21.19-.29.18-.15.28-.2.22-.07.35-.07Z"/>
  </g>
  <g>
    <circle class="cls-1" cx="132.29" cy="105.03" r="13.56"/>
    <path class="cls-5" d="M132.29,108.78c-.43,0-.83-.06-1.18-.19s-.66-.31-.91-.56c-.25-.23-.43-.51-.56-.83s-.19-.66-.19-1.02c0-.47.13-.91.38-1.3s.62-.71,1.1-.95v-.04c-.43-.25-.75-.52-.96-.82s-.31-.67-.31-1.11c0-.66.25-1.2.74-1.64s1.12-.66,1.89-.66,1.43.21,1.91.62.72.95.72,1.6c0,.39-.11.78-.34,1.16s-.56.68-.99.9v.04c.51.24.89.53,1.15.87s.39.78.39,1.31c0,.75-.27,1.37-.81,1.88s-1.22.76-2.03.76ZM133.93,106.26c0-.36-.07-.64-.21-.86s-.41-.43-.81-.64c-.13-.07-.31-.15-.53-.24s-.47-.19-.75-.3c-.32.21-.57.48-.74.79s-.26.67-.26,1.08c0,.53.16.96.48,1.31s.72.52,1.2.52.89-.15,1.18-.44.45-.7.45-1.2ZM133.76,101.89c0-.39-.13-.72-.39-.98s-.62-.39-1.09-.39c-.43,0-.77.12-1.05.35s-.41.55-.41.95c0,.29.07.53.21.73s.35.38.62.54c.12.07.31.16.55.28s.47.21.68.28c.34-.26.57-.53.69-.81s.18-.59.18-.95Z"/>
  </g>
  <g>
    <circle class="cls-1" cx="187.07" cy="105.03" r="13.56"/>
    <path class="cls-5" d="M189.91,101.16l-3.77,7.42h-1.25l4-7.7h-4.51v-1.03h5.54v1.31Z"/>
  </g>
  <g>
    <circle class="cls-1" cx="224.15" cy="105.03" r="13.56"/>
    <path class="cls-5" d="M227.03,105.75c0,.45-.07.86-.22,1.24s-.35.7-.6.95c-.26.27-.55.47-.88.61s-.68.21-1.07.21-.75-.07-1.08-.2-.61-.33-.85-.59c-.3-.32-.54-.74-.71-1.27s-.25-1.18-.25-1.95.08-1.44.23-2.05.4-1.14.72-1.6c.32-.44.72-.79,1.22-1.03s1.08-.37,1.73-.37c.2,0,.38,0,.54.03s.32.05.45.09v1.12h-.05c-.11-.06-.26-.11-.46-.16s-.41-.07-.64-.07c-.73,0-1.31.25-1.76.74s-.71,1.22-.79,2.18c.28-.2.56-.35.86-.45s.61-.16.96-.16.64.03.89.1.52.21.8.41c.32.24.56.55.71.92s.23.81.23,1.31ZM225.84,105.8c0-.36-.05-.66-.14-.9s-.25-.45-.46-.62c-.15-.12-.33-.21-.52-.25s-.39-.06-.59-.06c-.27,0-.54.04-.8.12s-.51.2-.76.36c0,.09-.01.17-.02.25s0,.18,0,.3c0,.61.06,1.09.18,1.46s.27.65.44.84c.17.18.34.31.52.39s.37.11.58.11c.47,0,.85-.17,1.14-.5s.44-.84.44-1.51Z"/>
  </g>
  <line id="source_line-2" data-name="source line" class="cls-2" x1="71.26" y1="64.52" x2="195.5" y2="64.52"/>
  <line class="cls-2" x1="195.5" y1="47.02" x2="195.5" y2="82.03"/>
  <line class="cls-2" x1="71.26" y1="47.02" x2="71.26" y2="82.03"/>
  <g>
    <circle class="cls-3" cx="104.27" cy="64.52" r="13.56"/>
    <g>
      <path class="cls-5" d="M98.11,62.18c0-.45.07-.86.22-1.23s.35-.69.6-.96c.24-.26.54-.46.89-.6s.7-.22,1.06-.22c.4,0,.77.07,1.09.2s.61.33.85.58c.3.32.53.74.7,1.26s.25,1.18.25,1.97c0,.72-.08,1.41-.24,2.05s-.4,1.18-.72,1.61c-.34.45-.74.8-1.21,1.04s-1.05.36-1.74.36c-.16,0-.32,0-.5-.03s-.34-.05-.49-.1v-1.12h.06c.1.05.25.11.46.16s.42.08.63.08c.77,0,1.37-.25,1.8-.76s.69-1.22.74-2.16c-.31.21-.61.37-.89.46s-.59.15-.92.15-.62-.04-.88-.11-.53-.21-.8-.41c-.31-.24-.55-.54-.71-.91s-.24-.81-.24-1.32ZM102.6,62.93c0-.59-.05-1.08-.16-1.45s-.26-.66-.45-.86c-.17-.19-.35-.32-.52-.39s-.37-.11-.58-.11c-.48,0-.86.17-1.15.52s-.43.84-.43,1.49c0,.37.05.67.14.91s.25.44.46.62c.15.12.32.2.5.24s.39.06.6.06c.25,0,.52-.04.81-.13s.54-.2.76-.35c0-.06,0-.14.01-.23s0-.2,0-.32Z"/>
      <path class="cls-5" d="M104.67,62.18c0-.45.07-.86.22-1.23s.35-.69.6-.96c.24-.26.54-.46.89-.6s.7-.22,1.06-.22c.4,0,.77.07,1.09.2s.61.33.85.58c.3.32.53.74.7,1.26s.25,1.18.25,1.97c0,.72-.08,1.41-.24,2.05s-.4,1.18-.72,1.61c-.34.45-.74.8-1.21,1.04s-1.05.36-1.74.36c-.16,0-.32,0-.5-.03s-.34-.05-.49-.1v-1.12h.06c.1.05.25.11.46.16s.42.08.63.08c.77,0,1.37-.25,1.8-.76s.69-1.22.74-2.16c-.31.21-.61.37-.89.46s-.59.15-.92.15-.62-.04-.88-.11-.53-.21-.8-.41c-.31-.24-.55-.54-.71-.91s-.24-.81-.24-1.32ZM109.15,62.93c0-.59-.05-1.08-.16-1.45s-.26-.66-.45-.86c-.17-.19-.35-.32-.52-.39s-.37-.11-.58-.11c-.48,0-.86.17-1.15.52s-.43.84-.43,1.49c0,.37.05.67.14.91s.25.44.46.62c.15.12.32.2.5.24s.39.06.6.06c.25,0,.52-.04.81-.13s.54-.2.76-.35c0-.06,0-.14.01-.23s0-.2,0-.32Z"/>
    </g>
  </g>
  <g>
    <circle class="cls-3" cx="172.2" cy="64.52" r="13.56"/>
    <g>
      <path class="cls-5" d="M168.93,68.27c-.43,0-.83-.06-1.18-.19s-.66-.31-.91-.56c-.25-.23-.43-.51-.56-.83s-.19-.66-.19-1.02c0-.47.13-.91.38-1.3s.62-.71,1.1-.95v-.04c-.43-.25-.75-.52-.96-.82s-.31-.67-.31-1.11c0-.66.25-1.2.74-1.64s1.12-.66,1.89-.66,1.43.21,1.91.62.72.95.72,1.6c0,.39-.11.78-.34,1.16s-.56.68-.99.9v.04c.51.24.89.53,1.15.87s.39.78.39,1.31c0,.75-.27,1.37-.81,1.88s-1.22.76-2.03.76ZM170.57,65.75c0-.36-.07-.64-.21-.86s-.41-.43-.81-.64c-.13-.07-.31-.15-.53-.24s-.47-.19-.75-.3c-.32.21-.57.48-.74.79s-.26.67-.26,1.08c0,.53.16.96.48,1.31s.72.52,1.2.52.89-.15,1.18-.44.45-.7.45-1.2ZM170.4,61.38c0-.39-.13-.72-.39-.98s-.62-.39-1.09-.39c-.43,0-.77.12-1.05.35s-.41.55-.41.95c0,.29.07.53.21.73s.35.38.62.54c.12.07.31.16.55.28s.47.21.68.28c.34-.26.57-.53.69-.81s.18-.59.18-.95Z"/>
      <path class="cls-5" d="M175.48,68.27c-.43,0-.83-.06-1.18-.19s-.66-.31-.91-.56c-.25-.23-.43-.51-.56-.83s-.19-.66-.19-1.02c0-.47.13-.91.38-1.3s.62-.71,1.1-.95v-.04c-.43-.25-.75-.52-.96-.82s-.31-.67-.31-1.11c0-.66.25-1.2.74-1.64s1.12-.66,1.89-.66,1.43.21,1.91.62.72.95.72,1.6c0,.39-.11.78-.34,1.16s-.56.68-.99.9v.04c.51.24.89.53,1.15.87s.39.78.39,1.31c0,.75-.27,1.37-.81,1.88s-1.22.76-2.03.76ZM177.12,65.75c0-.36-.07-.64-.21-.86s-.41-.43-.81-.64c-.13-.07-.31-.15-.53-.24s-.47-.19-.75-.3c-.32.21-.57.48-.74.79s-.26.67-.26,1.08c0,.53.16.96.48,1.31s.72.52,1.2.52.89-.15,1.18-.44.45-.7.45-1.2ZM176.95,61.38c0-.39-.13-.72-.39-.98s-.62-.39-1.09-.39c-.43,0-.77.12-1.05.35s-.41.55-.41.95c0,.29.07.53.21.73s.35.38.62.54c.12.07.31.16.55.28s.47.21.68.28c.34-.26.57-.53.69-.81s.18-.59.18-.95Z"/>
    </g>
  </g>
  <line id="source_line-3" data-name="source line" class="cls-2" x1="71.26" y1="144.31" x2="195.5" y2="144.31"/>
  <line class="cls-2" x1="195.5" y1="126.81" x2="195.5" y2="161.82"/>
  <line class="cls-2" x1="71.26" y1="126.81" x2="71.26" y2="161.82"/>
  <g>
    <circle class="cls-3" cx="104.27" cy="144.31" r="13.56"/>
    <g>
      <path class="cls-5" d="M98.11,141.97c0-.45.07-.86.22-1.23s.35-.69.6-.96c.24-.26.54-.46.89-.6s.7-.22,1.06-.22c.4,0,.77.07,1.09.2s.61.33.85.58c.3.32.53.74.7,1.26s.25,1.18.25,1.97c0,.72-.08,1.41-.24,2.05s-.4,1.18-.72,1.61c-.34.45-.74.8-1.21,1.04s-1.05.36-1.74.36c-.16,0-.32,0-.5-.03s-.34-.05-.49-.1v-1.12h.06c.1.05.25.11.46.16s.42.08.63.08c.77,0,1.37-.25,1.8-.76s.69-1.22.74-2.16c-.31.21-.61.37-.89.46s-.59.15-.92.15-.62-.04-.88-.11-.53-.21-.8-.41c-.31-.24-.55-.54-.71-.9s-.24-.81-.24-1.32ZM102.6,142.72c0-.59-.05-1.08-.16-1.45s-.26-.66-.45-.87c-.17-.19-.35-.32-.52-.39s-.37-.11-.58-.11c-.48,0-.86.17-1.15.52s-.43.84-.43,1.49c0,.37.05.67.14.91s.25.44.46.62c.15.12.32.2.5.24s.39.06.6.06c.25,0,.52-.04.81-.13s.54-.21.76-.35c0-.06,0-.13.01-.23s0-.2,0-.32Z"/>
      <path class="cls-5" d="M104.67,141.97c0-.45.07-.86.22-1.23s.35-.69.6-.96c.24-.26.54-.46.89-.6s.7-.22,1.06-.22c.4,0,.77.07,1.09.2s.61.33.85.58c.3.32.53.74.7,1.26s.25,1.18.25,1.97c0,.72-.08,1.41-.24,2.05s-.4,1.18-.72,1.61c-.34.45-.74.8-1.21,1.04s-1.05.36-1.74.36c-.16,0-.32,0-.5-.03s-.34-.05-.49-.1v-1.12h.06c.1.05.25.11.46.16s.42.08.63.08c.77,0,1.37-.25,1.8-.76s.69-1.22.74-2.16c-.31.21-.61.37-.89.46s-.59.15-.92.15-.62-.04-.88-.11-.53-.21-.8-.41c-.31-.24-.55-.54-.71-.9s-.24-.81-.24-1.32ZM109.15,142.72c0-.59-.05-1.08-.16-1.45s-.26-.66-.45-.87c-.17-.19-.35-.32-.52-.39s-.37-.11-.58-.11c-.48,0-.86.17-1.15.52s-.43.84-.43,1.49c0,.37.05.67.14.91s.25.44.46.62c.15.12.32.2.5.24s.39.06.6.06c.25,0,.52-.04.81-.13s.54-.21.76-.35c0-.06,0-.13.01-.23s0-.2,0-.32Z"/>
    </g>
  </g>
  <g>
    <circle class="cls-3" cx="172.2" cy="144.31" r="13.56"/>
    <g>
      <path class="cls-5" d="M168.93,148.06c-.43,0-.83-.06-1.18-.19s-.66-.31-.91-.56c-.25-.23-.43-.51-.56-.83s-.19-.66-.19-1.02c0-.47.13-.91.38-1.3s.62-.71,1.1-.95v-.04c-.43-.25-.75-.52-.96-.82s-.31-.67-.31-1.11c0-.66.25-1.2.74-1.64s1.12-.66,1.89-.66,1.43.21,1.91.62.72.95.72,1.6c0,.39-.11.78-.34,1.16s-.56.68-.99.9v.04c.51.24.89.53,1.15.87s.39.78.39,1.31c0,.75-.27,1.37-.81,1.88s-1.22.76-2.03.76ZM170.57,145.54c0-.36-.07-.64-.21-.86s-.41-.43-.81-.64c-.13-.07-.31-.15-.53-.24s-.47-.19-.75-.3c-.32.21-.57.48-.74.79s-.26.67-.26,1.07c0,.53.16.96.48,1.31s.72.52,1.2.52.89-.15,1.18-.44.45-.7.45-1.21ZM170.4,141.17c0-.39-.13-.72-.39-.98s-.62-.39-1.09-.39c-.43,0-.77.12-1.05.35s-.41.55-.41.95c0,.29.07.53.21.73s.35.38.62.54c.12.07.31.16.55.28s.47.21.68.28c.34-.26.57-.53.69-.8s.18-.59.18-.95Z"/>
      <path class="cls-5" d="M175.48,148.06c-.43,0-.83-.06-1.18-.19s-.66-.31-.91-.56c-.25-.23-.43-.51-.56-.83s-.19-.66-.19-1.02c0-.47.13-.91.38-1.3s.62-.71,1.1-.95v-.04c-.43-.25-.75-.52-.96-.82s-.31-.67-.31-1.11c0-.66.25-1.2.74-1.64s1.12-.66,1.89-.66,1.43.21,1.91.62.72.95.72,1.6c0,.39-.11.78-.34,1.16s-.56.68-.99.9v.04c.51.24.89.53,1.15.87s.39.78.39,1.31c0,.75-.27,1.37-.81,1.88s-1.22.76-2.03.76ZM177.12,145.54c0-.36-.07-.64-.21-.86s-.41-.43-.81-.64c-.13-.07-.31-.15-.53-.24s-.47-.19-.75-.3c-.32.21-.57.48-.74.79s-.26.67-.26,1.07c0,.53.16.96.48,1.31s.72.52,1.2.52.89-.15,1.18-.44.45-.7.45-1.21ZM176.95,141.17c0-.39-.13-.72-.39-.98s-.62-.39-1.09-.39c-.43,0-.77.12-1.05.35s-.41.55-.41.95c0,.29.07.53.21.73s.35.38.62.54c.12.07.31.16.55.28s.47.21.68.28c.34-.26.57-.53.69-.8s.18-.59.18-.95Z"/>
    </g>
  </g>
  <line class="cls-2" x1="286.12" y1="87.53" x2="286.12" y2="122.54"/>
  <g>
    <path class="cls-5" d="M29.25,143.42h.93l.03,1.08c.35-.42.69-.72,1.03-.91s.68-.28,1.02-.28c.61,0,1.07.2,1.39.59s.46.98.44,1.76h-1.03c.01-.52-.06-.89-.23-1.12s-.4-.35-.71-.35c-.14,0-.27.03-.41.07s-.28.13-.43.23-.3.24-.47.41-.34.37-.53.61v3.78h-1.03v-5.88Z"/>
    <path class="cls-5" d="M37.97,143.31c.12,0,.24.03.35.07s.21.11.29.2.15.18.2.29.07.22.07.35-.02.24-.07.35-.11.2-.2.28-.18.15-.29.19-.22.07-.35.07-.24-.02-.35-.07-.2-.11-.28-.19-.15-.18-.19-.28-.07-.22-.07-.35.02-.24.07-.35.11-.21.19-.29.18-.15.28-.2.22-.07.35-.07ZM37.97,147.61c.12,0,.24.03.35.07s.21.11.29.2.15.18.2.29.07.22.07.35-.02.24-.07.35-.11.2-.2.28-.18.15-.29.19-.22.07-.35.07-.24-.02-.35-.07-.2-.11-.28-.19-.15-.18-.19-.28-.07-.22-.07-.35.02-.24.07-.35.11-.21.19-.29.18-.15.28-.2.22-.07.35-.07Z"/>
  </g>
  <line id="source_line-4" data-name="source line" class="cls-2" x1="71.26" y1="24.01" x2="275.12" y2="24.01"/>
  <g>
    <circle class="cls-4" cx="148.48" cy="24.01" r="13.56"/>
    <path class="cls-5" d="M151.22,27.56h-5.38v-1.22c.39-.37.75-.72,1.1-1.05s.68-.69,1.01-1.05c.66-.73,1.12-1.32,1.36-1.75s.36-.89.36-1.36c0-.24-.04-.46-.11-.64s-.18-.34-.31-.46c-.14-.12-.29-.21-.47-.26s-.38-.09-.59-.09-.42.03-.63.08-.42.12-.61.2c-.16.07-.32.15-.47.24s-.28.17-.37.24h-.06v-1.24c.24-.12.58-.24,1.01-.35s.84-.17,1.23-.17c.81,0,1.45.22,1.91.65s.69,1.02.69,1.75c0,.34-.04.65-.12.94s-.19.56-.33.8c-.14.25-.32.51-.52.76s-.42.5-.64.74c-.37.4-.78.81-1.23,1.24s-.81.77-1.08,1.02h4.29v1Z"/>
  </g>
  <g>
    <circle class="cls-4" cx="212.96" cy="24.01" r="13.56"/>
    <path class="cls-5" d="M212.68,19.66c-.21,0-.42.03-.63.08s-.42.12-.62.2c-.19.08-.35.16-.49.25s-.26.17-.37.24h-.07v-1.24c.25-.14.6-.26,1.03-.37s.85-.17,1.25-.17.74.04,1.03.12.56.2.8.37c.26.19.45.41.58.68s.2.58.2.93c0,.48-.16.9-.47,1.27s-.7.59-1.14.69v.08c.18.04.38.1.59.18s.4.21.58.38.33.38.44.65.17.58.17.96-.07.76-.2,1.09-.33.62-.57.88c-.25.27-.56.47-.92.6s-.77.21-1.22.21-.87-.05-1.3-.16-.79-.23-1.08-.38v-1.24h.08c.25.18.58.35.99.52s.83.25,1.24.25c.24,0,.48-.04.72-.11s.44-.2.6-.37c.16-.17.28-.36.36-.57s.12-.47.12-.79-.05-.58-.14-.78-.22-.36-.38-.48-.36-.2-.58-.24-.47-.07-.73-.07h-.5v-.97h.39c.53,0,.96-.12,1.29-.38s.5-.61.5-1.09c0-.22-.04-.41-.13-.57s-.2-.28-.33-.38c-.15-.1-.31-.17-.49-.21s-.37-.06-.57-.06Z"/>
  </g>
  <g>
    <circle class="cls-4" cx="249.96" cy="24.01" r="13.56"/>
    <path class="cls-5" d="M252.93,24.56h-1.04v3h-1.12v-3h-3.86v-1.23l3.9-4.49h1.08v4.79h1.04v.94ZM250.77,23.62v-3.41l-2.94,3.41h2.94Z"/>
  </g>
  <line class="cls-2" x1="71.26" y1="6.5" x2="71.26" y2="41.51"/>
  <line class="cls-2" x1="275.12" y1="6.5" x2="275.12" y2="41.51"/>
  <g>
    <circle class="cls-4" cx="115.88" cy="24.01" r="13.56"/>
    <path class="cls-5" d="M118.18,27.56h-4.25v-.89h1.58v-5.85h-1.58v-.8c.6,0,1.04-.08,1.32-.25s.44-.49.48-.96h.91v7.86h1.55v.89Z"/>
  </g>
</svg>