<?xml version="1.0" encoding="UTF-8"?>
<svg id="a" data-name="Layer 1" xmlns="http://www.w3.org/2000/svg" width="368.18" height="136.45" viewBox="0 0 368.18 136.45">
  <defs>
    <style>
      .e {
        font-family: Consolas, Consolas;
      }

      .e, .f {
        font-size: 12px;
      }

      .g {
        fill: none;
      }

      .g, .h, .i {
        stroke: #000;
        stroke-miterlimit: 10;
      }

      .h {
        fill: #ff8b8b;
      }

      .f {
        font-family: Tahoma, Tahoma;
      }

      .i {
        fill: #8bffbc;
      }
    </style>
  </defs>
  <line class="g" x1="131.49" y1="89.36" x2="131.49" y2="124.37"/>
  <line id="b" data-name="source line" class="g" x1="131.81" y1="25.84" x2="354.56" y2="25.84"/>
  <line id="c" data-name="source line" class="g" x1="131.81" y1="106.87" x2="354.56" y2="106.87"/>
  <text class="e" transform="translate(28.07 28.12)"><tspan x="0" y="0">s1:</tspan></text>
  <text class="e" transform="translate(28.07 69.9)"><tspan x="0" y="0">s2:</tspan></text>
  <text class="e" transform="translate(28.07 110.62)"><tspan x="0" y="0">CombineLatest:</tspan></text>
  <line class="g" x1="131.81" y1="8.33" x2="131.81" y2="43.34"/>
  <g>
    <circle class="i" cx="180.19" cy="25.84" r="13.56"/>
    <text class="f" transform="translate(176.91 29.39)"><tspan x="0" y="0">1</tspan></text>
  </g>
  <g>
    <circle class="i" cx="233.18" cy="25.84" r="13.56"/>
    <text class="f" transform="translate(229.91 29.39)"><tspan x="0" y="0">2</tspan></text>
  </g>
  <g>
    <circle class="i" cx="326.16" cy="25.84" r="13.56"/>
    <text class="f" transform="translate(322.88 29.39)"><tspan x="0" y="0">3</tspan></text>
  </g>
  <g>
    <circle class="i" cx="180.19" cy="106.87" r="13.56"/>
    <text class="f" transform="translate(171.95 110.41)"><tspan x="0" y="0">1,a</tspan></text>
  </g>
  <g>
    <circle class="i" cx="233.18" cy="106.87" r="13.56"/>
    <text class="f" transform="translate(224.94 110.41)"><tspan x="0" y="0">2,a</tspan></text>
  </g>
  <line id="d" data-name="source line" class="g" x1="131.81" y1="66.35" x2="354.56" y2="66.35"/>
  <line class="g" x1="131.81" y1="48.85" x2="131.81" y2="83.86"/>
  <g>
    <circle class="h" cx="165.17" cy="66.35" r="13.56"/>
    <text class="f" transform="translate(162.02 69.9)"><tspan x="0" y="0">a</tspan></text>
  </g>
  <g>
    <circle class="h" cx="264.29" cy="66.35" r="13.56"/>
    <text class="f" transform="translate(260.97 69.9)"><tspan x="0" y="0">b</tspan></text>
  </g>
  <g>
    <circle class="h" cx="264.29" cy="106.87" r="13.56"/>
    <text class="f" transform="translate(255.88 110.41)"><tspan x="0" y="0">2,b</tspan></text>
  </g>
  <g>
    <circle class="h" cx="292.93" cy="66.35" r="13.56"/>
    <text class="f" transform="translate(290.16 69.9)"><tspan x="0" y="0">c</tspan></text>
  </g>
  <g>
    <circle class="h" cx="292.93" cy="106.87" r="13.56"/>
    <text class="f" transform="translate(285.07 110.41)"><tspan x="0" y="0">2,c</tspan></text>
  </g>
  <g>
    <circle class="i" cx="326.16" cy="106.87" r="13.56"/>
    <text class="f" transform="translate(318.3 110.41)"><tspan x="0" y="0">3,c</tspan></text>
  </g>
</svg>