<?xml version="1.0" encoding="UTF-8"?>
<svg id="Layer_1" data-name="Layer 1" xmlns="http://www.w3.org/2000/svg" viewBox="0 0 457.73 173.11">
  <defs>
    <style>
      .cls-1 {
        fill: none;
      }

      .cls-1, .cls-2, .cls-3 {
        stroke: #000;
        stroke-miterlimit: 10;
      }

      .cls-2 {
        fill: #ff8b8b;
      }

      .cls-4 {
        stroke-width: 0px;
      }

      .cls-3 {
        fill: #8bffbc;
      }
    </style>
  </defs>
  <line id="source_line" data-name="source line" class="cls-1" x1="284.02" y1="107.09" x2="428.65" y2="107.09"/>
  <line class="cls-1" x1="428.65" y1="89.58" x2="428.65" y2="124.59"/>
  <line class="cls-1" x1="284.02" y1="91.45" x2="284.02" y2="126.46"/>
  <g>
    <circle class="cls-2" cx="349" cy="107.09" r="13.56"/>
    <path class="cls-4" d="M352.69,106.28c0,.8-.16,1.52-.48,2.16s-.75,1.14-1.3,1.5c-.44.28-.89.46-1.34.56s-1.04.14-1.74.14h-2.01v-8.72h1.99c.82,0,1.46.06,1.93.18s.86.29,1.19.51c.56.37,1,.86,1.31,1.48s.46,1.35.46,2.2ZM351.49,106.26c0-.67-.11-1.25-.33-1.72s-.55-.84-.99-1.11c-.31-.19-.64-.32-.99-.4s-.79-.12-1.31-.12h-.88v6.73h.88c.52,0,.97-.04,1.35-.12s.74-.23,1.06-.46c.4-.27.71-.64.91-1.09s.3-1.02.3-1.7Z"/>
  </g>
  <g>
    <circle class="cls-2" cx="407.15" cy="107.09" r="13.56"/>
    <path class="cls-4" d="M404.67,110.63v-8.72h5.46v1.03h-4.29v2.39h4v1.03h-4v3.24h4.29v1.03h-5.46Z"/>
  </g>
  <g>
    <circle class="cls-2" cx="295.62" cy="107.09" r="13.56"/>
    <path class="cls-4" d="M296.32,110.79c-.57,0-1.09-.1-1.57-.29s-.89-.48-1.24-.86-.62-.85-.81-1.42-.29-1.22-.29-1.95.09-1.37.28-1.91.46-1.02.81-1.42c.35-.39.76-.69,1.24-.89s1.01-.31,1.6-.31c.29,0,.57.02.82.06s.49.1.71.16c.19.06.38.13.58.22s.39.18.58.29v1.4h-.09c-.1-.09-.23-.21-.39-.34s-.36-.26-.59-.39c-.22-.12-.46-.22-.73-.3s-.56-.12-.91-.12c-.37,0-.72.08-1.05.23s-.62.38-.87.67c-.25.3-.44.67-.57,1.12s-.21.96-.21,1.52c0,.6.07,1.11.22,1.54s.34.8.59,1.09c.24.29.53.51.86.65s.68.22,1.04.22c.34,0,.65-.04.93-.12s.54-.19.76-.31c.21-.12.4-.25.56-.37s.28-.24.37-.33h.09v1.38c-.19.09-.37.18-.54.26s-.38.16-.62.24c-.25.08-.49.14-.71.19s-.5.06-.85.06Z"/>
  </g>
  <line class="cls-1" x1="162.28" y1="129.33" x2="162.28" y2="164.33"/>
  <line id="source_line-2" data-name="source line" class="cls-1" x1="162.6" y1="25.84" x2="284.02" y2="25.84"/>
  <line id="source_line-3" data-name="source line" class="cls-1" x1="162.6" y1="146.83" x2="428.65" y2="146.83"/>
  <g>
    <path class="cls-4" d="M33.58,27.9c-.27.1-.54.18-.82.23s-.57.07-.86.07c-.93,0-1.65-.25-2.15-.76s-.75-1.24-.75-2.21c0-.46.07-.89.22-1.27s.35-.7.61-.97.57-.48.94-.62.76-.22,1.2-.22c.3,0,.59.02.86.06s.52.11.76.21v.97c-.25-.13-.51-.23-.78-.29s-.54-.09-.82-.09c-.26,0-.51.05-.74.15s-.44.24-.61.43-.31.42-.42.69-.15.57-.15.91c0,.71.17,1.24.52,1.6s.83.53,1.44.53c.28,0,.55-.03.81-.09s.51-.16.75-.28v.95Z"/>
    <path class="cls-4" d="M40.73,25.13c0,.46-.06.88-.19,1.26s-.31.71-.56.98-.54.48-.88.63-.74.23-1.18.23-.8-.07-1.13-.2-.62-.32-.85-.58-.41-.57-.53-.94-.18-.81-.18-1.29c0-.46.06-.87.19-1.25s.31-.7.56-.97.54-.48.88-.63.74-.23,1.18-.23.8.07,1.13.2.62.32.85.57.41.57.53.94.18.8.18,1.29ZM39.68,25.18c0-.36-.04-.68-.12-.95s-.19-.5-.34-.68-.33-.32-.54-.41-.45-.14-.71-.14c-.3,0-.57.06-.78.18s-.39.28-.53.48-.24.43-.3.69-.1.54-.1.83c0,.36.04.68.12.96s.19.5.34.68.33.32.54.41.45.14.71.14c.3,0,.57-.06.78-.18s.39-.28.53-.48.24-.43.3-.69.1-.54.1-.83Z"/>
    <path class="cls-4" d="M44.21,20.68h-1.74v-.84h2.77v7.43h1.75v.85h-4.72v-.85h1.93v-6.59Z"/>
    <path class="cls-4" d="M48.5,25.3c0-.5.07-.94.21-1.33s.33-.72.58-.98.55-.47.91-.61.75-.21,1.18-.21c.19,0,.37.01.55.04s.36.06.54.11v-2.47h1.03v8.28h-.91l-.04-1.11c-.29.41-.59.72-.93.92s-.69.3-1.08.3c-.34,0-.63-.07-.89-.21s-.47-.34-.64-.59-.3-.56-.38-.92-.13-.76-.13-1.2ZM49.55,25.24c0,.71.1,1.24.31,1.59s.5.52.89.52c.26,0,.53-.12.82-.35s.59-.57.91-1.03v-2.73c-.17-.08-.35-.14-.56-.18s-.4-.06-.6-.06c-.55,0-.99.18-1.3.54s-.47.92-.47,1.69Z"/>
    <path class="cls-4" d="M57.76,22.13c.12,0,.24.02.35.07s.21.11.29.2.15.18.2.29.07.22.07.35-.02.24-.07.35-.11.2-.2.28-.18.15-.29.19-.22.07-.35.07-.24-.02-.35-.07-.2-.11-.28-.19-.15-.18-.19-.28-.07-.22-.07-.35.02-.24.07-.35.11-.21.19-.29.18-.15.28-.2.22-.07.35-.07ZM57.76,26.43c.12,0,.24.02.35.07s.21.11.29.2.15.18.2.29.07.22.07.35-.02.24-.07.35-.11.2-.2.28-.18.15-.29.19-.22.07-.35.07-.24-.02-.35-.07-.2-.11-.28-.19-.15-.18-.19-.28-.07-.22-.07-.35.02-.24.07-.35.11-.21.19-.29.18-.15.28-.2.22-.07.35-.07Z"/>
  </g>
  <g>
    <path class="cls-4" d="M33.17,61.11h-3.14v2.91h3.5v.88h-4.55v-8.08h4.37v.88h-3.32v2.55h3.14v.86Z"/>
    <path class="cls-4" d="M35.17,59.1l1.14,3.26c.19.53.35,1.01.47,1.49h.04c.13-.48.3-.96.49-1.49l1.13-3.26h1.1l-2.28,5.8h-1.01l-2.21-5.8h1.13Z"/>
    <path class="cls-4" d="M41.01,62.19c.02,1.43.94,2.01,1.99,2.01.76,0,1.21-.13,1.61-.3l.18.76c-.37.17-1.01.36-1.93.36-1.79,0-2.85-1.18-2.85-2.93s1.03-3.13,2.72-3.13c1.9,0,2.4,1.67,2.4,2.73,0,.22-.02.38-.04.49h-4.08ZM44.1,61.43c.01-.67-.28-1.71-1.46-1.71-1.07,0-1.54.98-1.62,1.71h3.08Z"/>
    <path class="cls-4" d="M46.43,60.67c0-.6-.01-1.09-.05-1.57h.94l.06.96h.02c.29-.55.96-1.09,1.92-1.09.8,0,2.05.48,2.05,2.47v3.47h-1.06v-3.35c0-.94-.35-1.71-1.34-1.71-.7,0-1.24.49-1.42,1.08-.05.13-.07.31-.07.49v3.49h-1.06v-4.23Z"/>
    <path class="cls-4" d="M54.31,57.43v1.67h1.51v.8h-1.51v3.13c0,.72.2,1.13.79,1.13.28,0,.48-.04.61-.07l.05.79c-.2.08-.53.14-.94.14-.49,0-.89-.16-1.14-.44-.3-.31-.41-.83-.41-1.51v-3.17h-.9v-.8h.9v-1.39l1.03-.28Z"/>
    <path class="cls-4" d="M56.87,63.82c.31.2.86.42,1.39.42.77,0,1.13-.38,1.13-.86,0-.5-.3-.78-1.08-1.07-1.04-.37-1.54-.95-1.54-1.64,0-.94.76-1.7,2-1.7.59,0,1.1.17,1.43.36l-.26.77c-.23-.14-.65-.34-1.19-.34-.62,0-.97.36-.97.79,0,.48.35.7,1.1.98,1.01.38,1.52.89,1.52,1.75,0,1.02-.79,1.74-2.17,1.74-.64,0-1.22-.16-1.63-.4l.26-.8Z"/>
    <path class="cls-4" d="M67.52,64.9l-.08-.73h-.04c-.32.46-.95.86-1.77.86-1.18,0-1.77-.83-1.77-1.67,0-1.4,1.25-2.17,3.49-2.16v-.12c0-.48-.13-1.34-1.32-1.34-.54,0-1.1.17-1.51.43l-.24-.7c.48-.31,1.18-.52,1.91-.52,1.77,0,2.21,1.21,2.21,2.37v2.17c0,.5.02,1,.1,1.39h-.96ZM67.37,61.94c-1.15-.02-2.46.18-2.46,1.31,0,.68.46,1.01,1,1.01.76,0,1.24-.48,1.4-.97.04-.11.06-.23.06-.34v-1.01Z"/>
    <path class="cls-4" d="M70.41,59.1l1.14,3.26c.19.53.35,1.01.47,1.49h.04c.13-.48.3-.96.49-1.49l1.13-3.26h1.1l-2.28,5.8h-1.01l-2.21-5.8h1.13Z"/>
    <path class="cls-4" d="M78.94,64.9l-.08-.73h-.04c-.32.46-.95.86-1.77.86-1.18,0-1.77-.83-1.77-1.67,0-1.4,1.25-2.17,3.49-2.16v-.12c0-.48-.13-1.34-1.32-1.34-.54,0-1.1.17-1.51.43l-.24-.7c.48-.31,1.18-.52,1.91-.52,1.77,0,2.21,1.21,2.21,2.37v2.17c0,.5.02,1,.1,1.39h-.96ZM78.78,61.94c-1.15-.02-2.46.18-2.46,1.31,0,.68.46,1.01,1,1.01.76,0,1.24-.48,1.4-.97.04-.11.06-.23.06-.34v-1.01Z"/>
    <path class="cls-4" d="M82.68,57.46c.01.36-.25.65-.67.65-.37,0-.64-.29-.64-.65s.28-.66.66-.66.65.29.65.66ZM81.51,64.9v-5.8h1.06v5.8h-1.06Z"/>
    <path class="cls-4" d="M84.31,56.39h1.06v8.52h-1.06v-8.52Z"/>
    <path class="cls-4" d="M90.36,64.9l-.08-.73h-.04c-.32.46-.95.86-1.77.86-1.18,0-1.77-.83-1.77-1.67,0-1.4,1.25-2.17,3.49-2.16v-.12c0-.48-.13-1.34-1.32-1.34-.54,0-1.1.17-1.51.43l-.24-.7c.48-.31,1.18-.52,1.91-.52,1.77,0,2.21,1.21,2.21,2.37v2.17c0,.5.02,1,.1,1.39h-.96ZM90.2,61.94c-1.15-.02-2.46.18-2.46,1.31,0,.68.46,1.01,1,1.01.76,0,1.24-.48,1.4-.97.04-.11.06-.23.06-.34v-1.01Z"/>
    <path class="cls-4" d="M92.88,64.9c.02-.4.05-.98.05-1.5v-7.02h1.04v3.65h.02c.37-.65,1.04-1.07,1.98-1.07,1.44,0,2.46,1.2,2.45,2.96,0,2.07-1.31,3.11-2.6,3.11-.84,0-1.51-.32-1.94-1.09h-.04l-.05.96h-.91ZM93.97,62.57c0,.13.02.26.05.38.2.73.82,1.24,1.58,1.24,1.1,0,1.76-.9,1.76-2.23,0-1.16-.6-2.16-1.73-2.16-.72,0-1.39.49-1.61,1.3-.02.12-.06.26-.06.43v1.04Z"/>
    <path class="cls-4" d="M99.76,56.39h1.06v8.52h-1.06v-8.52Z"/>
    <path class="cls-4" d="M103.18,62.19c.02,1.43.94,2.01,1.99,2.01.76,0,1.21-.13,1.61-.3l.18.76c-.37.17-1.01.36-1.93.36-1.79,0-2.85-1.18-2.85-2.93s1.03-3.13,2.72-3.13c1.9,0,2.4,1.67,2.4,2.73,0,.22-.02.38-.04.49h-4.08ZM106.27,61.43c.01-.67-.28-1.71-1.46-1.71-1.07,0-1.54.98-1.62,1.71h3.08Z"/>
    <path class="cls-4" d="M29.05,79.3v-5h-.82v-.8h.82v-.28c0-.82.18-1.56.67-2.03.4-.38.92-.54,1.42-.54.37,0,.7.08.9.17l-.14.82c-.16-.07-.37-.13-.67-.13-.9,0-1.13.79-1.13,1.68v.31h1.4v.8h-1.4v5h-1.04Z"/>
    <path class="cls-4" d="M32.45,75.31c0-.68-.01-1.27-.05-1.81h.92l.04,1.14h.05c.26-.78.9-1.27,1.61-1.27.12,0,.2.01.3.04v1c-.11-.02-.22-.04-.36-.04-.74,0-1.27.56-1.42,1.36-.02.14-.05.31-.05.49v3.09h-1.04v-3.99Z"/>
    <path class="cls-4" d="M41.51,76.35c0,2.15-1.49,3.08-2.89,3.08-1.57,0-2.78-1.15-2.78-2.99,0-1.94,1.27-3.08,2.88-3.08s2.79,1.21,2.79,2.99ZM36.9,76.41c0,1.27.73,2.23,1.76,2.23s1.76-.95,1.76-2.25c0-.98-.49-2.23-1.74-2.23s-1.79,1.15-1.79,2.25Z"/>
    <path class="cls-4" d="M42.84,75.07c0-.6-.01-1.09-.05-1.57h.92l.05.94h.04c.32-.55.86-1.07,1.82-1.07.79,0,1.39.48,1.64,1.16h.02c.18-.32.41-.58.65-.76.35-.26.73-.41,1.28-.41.77,0,1.91.5,1.91,2.52v3.42h-1.03v-3.29c0-1.12-.41-1.79-1.26-1.79-.6,0-1.07.44-1.25.96-.05.14-.08.34-.08.53v3.59h-1.03v-3.48c0-.92-.41-1.6-1.21-1.6-.66,0-1.14.53-1.31,1.06-.06.16-.08.34-.08.52v3.5h-1.03v-4.23Z"/>
    <path class="cls-4" d="M60.19,79.3h-1.02v-3.76c0-.45-.08-.79-.25-1.02s-.41-.34-.73-.34c-.14,0-.26.02-.38.06s-.24.1-.37.19-.27.22-.42.37-.33.35-.53.59v3.9h-1.02v-8.28h1.02v2.4l-.04.93c.16-.19.32-.35.47-.48s.31-.24.46-.32.31-.14.47-.18.33-.05.5-.05c.59,0,1.04.18,1.36.54s.48.9.48,1.61v3.84Z"/>
    <path class="cls-4" d="M67.18,76.31c0,.46-.06.88-.19,1.26s-.31.71-.56.98-.54.48-.88.63-.74.23-1.18.23-.8-.07-1.13-.2-.62-.32-.85-.58-.41-.57-.53-.94-.18-.81-.18-1.29c0-.46.06-.87.19-1.25s.31-.7.56-.97.54-.48.88-.63.74-.23,1.18-.23.8.07,1.13.2.62.32.85.57.41.57.53.94.18.8.18,1.29ZM66.13,76.36c0-.36-.04-.68-.12-.95s-.19-.5-.34-.68-.33-.32-.54-.41-.45-.14-.71-.14c-.3,0-.57.06-.78.18s-.39.28-.53.48-.24.43-.3.69-.1.54-.1.83c0,.36.04.68.12.96s.19.5.34.68.33.32.54.41.45.14.71.14c.3,0,.57-.06.78-.18s.39-.28.53-.48.24-.43.3-.69.1-.54.1-.83Z"/>
    <path class="cls-4" d="M73.39,79.22c-.23.06-.47.1-.71.13s-.5.04-.75.04c-.74,0-1.29-.17-1.65-.5s-.54-.85-.54-1.54v-3.07h-1.65v-.86h1.65v-1.62l1.02-.26v1.88h2.64v.86h-2.64v2.99c0,.42.11.74.34.95s.56.31.99.31c.19,0,.39-.01.62-.04s.46-.08.7-.14v.88Z"/>
    <path class="cls-4" d="M77.61,73.31c.12,0,.24.02.35.07s.21.11.29.2.15.18.2.29.07.22.07.35-.02.24-.07.35-.11.2-.2.28-.18.15-.29.19-.22.07-.35.07-.24-.02-.35-.07-.2-.11-.28-.19-.15-.18-.19-.28-.07-.22-.07-.35.02-.24.07-.35.11-.21.19-.29.18-.15.28-.2.22-.07.35-.07ZM77.61,77.61c.12,0,.24.02.35.07s.21.11.29.2.15.18.2.29.07.22.07.35-.02.24-.07.35-.11.2-.2.28-.18.15-.29.19-.22.07-.35.07-.24-.02-.35-.07-.2-.11-.28-.19-.15-.18-.19-.28-.07-.22-.07-.35.02-.24.07-.35.11-.21.19-.29.18-.15.28-.2.22-.07.35-.07Z"/>
  </g>
  <g>
    <path class="cls-4" d="M35.08,107.67c-.61.25-1.26.38-1.93.38-1.08,0-1.91-.32-2.49-.97s-.87-1.6-.87-2.87c0-.61.08-1.17.24-1.66s.39-.92.69-1.26.66-.61,1.08-.8.89-.28,1.42-.28c.36,0,.69.03.99.09s.6.15.88.28v1.03c-.28-.15-.56-.27-.86-.35s-.62-.12-.97-.12-.68.07-.98.2-.54.33-.74.59-.36.57-.47.94-.16.79-.16,1.26c0,.99.2,1.74.6,2.24s.99.76,1.77.76c.33,0,.64-.04.94-.11s.59-.18.87-.32v.98Z"/>
    <path class="cls-4" d="M41.9,104.97c0,.46-.06.88-.19,1.26s-.31.71-.56.98-.54.48-.88.63-.74.23-1.18.23-.8-.07-1.13-.2-.62-.32-.85-.58-.41-.57-.53-.94-.18-.81-.18-1.29c0-.46.06-.87.19-1.25s.31-.7.56-.97.54-.48.88-.63.74-.23,1.18-.23.8.07,1.13.2.62.32.85.57.41.57.53.94.18.8.18,1.29ZM40.86,105.02c0-.36-.04-.68-.12-.95s-.19-.5-.34-.68-.33-.32-.54-.41-.45-.14-.71-.14c-.3,0-.57.06-.78.18s-.39.28-.53.48-.24.43-.3.69-.1.54-.1.83c0,.36.04.68.12.96s.19.5.34.68.33.32.54.41.45.14.71.14c.3,0,.57-.06.78-.18s.39-.28.53-.48.24-.43.3-.69.1-.54.1-.83Z"/>
    <path class="cls-4" d="M43.38,102.07h.91l.04.95c.17-.2.34-.37.5-.51s.32-.24.47-.33.31-.14.47-.17.33-.05.5-.05c.61,0,1.06.18,1.37.54s.47.9.47,1.61v3.84h-1.02v-3.76c0-.46-.09-.8-.26-1.02s-.43-.33-.77-.33c-.12,0-.25.02-.37.06s-.24.1-.37.19-.27.22-.42.37-.32.35-.51.59v3.9h-1.02v-5.88Z"/>
    <path class="cls-4" d="M54.55,107.74c-.27.1-.54.18-.82.23s-.57.07-.86.07c-.93,0-1.65-.25-2.15-.76s-.75-1.24-.75-2.21c0-.46.07-.89.22-1.27s.35-.7.61-.97.57-.48.94-.62.76-.22,1.2-.22c.3,0,.59.02.86.06s.52.11.76.21v.97c-.25-.13-.51-.23-.78-.29s-.54-.09-.82-.09c-.26,0-.51.05-.74.15s-.44.24-.61.43-.31.42-.42.69-.15.57-.15.91c0,.71.17,1.24.52,1.6s.83.53,1.44.53c.28,0,.55-.03.81-.09s.51-.16.75-.28v.95Z"/>
    <path class="cls-4" d="M60.35,107.96l-.02-.79c-.32.32-.65.54-.98.69s-.68.21-1.04.21c-.34,0-.62-.04-.86-.13s-.43-.2-.59-.35-.27-.33-.34-.53-.11-.42-.11-.66c0-.59.22-1.05.66-1.39s1.09-.5,1.95-.5h1.22v-.52c0-.35-.11-.63-.33-.83s-.56-.31-1.02-.31c-.33,0-.66.04-.98.11s-.66.18-1,.32v-.92c.13-.05.27-.09.43-.14s.33-.08.5-.12.36-.06.55-.08.38-.03.58-.03c.36,0,.68.04.96.12s.53.2.72.36.35.36.45.6.16.53.16.86v4.05h-.91ZM60.24,105.28h-1.29c-.25,0-.47.03-.66.08s-.33.12-.45.22-.2.21-.26.34-.08.28-.08.44c0,.11.02.22.05.33s.09.2.17.28.18.14.3.19.28.07.46.07c.23,0,.5-.07.81-.21s.62-.37.96-.68v-1.04Z"/>
    <path class="cls-4" d="M67.91,107.87c-.23.06-.47.1-.71.13s-.5.04-.75.04c-.74,0-1.29-.17-1.65-.5s-.54-.85-.54-1.54v-3.07h-1.65v-.86h1.65v-1.62l1.02-.26v1.88h2.64v.86h-2.64v2.99c0,.42.11.74.34.95s.56.31.99.31c.19,0,.39-.01.62-.04s.46-.08.7-.14v.88Z"/>
    <path class="cls-4" d="M72.11,106.88c.31.2.86.42,1.39.42.77,0,1.13-.38,1.13-.86,0-.5-.3-.78-1.08-1.07-1.04-.37-1.54-.95-1.54-1.64,0-.94.76-1.7,2-1.7.59,0,1.1.17,1.43.36l-.26.77c-.23-.14-.65-.33-1.19-.33-.62,0-.97.36-.97.79,0,.48.35.7,1.1.98,1.01.38,1.52.89,1.52,1.75,0,1.02-.79,1.74-2.17,1.74-.64,0-1.22-.16-1.63-.4l.26-.8Z"/>
    <path class="cls-4" d="M81.86,106.37c0,.6.01,1.13.05,1.58h-.94l-.06-.95h-.02c-.28.47-.89,1.08-1.92,1.08-.91,0-2-.5-2-2.54v-3.39h1.06v3.21c0,1.1.34,1.85,1.3,1.85.71,0,1.2-.49,1.39-.96.06-.16.1-.35.1-.54v-3.56h1.06v4.22Z"/>
    <path class="cls-4" d="M83.57,107.96c.02-.4.05-.98.05-1.5v-7.02h1.04v3.65h.02c.37-.65,1.04-1.07,1.98-1.07,1.44,0,2.46,1.2,2.45,2.96,0,2.07-1.31,3.11-2.6,3.11-.84,0-1.51-.32-1.94-1.09h-.04l-.05.96h-.91ZM84.66,105.63c0,.13.02.26.05.38.2.73.82,1.24,1.58,1.24,1.1,0,1.76-.9,1.76-2.23,0-1.16-.6-2.16-1.73-2.16-.72,0-1.39.49-1.61,1.29-.02.12-.06.26-.06.43v1.04Z"/>
    <path class="cls-4" d="M90.3,106.88c.31.2.86.42,1.39.42.77,0,1.13-.38,1.13-.86,0-.5-.3-.78-1.08-1.07-1.04-.37-1.54-.95-1.54-1.64,0-.94.76-1.7,2-1.7.59,0,1.1.17,1.43.36l-.26.77c-.23-.14-.65-.33-1.19-.33-.62,0-.97.36-.97.79,0,.48.35.7,1.1.98,1.01.38,1.52.89,1.52,1.75,0,1.02-.79,1.74-2.17,1.74-.64,0-1.22-.16-1.63-.4l.26-.8Z"/>
    <path class="cls-4" d="M99.33,107.74c-.28.14-.89.34-1.67.34-1.75,0-2.89-1.19-2.89-2.96s1.22-3.08,3.12-3.08c.62,0,1.18.16,1.46.3l-.24.82c-.25-.14-.65-.28-1.22-.28-1.33,0-2.05.98-2.05,2.19,0,1.34.86,2.17,2.02,2.17.6,0,1-.16,1.3-.29l.18.79Z"/>
    <path class="cls-4" d="M100.57,103.96c0-.68-.01-1.27-.05-1.81h.92l.04,1.14h.05c.26-.78.9-1.27,1.61-1.27.12,0,.2.01.3.04v1c-.11-.02-.22-.04-.36-.04-.74,0-1.27.56-1.42,1.36-.02.14-.05.31-.05.49v3.09h-1.04v-3.99Z"/>
    <path class="cls-4" d="M105.72,100.52c.01.36-.25.65-.67.65-.37,0-.64-.29-.64-.65s.28-.66.66-.66.65.29.65.66ZM104.54,107.96v-5.8h1.06v5.8h-1.06Z"/>
    <path class="cls-4" d="M107.35,104.05c0-.74-.02-1.34-.05-1.9h.95l.05,1h.02c.43-.71,1.12-1.13,2.06-1.13,1.4,0,2.46,1.19,2.46,2.95,0,2.09-1.27,3.12-2.64,3.12-.77,0-1.44-.34-1.79-.91h-.02v3.15h-1.04v-6.28ZM108.4,105.59c0,.16.02.3.05.43.19.73.83,1.24,1.58,1.24,1.12,0,1.76-.91,1.76-2.24,0-1.16-.61-2.16-1.73-2.16-.72,0-1.39.52-1.6,1.31-.04.13-.07.29-.07.43v1Z"/>
    <path class="cls-4" d="M115.45,100.49v1.67h1.51v.8h-1.51v3.13c0,.72.2,1.13.79,1.13.28,0,.48-.04.61-.07l.05.79c-.2.08-.53.14-.94.14-.49,0-.89-.16-1.14-.44-.3-.31-.41-.83-.41-1.51v-3.17h-.9v-.8h.9v-1.39l1.03-.28Z"/>
    <path class="cls-4" d="M119.33,100.52c.01.36-.25.65-.67.65-.37,0-.64-.29-.64-.65s.28-.66.66-.66.65.29.65.66ZM118.15,107.96v-5.8h1.06v5.8h-1.06Z"/>
    <path class="cls-4" d="M126.21,105.01c0,2.15-1.49,3.08-2.89,3.08-1.57,0-2.78-1.15-2.78-2.99,0-1.94,1.27-3.08,2.88-3.08s2.79,1.21,2.79,2.99ZM121.61,105.07c0,1.27.73,2.23,1.76,2.23s1.76-.95,1.76-2.25c0-.98-.49-2.23-1.74-2.23s-1.79,1.15-1.79,2.25Z"/>
    <path class="cls-4" d="M127.55,103.72c0-.6-.01-1.09-.05-1.57h.94l.06.96h.02c.29-.55.96-1.09,1.92-1.09.8,0,2.05.48,2.05,2.47v3.47h-1.06v-3.35c0-.94-.35-1.71-1.34-1.71-.7,0-1.24.49-1.42,1.08-.05.13-.07.31-.07.49v3.49h-1.06v-4.23Z"/>
    <path class="cls-4" d="M31.39,114.89v1.67h1.51v.8h-1.51v3.13c0,.72.2,1.13.79,1.13.28,0,.48-.04.61-.07l.05.79c-.2.08-.53.14-.94.14-.49,0-.89-.16-1.14-.44-.3-.31-.41-.83-.41-1.51v-3.17h-.9v-.8h.9v-1.39l1.03-.28Z"/>
    <path class="cls-4" d="M39.28,119.41c0,2.15-1.49,3.08-2.89,3.08-1.57,0-2.78-1.15-2.78-2.99,0-1.94,1.27-3.08,2.88-3.08s2.79,1.21,2.79,2.99ZM34.67,119.47c0,1.27.73,2.23,1.76,2.23s1.76-.95,1.76-2.25c0-.98-.49-2.23-1.74-2.23s-1.79,1.15-1.79,2.25Z"/>
    <path class="cls-4" d="M47.94,122.36h-1.02v-3.76c0-.45-.08-.79-.25-1.02s-.41-.34-.73-.34c-.14,0-.26.02-.38.06s-.24.1-.37.19-.27.22-.42.37-.33.35-.53.59v3.9h-1.02v-8.28h1.02v2.4l-.04.93c.16-.19.32-.35.47-.48s.31-.24.46-.32.31-.14.47-.18.33-.05.5-.05c.59,0,1.04.18,1.36.54s.48.9.48,1.61v3.84Z"/>
    <path class="cls-4" d="M54.94,119.37c0,.46-.06.88-.19,1.26s-.31.71-.56.98-.54.48-.88.63-.74.23-1.18.23-.8-.07-1.13-.2-.62-.32-.85-.58-.41-.57-.53-.94-.18-.81-.18-1.29c0-.46.06-.87.19-1.25s.31-.7.56-.97.54-.48.88-.63.74-.23,1.18-.23.8.07,1.13.2.62.32.85.57.41.57.53.94.18.8.18,1.29ZM53.89,119.42c0-.36-.04-.68-.12-.95s-.19-.5-.34-.68-.33-.32-.54-.41-.45-.14-.71-.14c-.3,0-.57.06-.78.18s-.39.28-.53.48-.24.43-.3.69-.1.54-.1.83c0,.36.04.68.12.96s.19.5.34.68.33.32.54.41.45.14.71.14c.3,0,.57-.06.78-.18s.39-.28.53-.48.24-.43.3-.69.1-.54.1-.83Z"/>
    <path class="cls-4" d="M61.15,122.28c-.23.06-.47.1-.71.13s-.5.04-.75.04c-.74,0-1.29-.17-1.65-.5s-.54-.85-.54-1.54v-3.07h-1.65v-.86h1.65v-1.62l1.02-.26v1.88h2.64v.86h-2.64v2.99c0,.42.11.74.34.95s.56.31.99.31c.19,0,.39-.01.62-.04s.46-.08.7-.14v.88Z"/>
    <path class="cls-4" d="M65.37,116.37c.12,0,.24.02.35.07s.21.11.29.2.15.18.2.29.07.22.07.35-.02.24-.07.35-.11.2-.2.28-.18.15-.29.19-.22.07-.35.07-.24-.02-.35-.07-.2-.11-.28-.19-.15-.18-.19-.28-.07-.22-.07-.35.02-.24.07-.35.11-.21.19-.29.18-.15.28-.2.22-.07.35-.07ZM65.37,120.66c.12,0,.24.02.35.07s.21.11.29.2.15.18.2.29.07.22.07.35-.02.24-.07.35-.11.2-.2.28-.18.15-.29.19-.22.07-.35.07-.24-.02-.35-.07-.2-.11-.28-.19-.15-.18-.19-.28-.07-.22-.07-.35.02-.24.07-.35.11-.21.19-.29.18-.15.28-.2.22-.07.35-.07Z"/>
  </g>
  <g>
    <path class="cls-4" d="M33.58,150.37c-.27.1-.54.18-.82.23s-.57.07-.86.07c-.93,0-1.65-.25-2.15-.76s-.75-1.24-.75-2.21c0-.46.07-.89.22-1.27s.35-.7.61-.97.57-.48.94-.62.76-.22,1.2-.22c.3,0,.59.02.86.06s.52.11.76.21v.97c-.25-.13-.51-.23-.78-.29s-.54-.09-.82-.09c-.26,0-.51.05-.74.15s-.44.24-.61.43-.31.42-.42.69-.15.57-.15.91c0,.71.17,1.24.52,1.6s.83.53,1.44.53c.28,0,.55-.03.81-.09s.51-.16.75-.28v.95Z"/>
    <path class="cls-4" d="M40.73,147.59c0,.46-.06.88-.19,1.26s-.31.71-.56.98-.54.48-.88.63-.74.23-1.18.23-.8-.07-1.13-.2-.62-.32-.85-.58-.41-.57-.53-.94-.18-.81-.18-1.29c0-.46.06-.87.19-1.25s.31-.7.56-.97.54-.48.88-.63.74-.23,1.18-.23.8.07,1.13.2.62.32.85.57.41.57.53.94.18.8.18,1.29ZM39.68,147.64c0-.36-.04-.68-.12-.95s-.19-.5-.34-.68-.33-.32-.54-.41-.45-.14-.71-.14c-.3,0-.57.06-.78.18s-.39.28-.53.48-.24.43-.3.69-.1.54-.1.83c0,.36.04.68.12.96s.19.5.34.68.33.32.54.41.45.14.71.14c.3,0,.57-.06.78-.18s.39-.28.53-.48.24-.43.3-.69.1-.54.1-.83Z"/>
    <path class="cls-4" d="M44.21,143.14h-1.74v-.84h2.77v7.43h1.75v.85h-4.72v-.85h1.93v-6.59Z"/>
    <path class="cls-4" d="M48.5,147.76c0-.5.07-.94.21-1.33s.33-.72.58-.98.55-.47.91-.61.75-.21,1.18-.21c.19,0,.37.01.55.04s.36.06.54.11v-2.47h1.03v8.28h-.91l-.04-1.11c-.29.41-.59.72-.93.92s-.69.3-1.08.3c-.34,0-.63-.07-.89-.21s-.47-.34-.64-.59-.3-.56-.38-.92-.13-.76-.13-1.2ZM49.55,147.7c0,.71.1,1.24.31,1.59s.5.52.89.52c.26,0,.53-.12.82-.35s.59-.57.91-1.03v-2.73c-.17-.08-.35-.14-.56-.18s-.4-.06-.6-.06c-.55,0-.99.18-1.3.54s-.47.92-.47,1.69Z"/>
    <path class="cls-4" d="M57.71,148.74c.13,0,.26.03.38.08s.22.12.31.21.16.19.21.31.08.25.08.38-.03.26-.08.38-.12.22-.21.31-.19.16-.31.21-.25.08-.38.08-.26-.03-.38-.08-.22-.12-.31-.21-.16-.19-.21-.31-.08-.24-.08-.38.03-.26.08-.38.12-.22.21-.31.19-.16.31-.21.24-.08.38-.08Z"/>
    <path class="cls-4" d="M66.89,150.29c-.61.25-1.26.38-1.93.38-1.08,0-1.91-.32-2.49-.97s-.87-1.6-.87-2.87c0-.61.08-1.17.24-1.66s.39-.92.69-1.26.66-.61,1.08-.8.89-.28,1.42-.28c.36,0,.69.03.99.09s.6.15.88.28v1.03c-.28-.15-.56-.27-.86-.35s-.62-.12-.97-.12-.68.07-.98.2-.54.33-.74.59-.36.57-.47.94-.16.79-.16,1.26c0,.99.2,1.74.6,2.24s.99.76,1.77.76c.33,0,.64-.04.94-.11s.59-.18.87-.32v.98Z"/>
    <path class="cls-4" d="M73.72,147.59c0,.46-.06.88-.19,1.26s-.31.71-.56.98-.54.48-.88.63-.74.23-1.18.23-.8-.07-1.13-.2-.62-.32-.85-.58-.41-.57-.53-.94-.18-.81-.18-1.29c0-.46.06-.87.19-1.25s.31-.7.56-.97.54-.48.88-.63.74-.23,1.18-.23.8.07,1.13.2.62.32.85.57.41.57.53.94.18.8.18,1.29ZM72.67,147.64c0-.36-.04-.68-.12-.95s-.19-.5-.34-.68-.33-.32-.54-.41-.45-.14-.71-.14c-.3,0-.57.06-.78.18s-.39.28-.53.48-.24.43-.3.69-.1.54-.1.83c0,.36.04.68.12.96s.19.5.34.68.33.32.54.41.45.14.71.14c.3,0,.57-.06.78-.18s.39-.28.53-.48.24-.43.3-.69.1-.54.1-.83Z"/>
    <path class="cls-4" d="M75.19,144.7h.91l.04.95c.17-.2.34-.37.5-.51s.32-.24.47-.33.31-.14.47-.17.33-.05.5-.05c.61,0,1.06.18,1.37.54s.47.9.47,1.61v3.84h-1.02v-3.76c0-.46-.09-.8-.26-1.02s-.43-.33-.77-.33c-.12,0-.25.02-.37.06s-.24.1-.37.19-.27.22-.42.37-.32.35-.51.59v3.9h-1.02v-5.88Z"/>
    <path class="cls-4" d="M86.36,150.37c-.27.1-.54.18-.82.23s-.57.07-.86.07c-.93,0-1.65-.25-2.15-.76s-.75-1.24-.75-2.21c0-.46.07-.89.22-1.27s.35-.7.61-.97.57-.48.94-.62.76-.22,1.2-.22c.3,0,.59.02.86.06s.52.11.76.21v.97c-.25-.13-.51-.23-.78-.29s-.54-.09-.82-.09c-.26,0-.51.05-.74.15s-.44.24-.61.43-.31.42-.42.69-.15.57-.15.91c0,.71.17,1.24.52,1.6s.83.53,1.44.53c.28,0,.55-.03.81-.09s.51-.16.75-.28v.95Z"/>
    <path class="cls-4" d="M92.17,150.58l-.02-.79c-.32.32-.65.54-.98.69s-.68.21-1.04.21c-.34,0-.62-.04-.86-.13s-.43-.2-.59-.35-.27-.33-.34-.53-.11-.42-.11-.66c0-.59.22-1.05.66-1.39s1.09-.5,1.95-.5h1.22v-.52c0-.35-.11-.63-.33-.83s-.56-.31-1.02-.31c-.33,0-.66.04-.98.11s-.66.18-1,.32v-.92c.13-.05.27-.09.43-.14s.33-.08.5-.12.36-.06.55-.08.38-.03.58-.03c.36,0,.68.04.96.12s.53.2.72.36.35.36.45.6.16.53.16.86v4.05h-.91ZM92.06,147.9h-1.29c-.25,0-.47.03-.66.08s-.33.12-.45.22-.2.21-.26.34-.08.28-.08.44c0,.11.02.22.05.33s.09.2.17.28.18.14.3.19.28.07.46.07c.23,0,.5-.07.81-.21s.62-.37.96-.68v-1.04Z"/>
    <path class="cls-4" d="M99.73,150.5c-.23.06-.47.1-.71.13s-.5.04-.75.04c-.74,0-1.29-.17-1.65-.5s-.54-.85-.54-1.54v-3.07h-1.65v-.86h1.65v-1.62l1.02-.26v1.88h2.64v.86h-2.64v2.99c0,.42.11.74.34.95s.56.31.99.31c.19,0,.39-.01.62-.04s.46-.08.7-.14v.88Z"/>
    <path class="cls-4" d="M105.1,153.04c-1.8-1.67-2.7-3.51-2.7-5.53,0-.47.05-.94.14-1.42s.25-.94.46-1.42.49-.95.84-1.42.77-.94,1.27-1.41l.59.6c-1.52,1.5-2.27,3.15-2.27,4.97,0,.91.19,1.78.57,2.61s.95,1.62,1.7,2.37l-.62.63Z"/>
    <path class="cls-4" d="M112.91,150.58h-1.02v-3.76c0-.45-.08-.79-.25-1.02s-.41-.34-.73-.34c-.14,0-.26.02-.38.06s-.24.1-.37.19-.27.22-.42.37-.33.35-.53.59v3.9h-1.02v-8.28h1.02v2.4l-.04.93c.16-.19.32-.35.47-.48s.31-.24.46-.32.31-.14.47-.18.33-.05.5-.05c.59,0,1.04.18,1.36.54s.48.9.48,1.61v3.84Z"/>
    <path class="cls-4" d="M119.9,147.59c0,.46-.06.88-.19,1.26s-.31.71-.56.98-.54.48-.88.63-.74.23-1.18.23-.8-.07-1.13-.2-.62-.32-.85-.58-.41-.57-.53-.94-.18-.81-.18-1.29c0-.46.06-.87.19-1.25s.31-.7.56-.97.54-.48.88-.63.74-.23,1.18-.23.8.07,1.13.2.62.32.85.57.41.57.53.94.18.8.18,1.29ZM118.86,147.64c0-.36-.04-.68-.12-.95s-.19-.5-.34-.68-.33-.32-.54-.41-.45-.14-.71-.14c-.3,0-.57.06-.78.18s-.39.28-.53.48-.24.43-.3.69-.1.54-.1.83c0,.36.04.68.12.96s.19.5.34.68.33.32.54.41.45.14.71.14c.3,0,.57-.06.78-.18s.39-.28.53-.48.24-.43.3-.69.1-.54.1-.83Z"/>
    <path class="cls-4" d="M126.12,150.5c-.23.06-.47.1-.71.13s-.5.04-.75.04c-.74,0-1.29-.17-1.65-.5s-.54-.85-.54-1.54v-3.07h-1.65v-.86h1.65v-1.62l1.02-.26v1.88h2.64v.86h-2.64v2.99c0,.42.11.74.34.95s.56.31.99.31c.19,0,.39-.01.62-.04s.46-.08.7-.14v.88Z"/>
    <path class="cls-4" d="M129.17,141.86c1.8,1.67,2.7,3.52,2.7,5.57,0,.42-.04.86-.13,1.31s-.23.92-.44,1.39-.49.96-.83,1.44-.79.98-1.32,1.47l-.59-.6c.76-.75,1.33-1.54,1.71-2.36s.56-1.68.56-2.58c0-1.86-.76-3.53-2.27-5.02l.62-.63Z"/>
    <path class="cls-4" d="M136.93,144.59c.12,0,.24.02.35.07s.21.11.29.2.15.18.2.29.07.22.07.35-.02.24-.07.35-.11.2-.2.28-.18.15-.29.19-.22.07-.35.07-.24-.02-.35-.07-.2-.11-.28-.19-.15-.18-.19-.28-.07-.22-.07-.35.02-.24.07-.35.11-.21.19-.29.18-.15.28-.2.22-.07.35-.07ZM136.93,148.89c.12,0,.24.02.35.07s.21.11.29.2.15.18.2.29.07.22.07.35-.02.24-.07.35-.11.2-.2.28-.18.15-.29.19-.22.07-.35.07-.24-.02-.35-.07-.2-.11-.28-.19-.15-.18-.19-.28-.07-.22-.07-.35.02-.24.07-.35.11-.21.19-.29.18-.15.28-.2.22-.07.35-.07Z"/>
  </g>
  <line class="cls-1" x1="162.6" y1="8.33" x2="162.6" y2="43.34"/>
  <line class="cls-1" x1="284.02" y1="8.33" x2="284.02" y2="43.34"/>
  <g>
    <circle class="cls-3" cx="162.28" cy="25.84" r="13.56"/>
    <path class="cls-4" d="M165.07,25.02c0,1.57-.23,2.72-.68,3.45s-1.16,1.1-2.11,1.1-1.67-.37-2.12-1.12-.67-1.88-.67-3.42.23-2.73.68-3.45,1.16-1.09,2.11-1.09,1.67.38,2.12,1.13.67,1.89.67,3.4ZM163.57,27.68c.11-.29.19-.65.24-1.1s.07-.96.07-1.56-.02-1.12-.07-1.56-.13-.81-.25-1.1c-.12-.3-.28-.52-.48-.68s-.47-.23-.8-.23-.59.08-.8.23-.37.38-.5.69c-.12.3-.2.67-.24,1.12s-.06.96-.06,1.54c0,.61.02,1.12.06,1.53s.12.78.24,1.1c.11.3.27.53.48.69s.48.24.82.24.59-.08.8-.23.37-.38.49-.69Z"/>
  </g>
  <g>
    <circle class="cls-3" cx="215.99" cy="25.84" r="13.56"/>
    <path class="cls-4" d="M218.29,29.39h-4.25v-.89h1.58v-5.85h-1.58v-.8c.6,0,1.04-.08,1.32-.25s.44-.49.48-.96h.91v7.86h1.55v.89Z"/>
  </g>
  <g>
    <circle class="cls-3" cx="260.81" cy="25.84" r="13.56"/>
    <path class="cls-4" d="M263.56,29.39h-5.38v-1.22c.39-.37.75-.72,1.1-1.05s.68-.69,1.01-1.05c.66-.73,1.12-1.32,1.36-1.75s.36-.89.36-1.36c0-.24-.04-.46-.11-.64s-.18-.34-.31-.46c-.14-.12-.29-.21-.47-.26s-.38-.09-.59-.09-.42.03-.63.08-.42.12-.61.2c-.16.07-.32.15-.47.24s-.28.17-.37.24h-.06v-1.24c.24-.12.58-.24,1.01-.35s.84-.17,1.23-.17c.81,0,1.45.22,1.91.65s.69,1.02.69,1.75c0,.34-.04.65-.12.94s-.19.56-.33.8c-.14.25-.32.51-.52.76s-.42.5-.64.74c-.37.4-.78.81-1.23,1.24s-.81.77-1.08,1.02h4.29v1Z"/>
  </g>
  <g>
    <circle class="cls-3" cx="215.99" cy="146.83" r="13.56"/>
    <path class="cls-4" d="M218.29,150.38h-4.25v-.89h1.58v-5.85h-1.58v-.8c.6,0,1.04-.08,1.32-.25s.44-.49.48-.96h.91v7.86h1.55v.89Z"/>
  </g>
  <g>
    <circle class="cls-3" cx="260.81" cy="146.83" r="13.56"/>
    <path class="cls-4" d="M263.56,150.38h-5.38v-1.22c.39-.37.75-.72,1.1-1.05s.68-.69,1.01-1.05c.66-.73,1.12-1.32,1.36-1.75s.36-.89.36-1.36c0-.24-.04-.46-.11-.64s-.18-.34-.31-.46c-.14-.12-.29-.21-.47-.26s-.38-.09-.59-.09-.42.03-.63.08-.42.12-.61.2c-.16.07-.32.15-.47.24s-.28.17-.37.24h-.06v-1.24c.24-.12.58-.24,1.01-.35s.84-.17,1.23-.17c.81,0,1.45.22,1.91.65s.69,1.02.69,1.75c0,.34-.04.65-.12.94s-.19.56-.33.8c-.14.25-.32.51-.52.76s-.42.5-.64.74c-.37.4-.78.81-1.23,1.24s-.81.77-1.08,1.02h4.29v1Z"/>
  </g>
  <g>
    <circle class="cls-3" cx="162.28" cy="146.83" r="13.56"/>
    <path class="cls-4" d="M165.07,146.01c0,1.57-.23,2.72-.68,3.45s-1.16,1.1-2.11,1.1-1.67-.37-2.12-1.12-.67-1.88-.67-3.42.23-2.73.68-3.45,1.16-1.09,2.11-1.09,1.67.38,2.12,1.13.67,1.89.67,3.4ZM163.57,148.67c.11-.29.19-.65.24-1.1s.07-.96.07-1.56-.02-1.12-.07-1.56-.13-.81-.25-1.1c-.12-.3-.28-.52-.48-.68s-.47-.23-.8-.23-.59.08-.8.23-.37.38-.5.69c-.12.3-.2.67-.24,1.12s-.06.96-.06,1.54c0,.61.02,1.12.06,1.53s.12.78.24,1.1c.11.3.27.53.48.69s.48.24.82.24.59-.08.8-.23.37-.38.49-.69Z"/>
  </g>
  <line id="source_line-4" data-name="source line" class="cls-1" x1="162.6" y1="66.35" x2="428.65" y2="66.35"/>
  <line class="cls-1" x1="428.65" y1="48.85" x2="428.65" y2="83.86"/>
  <line class="cls-1" x1="162.6" y1="48.85" x2="162.6" y2="83.86"/>
  <g>
    <circle class="cls-2" cx="349" cy="66.35" r="13.56"/>
    <path class="cls-4" d="M352.69,65.55c0,.8-.16,1.52-.48,2.16s-.75,1.14-1.3,1.5c-.44.28-.89.46-1.34.56s-1.04.14-1.74.14h-2.01v-8.72h1.99c.82,0,1.46.06,1.93.18s.86.29,1.19.51c.56.37,1,.86,1.31,1.48s.46,1.35.46,2.2ZM351.49,65.53c0-.67-.11-1.25-.33-1.72s-.55-.84-.99-1.11c-.31-.19-.64-.32-.99-.4s-.79-.12-1.31-.12h-.88v6.73h.88c.52,0,.97-.04,1.35-.12s.74-.23,1.06-.46c.4-.27.71-.64.91-1.09s.3-1.02.3-1.7Z"/>
  </g>
  <g>
    <circle class="cls-2" cx="407.15" cy="66.35" r="13.56"/>
    <path class="cls-4" d="M404.67,69.9v-8.72h5.46v1.03h-4.29v2.39h4v1.03h-4v3.24h4.29v1.03h-5.46Z"/>
  </g>
  <g>
    <circle class="cls-2" cx="195.61" cy="66.35" r="13.56"/>
    <path class="cls-4" d="M191.96,69.9l2.94-8.72h1.43l2.94,8.72h-1.22l-.79-2.44h-3.33l-.79,2.44h-1.17ZM196.93,66.47l-1.35-4.11-1.34,4.11h2.69Z"/>
  </g>
  <g>
    <circle class="cls-2" cx="242.25" cy="66.35" r="13.56"/>
    <path class="cls-4" d="M245.52,67.22c0,.43-.08.82-.25,1.15s-.38.61-.66.82c-.33.26-.68.44-1.05.55s-.86.16-1.45.16h-2.5v-8.72h2.31c.62,0,1.09.02,1.4.06s.61.14.89.29c.31.17.54.39.69.66s.22.59.22.96c0,.41-.11.78-.33,1.1s-.52.58-.9.76v.05c.52.14.92.4,1.21.77s.43.84.43,1.4ZM243.9,63.31c0-.21-.04-.39-.11-.55s-.18-.28-.34-.37c-.19-.11-.4-.17-.63-.19s-.55-.04-.96-.04h-1.11v2.55h1.32c.36,0,.63-.02.8-.06s.35-.11.53-.23c.18-.11.3-.26.38-.45s.11-.41.11-.68ZM244.31,67.27c0-.33-.05-.6-.14-.81s-.28-.39-.57-.54c-.18-.1-.38-.16-.6-.19s-.52-.04-.92-.04h-1.32v3.22h.94c.51,0,.91-.02,1.2-.07s.55-.15.77-.3c.22-.15.38-.33.48-.52s.15-.44.15-.75Z"/>
  </g>
  <g>
    <circle class="cls-2" cx="295.62" cy="66.35" r="13.56"/>
    <path class="cls-4" d="M296.32,70.06c-.57,0-1.09-.1-1.57-.29s-.89-.48-1.24-.86-.62-.85-.81-1.42-.29-1.22-.29-1.95.09-1.37.28-1.91.46-1.02.81-1.42c.35-.39.76-.69,1.24-.89s1.01-.31,1.6-.31c.29,0,.57.02.82.06s.49.1.71.16c.19.06.38.13.58.22s.39.18.58.29v1.4h-.09c-.1-.09-.23-.21-.39-.34s-.36-.26-.59-.39c-.22-.12-.46-.22-.73-.3s-.56-.12-.91-.12c-.37,0-.72.08-1.05.23s-.62.38-.87.67c-.25.3-.44.67-.57,1.12s-.21.96-.21,1.52c0,.6.07,1.11.22,1.54s.34.8.59,1.09c.24.29.53.51.86.65s.68.22,1.04.22c.34,0,.65-.04.93-.12s.54-.19.76-.31c.21-.12.4-.25.56-.37s.28-.24.37-.33h.09v1.38c-.19.09-.37.18-.54.26s-.38.16-.62.24c-.25.08-.49.14-.71.19s-.5.06-.85.06Z"/>
  </g>
  <g>
    <circle class="cls-2" cx="349" cy="146.83" r="13.56"/>
    <path class="cls-4" d="M352.69,146.02c0,.8-.16,1.52-.48,2.16s-.75,1.14-1.3,1.5c-.44.28-.89.46-1.34.56s-1.04.14-1.74.14h-2.01v-8.72h1.99c.82,0,1.46.06,1.93.18s.86.29,1.19.51c.56.37,1,.86,1.31,1.48s.46,1.35.46,2.2ZM351.49,146.01c0-.67-.11-1.25-.33-1.72s-.55-.84-.99-1.11c-.31-.19-.64-.32-.99-.4s-.79-.12-1.31-.12h-.88v6.73h.88c.52,0,.97-.04,1.35-.12s.74-.23,1.06-.46c.4-.27.71-.64.91-1.09s.3-1.02.3-1.7Z"/>
  </g>
  <g>
    <circle class="cls-2" cx="407.15" cy="146.83" r="13.56"/>
    <path class="cls-4" d="M404.67,150.38v-8.72h5.46v1.03h-4.29v2.39h4v1.03h-4v3.24h4.29v1.03h-5.46Z"/>
  </g>
  <g>
    <circle class="cls-2" cx="295.62" cy="146.83" r="13.56"/>
    <path class="cls-4" d="M296.32,150.54c-.57,0-1.09-.1-1.57-.29s-.89-.48-1.24-.86-.62-.85-.81-1.42-.29-1.22-.29-1.95.09-1.37.28-1.91.46-1.02.81-1.42c.35-.39.76-.69,1.24-.89s1.01-.31,1.6-.31c.29,0,.57.02.82.06s.49.1.71.16c.19.06.38.13.58.22s.39.18.58.29v1.4h-.09c-.1-.09-.23-.21-.39-.34s-.36-.26-.59-.39c-.22-.12-.46-.22-.73-.3s-.56-.12-.91-.12c-.37,0-.72.08-1.05.23s-.62.38-.87.67c-.25.3-.44.67-.57,1.12s-.21.96-.21,1.52c0,.6.07,1.11.22,1.54s.34.8.59,1.09c.24.29.53.51.86.65s.68.22,1.04.22c.34,0,.65-.04.93-.12s.54-.19.76-.31c.21-.12.4-.25.56-.37s.28-.24.37-.33h.09v1.38c-.19.09-.37.18-.54.26s-.38.16-.62.24c-.25.08-.49.14-.71.19s-.5.06-.85.06Z"/>
  </g>
  <line class="cls-1" x1="428.65" y1="129.33" x2="428.65" y2="164.33"/>
</svg>