<?xml version="1.0" encoding="UTF-8"?>
<svg id="Layer_1" data-name="Layer 1" xmlns="http://www.w3.org/2000/svg" viewBox="0 0 421.91 261.45">
  <defs>
    <style>
      .cls-1 {
        fill: #f0ff8b;
      }

      .cls-1, .cls-2, .cls-3, .cls-4 {
        stroke: #000;
        stroke-miterlimit: 10;
      }

      .cls-2 {
        fill: none;
      }

      .cls-3 {
        fill: #ff8b8b;
      }

      .cls-5 {
        stroke-width: 0px;
      }

      .cls-4 {
        fill: #8bffbc;
      }
    </style>
  </defs>
  <line class="cls-2" x1="131.49" y1="218.94" x2="131.49" y2="253.95"/>
  <line id="source_line" data-name="source line" class="cls-2" x1="131.81" y1="25.84" x2="412.33" y2="25.84"/>
  <line id="source_line-2" data-name="source line" class="cls-2" x1="131.81" y1="236.44" x2="412.33" y2="236.44"/>
  <g>
    <path class="cls-5" d="M31.01,20.68h-1.74v-.84h2.77v7.43h1.75v.85h-4.72v-.85h1.93v-6.59Z"/>
    <path class="cls-5" d="M40.57,24.87c0,.14,0,.27,0,.36s0,.19-.02.28h-4.13c0,.6.17,1.06.5,1.39s.82.48,1.45.48c.17,0,.34,0,.52-.02s.34-.03.5-.06.31-.05.46-.08.28-.06.41-.1v.84c-.28.08-.59.14-.94.19s-.71.07-1.09.07c-.5,0-.94-.07-1.3-.21s-.66-.33-.89-.59-.4-.58-.52-.96-.17-.8-.17-1.28c0-.41.06-.81.18-1.17s.29-.69.52-.97.51-.5.84-.67.71-.25,1.13-.25.77.06,1.09.19.58.31.8.55.38.52.49.86.17.72.17,1.13ZM39.51,24.72c.01-.26-.01-.5-.08-.72s-.16-.4-.29-.56-.29-.28-.49-.37-.42-.13-.68-.13c-.22,0-.43.04-.61.13s-.34.21-.47.36-.24.34-.32.56-.13.46-.15.72h3.09Z"/>
    <path class="cls-5" d="M47.42,20.79c-.54-.11-1-.17-1.38-.17-.92,0-1.38.48-1.38,1.44v1.03h2.58v.85h-2.58v4.18h-1.04v-4.18h-1.89v-.85h1.89v-.97c0-1.57.82-2.35,2.45-2.35.41,0,.86.05,1.35.14v.88Z"/>
    <path class="cls-5" d="M53.54,28.04c-.23.06-.47.1-.71.13s-.5.04-.75.04c-.74,0-1.29-.17-1.65-.5s-.54-.85-.54-1.54v-3.07h-1.65v-.86h1.65v-1.62l1.02-.26v1.88h2.64v.86h-2.64v2.99c0,.42.11.74.34.95s.56.31.99.31c.19,0,.39-.01.62-.04s.46-.08.7-.14v.88Z"/>
    <path class="cls-5" d="M57.76,22.13c.12,0,.24.02.35.07s.21.11.29.2.15.18.2.29.07.22.07.35-.02.24-.07.35-.11.2-.2.28-.18.15-.29.19-.22.07-.35.07-.24-.02-.35-.07-.2-.11-.28-.19-.15-.18-.19-.28-.07-.22-.07-.35.02-.24.07-.35.11-.21.19-.29.18-.15.28-.2.22-.07.35-.07ZM57.76,26.43c.12,0,.24.02.35.07s.21.11.29.2.15.18.2.29.07.22.07.35-.02.24-.07.35-.11.2-.2.28-.18.15-.29.19-.22.07-.35.07-.24-.02-.35-.07-.2-.11-.28-.19-.15-.18-.19-.28-.07-.22-.07-.35.02-.24.07-.35.11-.21.19-.29.18-.15.28-.2.22-.07.35-.07Z"/>
  </g>
  <g>
    <path class="cls-5" d="M29.25,131.4h.93l.03,1.08c.35-.42.69-.72,1.03-.91s.68-.28,1.02-.28c.61,0,1.07.2,1.39.59s.46.98.44,1.76h-1.03c.01-.52-.06-.89-.23-1.12s-.4-.35-.71-.35c-.14,0-.27.02-.41.07s-.28.13-.43.23-.3.25-.47.41-.34.37-.53.61v3.78h-1.03v-5.88Z"/>
    <path class="cls-5" d="M37.61,132.24h-1.74v-.84h2.77v5.03h1.75v.85h-4.72v-.85h1.93v-4.19ZM37.97,128.93c.11,0,.22.02.32.06s.18.1.25.17.13.16.17.25.06.2.06.31-.02.21-.06.31-.1.18-.17.26-.16.13-.25.17-.2.06-.32.06-.22-.02-.32-.06-.18-.1-.25-.17-.13-.16-.17-.26-.06-.2-.06-.31.02-.22.06-.31.1-.18.17-.25.16-.13.25-.17.2-.06.32-.06Z"/>
    <path class="cls-5" d="M46.44,132.23c.11.14.19.3.25.48s.09.38.09.59c0,.3-.06.58-.17.83s-.27.47-.47.65-.45.32-.73.42-.59.15-.93.15c-.25,0-.48-.03-.69-.08s-.38-.12-.51-.2c-.07.11-.14.21-.19.31s-.08.21-.08.33c0,.15.07.27.21.37s.33.15.57.16l1.55.06c.29,0,.56.04.81.11s.46.16.64.29.32.28.42.46.15.4.15.64c0,.26-.06.51-.17.74s-.29.44-.52.62-.54.32-.9.42-.79.16-1.29.16-.88-.04-1.22-.11-.61-.18-.82-.32-.37-.29-.47-.48-.15-.39-.15-.61c0-.29.07-.54.2-.75s.34-.42.62-.62c-.1-.05-.19-.11-.26-.18s-.13-.15-.18-.23-.08-.17-.11-.27-.04-.19-.04-.28c0-.25.06-.49.18-.7s.26-.41.42-.6c-.07-.09-.14-.18-.2-.26s-.11-.18-.15-.28-.07-.21-.09-.32-.03-.25-.03-.4c0-.3.06-.58.17-.83s.27-.47.47-.65.44-.32.73-.42.6-.15.94-.15c.14,0,.28,0,.42.03s.25.04.35.08h2.13v.83h-.94ZM42.9,138.13c0,.28.14.48.43.61s.69.19,1.21.19c.32,0,.6-.03.82-.09s.4-.14.53-.23.23-.21.29-.33.09-.25.09-.38c0-.24-.1-.41-.29-.53s-.49-.18-.9-.2l-1.54-.05c-.13.09-.24.17-.32.25s-.15.17-.2.25-.08.17-.1.25-.03.17-.03.25ZM43.21,133.32c0,.19.03.36.09.52s.15.29.26.4.25.19.4.25.33.09.51.09c.2,0,.38-.03.54-.1s.29-.16.4-.28.19-.25.25-.4.08-.31.08-.47c0-.19-.03-.36-.09-.52s-.15-.29-.26-.4-.25-.19-.4-.25-.33-.09-.51-.09c-.2,0-.38.04-.54.11s-.29.16-.4.28-.19.25-.25.4-.08.31-.08.47Z"/>
    <path class="cls-5" d="M53.53,137.28h-1.02v-3.76c0-.45-.08-.79-.25-1.02s-.41-.34-.73-.34c-.14,0-.26.02-.38.06s-.24.1-.37.19-.27.22-.42.37-.33.35-.53.59v3.9h-1.02v-8.28h1.02v2.4l-.04.93c.16-.19.32-.35.47-.48s.31-.24.46-.32.31-.14.47-.18.33-.05.5-.05c.59,0,1.04.18,1.36.54s.48.9.48,1.61v3.84Z"/>
    <path class="cls-5" d="M60.14,137.2c-.23.06-.47.1-.71.13s-.5.04-.75.04c-.74,0-1.29-.17-1.65-.5s-.54-.85-.54-1.54v-3.07h-1.65v-.86h1.65v-1.62l1.02-.26v1.88h2.64v.86h-2.64v2.99c0,.42.11.74.34.95s.56.31.99.31c.19,0,.39-.01.62-.04s.46-.08.7-.14v.88Z"/>
    <path class="cls-5" d="M64.36,131.29c.12,0,.24.02.35.07s.21.11.29.2.15.18.2.29.07.22.07.35-.02.24-.07.35-.11.2-.2.28-.18.15-.29.19-.22.07-.35.07-.24-.02-.35-.07-.2-.11-.28-.19-.15-.18-.19-.28-.07-.22-.07-.35.02-.24.07-.35.11-.21.19-.29.18-.15.28-.2.22-.07.35-.07ZM64.36,135.59c.12,0,.24.02.35.07s.21.11.29.2.15.18.2.29.07.22.07.35-.02.24-.07.35-.11.2-.2.28-.18.15-.29.19-.22.07-.35.07-.24-.02-.35-.07-.2-.11-.28-.19-.15-.18-.19-.28-.07-.22-.07-.35.02-.24.07-.35.11-.21.19-.29.18-.15.28-.2.22-.07.35-.07Z"/>
  </g>
  <g>
    <path class="cls-5" d="M33.21,232.54v5.32c0,.33-.05.64-.15.93s-.25.55-.45.77-.45.39-.75.52-.65.19-1.06.19c-.15,0-.31-.01-.47-.03s-.31-.05-.46-.09-.28-.08-.41-.13-.24-.11-.33-.17v-1.05c.24.18.51.31.81.42s.59.15.88.15c.43,0,.75-.13.98-.39s.35-.63.35-1.12v-4.42h-2.91v-.9h3.97Z"/>
    <path class="cls-5" d="M40.73,237.21c0,.46-.06.88-.19,1.26s-.31.71-.56.98-.54.48-.88.63-.74.23-1.18.23-.8-.07-1.13-.2-.62-.32-.85-.58-.41-.57-.53-.94-.18-.81-.18-1.29c0-.46.06-.87.19-1.25s.31-.7.56-.97.54-.48.88-.63.74-.23,1.18-.23.8.07,1.13.2.62.32.85.57.41.57.53.94.18.8.18,1.29ZM39.68,237.26c0-.36-.04-.68-.12-.95s-.19-.5-.34-.68-.33-.32-.54-.41-.45-.14-.71-.14c-.3,0-.57.06-.78.18s-.39.28-.53.48-.24.43-.3.69-.1.54-.1.83c0,.36.04.68.12.96s.19.5.34.68.33.32.54.41.45.14.71.14c.3,0,.57-.06.78-.18s.39-.28.53-.48.24-.43.3-.69.1-.54.1-.83Z"/>
    <path class="cls-5" d="M44.21,235.16h-1.74v-.84h2.77v5.03h1.75v.85h-4.72v-.85h1.93v-4.19ZM44.57,231.85c.11,0,.22.02.32.06s.18.1.25.17.13.16.17.25.06.2.06.31-.02.21-.06.31-.1.18-.17.26-.16.13-.25.17-.2.06-.32.06-.22-.02-.32-.06-.18-.1-.25-.17-.13-.16-.17-.26-.06-.2-.06-.31.02-.22.06-.31.1-.18.17-.25.16-.13.25-.17.2-.06.32-.06Z"/>
    <path class="cls-5" d="M48.8,234.31h.91l.04.95c.17-.2.34-.37.5-.51s.32-.24.47-.33.31-.14.47-.17.33-.05.5-.05c.61,0,1.06.18,1.37.54s.47.9.47,1.61v3.84h-1.02v-3.76c0-.46-.09-.8-.26-1.02s-.43-.33-.77-.33c-.12,0-.25.02-.37.06s-.24.1-.37.19-.27.22-.42.37-.32.35-.51.59v3.9h-1.02v-5.88Z"/>
    <path class="cls-5" d="M57.76,234.21c.12,0,.24.02.35.07s.21.11.29.2.15.18.2.29.07.22.07.35-.02.24-.07.35-.11.2-.2.28-.18.15-.29.19-.22.07-.35.07-.24-.02-.35-.07-.2-.11-.28-.19-.15-.18-.19-.28-.07-.22-.07-.35.02-.24.07-.35.11-.21.19-.29.18-.15.28-.2.22-.07.35-.07ZM57.76,238.5c.12,0,.24.02.35.07s.21.11.29.2.15.18.2.29.07.22.07.35-.02.24-.07.35-.11.2-.2.28-.18.15-.29.19-.22.07-.35.07-.24-.02-.35-.07-.2-.11-.28-.19-.15-.18-.19-.28-.07-.22-.07-.35.02-.24.07-.35.11-.21.19-.29.18-.15.28-.2.22-.07.35-.07Z"/>
  </g>
  <line class="cls-2" x1="131.81" y1="8.33" x2="131.81" y2="43.34"/>
  <g>
    <circle class="cls-4" cx="180.19" cy="25.84" r="13.56"/>
    <path class="cls-5" d="M182.49,29.39h-4.25v-.89h1.58v-5.85h-1.58v-.8c.6,0,1.04-.08,1.32-.25s.44-.49.48-.96h.91v7.86h1.55v.89Z"/>
  </g>
  <g>
    <circle class="cls-4" cx="131.81" cy="25.84" r="13.56"/>
    <path class="cls-5" d="M134.6,25.02c0,1.57-.23,2.72-.68,3.45s-1.16,1.1-2.11,1.1-1.67-.37-2.12-1.12-.67-1.88-.67-3.42.23-2.73.68-3.45,1.16-1.09,2.11-1.09,1.67.38,2.12,1.13.67,1.89.67,3.4ZM133.1,27.68c.11-.29.19-.65.24-1.1s.07-.96.07-1.56-.02-1.12-.07-1.56-.13-.81-.25-1.1c-.12-.3-.28-.52-.48-.68s-.47-.23-.8-.23-.59.08-.8.23-.37.38-.5.69c-.12.3-.2.67-.24,1.12s-.06.96-.06,1.54c0,.61.02,1.12.06,1.53s.12.78.24,1.1c.11.3.27.53.48.69s.48.24.82.24.59-.08.8-.23.37-.38.49-.69Z"/>
  </g>
  <g>
    <circle class="cls-4" cx="230.44" cy="25.84" r="13.56"/>
    <path class="cls-5" d="M233.19,29.39h-5.38v-1.22c.39-.37.75-.72,1.1-1.05s.68-.69,1.01-1.05c.66-.73,1.12-1.32,1.36-1.75s.36-.89.36-1.36c0-.24-.04-.46-.11-.64s-.18-.34-.31-.46c-.14-.12-.29-.21-.47-.26s-.38-.09-.59-.09-.42.03-.63.08-.42.12-.61.2c-.16.07-.32.15-.47.24s-.28.17-.37.24h-.06v-1.24c.24-.12.58-.24,1.01-.35s.84-.17,1.23-.17c.81,0,1.45.22,1.91.65s.69,1.02.69,1.75c0,.34-.04.65-.12.94s-.19.56-.33.8c-.14.25-.32.51-.52.76s-.42.5-.64.74c-.37.4-.78.81-1.23,1.24s-.81.77-1.08,1.02h4.29v1Z"/>
  </g>
  <g>
    <circle class="cls-4" cx="277.93" cy="25.84" r="13.56"/>
    <path class="cls-5" d="M277.65,21.49c-.21,0-.42.03-.63.08s-.42.12-.62.2c-.19.08-.35.16-.49.25s-.26.17-.37.24h-.07v-1.24c.25-.14.6-.26,1.03-.37s.85-.17,1.25-.17.74.04,1.03.12.56.2.8.37c.26.19.45.41.58.68s.2.58.2.93c0,.48-.16.9-.47,1.27s-.7.59-1.14.69v.08c.18.04.38.1.59.18s.4.21.58.38.33.38.44.65.17.58.17.96-.07.76-.2,1.09-.33.62-.57.88c-.25.27-.56.47-.92.6s-.77.21-1.22.21-.87-.05-1.3-.16-.79-.23-1.08-.38v-1.24h.08c.25.18.58.35.99.52s.83.25,1.24.25c.24,0,.48-.04.72-.11s.44-.2.6-.37c.16-.17.28-.36.36-.57s.12-.47.12-.79-.05-.58-.14-.78-.22-.36-.38-.48-.36-.2-.58-.24-.47-.07-.73-.07h-.5v-.97h.39c.53,0,.96-.12,1.29-.38s.5-.61.5-1.09c0-.22-.04-.41-.13-.57s-.2-.28-.33-.38c-.15-.1-.31-.17-.49-.21s-.37-.06-.57-.06Z"/>
  </g>
  <g>
    <circle class="cls-4" cx="323.45" cy="25.84" r="13.56"/>
    <path class="cls-5" d="M326.43,26.39h-1.04v3h-1.12v-3h-3.86v-1.23l3.9-4.49h1.08v4.79h1.04v.94ZM324.26,25.45v-3.41l-2.94,3.41h2.94Z"/>
  </g>
  <g>
    <circle class="cls-4" cx="371.01" cy="25.84" r="13.56"/>
    <path class="cls-5" d="M373.66,26.61c0,.42-.07.81-.2,1.17s-.32.67-.57.93c-.25.27-.55.47-.92.63s-.77.23-1.23.23c-.42,0-.83-.05-1.23-.14s-.75-.21-1.05-.36v-1.24h.08c.09.07.22.14.39.23s.35.16.56.24c.23.08.44.15.63.19s.41.07.64.07.46-.04.69-.13.41-.22.57-.41c.14-.17.25-.37.33-.6s.11-.5.11-.81-.04-.56-.13-.76-.21-.36-.37-.49c-.17-.15-.37-.25-.62-.31s-.52-.09-.82-.09c-.32,0-.63.02-.96.07s-.58.09-.77.14v-4.49h4.79v1.03h-3.66v2.32c.14-.02.28-.03.42-.04s.26-.01.38-.01c.45,0,.82.04,1.13.11s.61.22.89.43c.29.22.51.49.67.82s.23.76.23,1.28Z"/>
  </g>
  <line id="source_line-3" data-name="source line" class="cls-2" x1="131.81" y1="52.72" x2="178.23" y2="52.72"/>
  <g>
    <path class="cls-5" d="M31.01,60.88h-1.74v-.84h2.77v7.43h1.75v.85h-4.72v-.85h1.93v-6.59Z"/>
    <path class="cls-5" d="M40.57,65.07c0,.14,0,.27,0,.36s0,.19-.02.28h-4.13c0,.6.17,1.06.5,1.39s.82.48,1.45.48c.17,0,.34,0,.52-.02s.34-.03.5-.06.31-.05.46-.08.28-.06.41-.1v.84c-.28.08-.59.14-.94.19s-.71.07-1.09.07c-.5,0-.94-.07-1.3-.21s-.66-.33-.89-.59-.4-.58-.52-.96-.17-.8-.17-1.28c0-.41.06-.81.18-1.17s.29-.69.52-.97.51-.5.84-.67.71-.25,1.13-.25.77.06,1.09.19.58.31.8.55.38.52.49.86.17.72.17,1.13ZM39.51,64.92c.01-.26-.01-.5-.08-.72s-.16-.4-.29-.56-.29-.28-.49-.37-.42-.13-.68-.13c-.22,0-.43.04-.61.13s-.34.21-.47.36-.24.34-.32.56-.13.46-.15.72h3.09Z"/>
    <path class="cls-5" d="M47.42,60.99c-.54-.11-1-.17-1.38-.17-.92,0-1.38.48-1.38,1.44v1.03h2.58v.85h-2.58v4.18h-1.04v-4.18h-1.89v-.85h1.89v-.97c0-1.57.82-2.35,2.45-2.35.41,0,.86.05,1.35.14v.88Z"/>
    <path class="cls-5" d="M53.54,68.24c-.23.06-.47.1-.71.13s-.5.04-.75.04c-.74,0-1.29-.17-1.65-.5s-.54-.85-.54-1.54v-3.07h-1.65v-.86h1.65v-1.62l1.02-.26v1.88h2.64v.86h-2.64v2.99c0,.42.11.74.34.95s.56.31.99.31c.19,0,.39-.01.62-.04s.46-.08.7-.14v.88Z"/>
    <path class="cls-5" d="M28.71,79.9c0-.5.07-.94.21-1.33s.33-.72.58-.98.55-.47.91-.61.75-.21,1.18-.21c.19,0,.37.01.55.04s.36.06.54.11v-2.47h1.03v8.28h-.91l-.04-1.11c-.29.41-.59.72-.93.92s-.69.3-1.08.3c-.34,0-.63-.07-.89-.21s-.47-.34-.64-.59-.3-.56-.38-.92-.13-.76-.13-1.2ZM29.75,79.84c0,.71.1,1.24.31,1.59s.5.52.89.52c.26,0,.53-.12.82-.35s.59-.57.91-1.03v-2.73c-.17-.08-.35-.14-.56-.18s-.4-.06-.6-.06c-.55,0-.99.18-1.3.54s-.47.92-.47,1.69Z"/>
    <path class="cls-5" d="M40.33,82.72h-.91l-.04-.95c-.18.2-.34.37-.5.51s-.32.24-.47.33-.31.14-.47.17-.33.05-.5.05c-.61,0-1.06-.18-1.37-.53s-.46-.89-.46-1.61v-3.84h1.02v3.76c0,.9.34,1.35,1.02,1.35.12,0,.25-.02.37-.06s.24-.1.38-.19.27-.22.42-.37.32-.35.51-.59v-3.9h1.02v5.88Z"/>
    <path class="cls-5" d="M42.44,76.84h.93l.03,1.08c.35-.42.69-.72,1.03-.91s.68-.28,1.02-.28c.61,0,1.07.2,1.39.59s.46.98.44,1.76h-1.03c.01-.52-.06-.89-.23-1.12s-.4-.35-.71-.35c-.14,0-.27.02-.41.07s-.28.13-.43.23-.3.25-.47.41-.34.37-.53.61v3.78h-1.03v-5.88Z"/>
    <path class="cls-5" d="M52.58,82.72l-.02-.79c-.32.32-.65.54-.98.69s-.68.21-1.04.21c-.34,0-.62-.04-.86-.13s-.43-.2-.59-.35-.27-.33-.34-.53-.11-.42-.11-.66c0-.59.22-1.05.66-1.39s1.09-.5,1.95-.5h1.22v-.52c0-.35-.11-.63-.33-.83s-.56-.31-1.02-.31c-.33,0-.66.04-.98.11s-.66.18-1,.32v-.92c.13-.05.27-.09.43-.14s.33-.08.5-.12.36-.06.55-.08.38-.03.58-.03c.36,0,.68.04.96.12s.53.2.72.36.35.36.45.6.16.53.16.86v4.05h-.91ZM52.47,80.05h-1.29c-.25,0-.47.03-.66.08s-.33.12-.45.22-.2.21-.26.34-.08.28-.08.44c0,.11.02.22.05.33s.09.2.17.28.18.14.3.19.28.07.46.07c.23,0,.5-.07.81-.21s.62-.37.96-.68v-1.04Z"/>
    <path class="cls-5" d="M60.14,82.64c-.23.06-.47.1-.71.13s-.5.04-.75.04c-.74,0-1.29-.17-1.65-.5s-.54-.85-.54-1.54v-3.07h-1.65v-.86h1.65v-1.62l1.02-.26v1.88h2.64v.86h-2.64v2.99c0,.42.11.74.34.95s.56.31.99.31c.19,0,.39-.01.62-.04s.46-.08.7-.14v.88Z"/>
    <path class="cls-5" d="M64,77.68h-1.74v-.84h2.77v5.03h1.75v.85h-4.72v-.85h1.93v-4.19ZM64.36,74.37c.11,0,.22.02.32.06s.18.1.25.17.13.16.17.25.06.2.06.31-.02.21-.06.31-.1.18-.17.26-.16.13-.25.17-.2.06-.32.06-.22-.02-.32-.06-.18-.1-.25-.17-.13-.16-.17-.26-.06-.2-.06-.31.02-.22.06-.31.1-.18.17-.25.16-.13.25-.17.2-.06.32-.06Z"/>
    <path class="cls-5" d="M73.72,79.73c0,.46-.06.88-.19,1.26s-.31.71-.56.98-.54.48-.88.63-.74.23-1.18.23-.8-.07-1.13-.2-.62-.32-.85-.58-.41-.57-.53-.94-.18-.81-.18-1.29c0-.46.06-.87.19-1.25s.31-.7.56-.97.54-.48.88-.63.74-.23,1.18-.23.8.07,1.13.2.62.32.85.57.41.57.53.94.18.8.18,1.29ZM72.67,79.78c0-.36-.04-.68-.12-.95s-.19-.5-.34-.68-.33-.32-.54-.41-.45-.14-.71-.14c-.3,0-.57.06-.78.18s-.39.28-.53.48-.24.43-.3.69-.1.54-.1.83c0,.36.04.68.12.96s.19.5.34.68.33.32.54.41.45.14.71.14c.3,0,.57-.06.78-.18s.39-.28.53-.48.24-.43.3-.69.1-.54.1-.83Z"/>
    <path class="cls-5" d="M75.19,76.84h.91l.04.95c.17-.2.34-.37.5-.51s.32-.24.47-.33.31-.14.47-.17.33-.05.5-.05c.61,0,1.06.18,1.37.54s.47.9.47,1.61v3.84h-1.02v-3.76c0-.46-.09-.8-.26-1.02s-.43-.33-.77-.33c-.12,0-.25.02-.37.06s-.24.1-.37.19-.27.22-.42.37-.32.35-.51.59v3.9h-1.02v-5.88Z"/>
    <path class="cls-5" d="M86.45,81.12c0,.21-.04.39-.11.56s-.17.31-.29.44-.26.24-.42.33-.33.16-.51.22-.37.1-.56.13-.38.04-.56.04c-.4,0-.76-.02-1.1-.05s-.66-.09-.98-.17v-.94c.34.1.69.17,1.03.22s.68.08,1.01.08c.49,0,.85-.07,1.08-.2s.35-.32.35-.57c0-.11-.02-.2-.06-.28s-.1-.16-.2-.24-.25-.16-.45-.24-.49-.18-.84-.28c-.27-.08-.51-.17-.74-.27s-.42-.22-.58-.35-.29-.3-.39-.48-.14-.4-.14-.65c0-.16.04-.34.11-.54s.21-.38.39-.54.43-.31.74-.42.7-.17,1.17-.17c.23,0,.49.01.77.04s.57.07.88.13v.91c-.32-.08-.62-.14-.91-.17s-.54-.06-.75-.06c-.25,0-.47.02-.64.06s-.31.09-.42.16-.18.15-.23.24-.07.19-.07.3.02.2.06.29.12.17.23.25.27.16.47.24.46.17.78.26c.35.1.64.21.88.32s.43.24.58.37.25.29.32.46.1.37.1.59Z"/>
    <path class="cls-5" d="M90.75,76.73c.12,0,.24.02.35.07s.21.11.29.2.15.18.2.29.07.22.07.35-.02.24-.07.35-.11.2-.2.28-.18.15-.29.19-.22.07-.35.07-.24-.02-.35-.07-.2-.11-.28-.19-.15-.18-.19-.28-.07-.22-.07-.35.02-.24.07-.35.11-.21.19-.29.18-.15.28-.2.22-.07.35-.07ZM90.75,81.03c.12,0,.24.02.35.07s.21.11.29.2.15.18.2.29.07.22.07.35-.02.24-.07.35-.11.2-.2.28-.18.15-.29.19-.22.07-.35.07-.24-.02-.35-.07-.2-.11-.28-.19-.15-.18-.19-.28-.07-.22-.07-.35.02-.24.07-.35.11-.21.19-.29.18-.15.28-.2.22-.07.35-.07Z"/>
  </g>
  <line class="cls-2" x1="131.81" y1="48.54" x2="131.81" y2="58.11"/>
  <line id="source_line-4" data-name="source line" class="cls-2" x1="178.6" y1="62.83" x2="227.92" y2="62.83"/>
  <line class="cls-2" x1="178.6" y1="58.64" x2="178.6" y2="68.22"/>
  <line class="cls-2" x1="178.23" y1="48.54" x2="178.23" y2="58.11"/>
  <g>
    <path class="cls-5" d="M29.25,174.72h.93l.03,1.08c.35-.42.69-.72,1.03-.91s.68-.28,1.02-.28c.61,0,1.07.2,1.39.59s.46.98.44,1.76h-1.03c.01-.52-.06-.89-.23-1.12s-.4-.35-.71-.35c-.14,0-.27.02-.41.07s-.28.13-.43.23-.3.25-.47.41-.34.37-.53.61v3.78h-1.03v-5.88Z"/>
    <path class="cls-5" d="M37.61,175.56h-1.74v-.84h2.77v5.03h1.75v.85h-4.72v-.85h1.93v-4.19ZM37.97,172.25c.11,0,.22.02.32.06s.18.1.25.17.13.16.17.25.06.2.06.31-.02.21-.06.31-.1.18-.17.26-.16.13-.25.17-.2.06-.32.06-.22-.02-.32-.06-.18-.1-.25-.17-.13-.16-.17-.26-.06-.2-.06-.31.02-.22.06-.31.1-.18.17-.25.16-.13.25-.17.2-.06.32-.06Z"/>
    <path class="cls-5" d="M46.44,175.55c.11.14.19.3.25.48s.09.38.09.59c0,.3-.06.58-.17.83s-.27.47-.47.65-.45.32-.73.42-.59.15-.93.15c-.25,0-.48-.03-.69-.08s-.38-.12-.51-.2c-.07.11-.14.21-.19.31s-.08.21-.08.33c0,.15.07.27.21.37s.33.15.57.16l1.55.06c.29,0,.56.04.81.11s.46.16.64.29.32.28.42.46.15.4.15.64c0,.26-.06.51-.17.74s-.29.44-.52.62-.54.32-.9.42-.79.16-1.29.16-.88-.04-1.22-.11-.61-.18-.82-.32-.37-.29-.47-.48-.15-.39-.15-.61c0-.29.07-.54.2-.75s.34-.42.62-.62c-.1-.05-.19-.11-.26-.18s-.13-.15-.18-.23-.08-.17-.11-.27-.04-.19-.04-.28c0-.25.06-.49.18-.7s.26-.41.42-.6c-.07-.09-.14-.18-.2-.26s-.11-.18-.15-.28-.07-.21-.09-.32-.03-.25-.03-.4c0-.3.06-.58.17-.83s.27-.47.47-.65.44-.32.73-.42.6-.15.94-.15c.14,0,.28,0,.42.03s.25.04.35.08h2.13v.83h-.94ZM42.9,181.45c0,.28.14.48.43.61s.69.19,1.21.19c.32,0,.6-.03.82-.09s.4-.14.53-.23.23-.21.29-.33.09-.25.09-.38c0-.24-.1-.41-.29-.53s-.49-.18-.9-.2l-1.54-.05c-.13.09-.24.17-.32.25s-.15.17-.2.25-.08.17-.1.25-.03.17-.03.25ZM43.21,176.64c0,.19.03.36.09.52s.15.29.26.4.25.19.4.25.33.09.51.09c.2,0,.38-.03.54-.1s.29-.16.4-.28.19-.25.25-.4.08-.31.08-.47c0-.19-.03-.36-.09-.52s-.15-.29-.26-.4-.25-.19-.4-.25-.33-.09-.51-.09c-.2,0-.38.04-.54.11s-.29.16-.4.28-.19.25-.25.4-.08.31-.08.47Z"/>
    <path class="cls-5" d="M53.53,180.6h-1.02v-3.76c0-.45-.08-.79-.25-1.02s-.41-.34-.73-.34c-.14,0-.26.02-.38.06s-.24.1-.37.19-.27.22-.42.37-.33.35-.53.59v3.9h-1.02v-8.28h1.02v2.4l-.04.93c.16-.19.32-.35.47-.48s.31-.24.46-.32.31-.14.47-.18.33-.05.5-.05c.59,0,1.04.18,1.36.54s.48.9.48,1.61v3.84Z"/>
    <path class="cls-5" d="M60.14,180.52c-.23.06-.47.1-.71.13s-.5.04-.75.04c-.74,0-1.29-.17-1.65-.5s-.54-.85-.54-1.54v-3.07h-1.65v-.86h1.65v-1.62l1.02-.26v1.88h2.64v.86h-2.64v2.99c0,.42.11.74.34.95s.56.31.99.31c.19,0,.39-.01.62-.04s.46-.08.7-.14v.88Z"/>
    <path class="cls-5" d="M28.71,192.18c0-.5.07-.94.21-1.33s.33-.72.58-.98.55-.47.91-.61.75-.21,1.18-.21c.19,0,.37.01.55.04s.36.06.54.11v-2.47h1.03v8.28h-.91l-.04-1.11c-.29.41-.59.72-.93.92s-.69.3-1.08.3c-.34,0-.63-.07-.89-.21s-.47-.34-.64-.59-.3-.56-.38-.92-.13-.76-.13-1.2ZM29.75,192.12c0,.71.1,1.24.31,1.59s.5.52.89.52c.26,0,.53-.12.82-.35s.59-.57.91-1.03v-2.73c-.17-.08-.35-.14-.56-.18s-.4-.06-.6-.06c-.55,0-.99.18-1.3.54s-.47.92-.47,1.69Z"/>
    <path class="cls-5" d="M40.33,195h-.91l-.04-.95c-.18.2-.34.37-.5.51s-.32.24-.47.32-.31.14-.47.17-.33.05-.5.05c-.61,0-1.06-.18-1.37-.53s-.46-.89-.46-1.61v-3.84h1.02v3.76c0,.9.34,1.35,1.02,1.35.12,0,.25-.02.37-.05s.24-.1.38-.19.27-.22.42-.37.32-.35.51-.59v-3.9h1.02v5.88Z"/>
    <path class="cls-5" d="M42.44,189.12h.93l.03,1.08c.35-.42.69-.72,1.03-.91s.68-.28,1.02-.28c.61,0,1.07.2,1.39.59s.46.98.44,1.76h-1.03c.01-.52-.06-.89-.23-1.12s-.4-.35-.71-.35c-.14,0-.27.03-.41.07s-.28.13-.43.23-.3.24-.47.41-.34.37-.53.61v3.78h-1.03v-5.88Z"/>
    <path class="cls-5" d="M52.58,195l-.02-.79c-.32.32-.65.54-.98.69s-.68.21-1.04.21c-.34,0-.62-.04-.86-.13s-.43-.2-.59-.35-.27-.33-.34-.53-.11-.42-.11-.66c0-.59.22-1.05.66-1.38s1.09-.5,1.95-.5h1.22v-.52c0-.35-.11-.62-.33-.83s-.56-.31-1.02-.31c-.33,0-.66.04-.98.11s-.66.18-1,.32v-.92c.13-.05.27-.09.43-.14s.33-.09.5-.12.36-.06.55-.08.38-.03.58-.03c.36,0,.68.04.96.12s.53.2.72.36.35.36.45.6.16.53.16.86v4.05h-.91ZM52.47,192.32h-1.29c-.25,0-.47.03-.66.08s-.33.12-.45.22-.2.21-.26.34-.08.28-.08.44c0,.11.02.22.05.33s.09.2.17.28.18.14.3.19.28.07.46.07c.23,0,.5-.07.81-.21s.62-.37.96-.68v-1.04Z"/>
    <path class="cls-5" d="M60.14,194.92c-.23.06-.47.1-.71.13s-.5.04-.75.04c-.74,0-1.29-.17-1.65-.5s-.54-.85-.54-1.54v-3.07h-1.65v-.86h1.65v-1.62l1.02-.26v1.88h2.64v.86h-2.64v2.99c0,.42.11.74.34.95s.56.31.99.31c.19,0,.39-.01.62-.04s.46-.08.7-.14v.88Z"/>
    <path class="cls-5" d="M64,189.96h-1.74v-.84h2.77v5.03h1.75v.85h-4.72v-.85h1.93v-4.19ZM64.36,186.65c.11,0,.22.02.32.06s.18.1.25.17.13.16.17.26.06.2.06.31-.02.21-.06.31-.1.18-.17.26-.16.13-.25.17-.2.06-.32.06-.22-.02-.32-.06-.18-.1-.25-.17-.13-.16-.17-.26-.06-.2-.06-.31.02-.22.06-.31.1-.18.17-.26.16-.13.25-.17.2-.06.32-.06Z"/>
    <path class="cls-5" d="M73.72,192.01c0,.46-.06.88-.19,1.26s-.31.71-.56.98-.54.48-.88.63-.74.22-1.18.22-.8-.06-1.13-.2-.62-.32-.85-.58-.41-.57-.53-.94-.18-.81-.18-1.29c0-.46.06-.87.19-1.25s.31-.7.56-.97.54-.48.88-.63.74-.23,1.18-.23.8.07,1.13.2.62.32.85.57.41.56.53.94.18.8.18,1.29ZM72.67,192.06c0-.36-.04-.68-.12-.95s-.19-.5-.34-.68-.33-.32-.54-.41-.45-.14-.71-.14c-.3,0-.57.06-.78.18s-.39.28-.53.48-.24.43-.3.7-.1.54-.1.83c0,.36.04.68.12.96s.19.5.34.68.33.32.54.41.45.14.71.14c.3,0,.57-.06.78-.18s.39-.28.53-.48.24-.43.3-.69.1-.54.1-.84Z"/>
    <path class="cls-5" d="M75.19,189.12h.91l.04.95c.17-.2.34-.37.5-.51s.32-.24.47-.33.31-.14.47-.17.33-.05.5-.05c.61,0,1.06.18,1.37.54s.47.89.47,1.61v3.84h-1.02v-3.76c0-.46-.09-.8-.26-1.02s-.43-.33-.77-.33c-.12,0-.25.02-.37.06s-.24.1-.37.19-.27.21-.42.37-.32.35-.51.59v3.9h-1.02v-5.88Z"/>
    <path class="cls-5" d="M86.45,193.39c0,.21-.04.39-.11.56s-.17.31-.29.44-.26.23-.42.32-.33.16-.51.22-.37.1-.56.13-.38.04-.56.04c-.4,0-.76-.02-1.1-.05s-.66-.09-.98-.17v-.94c.34.1.69.17,1.03.22s.68.08,1.01.08c.49,0,.85-.07,1.08-.2s.35-.32.35-.57c0-.11-.02-.2-.06-.28s-.1-.16-.2-.24-.25-.16-.45-.24-.49-.18-.84-.28c-.27-.08-.51-.17-.74-.27s-.42-.22-.58-.36-.29-.3-.39-.48-.14-.4-.14-.65c0-.16.04-.34.11-.54s.21-.38.39-.54.43-.31.74-.42.7-.17,1.17-.17c.23,0,.49.01.77.04s.57.07.88.13v.91c-.32-.08-.62-.13-.91-.17s-.54-.06-.75-.06c-.25,0-.47.02-.64.06s-.31.09-.42.16-.18.15-.23.24-.07.19-.07.29.02.2.06.29.12.17.23.25.27.16.47.24.46.17.78.26c.35.1.64.21.88.32s.43.23.58.37.25.29.32.46.1.37.1.59Z"/>
    <path class="cls-5" d="M90.75,189.01c.12,0,.24.03.35.07s.21.11.29.2.15.18.2.29.07.22.07.35-.02.24-.07.35-.11.2-.2.28-.18.15-.29.19-.22.07-.35.07-.24-.02-.35-.07-.2-.11-.28-.19-.15-.18-.19-.28-.07-.22-.07-.35.02-.24.07-.35.11-.21.19-.29.18-.15.28-.2.22-.07.35-.07ZM90.75,193.31c.12,0,.24.03.35.07s.21.11.29.2.15.18.2.29.07.22.07.35-.02.24-.07.35-.11.2-.2.28-.18.15-.29.19-.22.07-.35.07-.24-.02-.35-.07-.2-.11-.28-.19-.15-.18-.19-.28-.07-.22-.07-.35.02-.24.07-.35.11-.21.19-.29.18-.15.28-.2.22-.07.35-.07Z"/>
  </g>
  <line class="cls-2" x1="205.59" y1="160.82" x2="205.59" y2="170.39"/>
  <line class="cls-2" x1="300.27" y1="170.92" x2="300.27" y2="180.49"/>
  <line class="cls-2" x1="389.04" y1="181.08" x2="389.04" y2="190.65"/>
  <line id="source_line-5" data-name="source line" class="cls-2" x1="227.92" y1="72.4" x2="277.85" y2="72.4"/>
  <line class="cls-2" x1="227.92" y1="68.22" x2="227.92" y2="77.79"/>
  <line class="cls-2" x1="227.92" y1="58.04" x2="227.92" y2="67.61"/>
  <line id="source_line-6" data-name="source line" class="cls-2" x1="277.85" y1="82.12" x2="323.45" y2="82.12"/>
  <line class="cls-2" x1="277.85" y1="77.94" x2="277.85" y2="87.51"/>
  <line class="cls-2" x1="277.85" y1="67.62" x2="277.85" y2="77.19"/>
  <line id="source_line-7" data-name="source line" class="cls-2" x1="323.45" y1="91.69" x2="371.01" y2="91.69"/>
  <line class="cls-2" x1="323.45" y1="87.51" x2="323.45" y2="97.08"/>
  <line class="cls-2" x1="323.45" y1="77.34" x2="323.45" y2="86.91"/>
  <line id="source_line-8" data-name="source line" class="cls-2" x1="371.01" y1="101.26" x2="412.33" y2="101.26"/>
  <line class="cls-2" x1="371.01" y1="97.08" x2="371.01" y2="106.65"/>
  <line class="cls-2" x1="371.01" y1="86.91" x2="371.01" y2="96.48"/>
  <g>
    <circle class="cls-1" cx="205.59" cy="236.44" r="13.56"/>
    <g>
      <path class="cls-5" d="M202.48,239.99h-4.25v-.89h1.58v-5.85h-1.58v-.8c.6,0,1.04-.08,1.32-.25s.44-.49.48-.96h.91v7.86h1.55v.89Z"/>
      <path class="cls-5" d="M206.38,238.32l-1.64,3.84h-.86l1.03-3.84h1.46Z"/>
      <path class="cls-5" d="M207.02,239.99l2.94-8.72h1.43l2.94,8.72h-1.22l-.79-2.44h-3.33l-.79,2.44h-1.17ZM212,236.56l-1.35-4.11-1.34,4.11h2.69Z"/>
    </g>
  </g>
  <g>
    <circle class="cls-1" cx="299.27" cy="236.44" r="13.56"/>
    <g>
      <path class="cls-5" d="M293.64,232.1c-.21,0-.42.03-.63.08s-.42.12-.62.2c-.19.08-.35.16-.49.25s-.26.17-.37.24h-.07v-1.24c.25-.14.6-.26,1.03-.37s.85-.17,1.25-.17.74.04,1.03.12.56.2.8.37c.26.19.45.41.58.68s.2.58.2.93c0,.48-.16.9-.47,1.27s-.7.59-1.14.69v.08c.18.04.38.1.59.18s.4.21.58.38.33.38.44.65.17.58.17.96-.07.76-.2,1.09-.33.62-.57.88c-.25.27-.56.47-.92.6s-.77.21-1.22.21-.87-.05-1.3-.16-.79-.23-1.08-.38v-1.24h.08c.25.18.58.35.99.52s.83.25,1.24.25c.24,0,.48-.04.72-.11s.44-.2.6-.37c.16-.17.28-.36.36-.57s.12-.47.12-.79-.05-.58-.14-.78-.22-.36-.38-.48-.36-.2-.58-.24-.47-.07-.73-.07h-.5v-.97h.39c.53,0,.96-.12,1.29-.38s.5-.61.5-1.09c0-.22-.04-.41-.13-.57s-.2-.28-.33-.38c-.15-.1-.31-.17-.49-.21s-.37-.06-.57-.06Z"/>
      <path class="cls-5" d="M300.12,238.32l-1.64,3.84h-.86l1.03-3.84h1.46Z"/>
      <path class="cls-5" d="M307.63,237.31c0,.43-.08.82-.25,1.15s-.38.61-.66.82c-.33.26-.68.44-1.05.55s-.86.16-1.45.16h-2.5v-8.72h2.31c.62,0,1.09.02,1.4.06s.61.14.89.29c.31.17.54.39.69.66s.22.59.22.96c0,.41-.11.78-.33,1.1s-.52.58-.9.76v.05c.52.14.92.4,1.21.77s.43.84.43,1.4ZM306.01,233.4c0-.21-.04-.39-.11-.55s-.18-.28-.34-.37c-.19-.11-.4-.17-.63-.19s-.55-.04-.96-.04h-1.11v2.55h1.32c.36,0,.63-.02.8-.06s.35-.11.53-.23c.18-.11.3-.26.38-.45s.11-.41.11-.68ZM306.42,237.36c0-.33-.05-.6-.14-.81s-.28-.39-.57-.54c-.18-.1-.38-.16-.6-.19s-.52-.04-.92-.04h-1.32v3.22h.94c.51,0,.91-.02,1.2-.07s.55-.15.77-.3c.22-.15.38-.33.48-.52s.15-.44.15-.75Z"/>
    </g>
  </g>
  <g>
    <circle class="cls-1" cx="387.54" cy="236.44" r="13.56"/>
    <g>
      <path class="cls-5" d="M384.77,237.22c0,.42-.07.81-.2,1.17s-.32.67-.57.93c-.25.27-.55.47-.92.63s-.77.23-1.23.23c-.42,0-.83-.05-1.23-.14s-.75-.21-1.05-.36v-1.24h.08c.09.07.22.14.39.23s.35.16.56.24c.23.08.44.15.63.19s.41.07.64.07.46-.04.69-.13.41-.22.57-.41c.14-.17.25-.37.33-.6s.11-.5.11-.81-.04-.56-.13-.76-.21-.36-.37-.49c-.17-.15-.37-.25-.62-.31s-.52-.09-.82-.09c-.32,0-.63.02-.96.07s-.58.09-.77.14v-4.49h4.79v1.03h-3.66v2.32c.14-.02.28-.03.42-.04s.26-.01.38-.01c.45,0,.82.04,1.13.11s.61.22.89.43c.29.22.51.49.67.82s.23.76.23,1.28Z"/>
      <path class="cls-5" d="M388.32,238.32l-1.64,3.84h-.86l1.03-3.84h1.46Z"/>
      <path class="cls-5" d="M393.32,240.15c-.57,0-1.09-.1-1.57-.29s-.89-.48-1.24-.86-.62-.85-.81-1.42-.29-1.22-.29-1.95.09-1.37.28-1.91.46-1.02.81-1.42c.35-.39.76-.69,1.24-.89s1.01-.31,1.6-.31c.29,0,.57.02.82.06s.49.1.71.16c.19.06.38.13.58.22s.39.18.58.29v1.4h-.09c-.1-.09-.23-.21-.39-.34s-.36-.26-.59-.39c-.22-.12-.46-.22-.73-.3s-.56-.12-.91-.12c-.37,0-.72.08-1.05.23s-.62.38-.87.67c-.25.3-.44.67-.57,1.12s-.21.96-.21,1.52c0,.6.07,1.11.22,1.54s.34.8.59,1.09c.24.29.53.51.86.65s.68.22,1.04.22c.34,0,.65-.04.93-.12s.54-.19.76-.31c.21-.12.4-.25.56-.37s.28-.24.37-.33h.09v1.38c-.19.09-.37.18-.54.26s-.38.16-.62.24c-.25.08-.49.14-.71.19s-.5.06-.85.06Z"/>
    </g>
  </g>
  <line id="source_line-9" data-name="source line" class="cls-2" x1="131.81" y1="133.73" x2="412.33" y2="133.73"/>
  <line class="cls-2" x1="131.81" y1="116.23" x2="131.81" y2="151.24"/>
  <g>
    <circle class="cls-3" cx="205.59" cy="133.73" r="13.56"/>
    <path class="cls-5" d="M201.93,137.28l2.94-8.72h1.43l2.94,8.72h-1.22l-.79-2.44h-3.33l-.79,2.44h-1.17ZM206.91,133.85l-1.35-4.11-1.34,4.11h2.69Z"/>
  </g>
  <g>
    <circle class="cls-3" cx="299.27" cy="133.73" r="13.56"/>
    <path class="cls-5" d="M302.54,134.6c0,.43-.08.82-.25,1.15s-.38.61-.66.82c-.33.26-.68.44-1.05.55s-.86.16-1.45.16h-2.5v-8.72h2.31c.62,0,1.09.02,1.4.06s.61.14.89.29c.31.17.54.39.69.66s.22.59.22.96c0,.41-.11.78-.33,1.1s-.52.58-.9.76v.05c.52.14.92.4,1.21.77s.43.84.43,1.4ZM300.92,130.69c0-.21-.04-.39-.11-.55s-.18-.28-.34-.37c-.19-.11-.4-.17-.63-.19s-.55-.04-.96-.04h-1.11v2.55h1.32c.36,0,.63-.02.8-.06s.35-.11.53-.23c.18-.11.3-.26.38-.45s.11-.41.11-.68ZM301.33,134.65c0-.33-.05-.6-.14-.81s-.28-.39-.57-.54c-.18-.1-.38-.16-.6-.19s-.52-.04-.92-.04h-1.32v3.22h.94c.51,0,.91-.02,1.2-.07s.55-.15.77-.3c.22-.15.38-.33.48-.52s.15-.44.15-.75Z"/>
  </g>
  <g>
    <circle class="cls-3" cx="389.04" cy="133.73" r="13.56"/>
    <path class="cls-5" d="M389.73,137.44c-.57,0-1.09-.1-1.57-.29s-.89-.48-1.24-.86-.62-.85-.81-1.42-.29-1.22-.29-1.95.09-1.37.28-1.91.46-1.02.81-1.42c.35-.39.76-.69,1.24-.89s1.01-.31,1.6-.31c.29,0,.57.02.82.06s.49.1.71.16c.19.06.38.13.58.22s.39.18.58.29v1.4h-.09c-.1-.09-.23-.21-.39-.34s-.36-.26-.59-.39c-.22-.12-.46-.22-.73-.3s-.56-.12-.91-.12c-.37,0-.72.08-1.05.23s-.62.38-.87.67c-.25.3-.44.67-.57,1.12s-.21.96-.21,1.52c0,.6.07,1.11.22,1.54s.34.8.59,1.09c.24.29.53.51.86.65s.68.22,1.04.22c.34,0,.65-.04.93-.12s.54-.19.76-.31c.21-.12.4-.25.56-.37s.28-.24.37-.33h.09v1.38c-.19.09-.37.18-.54.26s-.38.16-.62.24c-.25.08-.49.14-.71.19s-.5.06-.85.06Z"/>
  </g>
</svg>