<?xml version="1.0" encoding="UTF-8"?>
<svg id="Layer_1" data-name="Layer 1" xmlns="http://www.w3.org/2000/svg" viewBox="0 0 368.18 136.45">
  <defs>
    <style>
      .cls-1 {
        fill: none;
      }

      .cls-1, .cls-2, .cls-3 {
        stroke: #000;
        stroke-miterlimit: 10;
      }

      .cls-2 {
        fill: #ff8b8b;
      }

      .cls-4 {
        stroke-width: 0px;
      }

      .cls-3 {
        fill: #8bffbc;
      }
    </style>
  </defs>
  <line class="cls-1" x1="131.49" y1="89.36" x2="131.49" y2="124.37"/>
  <line id="source_line" data-name="source line" class="cls-1" x1="131.81" y1="25.84" x2="354.56" y2="25.84"/>
  <line id="source_line-2" data-name="source line" class="cls-1" x1="131.81" y1="106.87" x2="354.56" y2="106.87"/>
  <g>
    <path class="cls-4" d="M33.67,26.51c0,.21-.04.39-.11.56s-.17.31-.29.44-.26.24-.42.33-.33.16-.51.22-.37.1-.56.13-.38.04-.56.04c-.4,0-.76-.02-1.1-.05s-.66-.09-.98-.17v-.94c.34.1.69.17,1.03.22s.68.08,1.01.08c.49,0,.85-.07,1.08-.2s.35-.32.35-.57c0-.11-.02-.2-.06-.28s-.1-.16-.2-.24-.25-.16-.45-.24-.49-.18-.84-.28c-.27-.08-.51-.17-.74-.27s-.42-.22-.58-.35-.29-.3-.39-.48-.14-.4-.14-.65c0-.16.04-.34.11-.54s.21-.38.39-.54.43-.31.74-.42.7-.17,1.17-.17c.23,0,.49.01.77.04s.57.07.88.13v.91c-.32-.08-.62-.14-.91-.17s-.54-.06-.75-.06c-.25,0-.47.02-.64.06s-.31.09-.42.16-.18.15-.23.24-.07.19-.07.3.02.2.06.29.12.17.23.25.27.16.47.24.46.17.78.26c.35.1.64.21.88.32s.43.24.58.37.25.29.32.46.1.37.1.59Z"/>
    <path class="cls-4" d="M40.51,28.12h-4.81v-.95h1.97v-5.59l-1.83,1-.38-.87,2.44-1.28h.9v6.74h1.71v.95Z"/>
    <path class="cls-4" d="M44.57,22.13c.12,0,.24.02.35.07s.21.11.29.2.15.18.2.29.07.22.07.35-.02.24-.07.35-.11.2-.2.28-.18.15-.29.19-.22.07-.35.07-.24-.02-.35-.07-.2-.11-.28-.19-.15-.18-.19-.28-.07-.22-.07-.35.02-.24.07-.35.11-.21.19-.29.18-.15.28-.2.22-.07.35-.07ZM44.57,26.43c.12,0,.24.02.35.07s.21.11.29.2.15.18.2.29.07.22.07.35-.02.24-.07.35-.11.2-.2.28-.18.15-.29.19-.22.07-.35.07-.24-.02-.35-.07-.2-.11-.28-.19-.15-.18-.19-.28-.07-.22-.07-.35.02-.24.07-.35.11-.21.19-.29.18-.15.28-.2.22-.07.35-.07Z"/>
  </g>
  <g>
    <path class="cls-4" d="M33.67,68.29c0,.21-.04.39-.11.56s-.17.31-.29.44-.26.24-.42.33-.33.16-.51.22-.37.1-.56.13-.38.04-.56.04c-.4,0-.76-.02-1.1-.05s-.66-.09-.98-.17v-.94c.34.1.69.17,1.03.22s.68.08,1.01.08c.49,0,.85-.07,1.08-.2s.35-.32.35-.57c0-.11-.02-.2-.06-.28s-.1-.16-.2-.24-.25-.16-.45-.24-.49-.18-.84-.28c-.27-.08-.51-.17-.74-.27s-.42-.22-.58-.35-.29-.3-.39-.48-.14-.4-.14-.65c0-.16.04-.34.11-.54s.21-.38.39-.54.43-.31.74-.42.7-.17,1.17-.17c.23,0,.49.01.77.04s.57.07.88.13v.91c-.32-.08-.62-.14-.91-.17s-.54-.06-.75-.06c-.25,0-.47.02-.64.06s-.31.09-.42.16-.18.15-.23.24-.07.19-.07.3.02.2.06.29.12.17.23.25.27.16.47.24.46.17.78.26c.35.1.64.21.88.32s.43.24.58.37.25.29.32.46.1.37.1.59Z"/>
    <path class="cls-4" d="M40.58,69.9h-5.04v-.91l1.98-1.97c.32-.32.59-.6.79-.83s.36-.45.47-.64.19-.38.23-.55.06-.36.06-.56c0-.19-.03-.37-.08-.54s-.13-.32-.23-.45-.24-.23-.41-.3-.37-.11-.6-.11c-.32,0-.62.07-.88.22s-.51.33-.73.56l-.56-.67c.29-.3.62-.55,1-.73s.82-.28,1.32-.28c.34,0,.65.05.93.15s.52.25.72.44.36.43.47.7.17.59.17.94c0,.29-.04.56-.12.81s-.2.5-.35.75-.36.5-.6.77-.52.56-.85.87l-1.39,1.35h3.72v.97Z"/>
    <path class="cls-4" d="M44.57,63.91c.12,0,.24.02.35.07s.21.11.29.2.15.18.2.29.07.22.07.35-.02.24-.07.35-.11.2-.2.28-.18.15-.29.19-.22.07-.35.07-.24-.02-.35-.07-.2-.11-.28-.19-.15-.18-.19-.28-.07-.22-.07-.35.02-.24.07-.35.11-.21.19-.29.18-.15.28-.2.22-.07.35-.07ZM44.57,68.21c.12,0,.24.02.35.07s.21.11.29.2.15.18.2.29.07.22.07.35-.02.24-.07.35-.11.2-.2.28-.18.15-.29.19-.22.07-.35.07-.24-.02-.35-.07-.2-.11-.28-.19-.15-.18-.19-.28-.07-.22-.07-.35.02-.24.07-.35.11-.21.19-.29.18-.15.28-.2.22-.07.35-.07Z"/>
  </g>
  <g>
    <path class="cls-4" d="M33.9,110.33c-.61.25-1.26.38-1.93.38-1.08,0-1.91-.32-2.49-.97s-.87-1.6-.87-2.87c0-.61.08-1.17.24-1.66s.39-.92.69-1.26.66-.61,1.08-.8.89-.28,1.42-.28c.36,0,.69.03.99.09s.6.15.88.28v1.03c-.28-.15-.56-.27-.86-.35s-.62-.12-.97-.12-.68.07-.98.2-.54.33-.74.59-.36.57-.47.94-.16.79-.16,1.26c0,.99.2,1.74.6,2.24s.99.76,1.77.76c.33,0,.64-.04.94-.12s.59-.18.87-.32v.98Z"/>
    <path class="cls-4" d="M40.73,107.63c0,.46-.06.88-.19,1.26s-.31.71-.56.98-.54.48-.88.63-.74.23-1.18.23-.8-.07-1.13-.2-.62-.32-.85-.58-.41-.57-.53-.94-.18-.81-.18-1.29c0-.46.06-.88.19-1.25s.31-.7.56-.97.54-.48.88-.63.74-.22,1.18-.22.8.06,1.13.2.62.32.85.57.41.57.53.94.18.8.18,1.29ZM39.68,107.68c0-.36-.04-.68-.12-.95s-.19-.5-.34-.68-.33-.32-.54-.41-.45-.14-.71-.14c-.3,0-.57.06-.78.18s-.39.28-.53.48-.24.43-.3.69-.1.54-.1.83c0,.36.04.68.12.96s.19.5.34.68.33.32.54.41.45.14.71.14c.3,0,.57-.06.78-.18s.39-.28.53-.48.24-.43.3-.7.1-.54.1-.83Z"/>
    <path class="cls-4" d="M46.4,110.62v-4.22c0-.18,0-.33-.02-.45s-.04-.21-.06-.28-.07-.12-.11-.14-.1-.04-.17-.04c-.08,0-.15.02-.22.07s-.14.12-.21.23-.16.24-.25.42-.2.39-.33.64v3.78h-.93v-4.11c0-.21,0-.39-.02-.52s-.04-.24-.06-.31-.07-.12-.11-.15-.1-.04-.17-.04c-.07,0-.14.02-.2.06s-.13.11-.21.21-.16.24-.25.42-.21.4-.33.67v3.78h-.94v-5.88h.78l.05,1.12c.1-.22.2-.41.3-.57s.19-.28.3-.38.21-.17.33-.21.24-.07.38-.07c.32,0,.56.1.72.31s.25.53.25.96c.09-.2.19-.38.28-.54s.19-.29.29-.4.22-.19.34-.25.27-.08.43-.08c.74,0,1.11.57,1.11,1.71v4.28h-.94Z"/>
    <path class="cls-4" d="M53.83,107.57c0,.49-.07.92-.2,1.31s-.33.71-.57.98-.55.47-.91.62-.76.21-1.2.21c-.35,0-.7-.03-1.07-.1s-.72-.17-1.08-.32v-7.93h1.02v2.28l-.05,1.09c.29-.39.61-.67.94-.84s.69-.24,1.08-.24c.34,0,.63.07.88.21s.47.34.64.59.3.56.39.93.13.77.13,1.21ZM52.79,107.62c0-.31-.02-.59-.07-.85s-.12-.48-.21-.66-.22-.33-.38-.43-.33-.15-.54-.15c-.13,0-.26.02-.39.06s-.27.11-.41.21-.29.22-.45.38-.33.36-.51.59v2.85c.2.08.4.14.61.18s.4.07.59.07c.23,0,.46-.04.67-.11s.4-.2.56-.37.29-.4.39-.69.14-.64.14-1.07Z"/>
    <path class="cls-4" d="M57.4,105.58h-1.74v-.84h2.77v5.03h1.75v.85h-4.72v-.85h1.93v-4.19ZM57.76,102.27c.11,0,.22.02.32.06s.18.1.25.17.13.16.17.25.06.2.06.31-.02.21-.06.31-.1.18-.17.26-.16.13-.25.17-.2.06-.32.06-.22-.02-.32-.06-.18-.1-.25-.17-.13-.16-.17-.26-.06-.2-.06-.31.02-.22.06-.31.1-.18.17-.25.16-.13.25-.17.2-.06.32-.06Z"/>
    <path class="cls-4" d="M62,104.74h.91l.04.95c.17-.2.34-.37.5-.51s.32-.24.47-.32.31-.14.47-.17.33-.05.5-.05c.61,0,1.06.18,1.37.54s.47.9.47,1.62v3.84h-1.02v-3.76c0-.46-.09-.8-.26-1.02s-.43-.33-.77-.33c-.12,0-.25.02-.37.05s-.24.1-.37.19-.27.22-.42.37-.32.35-.51.59v3.9h-1.02v-5.88Z"/>
    <path class="cls-4" d="M73.56,107.37c0,.14,0,.27,0,.36s0,.19-.02.28h-4.13c0,.6.17,1.06.5,1.38s.82.48,1.45.48c.17,0,.34,0,.52-.02s.34-.03.5-.05.31-.05.46-.08.28-.06.41-.1v.84c-.28.08-.59.14-.94.19s-.71.07-1.09.07c-.5,0-.94-.07-1.3-.21s-.66-.34-.89-.6-.4-.58-.52-.96-.17-.8-.17-1.28c0-.41.06-.81.18-1.18s.29-.69.52-.97.51-.5.84-.66.71-.25,1.13-.25.77.06,1.09.19.58.31.8.55.38.52.49.86.17.72.17,1.13ZM72.5,107.22c.01-.26-.01-.5-.08-.72s-.16-.4-.29-.56-.29-.28-.49-.37-.42-.13-.68-.13c-.22,0-.43.04-.61.13s-.34.21-.47.36-.24.34-.32.56-.13.46-.15.72h3.09Z"/>
    <path class="cls-4" d="M80.03,110.62h-4.41v-7.66h1.06v6.77h3.35v.89Z"/>
    <path class="cls-4" d="M85.57,110.62l-.02-.79c-.32.32-.65.54-.98.69s-.68.21-1.04.21c-.34,0-.62-.04-.86-.13s-.43-.21-.59-.36-.27-.33-.34-.53-.11-.42-.11-.66c0-.59.22-1.05.66-1.39s1.09-.5,1.95-.5h1.22v-.52c0-.35-.11-.63-.33-.84s-.56-.31-1.02-.31c-.33,0-.66.04-.98.11s-.66.18-1,.32v-.92c.13-.05.27-.09.43-.14s.33-.08.5-.12.36-.06.55-.09.38-.03.58-.03c.36,0,.68.04.96.12s.53.2.72.36.35.36.45.6.16.53.16.86v4.05h-.91ZM85.46,107.94h-1.29c-.25,0-.47.03-.66.08s-.33.12-.45.22-.2.21-.26.34-.08.28-.08.44c0,.11.02.22.05.32s.09.2.17.28.18.14.3.19.28.07.46.07c.23,0,.5-.07.81-.21s.62-.37.96-.68v-1.04Z"/>
    <path class="cls-4" d="M93.13,110.54c-.23.06-.47.1-.71.12s-.5.04-.75.04c-.74,0-1.29-.17-1.65-.5s-.54-.85-.54-1.54v-3.07h-1.65v-.86h1.65v-1.62l1.02-.26v1.88h2.64v.86h-2.64v2.99c0,.42.11.74.34.95s.56.31.99.31c.19,0,.39-.02.62-.04s.46-.07.7-.14v.88Z"/>
    <path class="cls-4" d="M99.95,107.37c0,.14,0,.27,0,.36s0,.19-.02.28h-4.13c0,.6.17,1.06.5,1.38s.82.48,1.45.48c.17,0,.34,0,.52-.02s.34-.03.5-.05.31-.05.46-.08.28-.06.41-.1v.84c-.28.08-.59.14-.94.19s-.71.07-1.09.07c-.5,0-.94-.07-1.3-.21s-.66-.34-.89-.6-.4-.58-.52-.96-.17-.8-.17-1.28c0-.41.06-.81.18-1.18s.29-.69.52-.97.51-.5.84-.66.71-.25,1.13-.25.77.06,1.09.19.58.31.8.55.38.52.49.86.17.72.17,1.13ZM98.89,107.22c.01-.26-.01-.5-.08-.72s-.16-.4-.29-.56-.29-.28-.49-.37-.42-.13-.68-.13c-.22,0-.43.04-.61.13s-.34.21-.47.36-.24.34-.32.56-.13.46-.15.72h3.09Z"/>
    <path class="cls-4" d="M106.24,109.01c0,.21-.04.39-.11.56s-.17.31-.29.44-.26.24-.42.33-.33.16-.51.22-.37.1-.56.13-.38.04-.56.04c-.4,0-.76-.02-1.1-.05s-.66-.09-.98-.17v-.94c.34.1.69.17,1.03.22s.68.08,1.01.08c.49,0,.85-.07,1.08-.2s.35-.32.35-.57c0-.11-.02-.2-.06-.29s-.1-.16-.2-.24-.25-.15-.45-.24-.49-.18-.84-.28c-.27-.08-.51-.17-.74-.27s-.42-.22-.58-.35-.29-.3-.39-.48-.14-.4-.14-.65c0-.16.04-.34.11-.54s.21-.38.39-.54.43-.31.74-.42.7-.17,1.17-.17c.23,0,.49.01.77.04s.57.07.88.13v.91c-.32-.08-.62-.14-.91-.17s-.54-.05-.75-.05c-.25,0-.47.02-.64.06s-.31.09-.42.16-.18.15-.23.24-.07.19-.07.3.02.2.06.29.12.17.23.25.27.16.47.24.46.17.78.26c.35.1.64.21.88.32s.43.24.58.37.25.29.32.46.1.37.1.59Z"/>
    <path class="cls-4" d="M112.92,110.54c-.23.06-.47.1-.71.12s-.5.04-.75.04c-.74,0-1.29-.17-1.65-.5s-.54-.85-.54-1.54v-3.07h-1.65v-.86h1.65v-1.62l1.02-.26v1.88h2.64v.86h-2.64v2.99c0,.42.11.74.34.95s.56.31.99.31c.19,0,.39-.02.62-.04s.46-.07.7-.14v.88Z"/>
    <path class="cls-4" d="M117.14,104.63c.12,0,.24.02.35.07s.21.12.29.2.15.18.2.29.07.22.07.35-.02.24-.07.35-.11.2-.2.29-.18.15-.29.19-.22.07-.35.07-.24-.02-.35-.07-.2-.11-.28-.19-.15-.18-.19-.29-.07-.22-.07-.35.02-.24.07-.35.11-.21.19-.29.18-.15.28-.2.22-.07.35-.07ZM117.14,108.93c.12,0,.24.02.35.07s.21.12.29.2.15.18.2.29.07.22.07.35-.02.24-.07.35-.11.2-.2.29-.18.15-.29.19-.22.07-.35.07-.24-.02-.35-.07-.2-.11-.28-.19-.15-.18-.19-.29-.07-.22-.07-.35.02-.24.07-.35.11-.21.19-.29.18-.15.28-.2.22-.07.35-.07Z"/>
  </g>
  <line class="cls-1" x1="131.81" y1="8.33" x2="131.81" y2="43.34"/>
  <g>
    <circle class="cls-3" cx="180.19" cy="25.84" r="13.56"/>
    <path class="cls-4" d="M182.49,29.39h-4.25v-.89h1.58v-5.85h-1.58v-.8c.6,0,1.04-.08,1.32-.25s.44-.49.48-.96h.91v7.86h1.55v.89Z"/>
  </g>
  <g>
    <circle class="cls-3" cx="233.18" cy="25.84" r="13.56"/>
    <path class="cls-4" d="M235.93,29.39h-5.38v-1.22c.39-.37.75-.72,1.1-1.05s.68-.69,1.01-1.05c.66-.73,1.12-1.32,1.36-1.75s.36-.89.36-1.36c0-.24-.04-.46-.11-.64s-.18-.34-.31-.46c-.14-.12-.29-.21-.47-.26s-.38-.09-.59-.09-.42.03-.63.08-.42.12-.61.2c-.16.07-.32.15-.47.24s-.28.17-.37.24h-.06v-1.24c.24-.12.58-.24,1.01-.35s.84-.17,1.23-.17c.81,0,1.45.22,1.91.65s.69,1.02.69,1.75c0,.34-.04.65-.12.94s-.19.56-.33.8c-.14.25-.32.51-.52.76s-.42.5-.64.74c-.37.4-.78.81-1.23,1.24s-.81.77-1.08,1.02h4.29v1Z"/>
  </g>
  <g>
    <circle class="cls-3" cx="326.16" cy="25.84" r="13.56"/>
    <path class="cls-4" d="M325.88,21.49c-.21,0-.42.03-.63.08s-.42.12-.62.2c-.19.08-.35.16-.49.25s-.26.17-.37.24h-.07v-1.24c.25-.14.6-.26,1.03-.37s.85-.17,1.25-.17.74.04,1.03.12.56.2.8.37c.26.19.45.41.58.68s.2.58.2.93c0,.48-.16.9-.47,1.27s-.7.59-1.14.69v.08c.18.04.38.1.59.18s.4.21.58.38.33.38.44.65.17.58.17.96-.07.76-.2,1.09-.33.62-.57.88c-.25.27-.56.47-.92.6s-.77.21-1.22.21-.87-.05-1.3-.16-.79-.23-1.08-.38v-1.24h.08c.25.18.58.35.99.52s.83.25,1.24.25c.24,0,.48-.04.72-.11s.44-.2.6-.37c.16-.17.28-.36.36-.57s.12-.47.12-.79-.05-.58-.14-.78-.22-.36-.38-.48-.36-.2-.58-.24-.47-.07-.73-.07h-.5v-.97h.39c.53,0,.96-.12,1.29-.38s.5-.61.5-1.09c0-.22-.04-.41-.13-.57s-.2-.28-.33-.38c-.15-.1-.31-.17-.49-.21s-.37-.06-.57-.06Z"/>
  </g>
  <g>
    <circle class="cls-3" cx="180.19" cy="106.87" r="13.56"/>
    <g>
      <path class="cls-4" d="M177.53,110.42h-4.25v-.89h1.58v-5.85h-1.58v-.8c.6,0,1.04-.08,1.32-.25s.44-.49.48-.96h.91v7.86h1.55v.89Z"/>
      <path class="cls-4" d="M181.43,108.75l-1.64,3.84h-.86l1.03-3.84h1.46Z"/>
      <path class="cls-4" d="M186.58,109.72c-.09.07-.21.16-.36.28s-.3.21-.44.28c-.2.1-.38.18-.57.23s-.44.08-.76.08c-.27,0-.53-.05-.77-.15s-.46-.24-.64-.43c-.18-.18-.32-.4-.42-.67s-.16-.54-.16-.83c0-.45.1-.84.29-1.16s.49-.57.91-.76c.37-.17.8-.28,1.3-.35s1.04-.11,1.62-.14v-.21c0-.26-.04-.47-.12-.62s-.19-.28-.33-.37c-.14-.09-.31-.15-.52-.18s-.41-.04-.63-.04c-.25,0-.55.04-.9.11s-.69.19-1.03.33h-.06v-1.12c.2-.06.49-.12.87-.19s.75-.11,1.12-.11c.45,0,.83.04,1.14.11s.59.2.83.38c.24.18.42.41.53.7s.18.63.18,1.04v4.48h-1.1v-.7ZM186.58,108.8v-1.82c-.26.02-.59.06-.99.1s-.72.1-.97.17c-.29.09-.54.23-.73.41s-.29.44-.29.78c0,.38.11.66.32.85s.52.29.93.29c.35,0,.66-.08.94-.23s.54-.33.79-.55Z"/>
    </g>
  </g>
  <g>
    <circle class="cls-3" cx="233.18" cy="106.87" r="13.56"/>
    <g>
      <path class="cls-4" d="M230.96,110.42h-5.38v-1.22c.39-.37.75-.72,1.1-1.05s.68-.69,1.01-1.05c.66-.73,1.12-1.32,1.36-1.75s.36-.89.36-1.36c0-.24-.04-.46-.11-.64s-.18-.34-.31-.46c-.14-.12-.29-.21-.47-.26s-.38-.09-.59-.09-.42.03-.63.08-.42.12-.61.2c-.16.07-.32.15-.47.24s-.28.17-.37.24h-.06v-1.24c.24-.12.58-.24,1.01-.35s.84-.17,1.23-.17c.81,0,1.45.22,1.91.65s.69,1.02.69,1.75c0,.34-.04.65-.12.94s-.19.56-.33.8c-.14.25-.32.51-.52.76s-.42.5-.64.74c-.37.4-.78.81-1.23,1.24s-.81.77-1.08,1.02h4.29v1Z"/>
      <path class="cls-4" d="M234.42,108.75l-1.64,3.84h-.86l1.03-3.84h1.46Z"/>
      <path class="cls-4" d="M239.58,109.72c-.09.07-.21.16-.36.28s-.3.21-.44.28c-.2.1-.38.18-.57.23s-.44.08-.76.08c-.27,0-.53-.05-.77-.15s-.46-.24-.64-.43c-.18-.18-.32-.4-.42-.67s-.16-.54-.16-.83c0-.45.1-.84.29-1.16s.49-.57.91-.76c.37-.17.8-.28,1.3-.35s1.04-.11,1.62-.14v-.21c0-.26-.04-.47-.12-.62s-.19-.28-.33-.37c-.14-.09-.31-.15-.52-.18s-.41-.04-.63-.04c-.25,0-.55.04-.9.11s-.69.19-1.03.33h-.06v-1.12c.2-.06.49-.12.87-.19s.75-.11,1.12-.11c.45,0,.83.04,1.14.11s.59.2.83.38c.24.18.42.41.53.7s.18.63.18,1.04v4.48h-1.1v-.7ZM239.58,108.8v-1.82c-.26.02-.59.06-.99.1s-.72.1-.97.17c-.29.09-.54.23-.73.41s-.29.44-.29.78c0,.38.11.66.32.85s.52.29.93.29c.35,0,.66-.08.94-.23s.54-.33.79-.55Z"/>
    </g>
  </g>
  <line id="source_line-3" data-name="source line" class="cls-1" x1="131.81" y1="66.35" x2="354.56" y2="66.35"/>
  <line class="cls-1" x1="131.81" y1="48.85" x2="131.81" y2="83.86"/>
  <g>
    <circle class="cls-2" cx="165.17" cy="66.35" r="13.56"/>
    <path class="cls-4" d="M166.48,69.2c-.09.07-.21.16-.36.28s-.3.21-.44.28c-.2.1-.38.18-.57.23s-.44.08-.76.08c-.27,0-.53-.05-.77-.15s-.46-.24-.64-.43c-.18-.18-.32-.4-.42-.66s-.16-.54-.16-.84c0-.45.1-.84.29-1.16s.49-.57.91-.76c.37-.17.8-.28,1.3-.35s1.04-.11,1.62-.14v-.21c0-.26-.04-.46-.12-.62s-.19-.28-.33-.37c-.14-.09-.31-.15-.52-.18s-.41-.04-.63-.04c-.25,0-.55.04-.9.12s-.69.19-1.03.33h-.06v-1.12c.2-.06.49-.12.87-.19s.75-.11,1.12-.11c.45,0,.83.04,1.14.11s.59.2.83.38c.24.18.42.41.53.7s.18.63.18,1.04v4.48h-1.1v-.7ZM166.48,68.29v-1.82c-.26.02-.59.06-.99.1s-.72.1-.97.17c-.29.09-.54.23-.73.41s-.29.44-.29.78c0,.38.11.66.32.85s.52.29.93.29c.35,0,.66-.07.94-.22s.54-.34.79-.55Z"/>
  </g>
  <g>
    <circle class="cls-2" cx="264.29" cy="66.35" r="13.56"/>
    <path class="cls-4" d="M267.26,66.52c0,1.07-.26,1.93-.78,2.58s-1.17.98-1.95.98c-.36,0-.66-.04-.91-.13s-.5-.21-.75-.36l-.07.3h-1.03v-9.12h1.1v3.26c.28-.25.58-.46.9-.62s.69-.25,1.1-.25c.74,0,1.32.3,1.75.89s.64,1.41.64,2.46ZM266.12,66.61c0-.78-.12-1.37-.36-1.78s-.62-.61-1.15-.61c-.3,0-.6.07-.91.21s-.58.32-.83.53v3.75c.28.14.52.23.74.29s.45.08.71.08c.56,0,1-.2,1.32-.6s.48-1.03.48-1.89Z"/>
  </g>
  <g>
    <circle class="cls-2" cx="264.29" cy="106.87" r="13.56"/>
    <g>
      <path class="cls-4" d="M261.9,110.42h-5.38v-1.22c.39-.37.75-.72,1.1-1.05s.68-.69,1.01-1.05c.66-.73,1.12-1.32,1.36-1.75s.36-.89.36-1.36c0-.24-.04-.46-.11-.64s-.18-.34-.31-.46c-.14-.12-.29-.21-.47-.26s-.38-.09-.59-.09-.42.03-.63.08-.42.12-.61.2c-.16.07-.32.15-.47.24s-.28.17-.37.24h-.06v-1.24c.24-.12.58-.24,1.01-.35s.84-.17,1.23-.17c.81,0,1.45.22,1.91.65s.69,1.02.69,1.75c0,.34-.04.65-.12.94s-.19.56-.33.8c-.14.25-.32.51-.52.76s-.42.5-.64.74c-.37.4-.78.81-1.23,1.24s-.81.77-1.08,1.02h4.29v1Z"/>
      <path class="cls-4" d="M265.36,108.75l-1.64,3.84h-.86l1.03-3.84h1.46Z"/>
      <path class="cls-4" d="M272.35,107.03c0,1.07-.26,1.93-.78,2.58s-1.17.98-1.95.98c-.36,0-.66-.04-.91-.13s-.5-.21-.75-.35l-.07.3h-1.03v-9.12h1.1v3.26c.28-.25.58-.46.9-.62s.69-.25,1.1-.25c.74,0,1.32.3,1.75.89s.64,1.41.64,2.46ZM271.21,107.12c0-.78-.12-1.37-.36-1.78s-.62-.61-1.15-.61c-.3,0-.6.07-.91.21s-.58.32-.83.53v3.75c.28.14.52.23.74.29s.45.08.71.08c.56,0,1-.2,1.32-.6s.48-1.03.48-1.89Z"/>
    </g>
  </g>
  <g>
    <circle class="cls-2" cx="292.93" cy="66.35" r="13.56"/>
    <path class="cls-4" d="M293.56,70.05c-.45,0-.86-.07-1.24-.21s-.7-.35-.97-.63-.48-.63-.63-1.06-.22-.93-.22-1.51.08-1.07.23-1.49.36-.77.62-1.05.58-.5.96-.66.8-.23,1.24-.23c.36,0,.71.05,1.04.15s.63.22.89.35v1.24h-.06c-.08-.07-.18-.14-.3-.23s-.27-.17-.45-.26c-.15-.08-.33-.15-.54-.21s-.41-.09-.6-.09c-.57,0-1.03.22-1.37.65s-.52,1.04-.52,1.83.17,1.38.5,1.81.8.65,1.39.65c.36,0,.7-.07,1.03-.22s.61-.34.86-.57h.06v1.24c-.11.05-.25.11-.41.19s-.31.12-.45.16c-.19.05-.36.1-.5.13s-.34.04-.57.04Z"/>
  </g>
  <g>
    <circle class="cls-2" cx="292.93" cy="106.87" r="13.56"/>
    <g>
      <path class="cls-4" d="M291.09,110.42h-5.38v-1.22c.39-.37.75-.72,1.1-1.05s.68-.69,1.01-1.05c.66-.73,1.12-1.32,1.36-1.75s.36-.89.36-1.36c0-.24-.04-.46-.11-.64s-.18-.34-.31-.46c-.14-.12-.29-.21-.47-.26s-.38-.09-.59-.09-.42.03-.63.08-.42.12-.61.2c-.16.07-.32.15-.47.24s-.28.17-.37.24h-.06v-1.24c.24-.12.58-.24,1.01-.35s.84-.17,1.23-.17c.81,0,1.45.22,1.91.65s.69,1.02.69,1.75c0,.34-.04.65-.12.94s-.19.56-.33.8c-.14.25-.32.51-.52.76s-.42.5-.64.74c-.37.4-.78.81-1.23,1.24s-.81.77-1.08,1.02h4.29v1Z"/>
      <path class="cls-4" d="M294.55,108.75l-1.64,3.84h-.86l1.03-3.84h1.46Z"/>
      <path class="cls-4" d="M298.65,110.56c-.45,0-.86-.07-1.24-.21s-.7-.35-.97-.63-.48-.64-.63-1.06-.22-.93-.22-1.51.08-1.07.23-1.49.36-.77.62-1.05.58-.5.96-.66.8-.23,1.24-.23c.36,0,.71.05,1.04.15s.63.22.89.35v1.24h-.06c-.08-.07-.18-.14-.3-.23s-.27-.17-.45-.26c-.15-.08-.33-.15-.54-.21s-.41-.09-.6-.09c-.57,0-1.03.22-1.37.65s-.52,1.04-.52,1.83.17,1.38.5,1.81.8.65,1.39.65c.36,0,.7-.07,1.03-.22s.61-.34.86-.57h.06v1.24c-.11.05-.25.11-.41.18s-.31.13-.45.16c-.19.05-.36.1-.5.13s-.34.04-.57.04Z"/>
    </g>
  </g>
  <g>
    <circle class="cls-3" cx="326.16" cy="106.87" r="13.56"/>
    <g>
      <path class="cls-4" d="M321.29,102.52c-.21,0-.42.03-.63.08s-.42.12-.62.2c-.19.08-.35.16-.49.25s-.26.17-.37.24h-.07v-1.24c.25-.14.6-.26,1.03-.37s.85-.17,1.25-.17.74.04,1.03.12.56.2.8.37c.26.19.45.41.58.68s.2.58.2.93c0,.48-.16.9-.47,1.27s-.7.59-1.14.69v.08c.18.04.38.1.59.18s.4.21.58.38.33.38.44.65.17.58.17.96-.07.76-.2,1.09-.33.62-.57.88c-.25.27-.56.47-.92.6s-.77.21-1.22.21-.87-.05-1.3-.16-.79-.23-1.08-.38v-1.24h.08c.25.18.58.35.99.52s.83.25,1.24.25c.24,0,.48-.04.72-.11s.44-.2.6-.37c.16-.17.28-.36.36-.57s.12-.47.12-.79-.05-.58-.14-.78-.22-.36-.38-.48-.36-.2-.58-.24-.47-.07-.73-.07h-.5v-.97h.39c.53,0,.96-.12,1.29-.38s.5-.61.5-1.09c0-.22-.04-.41-.13-.57s-.2-.28-.33-.38c-.15-.1-.31-.17-.49-.21s-.37-.06-.57-.06Z"/>
      <path class="cls-4" d="M327.78,108.75l-1.64,3.84h-.86l1.03-3.84h1.46Z"/>
      <path class="cls-4" d="M331.88,110.56c-.45,0-.86-.07-1.24-.21s-.7-.35-.97-.63-.48-.64-.63-1.06-.22-.93-.22-1.51.08-1.07.23-1.49.36-.77.62-1.05.58-.5.96-.66.8-.23,1.24-.23c.36,0,.71.05,1.04.15s.63.22.89.35v1.24h-.06c-.08-.07-.18-.14-.3-.23s-.27-.17-.45-.26c-.15-.08-.33-.15-.54-.21s-.41-.09-.6-.09c-.57,0-1.03.22-1.37.65s-.52,1.04-.52,1.83.17,1.38.5,1.81.8.65,1.39.65c.36,0,.7-.07,1.03-.22s.61-.34.86-.57h.06v1.24c-.11.05-.25.11-.41.18s-.31.13-.45.16c-.19.05-.36.1-.5.13s-.34.04-.57.04Z"/>
    </g>
  </g>
</svg>