<?xml version="1.0" encoding="UTF-8"?>
<svg id="Layer_1" data-name="Layer 1" xmlns="http://www.w3.org/2000/svg" viewBox="0 0 380.07 256.33">
  <defs>
    <style>
      .cls-1 {
        fill: #f0ff8b;
      }

      .cls-1, .cls-2, .cls-3, .cls-4, .cls-5 {
        stroke: #000;
        stroke-miterlimit: 10;
      }

      .cls-2 {
        fill: none;
      }

      .cls-3 {
        fill: #ff8b8b;
      }

      .cls-6 {
        stroke-width: 0px;
      }

      .cls-4 {
        fill: #8be2ff;
      }

      .cls-5 {
        fill: #8bffbc;
      }
    </style>
  </defs>
  <g>
    <path class="cls-6" d="M33.67,24.68c0,.21-.04.39-.11.56s-.17.31-.29.44-.26.24-.42.33-.33.16-.51.22-.37.1-.56.13-.38.04-.56.04c-.4,0-.76-.02-1.1-.05s-.66-.09-.98-.17v-.94c.34.1.69.17,1.03.22s.68.08,1.01.08c.49,0,.85-.07,1.08-.2s.35-.32.35-.57c0-.11-.02-.2-.06-.28s-.1-.16-.2-.24-.25-.16-.45-.24-.49-.18-.84-.28c-.27-.08-.51-.17-.74-.27s-.42-.22-.58-.35-.29-.3-.39-.48-.14-.4-.14-.65c0-.16.04-.34.11-.54s.21-.38.39-.54.43-.31.74-.42.7-.17,1.17-.17c.23,0,.49.01.77.04s.57.07.88.13v.91c-.32-.08-.62-.14-.91-.17s-.54-.06-.75-.06c-.25,0-.47.02-.64.06s-.31.09-.42.16-.18.15-.23.24-.07.19-.07.3.02.2.06.29.12.17.23.25.27.16.47.24.46.17.78.26c.35.1.64.21.88.32s.43.24.58.37.25.29.32.46.1.37.1.59Z"/>
    <path class="cls-6" d="M40.57,23.03c0,.14,0,.27,0,.36s0,.19-.02.28h-4.13c0,.6.17,1.06.5,1.39s.82.48,1.45.48c.17,0,.34,0,.52-.02s.34-.03.5-.06.31-.05.46-.08.28-.06.41-.1v.84c-.28.08-.59.14-.94.19s-.71.07-1.09.07c-.5,0-.94-.07-1.3-.21s-.66-.33-.89-.59-.4-.58-.52-.96-.17-.8-.17-1.28c0-.41.06-.81.18-1.17s.29-.69.52-.97.51-.5.84-.67.71-.25,1.13-.25.77.06,1.09.19.58.31.8.55.38.52.49.86.17.72.17,1.13ZM39.51,22.89c.01-.26-.01-.5-.08-.72s-.16-.4-.29-.56-.29-.28-.49-.37-.42-.13-.68-.13c-.22,0-.43.04-.61.13s-.34.21-.47.36-.24.34-.32.56-.13.46-.15.72h3.09Z"/>
    <path class="cls-6" d="M45.98,26.29l-.02-.79c-.32.32-.65.54-.98.69s-.68.21-1.04.21c-.34,0-.62-.04-.86-.13s-.43-.2-.59-.35-.27-.33-.34-.53-.11-.42-.11-.66c0-.59.22-1.05.66-1.39s1.09-.5,1.95-.5h1.22v-.52c0-.35-.11-.63-.33-.83s-.56-.31-1.02-.31c-.33,0-.66.04-.98.11s-.66.18-1,.32v-.92c.13-.05.27-.09.43-.14s.33-.08.5-.12.36-.06.55-.08.38-.03.58-.03c.36,0,.68.04.96.12s.53.2.72.36.35.36.45.6.16.53.16.86v4.05h-.91ZM45.87,23.61h-1.29c-.25,0-.47.03-.66.08s-.33.12-.45.22-.2.21-.26.34-.08.28-.08.44c0,.11.02.22.05.33s.09.2.17.28.18.14.3.19.28.07.46.07c.23,0,.5-.07.81-.21s.62-.37.96-.68v-1.04Z"/>
    <path class="cls-6" d="M49.04,20.4h.93l.03,1.08c.35-.42.69-.72,1.03-.91s.68-.28,1.02-.28c.61,0,1.07.2,1.39.59s.46.98.44,1.76h-1.03c.01-.52-.06-.89-.23-1.12s-.4-.35-.71-.35c-.14,0-.27.02-.41.07s-.28.13-.43.23-.3.25-.47.41-.34.37-.53.61v3.78h-1.03v-5.88Z"/>
    <path class="cls-6" d="M59.97,26.07c-.27.1-.54.18-.82.23s-.57.07-.86.07c-.93,0-1.65-.25-2.15-.76s-.75-1.24-.75-2.21c0-.46.07-.89.22-1.27s.35-.7.61-.97.57-.48.94-.62.76-.22,1.2-.22c.3,0,.59.02.86.06s.52.11.76.21v.97c-.25-.13-.51-.23-.78-.29s-.54-.09-.82-.09c-.26,0-.51.05-.74.15s-.44.24-.61.43-.31.42-.42.69-.15.57-.15.91c0,.71.17,1.24.52,1.6s.83.53,1.44.53c.28,0,.55-.03.81-.09s.51-.16.75-.28v.95Z"/>
    <path class="cls-6" d="M66.73,26.29h-1.02v-3.76c0-.45-.08-.79-.25-1.02s-.41-.34-.73-.34c-.14,0-.26.02-.38.06s-.24.1-.37.19-.27.22-.42.37-.33.35-.53.59v3.9h-1.02v-8.28h1.02v2.4l-.04.93c.16-.19.32-.35.47-.48s.31-.24.46-.32.31-.14.47-.18.33-.05.5-.05c.59,0,1.04.18,1.36.54s.48.9.48,1.61v3.84Z"/>
    <path class="cls-6" d="M74.23,18.63l-2.6,7.66h-1.41l-2.54-7.66h1.18l1.65,5.16.47,1.51.48-1.51,1.66-5.16h1.11Z"/>
    <path class="cls-6" d="M78.97,26.29l-.02-.79c-.32.32-.65.54-.98.69s-.68.21-1.04.21c-.34,0-.62-.04-.86-.13s-.43-.2-.59-.35-.27-.33-.34-.53-.11-.42-.11-.66c0-.59.22-1.05.66-1.39s1.09-.5,1.95-.5h1.22v-.52c0-.35-.11-.63-.33-.83s-.56-.31-1.02-.31c-.33,0-.66.04-.98.11s-.66.18-1,.32v-.92c.13-.05.27-.09.43-.14s.33-.08.5-.12.36-.06.55-.08.38-.03.58-.03c.36,0,.68.04.96.12s.53.2.72.36.35.36.45.6.16.53.16.86v4.05h-.91ZM78.86,23.61h-1.29c-.25,0-.47.03-.66.08s-.33.12-.45.22-.2.21-.26.34-.08.28-.08.44c0,.11.02.22.05.33s.09.2.17.28.18.14.3.19.28.07.46.07c.23,0,.5-.07.81-.21s.62-.37.96-.68v-1.04Z"/>
    <path class="cls-6" d="M83.79,18.85h-1.74v-.84h2.77v7.43h1.75v.85h-4.72v-.85h1.93v-6.59Z"/>
    <path class="cls-6" d="M93.12,26.29h-.91l-.04-.95c-.18.2-.34.37-.5.51s-.32.24-.47.33-.31.14-.47.17-.33.05-.5.05c-.61,0-1.06-.18-1.37-.53s-.46-.89-.46-1.61v-3.84h1.02v3.76c0,.9.34,1.35,1.02,1.35.12,0,.25-.02.37-.06s.24-.1.38-.19.27-.22.42-.37.32-.35.51-.59v-3.9h1.02v5.88Z"/>
    <path class="cls-6" d="M99.95,23.03c0,.14,0,.27,0,.36s0,.19-.02.28h-4.13c0,.6.17,1.06.5,1.39s.82.48,1.45.48c.17,0,.34,0,.52-.02s.34-.03.5-.06.31-.05.46-.08.28-.06.41-.1v.84c-.28.08-.59.14-.94.19s-.71.07-1.09.07c-.5,0-.94-.07-1.3-.21s-.66-.33-.89-.59-.4-.58-.52-.96-.17-.8-.17-1.28c0-.41.06-.81.18-1.17s.29-.69.52-.97.51-.5.84-.67.71-.25,1.13-.25.77.06,1.09.19.58.31.8.55.38.52.49.86.17.72.17,1.13ZM98.89,22.89c.01-.26-.01-.5-.08-.72s-.16-.4-.29-.56-.29-.28-.49-.37-.42-.13-.68-.13c-.22,0-.43.04-.61.13s-.34.21-.47.36-.24.34-.32.56-.13.46-.15.72h3.09Z"/>
    <path class="cls-6" d="M106.24,24.68c0,.21-.04.39-.11.56s-.17.31-.29.44-.26.24-.42.33-.33.16-.51.22-.37.1-.56.13-.38.04-.56.04c-.4,0-.76-.02-1.1-.05s-.66-.09-.98-.17v-.94c.34.1.69.17,1.03.22s.68.08,1.01.08c.49,0,.85-.07,1.08-.2s.35-.32.35-.57c0-.11-.02-.2-.06-.28s-.1-.16-.2-.24-.25-.16-.45-.24-.49-.18-.84-.28c-.27-.08-.51-.17-.74-.27s-.42-.22-.58-.35-.29-.3-.39-.48-.14-.4-.14-.65c0-.16.04-.34.11-.54s.21-.38.39-.54.43-.31.74-.42.7-.17,1.17-.17c.23,0,.49.01.77.04s.57.07.88.13v.91c-.32-.08-.62-.14-.91-.17s-.54-.06-.75-.06c-.25,0-.47.02-.64.06s-.31.09-.42.16-.18.15-.23.24-.07.19-.07.3.02.2.06.29.12.17.23.25.27.16.47.24.46.17.78.26c.35.1.64.21.88.32s.43.24.58.37.25.29.32.46.1.37.1.59Z"/>
    <path class="cls-6" d="M110.54,20.3c.12,0,.24.02.35.07s.21.11.29.2.15.18.2.29.07.22.07.35-.02.24-.07.35-.11.2-.2.28-.18.15-.29.19-.22.07-.35.07-.24-.02-.35-.07-.2-.11-.28-.19-.15-.18-.19-.28-.07-.22-.07-.35.02-.24.07-.35.11-.21.19-.29.18-.15.28-.2.22-.07.35-.07ZM110.54,24.59c.12,0,.24.02.35.07s.21.11.29.2.15.18.2.29.07.22.07.35-.02.24-.07.35-.11.2-.2.28-.18.15-.29.19-.22.07-.35.07-.24-.02-.35-.07-.2-.11-.28-.19-.15-.18-.19-.28-.07-.22-.07-.35.02-.24.07-.35.11-.21.19-.29.18-.15.28-.2.22-.07.35-.07Z"/>
  </g>
  <g>
    <path class="cls-6" d="M29.25,62.19h.93l.03,1.08c.35-.42.69-.72,1.03-.91s.68-.28,1.02-.28c.61,0,1.07.2,1.39.59s.46.98.44,1.76h-1.03c.01-.52-.06-.89-.23-1.12s-.4-.35-.71-.35c-.14,0-.27.02-.41.07s-.28.13-.43.23-.3.25-.47.41-.34.37-.53.61v3.78h-1.03v-5.88Z"/>
    <path class="cls-6" d="M40.57,64.82c0,.14,0,.27,0,.36s0,.19-.02.28h-4.13c0,.6.17,1.06.5,1.39s.82.48,1.45.48c.17,0,.34,0,.52-.02s.34-.03.5-.06.31-.05.46-.08.28-.06.41-.1v.84c-.28.08-.59.14-.94.19s-.71.07-1.09.07c-.5,0-.94-.07-1.3-.21s-.66-.33-.89-.59-.4-.58-.52-.96-.17-.8-.17-1.28c0-.41.06-.81.18-1.17s.29-.69.52-.97.51-.5.84-.67.71-.25,1.13-.25.77.06,1.09.19.58.31.8.55.38.52.49.86.17.72.17,1.13ZM39.51,64.67c.01-.26-.01-.5-.08-.72s-.16-.4-.29-.56-.29-.28-.49-.37-.42-.13-.68-.13c-.22,0-.43.04-.61.13s-.34.21-.47.36-.24.34-.32.56-.13.46-.15.72h3.09Z"/>
    <path class="cls-6" d="M46.86,66.46c0,.21-.04.39-.11.56s-.17.31-.29.44-.26.24-.42.33-.33.16-.51.22-.37.1-.56.13-.38.04-.56.04c-.4,0-.76-.02-1.1-.05s-.66-.09-.98-.17v-.94c.34.1.69.17,1.03.22s.68.08,1.01.08c.49,0,.85-.07,1.08-.2s.35-.32.35-.57c0-.11-.02-.2-.06-.28s-.1-.16-.2-.24-.25-.16-.45-.24-.49-.18-.84-.28c-.27-.08-.51-.17-.74-.27s-.42-.22-.58-.35-.29-.3-.39-.48-.14-.4-.14-.65c0-.16.04-.34.11-.54s.21-.38.39-.54.43-.31.74-.42.7-.17,1.17-.17c.23,0,.49.01.77.04s.57.07.88.13v.91c-.32-.08-.62-.14-.91-.17s-.54-.06-.75-.06c-.25,0-.47.02-.64.06s-.31.09-.42.16-.18.15-.23.24-.07.19-.07.3.02.2.06.29.12.17.23.25.27.16.47.24.46.17.78.26c.35.1.64.21.88.32s.43.24.58.37.25.29.32.46.1.37.1.59Z"/>
    <path class="cls-6" d="M53.53,68.07h-.91l-.04-.95c-.18.2-.34.37-.5.51s-.32.24-.47.33-.31.14-.47.17-.33.05-.5.05c-.61,0-1.06-.18-1.37-.53s-.46-.89-.46-1.61v-3.84h1.02v3.76c0,.9.34,1.35,1.02,1.35.12,0,.25-.02.37-.06s.24-.1.38-.19.27-.22.42-.37.32-.35.51-.59v-3.9h1.02v5.88Z"/>
    <path class="cls-6" d="M57.4,60.63h-1.74v-.84h2.77v7.43h1.75v.85h-4.72v-.85h1.93v-6.59Z"/>
    <path class="cls-6" d="M66.74,67.99c-.23.06-.47.1-.71.13s-.5.04-.75.04c-.74,0-1.29-.17-1.65-.5s-.54-.85-.54-1.54v-3.07h-1.65v-.86h1.65v-1.62l1.02-.26v1.88h2.64v.86h-2.64v2.99c0,.42.11.74.34.95s.56.31.99.31c.19,0,.39-.01.62-.04s.46-.08.7-.14v.88Z"/>
    <path class="cls-6" d="M73.25,66.46c0,.21-.04.39-.11.56s-.17.31-.29.44-.26.24-.42.33-.33.16-.51.22-.37.1-.56.13-.38.04-.56.04c-.4,0-.76-.02-1.1-.05s-.66-.09-.98-.17v-.94c.34.1.69.17,1.03.22s.68.08,1.01.08c.49,0,.85-.07,1.08-.2s.35-.32.35-.57c0-.11-.02-.2-.06-.28s-.1-.16-.2-.24-.25-.16-.45-.24-.49-.18-.84-.28c-.27-.08-.51-.17-.74-.27s-.42-.22-.58-.35-.29-.3-.39-.48-.14-.4-.14-.65c0-.16.04-.34.11-.54s.21-.38.39-.54.43-.31.74-.42.7-.17,1.17-.17c.23,0,.49.01.77.04s.57.07.88.13v.91c-.32-.08-.62-.14-.91-.17s-.54-.06-.75-.06c-.25,0-.47.02-.64.06s-.31.09-.42.16-.18.15-.23.24-.07.19-.07.3.02.2.06.29.12.17.23.25.27.16.47.24.46.17.78.26c.35.1.64.21.88.32s.43.24.58.37.25.29.32.46.1.37.1.59Z"/>
    <path class="cls-6" d="M85.31,70.53c-1.8-1.67-2.7-3.51-2.7-5.53,0-.47.05-.94.14-1.42s.25-.94.46-1.42.49-.95.84-1.42.77-.94,1.27-1.41l.59.6c-1.52,1.5-2.27,3.15-2.27,4.97,0,.91.19,1.78.57,2.61s.95,1.62,1.7,2.37l-.62.63Z"/>
    <path class="cls-6" d="M90.22,61.29h-1.76v-.88h4.58v.88h-1.76v5.89h1.76v.89h-4.58v-.89h1.76v-5.89Z"/>
    <path class="cls-6" d="M96.19,59.34c1.8,1.67,2.7,3.52,2.7,5.57,0,.42-.04.86-.13,1.31s-.23.92-.44,1.39-.49.96-.83,1.44-.79.98-1.32,1.47l-.59-.6c.76-.75,1.33-1.54,1.71-2.36s.56-1.68.56-2.58c0-1.86-.76-3.53-2.27-5.02l.62-.63Z"/>
    <path class="cls-6" d="M103.94,62.08c.12,0,.24.02.35.07s.21.11.29.2.15.18.2.29.07.22.07.35-.02.24-.07.35-.11.2-.2.28-.18.15-.29.19-.22.07-.35.07-.24-.02-.35-.07-.2-.11-.28-.19-.15-.18-.19-.28-.07-.22-.07-.35.02-.24.07-.35.11-.21.19-.29.18-.15.28-.2.22-.07.35-.07ZM103.94,66.38c.12,0,.24.02.35.07s.21.11.29.2.15.18.2.29.07.22.07.35-.02.24-.07.35-.11.2-.2.28-.18.15-.29.19-.22.07-.35.07-.24-.02-.35-.07-.2-.11-.28-.19-.15-.18-.19-.28-.07-.22-.07-.35.02-.24.07-.35.11-.21.19-.29.18-.15.28-.2.22-.07.35-.07Z"/>
  </g>
  <g>
    <path class="cls-6" d="M29.25,102.9h.93l.03,1.08c.35-.42.69-.72,1.03-.91s.68-.28,1.02-.28c.61,0,1.07.2,1.39.59s.46.98.44,1.76h-1.03c.01-.52-.06-.89-.23-1.12s-.4-.35-.71-.35c-.14,0-.27.02-.41.07s-.28.13-.43.23-.3.25-.47.41-.34.37-.53.61v3.78h-1.03v-5.88Z"/>
    <path class="cls-6" d="M40.57,105.53c0,.14,0,.27,0,.36s0,.19-.02.28h-4.13c0,.6.17,1.06.5,1.39s.82.48,1.45.48c.17,0,.34,0,.52-.02s.34-.03.5-.06.31-.05.46-.08.28-.06.41-.1v.84c-.28.08-.59.14-.94.19s-.71.07-1.09.07c-.5,0-.94-.07-1.3-.21s-.66-.33-.89-.59-.4-.58-.52-.96-.17-.8-.17-1.28c0-.41.06-.81.18-1.17s.29-.69.52-.97.51-.5.84-.67.71-.25,1.13-.25.77.06,1.09.19.58.31.8.55.38.52.49.86.17.72.17,1.13ZM39.51,105.39c.01-.26-.01-.5-.08-.72s-.16-.4-.29-.56-.29-.28-.49-.37-.42-.13-.68-.13c-.22,0-.43.04-.61.13s-.34.21-.47.36-.24.34-.32.56-.13.46-.15.72h3.09Z"/>
    <path class="cls-6" d="M46.86,107.18c0,.21-.04.39-.11.56s-.17.31-.29.44-.26.24-.42.33-.33.16-.51.22-.37.1-.56.13-.38.04-.56.04c-.4,0-.76-.02-1.1-.05s-.66-.09-.98-.17v-.94c.34.1.69.17,1.03.22s.68.08,1.01.08c.49,0,.85-.07,1.08-.2s.35-.32.35-.57c0-.11-.02-.2-.06-.28s-.1-.16-.2-.24-.25-.16-.45-.24-.49-.18-.84-.28c-.27-.08-.51-.17-.74-.27s-.42-.22-.58-.35-.29-.3-.39-.48-.14-.4-.14-.65c0-.16.04-.34.11-.54s.21-.38.39-.54.43-.31.74-.42.7-.17,1.17-.17c.23,0,.49.01.77.04s.57.07.88.13v.91c-.32-.08-.62-.14-.91-.17s-.54-.06-.75-.06c-.25,0-.47.02-.64.06s-.31.09-.42.16-.18.15-.23.24-.07.19-.07.3.02.2.06.29.12.17.23.25.27.16.47.24.46.17.78.26c.35.1.64.21.88.32s.43.24.58.37.25.29.32.46.1.37.1.59Z"/>
    <path class="cls-6" d="M53.53,108.79h-.91l-.04-.95c-.18.2-.34.37-.5.51s-.32.24-.47.33-.31.14-.47.17-.33.05-.5.05c-.61,0-1.06-.18-1.37-.53s-.46-.89-.46-1.61v-3.84h1.02v3.76c0,.9.34,1.35,1.02,1.35.12,0,.25-.02.37-.06s.24-.1.38-.19.27-.22.42-.37.32-.35.51-.59v-3.9h1.02v5.88Z"/>
    <path class="cls-6" d="M57.4,101.35h-1.74v-.84h2.77v7.43h1.75v.85h-4.72v-.85h1.93v-6.59Z"/>
    <path class="cls-6" d="M66.74,108.7c-.23.06-.47.1-.71.13s-.5.04-.75.04c-.74,0-1.29-.17-1.65-.5s-.54-.85-.54-1.54v-3.07h-1.65v-.86h1.65v-1.62l1.02-.26v1.88h2.64v.86h-2.64v2.99c0,.42.11.74.34.95s.56.31.99.31c.19,0,.39-.01.62-.04s.46-.08.7-.14v.88Z"/>
    <path class="cls-6" d="M73.25,107.18c0,.21-.04.39-.11.56s-.17.31-.29.44-.26.24-.42.33-.33.16-.51.22-.37.1-.56.13-.38.04-.56.04c-.4,0-.76-.02-1.1-.05s-.66-.09-.98-.17v-.94c.34.1.69.17,1.03.22s.68.08,1.01.08c.49,0,.85-.07,1.08-.2s.35-.32.35-.57c0-.11-.02-.2-.06-.28s-.1-.16-.2-.24-.25-.16-.45-.24-.49-.18-.84-.28c-.27-.08-.51-.17-.74-.27s-.42-.22-.58-.35-.29-.3-.39-.48-.14-.4-.14-.65c0-.16.04-.34.11-.54s.21-.38.39-.54.43-.31.74-.42.7-.17,1.17-.17c.23,0,.49.01.77.04s.57.07.88.13v.91c-.32-.08-.62-.14-.91-.17s-.54-.06-.75-.06c-.25,0-.47.02-.64.06s-.31.09-.42.16-.18.15-.23.24-.07.19-.07.3.02.2.06.29.12.17.23.25.27.16.47.24.46.17.78.26c.35.1.64.21.88.32s.43.24.58.37.25.29.32.46.1.37.1.59Z"/>
    <path class="cls-6" d="M85.31,111.25c-1.8-1.67-2.7-3.51-2.7-5.53,0-.47.05-.94.14-1.42s.25-.94.46-1.42.49-.95.84-1.42.77-.94,1.27-1.41l.59.6c-1.52,1.5-2.27,3.15-2.27,4.97,0,.91.19,1.78.57,2.61s.95,1.62,1.7,2.37l-.62.63Z"/>
    <path class="cls-6" d="M90.22,102.01h-1.76v-.88h4.58v.88h-1.76v5.89h1.76v.89h-4.58v-.89h1.76v-5.89Z"/>
    <path class="cls-6" d="M94.98,102.9h.91l.04.95c.17-.2.34-.37.5-.51s.32-.24.47-.33.31-.14.47-.17.33-.05.5-.05c.61,0,1.06.18,1.37.54s.47.9.47,1.61v3.84h-1.02v-3.76c0-.46-.09-.8-.26-1.02s-.43-.33-.77-.33c-.12,0-.25.02-.37.06s-.24.1-.37.19-.27.22-.42.37-.32.35-.51.59v3.9h-1.02v-5.88Z"/>
    <path class="cls-6" d="M102.78,100.06c1.8,1.67,2.7,3.52,2.7,5.57,0,.42-.04.86-.13,1.31s-.23.92-.44,1.39-.49.96-.83,1.44-.79.98-1.32,1.47l-.59-.6c.76-.75,1.33-1.54,1.71-2.36s.56-1.68.56-2.58c0-1.86-.76-3.53-2.27-5.02l.62-.63Z"/>
    <path class="cls-6" d="M110.54,102.8c.12,0,.24.02.35.07s.21.11.29.2.15.18.2.29.07.22.07.35-.02.24-.07.35-.11.2-.2.28-.18.15-.29.19-.22.07-.35.07-.24-.02-.35-.07-.2-.11-.28-.19-.15-.18-.19-.28-.07-.22-.07-.35.02-.24.07-.35.11-.21.19-.29.18-.15.28-.2.22-.07.35-.07ZM110.54,107.09c.12,0,.24.02.35.07s.21.11.29.2.15.18.2.29.07.22.07.35-.02.24-.07.35-.11.2-.2.28-.18.15-.29.19-.22.07-.35.07-.24-.02-.35-.07-.2-.11-.28-.19-.15-.18-.19-.28-.07-.22-.07-.35.02-.24.07-.35.11-.21.19-.29.18-.15.28-.2.22-.07.35-.07Z"/>
  </g>
  <g>
    <path class="cls-6" d="M29.25,136.99h.93l.03,1.08c.35-.42.69-.72,1.03-.91s.68-.28,1.02-.28c.61,0,1.07.2,1.39.59s.46.98.44,1.76h-1.03c.01-.52-.06-.89-.23-1.12s-.4-.35-.71-.35c-.14,0-.27.02-.41.07s-.28.13-.43.23-.3.25-.47.41-.34.37-.53.61v3.78h-1.03v-5.88Z"/>
    <path class="cls-6" d="M40.57,139.62c0,.14,0,.27,0,.36s0,.19-.02.28h-4.13c0,.6.17,1.06.5,1.39s.82.48,1.45.48c.17,0,.34,0,.52-.02s.34-.03.5-.06.31-.05.46-.08.28-.06.41-.1v.84c-.28.08-.59.14-.94.19s-.71.07-1.09.07c-.5,0-.94-.07-1.3-.21s-.66-.33-.89-.59-.4-.58-.52-.96-.17-.8-.17-1.28c0-.41.06-.81.18-1.17s.29-.69.52-.97.51-.5.84-.67.71-.25,1.13-.25.77.06,1.09.19.58.31.8.55.38.52.49.86.17.72.17,1.13ZM39.51,139.47c.01-.26-.01-.5-.08-.72s-.16-.4-.29-.56-.29-.28-.49-.37-.42-.13-.68-.13c-.22,0-.43.04-.61.13s-.34.21-.47.36-.24.34-.32.56-.13.46-.15.72h3.09Z"/>
    <path class="cls-6" d="M46.86,141.26c0,.21-.04.39-.11.56s-.17.31-.29.44-.26.24-.42.33-.33.16-.51.22-.37.1-.56.13-.38.04-.56.04c-.4,0-.76-.02-1.1-.05s-.66-.09-.98-.17v-.94c.34.1.69.17,1.03.22s.68.08,1.01.08c.49,0,.85-.07,1.08-.2s.35-.32.35-.57c0-.11-.02-.2-.06-.28s-.1-.16-.2-.24-.25-.16-.45-.24-.49-.18-.84-.28c-.27-.08-.51-.17-.74-.27s-.42-.22-.58-.35-.29-.3-.39-.48-.14-.4-.14-.65c0-.16.04-.34.11-.54s.21-.38.39-.54.43-.31.74-.42.7-.17,1.17-.17c.23,0,.49.01.77.04s.57.07.88.13v.91c-.32-.08-.62-.14-.91-.17s-.54-.06-.75-.06c-.25,0-.47.02-.64.06s-.31.09-.42.16-.18.15-.23.24-.07.19-.07.3.02.2.06.29.12.17.23.25.27.16.47.24.46.17.78.26c.35.1.64.21.88.32s.43.24.58.37.25.29.32.46.1.37.1.59Z"/>
    <path class="cls-6" d="M53.53,142.87h-.91l-.04-.95c-.18.2-.34.37-.5.51s-.32.24-.47.33-.31.14-.47.17-.33.05-.5.05c-.61,0-1.06-.18-1.37-.53s-.46-.89-.46-1.61v-3.84h1.02v3.76c0,.9.34,1.35,1.02,1.35.12,0,.25-.02.37-.06s.24-.1.38-.19.27-.22.42-.37.32-.35.51-.59v-3.9h1.02v5.88Z"/>
    <path class="cls-6" d="M57.4,135.43h-1.74v-.84h2.77v7.43h1.75v.85h-4.72v-.85h1.93v-6.59Z"/>
    <path class="cls-6" d="M66.74,142.79c-.23.06-.47.1-.71.13s-.5.04-.75.04c-.74,0-1.29-.17-1.65-.5s-.54-.85-.54-1.54v-3.07h-1.65v-.86h1.65v-1.62l1.02-.26v1.88h2.64v.86h-2.64v2.99c0,.42.11.74.34.95s.56.31.99.31c.19,0,.39-.01.62-.04s.46-.08.7-.14v.88Z"/>
    <path class="cls-6" d="M73.25,141.26c0,.21-.04.39-.11.56s-.17.31-.29.44-.26.24-.42.33-.33.16-.51.22-.37.1-.56.13-.38.04-.56.04c-.4,0-.76-.02-1.1-.05s-.66-.09-.98-.17v-.94c.34.1.69.17,1.03.22s.68.08,1.01.08c.49,0,.85-.07,1.08-.2s.35-.32.35-.57c0-.11-.02-.2-.06-.28s-.1-.16-.2-.24-.25-.16-.45-.24-.49-.18-.84-.28c-.27-.08-.51-.17-.74-.27s-.42-.22-.58-.35-.29-.3-.39-.48-.14-.4-.14-.65c0-.16.04-.34.11-.54s.21-.38.39-.54.43-.31.74-.42.7-.17,1.17-.17c.23,0,.49.01.77.04s.57.07.88.13v.91c-.32-.08-.62-.14-.91-.17s-.54-.06-.75-.06c-.25,0-.47.02-.64.06s-.31.09-.42.16-.18.15-.23.24-.07.19-.07.3.02.2.06.29.12.17.23.25.27.16.47.24.46.17.78.26c.35.1.64.21.88.32s.43.24.58.37.25.29.32.46.1.37.1.59Z"/>
    <path class="cls-6" d="M85.31,145.33c-1.8-1.67-2.7-3.51-2.7-5.53,0-.47.05-.94.14-1.42s.25-.94.46-1.42.49-.95.84-1.42.77-.94,1.27-1.41l.59.6c-1.52,1.5-2.27,3.15-2.27,4.97,0,.91.19,1.78.57,2.61s.95,1.62,1.7,2.37l-.62.63Z"/>
    <path class="cls-6" d="M90.22,136.09h-1.76v-.88h4.58v.88h-1.76v5.89h1.76v.89h-4.58v-.89h1.76v-5.89Z"/>
    <path class="cls-6" d="M94.98,136.99h.91l.04.95c.17-.2.34-.37.5-.51s.32-.24.47-.33.31-.14.47-.17.33-.05.5-.05c.61,0,1.06.18,1.37.54s.47.9.47,1.61v3.84h-1.02v-3.76c0-.46-.09-.8-.26-1.02s-.43-.33-.77-.33c-.12,0-.25.02-.37.06s-.24.1-.37.19-.27.22-.42.37-.32.35-.51.59v3.9h-1.02v-5.88Z"/>
    <path class="cls-6" d="M106.32,142.79c-.23.06-.47.1-.71.13s-.5.04-.75.04c-.74,0-1.29-.17-1.65-.5s-.54-.85-.54-1.54v-3.07h-1.65v-.86h1.65v-1.62l1.02-.26v1.88h2.64v.86h-2.64v2.99c0,.42.11.74.34.95s.56.31.99.31c.19,0,.39-.01.62-.04s.46-.08.7-.14v.88Z"/>
    <path class="cls-6" d="M109.38,134.14c1.8,1.67,2.7,3.52,2.7,5.57,0,.42-.04.86-.13,1.31s-.23.92-.44,1.39-.49.96-.83,1.44-.79.98-1.32,1.47l-.59-.6c.76-.75,1.33-1.54,1.71-2.36s.56-1.68.56-2.58c0-1.86-.76-3.53-2.27-5.02l.62-.63Z"/>
    <path class="cls-6" d="M117.14,136.88c.12,0,.24.02.35.07s.21.11.29.2.15.18.2.29.07.22.07.35-.02.24-.07.35-.11.2-.2.28-.18.15-.29.19-.22.07-.35.07-.24-.02-.35-.07-.2-.11-.28-.19-.15-.18-.19-.28-.07-.22-.07-.35.02-.24.07-.35.11-.21.19-.29.18-.15.28-.2.22-.07.35-.07ZM117.14,141.18c.12,0,.24.02.35.07s.21.11.29.2.15.18.2.29.07.22.07.35-.02.24-.07.35-.11.2-.2.28-.18.15-.29.19-.22.07-.35.07-.24-.02-.35-.07-.2-.11-.28-.19-.15-.18-.19-.28-.07-.22-.07-.35.02-.24.07-.35.11-.21.19-.29.18-.15.28-.2.22-.07.35-.07Z"/>
  </g>
  <g>
    <path class="cls-6" d="M29.25,178.51h.93l.03,1.08c.35-.42.69-.72,1.03-.91s.68-.28,1.02-.28c.61,0,1.07.2,1.39.59s.46.98.44,1.76h-1.03c.01-.52-.06-.89-.23-1.12s-.4-.35-.71-.35c-.14,0-.27.02-.41.07s-.28.13-.43.23-.3.25-.47.41-.34.37-.53.61v3.78h-1.03v-5.88Z"/>
    <path class="cls-6" d="M40.57,181.14c0,.14,0,.27,0,.36s0,.19-.02.28h-4.13c0,.6.17,1.06.5,1.39s.82.48,1.45.48c.17,0,.34,0,.52-.02s.34-.03.5-.06.31-.05.46-.08.28-.06.41-.1v.84c-.28.08-.59.14-.94.19s-.71.07-1.09.07c-.5,0-.94-.07-1.3-.21s-.66-.33-.89-.59-.4-.58-.52-.96-.17-.8-.17-1.28c0-.41.06-.81.18-1.17s.29-.69.52-.97.51-.5.84-.67.71-.25,1.13-.25.77.06,1.09.19.58.31.8.55.38.52.49.86.17.72.17,1.13ZM39.51,180.99c.01-.26-.01-.5-.08-.72s-.16-.4-.29-.56-.29-.28-.49-.37-.42-.13-.68-.13c-.22,0-.43.04-.61.13s-.34.21-.47.36-.24.34-.32.56-.13.46-.15.72h3.09Z"/>
    <path class="cls-6" d="M46.86,182.79c0,.21-.04.39-.11.56s-.17.31-.29.44-.26.24-.42.33-.33.16-.51.22-.37.1-.56.13-.38.04-.56.04c-.4,0-.76-.02-1.1-.05s-.66-.09-.98-.17v-.94c.34.1.69.17,1.03.22s.68.08,1.01.08c.49,0,.85-.07,1.08-.2s.35-.32.35-.57c0-.11-.02-.2-.06-.28s-.1-.16-.2-.24-.25-.16-.45-.24-.49-.18-.84-.28c-.27-.08-.51-.17-.74-.27s-.42-.22-.58-.35-.29-.3-.39-.48-.14-.4-.14-.65c0-.16.04-.34.11-.54s.21-.38.39-.54.43-.31.74-.42.7-.17,1.17-.17c.23,0,.49.01.77.04s.57.07.88.13v.91c-.32-.08-.62-.14-.91-.17s-.54-.06-.75-.06c-.25,0-.47.02-.64.06s-.31.09-.42.16-.18.15-.23.24-.07.19-.07.3.02.2.06.29.12.17.23.25.27.16.47.24.46.17.78.26c.35.1.64.21.88.32s.43.24.58.37.25.29.32.46.1.37.1.59Z"/>
    <path class="cls-6" d="M53.53,184.39h-.91l-.04-.95c-.18.2-.34.37-.5.51s-.32.24-.47.33-.31.14-.47.17-.33.05-.5.05c-.61,0-1.06-.18-1.37-.53s-.46-.89-.46-1.61v-3.84h1.02v3.76c0,.9.34,1.35,1.02,1.35.12,0,.25-.02.37-.06s.24-.1.38-.19.27-.22.42-.37.32-.35.51-.59v-3.9h1.02v5.88Z"/>
    <path class="cls-6" d="M57.4,176.95h-1.74v-.84h2.77v7.43h1.75v.85h-4.72v-.85h1.93v-6.59Z"/>
    <path class="cls-6" d="M66.74,184.31c-.23.06-.47.1-.71.13s-.5.04-.75.04c-.74,0-1.29-.17-1.65-.5s-.54-.85-.54-1.54v-3.07h-1.65v-.86h1.65v-1.62l1.02-.26v1.88h2.64v.86h-2.64v2.99c0,.42.11.74.34.95s.56.31.99.31c.19,0,.39-.01.62-.04s.46-.08.7-.14v.88Z"/>
    <path class="cls-6" d="M73.25,182.79c0,.21-.04.39-.11.56s-.17.31-.29.44-.26.24-.42.33-.33.16-.51.22-.37.1-.56.13-.38.04-.56.04c-.4,0-.76-.02-1.1-.05s-.66-.09-.98-.17v-.94c.34.1.69.17,1.03.22s.68.08,1.01.08c.49,0,.85-.07,1.08-.2s.35-.32.35-.57c0-.11-.02-.2-.06-.28s-.1-.16-.2-.24-.25-.16-.45-.24-.49-.18-.84-.28c-.27-.08-.51-.17-.74-.27s-.42-.22-.58-.35-.29-.3-.39-.48-.14-.4-.14-.65c0-.16.04-.34.11-.54s.21-.38.39-.54.43-.31.74-.42.7-.17,1.17-.17c.23,0,.49.01.77.04s.57.07.88.13v.91c-.32-.08-.62-.14-.91-.17s-.54-.06-.75-.06c-.25,0-.47.02-.64.06s-.31.09-.42.16-.18.15-.23.24-.07.19-.07.3.02.2.06.29.12.17.23.25.27.16.47.24.46.17.78.26c.35.1.64.21.88.32s.43.24.58.37.25.29.32.46.1.37.1.59Z"/>
    <path class="cls-6" d="M85.31,186.85c-1.8-1.67-2.7-3.51-2.7-5.53,0-.47.05-.94.14-1.42s.25-.94.46-1.42.49-.95.84-1.42.77-.94,1.27-1.41l.59.6c-1.52,1.5-2.27,3.15-2.27,4.97,0,.91.19,1.78.57,2.61s.95,1.62,1.7,2.37l-.62.63Z"/>
    <path class="cls-6" d="M90.22,177.61h-1.76v-.88h4.58v.88h-1.76v5.89h1.76v.89h-4.58v-.89h1.76v-5.89Z"/>
    <path class="cls-6" d="M94.98,178.51h.91l.04.95c.17-.2.34-.37.5-.51s.32-.24.47-.33.31-.14.47-.17.33-.05.5-.05c.61,0,1.06.18,1.37.54s.47.9.47,1.61v3.84h-1.02v-3.76c0-.46-.09-.8-.26-1.02s-.43-.33-.77-.33c-.12,0-.25.02-.37.06s-.24.1-.37.19-.27.22-.42.37-.32.35-.51.59v3.9h-1.02v-5.88Z"/>
    <path class="cls-6" d="M106.32,184.31c-.23.06-.47.1-.71.13s-.5.04-.75.04c-.74,0-1.29-.17-1.65-.5s-.54-.85-.54-1.54v-3.07h-1.65v-.86h1.65v-1.62l1.02-.26v1.88h2.64v.86h-2.64v2.99c0,.42.11.74.34.95s.56.31.99.31c.19,0,.39-.01.62-.04s.46-.08.7-.14v.88Z"/>
    <path class="cls-6" d="M108.42,178.51h.93l.03,1.08c.35-.42.69-.72,1.03-.91s.68-.28,1.02-.28c.61,0,1.07.2,1.39.59s.46.98.44,1.76h-1.03c.01-.52-.06-.89-.23-1.12s-.4-.35-.71-.35c-.14,0-.27.02-.41.07s-.28.13-.43.23-.3.25-.47.41-.34.37-.53.61v3.78h-1.03v-5.88Z"/>
    <path class="cls-6" d="M115.98,175.67c1.8,1.67,2.7,3.52,2.7,5.57,0,.42-.04.86-.13,1.31s-.23.92-.44,1.39-.49.96-.83,1.44-.79.98-1.32,1.47l-.59-.6c.76-.75,1.33-1.54,1.71-2.36s.56-1.68.56-2.58c0-1.86-.76-3.53-2.27-5.02l.62-.63Z"/>
    <path class="cls-6" d="M123.74,178.4c.12,0,.24.02.35.07s.21.11.29.2.15.18.2.29.07.22.07.35-.02.24-.07.35-.11.2-.2.28-.18.15-.29.19-.22.07-.35.07-.24-.02-.35-.07-.2-.11-.28-.19-.15-.18-.19-.28-.07-.22-.07-.35.02-.24.07-.35.11-.21.19-.29.18-.15.28-.2.22-.07.35-.07ZM123.74,182.7c.12,0,.24.02.35.07s.21.11.29.2.15.18.2.29.07.22.07.35-.02.24-.07.35-.11.2-.2.28-.18.15-.29.19-.22.07-.35.07-.24-.02-.35-.07-.2-.11-.28-.19-.15-.18-.19-.28-.07-.22-.07-.35.02-.24.07-.35.11-.21.19-.29.18-.15.28-.2.22-.07.35-.07Z"/>
  </g>
  <g>
    <path class="cls-6" d="M34.38,226.99h-1.02l-.15-4.78-.06-1.83-.36,1.07-1.13,3.05h-.72l-1.08-2.93-.36-1.18-.02,1.92-.13,4.69h-.98l.38-7.66h1.24l1.03,2.88.33.97.32-.97,1.08-2.88h1.27l.37,7.66Z"/>
    <path class="cls-6" d="M40.57,223.73c0,.14,0,.27,0,.36s0,.19-.02.28h-4.13c0,.6.17,1.06.5,1.39s.82.48,1.45.48c.17,0,.34,0,.52-.02s.34-.03.5-.06.31-.05.46-.08.28-.06.41-.1v.84c-.28.08-.59.14-.94.19s-.71.07-1.09.07c-.5,0-.94-.07-1.3-.21s-.66-.33-.89-.59-.4-.58-.52-.96-.17-.8-.17-1.28c0-.41.06-.81.18-1.17s.29-.69.52-.97.51-.5.84-.67.71-.25,1.13-.25.77.06,1.09.19.58.31.8.55.38.52.49.86.17.72.17,1.13ZM39.51,223.59c.01-.26-.01-.5-.08-.72s-.16-.4-.29-.56-.29-.28-.49-.37-.42-.13-.68-.13c-.22,0-.43.04-.61.13s-.34.21-.47.36-.24.34-.32.56-.13.46-.15.72h3.09Z"/>
    <path class="cls-6" d="M42.44,221.1h.93l.03,1.08c.35-.42.69-.72,1.03-.91s.68-.28,1.02-.28c.61,0,1.07.2,1.39.59s.46.98.44,1.76h-1.03c.01-.52-.06-.89-.23-1.12s-.4-.35-.71-.35c-.14,0-.27.02-.41.07s-.28.13-.43.23-.3.25-.47.41-.34.37-.53.61v3.78h-1.03v-5.88Z"/>
    <path class="cls-6" d="M53.04,221.94c.11.14.19.3.25.48s.09.38.09.59c0,.3-.06.58-.17.83s-.27.47-.47.65-.45.32-.73.42-.59.15-.93.15c-.25,0-.48-.03-.69-.08s-.38-.12-.51-.2c-.07.11-.14.21-.19.31s-.08.21-.08.33c0,.15.07.27.21.37s.33.15.57.16l1.55.06c.29,0,.56.04.81.11s.46.16.64.29.32.28.42.46.15.4.15.64c0,.26-.06.51-.17.74s-.29.44-.52.62-.54.32-.9.42-.79.16-1.29.16-.88-.04-1.22-.11-.61-.18-.82-.32-.37-.29-.47-.48-.15-.39-.15-.61c0-.29.07-.54.2-.75s.34-.42.62-.62c-.1-.05-.19-.11-.26-.18s-.13-.15-.18-.23-.08-.17-.11-.27-.04-.19-.04-.28c0-.25.06-.49.18-.7s.26-.41.42-.6c-.07-.09-.14-.18-.2-.26s-.11-.18-.15-.28-.07-.21-.09-.32-.03-.25-.03-.4c0-.3.06-.58.17-.83s.27-.47.47-.65.44-.32.73-.42.6-.15.94-.15c.14,0,.28,0,.42.03s.25.04.35.08h2.13v.83h-.94ZM49.5,227.84c0,.28.14.48.43.61s.69.19,1.21.19c.32,0,.6-.03.82-.09s.4-.14.53-.23.23-.21.29-.33.09-.25.09-.38c0-.24-.1-.41-.29-.53s-.49-.18-.9-.2l-1.54-.05c-.13.09-.24.17-.32.25s-.15.17-.2.25-.08.17-.1.25-.03.17-.03.25ZM49.81,223.02c0,.19.03.36.09.52s.15.29.26.4.25.19.4.25.33.09.51.09c.2,0,.38-.03.54-.1s.29-.16.4-.28.19-.25.25-.4.08-.31.08-.47c0-.19-.03-.36-.09-.52s-.15-.29-.26-.4-.25-.19-.4-.25-.33-.09-.51-.09c-.2,0-.38.04-.54.11s-.29.16-.4.28-.19.25-.25.4-.08.31-.08.47Z"/>
    <path class="cls-6" d="M60.37,223.73c0,.14,0,.27,0,.36s0,.19-.02.28h-4.13c0,.6.17,1.06.5,1.39s.82.48,1.45.48c.17,0,.34,0,.52-.02s.34-.03.5-.06.31-.05.46-.08.28-.06.41-.1v.84c-.28.08-.59.14-.94.19s-.71.07-1.09.07c-.5,0-.94-.07-1.3-.21s-.66-.33-.89-.59-.4-.58-.52-.96-.17-.8-.17-1.28c0-.41.06-.81.18-1.17s.29-.69.52-.97.51-.5.84-.67.71-.25,1.13-.25.77.06,1.09.19.58.31.8.55.38.52.49.86.17.72.17,1.13ZM59.31,223.59c.01-.26-.01-.5-.08-.72s-.16-.4-.29-.56-.29-.28-.49-.37-.42-.13-.68-.13c-.22,0-.43.04-.61.13s-.34.21-.47.36-.24.34-.32.56-.13.46-.15.72h3.09Z"/>
    <path class="cls-6" d="M61.7,224.17c0-.5.07-.94.21-1.33s.33-.72.58-.98.55-.47.91-.61.75-.21,1.18-.21c.19,0,.37.01.55.04s.36.06.54.11v-2.47h1.03v8.28h-.91l-.04-1.11c-.29.41-.59.72-.93.92s-.69.3-1.08.3c-.34,0-.63-.07-.89-.21s-.47-.34-.64-.59-.3-.56-.38-.92-.13-.76-.13-1.2ZM62.74,224.1c0,.71.1,1.24.31,1.59s.5.52.89.52c.26,0,.53-.12.82-.35s.59-.57.91-1.03v-2.73c-.17-.08-.35-.14-.56-.18s-.4-.06-.6-.06c-.55,0-.99.18-1.3.54s-.47.92-.47,1.69Z"/>
    <path class="cls-6" d="M75.43,221.1h.93l.03,1.08c.35-.42.69-.72,1.03-.91s.68-.28,1.02-.28c.61,0,1.07.2,1.39.59s.46.98.44,1.76h-1.03c.01-.52-.06-.89-.23-1.12s-.4-.35-.71-.35c-.14,0-.27.02-.41.07s-.28.13-.43.23-.3.25-.47.41-.34.37-.53.61v3.78h-1.03v-5.88Z"/>
    <path class="cls-6" d="M86.76,223.73c0,.14,0,.27,0,.36s0,.19-.02.28h-4.13c0,.6.17,1.06.5,1.39s.82.48,1.45.48c.17,0,.34,0,.52-.02s.34-.03.5-.06.31-.05.46-.08.28-.06.41-.1v.84c-.28.08-.59.14-.94.19s-.71.07-1.09.07c-.5,0-.94-.07-1.3-.21s-.66-.33-.89-.59-.4-.58-.52-.96-.17-.8-.17-1.28c0-.41.06-.81.18-1.17s.29-.69.52-.97.51-.5.84-.67.71-.25,1.13-.25.77.06,1.09.19.58.31.8.55.38.52.49.86.17.72.17,1.13ZM85.7,223.59c.01-.26-.01-.5-.08-.72s-.16-.4-.29-.56-.29-.28-.49-.37-.42-.13-.68-.13c-.22,0-.43.04-.61.13s-.34.21-.47.36-.24.34-.32.56-.13.46-.15.72h3.09Z"/>
    <path class="cls-6" d="M93.05,225.38c0,.21-.04.39-.11.56s-.17.31-.29.44-.26.24-.42.33-.33.16-.51.22-.37.1-.56.13-.38.04-.56.04c-.4,0-.76-.02-1.1-.05s-.66-.09-.98-.17v-.94c.34.1.69.17,1.03.22s.68.08,1.01.08c.49,0,.85-.07,1.08-.2s.35-.32.35-.57c0-.11-.02-.2-.06-.28s-.1-.16-.2-.24-.25-.16-.45-.24-.49-.18-.84-.28c-.27-.08-.51-.17-.74-.27s-.42-.22-.58-.35-.29-.3-.39-.48-.14-.4-.14-.65c0-.16.04-.34.11-.54s.21-.38.39-.54.43-.31.74-.42.7-.17,1.17-.17c.23,0,.49.01.77.04s.57.07.88.13v.91c-.32-.08-.62-.14-.91-.17s-.54-.06-.75-.06c-.25,0-.47.02-.64.06s-.31.09-.42.16-.18.15-.23.24-.07.19-.07.3.02.2.06.29.12.17.23.25.27.16.47.24.46.17.78.26c.35.1.64.21.88.32s.43.24.58.37.25.29.32.46.1.37.1.59Z"/>
    <path class="cls-6" d="M99.71,226.99h-.91l-.04-.95c-.18.2-.34.37-.5.51s-.32.24-.47.33-.31.14-.47.17-.33.05-.5.05c-.61,0-1.06-.18-1.37-.53s-.46-.89-.46-1.61v-3.84h1.02v3.76c0,.9.34,1.35,1.02,1.35.12,0,.25-.02.37-.06s.24-.1.38-.19.27-.22.42-.37.32-.35.51-.59v-3.9h1.02v5.88Z"/>
    <path class="cls-6" d="M103.59,219.54h-1.74v-.84h2.77v7.43h1.75v.85h-4.72v-.85h1.93v-6.59Z"/>
    <path class="cls-6" d="M112.92,226.9c-.23.06-.47.1-.71.13s-.5.04-.75.04c-.74,0-1.29-.17-1.65-.5s-.54-.85-.54-1.54v-3.07h-1.65v-.86h1.65v-1.62l1.02-.26v1.88h2.64v.86h-2.64v2.99c0,.42.11.74.34.95s.56.31.99.31c.19,0,.39-.01.62-.04s.46-.08.7-.14v.88Z"/>
    <path class="cls-6" d="M119.44,225.38c0,.21-.04.39-.11.56s-.17.31-.29.44-.26.24-.42.33-.33.16-.51.22-.37.1-.56.13-.38.04-.56.04c-.4,0-.76-.02-1.1-.05s-.66-.09-.98-.17v-.94c.34.1.69.17,1.03.22s.68.08,1.01.08c.49,0,.85-.07,1.08-.2s.35-.32.35-.57c0-.11-.02-.2-.06-.28s-.1-.16-.2-.24-.25-.16-.45-.24-.49-.18-.84-.28c-.27-.08-.51-.17-.74-.27s-.42-.22-.58-.35-.29-.3-.39-.48-.14-.4-.14-.65c0-.16.04-.34.11-.54s.21-.38.39-.54.43-.31.74-.42.7-.17,1.17-.17c.23,0,.49.01.77.04s.57.07.88.13v.91c-.32-.08-.62-.14-.91-.17s-.54-.06-.75-.06c-.25,0-.47.02-.64.06s-.31.09-.42.16-.18.15-.23.24-.07.19-.07.3.02.2.06.29.12.17.23.25.27.16.47.24.46.17.78.26c.35.1.64.21.88.32s.43.24.58.37.25.29.32.46.1.37.1.59Z"/>
    <path class="cls-6" d="M123.74,221c.12,0,.24.02.35.07s.21.11.29.2.15.18.2.29.07.22.07.35-.02.24-.07.35-.11.2-.2.28-.18.15-.29.19-.22.07-.35.07-.24-.02-.35-.07-.2-.11-.28-.19-.15-.18-.19-.28-.07-.22-.07-.35.02-.24.07-.35.11-.21.19-.29.18-.15.28-.2.22-.07.35-.07ZM123.74,225.29c.12,0,.24.02.35.07s.21.11.29.2.15.18.2.29.07.22.07.35-.02.24-.07.35-.11.2-.2.28-.18.15-.29.19-.22.07-.35.07-.24-.02-.35-.07-.2-.11-.28-.19-.15-.18-.19-.28-.07-.22-.07-.35.02-.24.07-.35.11-.21.19-.29.18-.15.28-.2.22-.07.35-.07Z"/>
  </g>
  <line id="source_line" data-name="source line" class="cls-2" x1="149.26" y1="227.96" x2="363.34" y2="227.96"/>
  <line id="source_line-2" data-name="source line" class="cls-2" x1="149.58" y1="24.79" x2="363.34" y2="24.79"/>
  <line class="cls-2" x1="237.42" y1="126.37" x2="237.42" y2="161.38"/>
  <line id="source_line-3" data-name="source line" class="cls-2" x1="237.74" y1="143.88" x2="322" y2="143.88"/>
  <line class="cls-2" x1="149.58" y1="7.28" x2="149.58" y2="42.29"/>
  <g>
    <circle class="cls-3" cx="218.02" cy="24.79" r="13.56"/>
    <g>
      <path class="cls-6" d="M216.4,28.34h-3.39v-.89h1.11v-6.94h-1.11v-.89h3.39v.89h-1.11v6.94h1.11v.89Z"/>
      <path class="cls-6" d="M222.83,28.34h-1.1v-3.73c0-.3-.01-.58-.04-.84s-.08-.47-.17-.62c-.09-.16-.21-.29-.38-.37s-.38-.12-.66-.12-.56.07-.85.22-.58.34-.85.57v4.89h-1.1v-6.54h1.1v.73c.33-.29.65-.52.97-.67s.66-.23,1.01-.23c.64,0,1.15.21,1.51.64s.54,1.04.54,1.84v4.25Z"/>
    </g>
  </g>
  <g>
    <circle class="cls-1" cx="250.61" cy="24.79" r="13.56"/>
    <g>
      <path class="cls-6" d="M246.98,28.34h-3.39v-.89h1.11v-6.94h-1.11v-.89h3.39v.89h-1.11v6.94h1.11v.89Z"/>
      <path class="cls-6" d="M253.41,28.34h-1.1v-3.73c0-.3-.01-.58-.04-.84s-.08-.47-.17-.62c-.09-.16-.21-.29-.38-.37s-.38-.12-.66-.12-.56.07-.85.22-.58.34-.85.57v4.89h-1.1v-6.54h1.1v.73c.33-.29.65-.52.97-.67s.66-.23,1.01-.23c.64,0,1.15.21,1.51.64s.54,1.04.54,1.84v4.25Z"/>
      <path class="cls-6" d="M256.94,28.47c-.6,0-1.07-.17-1.41-.51s-.5-.88-.5-1.62v-3.63h-.74v-.91h.74v-1.88h1.1v1.88h2.03v.91h-2.03v3.11c0,.33,0,.59.02.77s.06.35.13.5c.07.14.17.24.32.31s.35.1.6.1c.18,0,.35-.03.52-.08s.29-.1.36-.13h.06v.99c-.21.06-.42.1-.63.14s-.41.05-.59.05Z"/>
    </g>
  </g>
  <g>
    <circle class="cls-4" cx="287.06" cy="24.79" r="13.56"/>
    <g>
      <path class="cls-6" d="M281.26,28.34h-3.39v-.89h1.11v-6.94h-1.11v-.89h3.39v.89h-1.11v6.94h1.11v.89Z"/>
      <path class="cls-6" d="M287.69,28.34h-1.1v-3.73c0-.3-.01-.58-.04-.84s-.08-.47-.17-.62c-.09-.16-.21-.29-.38-.37s-.38-.12-.66-.12-.56.07-.85.22-.58.34-.85.57v4.89h-1.1v-6.54h1.1v.73c.33-.29.65-.52.97-.67s.66-.23,1.01-.23c.64,0,1.15.21,1.51.64s.54,1.04.54,1.84v4.25Z"/>
      <path class="cls-6" d="M291.22,28.47c-.6,0-1.07-.17-1.41-.51s-.5-.88-.5-1.62v-3.63h-.74v-.91h.74v-1.88h1.1v1.88h2.03v.91h-2.03v3.11c0,.33,0,.59.02.77s.06.35.13.5c.07.14.17.24.32.31s.35.1.6.1c.18,0,.35-.03.52-.08s.29-.1.36-.13h.06v.99c-.21.06-.42.1-.63.14s-.41.05-.59.05Z"/>
      <path class="cls-6" d="M296.72,22.98h-.06c-.08-.02-.17-.04-.26-.04s-.2,0-.33,0c-.3,0-.59.06-.88.19s-.57.32-.83.57v4.65h-1.1v-6.54h1.1v.97c.4-.36.75-.61,1.05-.75s.59-.22.87-.22c.11,0,.2,0,.25,0s.12.01.19.03v1.15Z"/>
    </g>
  </g>
  <g>
    <circle class="cls-5" cx="177.02" cy="24.79" r="13.56"/>
    <path class="cls-6" d="M178.71,28.34h-3.39v-.89h1.11v-6.94h-1.11v-.89h3.39v.89h-1.11v6.94h1.11v.89Z"/>
  </g>
  <line class="cls-2" x1="149.26" y1="210.45" x2="149.26" y2="245.46"/>
  <line id="source_line-4" data-name="source line" class="cls-2" x1="175.64" y1="65.3" x2="228.25" y2="65.3"/>
  <line class="cls-2" x1="228.25" y1="47.8" x2="228.25" y2="82.81"/>
  <line class="cls-2" x1="175.64" y1="47.8" x2="175.64" y2="82.81"/>
  <g>
    <circle class="cls-5" cx="228.25" cy="65.3" r="13.56"/>
    <g>
      <path class="cls-6" d="M221.77,69.01c-.63,0-1.17-.07-1.61-.2s-.86-.29-1.25-.48v-1.45h.08c.38.36.82.64,1.3.83s.95.3,1.4.3c.64,0,1.12-.13,1.45-.4s.49-.62.49-1.06c0-.35-.09-.63-.26-.85s-.45-.38-.82-.49c-.27-.08-.52-.14-.74-.19s-.5-.12-.84-.21c-.3-.08-.57-.18-.81-.3s-.45-.28-.63-.47c-.18-.19-.32-.42-.42-.68s-.15-.56-.15-.9c0-.71.28-1.3.83-1.78s1.25-.72,2.11-.72c.49,0,.95.05,1.39.15s.84.24,1.21.42v1.39h-.09c-.28-.25-.63-.48-1.07-.67s-.89-.28-1.37-.28c-.54,0-.97.13-1.31.38s-.5.58-.5.99c0,.37.1.67.29.88s.48.38.85.48c.25.07.55.14.9.23s.65.16.88.23c.6.18,1.04.46,1.32.83s.42.83.42,1.37c0,.34-.07.68-.21,1.01s-.33.61-.58.84c-.28.25-.6.45-.95.59s-.8.21-1.33.21Z"/>
      <path class="cls-6" d="M228.8,69c-1.04,0-1.85-.29-2.43-.88s-.86-1.42-.86-2.5.28-1.92.84-2.55,1.29-.95,2.19-.95c.41,0,.77.06,1.08.18s.59.3.82.55.41.56.54.92.19.8.19,1.33v.6h-4.54c0,.76.19,1.34.57,1.75s.91.6,1.59.6c.24,0,.48-.03.71-.08s.44-.12.63-.21c.2-.09.37-.18.5-.26s.25-.16.34-.24h.06v1.2c-.13.05-.29.11-.48.19s-.36.14-.52.18c-.21.06-.41.1-.58.13s-.39.05-.66.05ZM230.09,64.85c0-.3-.04-.55-.11-.77s-.15-.4-.27-.54c-.13-.16-.29-.29-.5-.38s-.45-.13-.75-.13-.54.04-.75.13-.39.22-.56.38c-.16.17-.29.36-.38.57s-.14.45-.16.73h3.46Z"/>
      <path class="cls-6" d="M233.4,68.85h-1.1v-9.12h1.1v9.12Z"/>
      <path class="cls-6" d="M238.47,60.79h-.06c-.1-.04-.24-.07-.42-.1s-.35-.05-.49-.05c-.46,0-.8.1-.99.31s-.3.59-.3,1.13v.22h1.82v.91h-1.79v5.63h-1.1v-5.63h-.74v-.91h.74v-.22c0-.79.19-1.39.57-1.8s.92-.62,1.63-.62c.2,0,.4.01.6.03s.37.05.53.07v1.01Z"/>
    </g>
  </g>
  <g>
    <circle class="cls-5" cx="228.25" cy="227.96" r="13.56"/>
    <g>
      <path class="cls-6" d="M221.77,231.66c-.63,0-1.17-.07-1.61-.2s-.86-.29-1.25-.48v-1.45h.08c.38.36.82.64,1.3.83s.95.3,1.4.3c.64,0,1.12-.13,1.45-.4s.49-.62.49-1.06c0-.35-.09-.63-.26-.85s-.45-.38-.82-.49c-.27-.08-.52-.14-.74-.19s-.5-.12-.84-.21c-.3-.08-.57-.18-.81-.3s-.45-.28-.63-.47c-.18-.19-.32-.42-.42-.68s-.15-.56-.15-.9c0-.71.28-1.3.83-1.78s1.25-.72,2.11-.72c.49,0,.95.05,1.39.15s.84.24,1.21.42v1.39h-.09c-.28-.25-.63-.48-1.07-.67s-.89-.28-1.37-.28c-.54,0-.97.13-1.31.38s-.5.58-.5.99c0,.37.1.67.29.88s.48.38.85.48c.25.07.55.14.9.23s.65.16.88.23c.6.18,1.04.46,1.32.83s.42.83.42,1.37c0,.34-.07.68-.21,1.01s-.33.61-.58.84c-.28.25-.6.45-.95.59s-.8.21-1.33.21Z"/>
      <path class="cls-6" d="M228.8,231.66c-1.04,0-1.85-.29-2.43-.88s-.86-1.42-.86-2.5.28-1.92.84-2.55,1.29-.95,2.19-.95c.41,0,.77.06,1.08.18s.59.3.82.55.41.56.54.92.19.8.19,1.33v.6h-4.54c0,.76.19,1.34.57,1.75s.91.6,1.59.6c.24,0,.48-.03.71-.08s.44-.12.63-.21c.2-.09.37-.18.5-.26s.25-.16.34-.24h.06v1.2c-.13.05-.29.11-.48.19s-.36.14-.52.18c-.21.06-.41.1-.58.13s-.39.05-.66.05ZM230.09,227.5c0-.3-.04-.55-.11-.77s-.15-.4-.27-.54c-.13-.16-.29-.29-.5-.38s-.45-.13-.75-.13-.54.04-.75.13-.39.22-.56.38c-.16.17-.29.36-.38.57s-.14.45-.16.73h3.46Z"/>
      <path class="cls-6" d="M233.4,231.5h-1.1v-9.12h1.1v9.12Z"/>
      <path class="cls-6" d="M238.47,223.44h-.06c-.1-.04-.24-.07-.42-.1s-.35-.05-.49-.05c-.46,0-.8.1-.99.31s-.3.59-.3,1.13v.22h1.82v.91h-1.79v5.63h-1.1v-5.63h-.74v-.91h.74v-.22c0-.79.19-1.39.57-1.8s.92-.62,1.63-.62c.2,0,.4.01.6.03s.37.05.53.07v1.01Z"/>
    </g>
  </g>
  <line id="source_line-5" data-name="source line" class="cls-2" x1="282.05" y1="184.39" x2="308.43" y2="184.39"/>
  <line class="cls-2" x1="308.43" y1="166.89" x2="308.43" y2="201.9"/>
  <line class="cls-2" x1="282.05" y1="166.89" x2="282.05" y2="201.9"/>
  <g>
    <circle class="cls-4" cx="308.43" cy="184.39" r="13.56"/>
    <g>
      <path class="cls-6" d="M299.08,188.1c-.63,0-1.17-.07-1.61-.2s-.86-.29-1.25-.48v-1.45h.08c.38.36.82.64,1.3.83s.95.3,1.4.3c.64,0,1.12-.13,1.45-.4s.49-.62.49-1.06c0-.35-.09-.63-.26-.85s-.45-.38-.82-.49c-.27-.08-.52-.14-.74-.19s-.5-.12-.84-.21c-.3-.08-.57-.18-.81-.3s-.45-.28-.63-.47c-.18-.19-.32-.42-.42-.68s-.15-.56-.15-.9c0-.71.28-1.3.83-1.78s1.25-.72,2.11-.72c.49,0,.95.05,1.39.15s.84.24,1.21.42v1.39h-.09c-.28-.25-.63-.48-1.07-.67s-.89-.28-1.37-.28c-.54,0-.97.13-1.31.38s-.5.58-.5.99c0,.37.1.67.29.88s.48.38.85.48c.25.07.55.14.9.23s.65.16.88.23c.6.18,1.04.46,1.32.83s.42.83.42,1.37c0,.34-.07.68-.21,1.01s-.33.61-.58.84c-.28.25-.6.45-.95.59s-.8.21-1.33.21Z"/>
      <path class="cls-6" d="M305.23,188.07c-.6,0-1.07-.17-1.41-.51s-.5-.88-.5-1.62v-3.63h-.74v-.91h.74v-1.88h1.1v1.88h2.03v.91h-2.03v3.11c0,.33,0,.59.02.77s.06.35.13.5c.07.14.17.24.32.31s.35.1.6.1c.18,0,.35-.03.52-.08s.29-.1.36-.13h.06v.99c-.21.06-.42.1-.63.14s-.41.05-.59.05Z"/>
      <path class="cls-6" d="M310.92,187.24c-.09.07-.21.16-.36.28s-.3.21-.44.28c-.2.1-.38.18-.57.23s-.44.08-.76.08c-.27,0-.53-.05-.77-.15s-.46-.24-.64-.43c-.18-.18-.32-.4-.42-.67s-.16-.54-.16-.83c0-.45.1-.84.29-1.16s.49-.57.91-.76c.37-.17.8-.28,1.3-.35s1.04-.11,1.62-.14v-.21c0-.26-.04-.47-.12-.62s-.19-.28-.33-.37c-.14-.09-.31-.15-.52-.18s-.41-.04-.63-.04c-.25,0-.55.04-.9.11s-.69.19-1.03.33h-.06v-1.12c.2-.06.49-.12.87-.19s.75-.11,1.12-.11c.45,0,.83.04,1.14.11s.59.2.83.38c.24.18.42.41.53.7s.18.63.18,1.04v4.48h-1.1v-.7ZM310.92,186.33v-1.82c-.26.02-.59.06-.99.1s-.72.1-.97.17c-.29.09-.54.23-.73.41s-.29.44-.29.78c0,.38.11.66.32.85s.52.29.93.29c.35,0,.66-.08.94-.23s.54-.33.79-.55Z"/>
      <path class="cls-6" d="M317.03,182.58h-.06c-.08-.02-.17-.04-.26-.04s-.2,0-.33,0c-.3,0-.59.06-.88.19s-.57.32-.83.57v4.65h-1.1v-6.54h1.1v.97c.4-.36.75-.61,1.05-.75s.59-.22.87-.22c.11,0,.2,0,.25,0s.12.01.19.03v1.15Z"/>
      <path class="cls-6" d="M319.86,188.07c-.6,0-1.07-.17-1.41-.51s-.5-.88-.5-1.62v-3.63h-.74v-.91h.74v-1.88h1.1v1.88h2.03v.91h-2.03v3.11c0,.33,0,.59.02.77s.06.35.13.5c.07.14.17.24.32.31s.35.1.6.1c.18,0,.35-.03.52-.08s.29-.1.36-.13h.06v.99c-.21.06-.42.1-.63.14s-.41.05-.59.05Z"/>
    </g>
  </g>
  <g>
    <circle class="cls-4" cx="308.43" cy="226.99" r="13.56"/>
    <g>
      <path class="cls-6" d="M299.08,230.69c-.63,0-1.17-.07-1.61-.2s-.86-.29-1.25-.48v-1.45h.08c.38.36.82.64,1.3.83s.95.3,1.4.3c.64,0,1.12-.13,1.45-.4s.49-.62.49-1.06c0-.35-.09-.63-.26-.85s-.45-.38-.82-.49c-.27-.08-.52-.14-.74-.19s-.5-.12-.84-.21c-.3-.08-.57-.18-.81-.3s-.45-.28-.63-.47c-.18-.19-.32-.42-.42-.68s-.15-.56-.15-.9c0-.71.28-1.3.83-1.78s1.25-.72,2.11-.72c.49,0,.95.05,1.39.15s.84.24,1.21.42v1.39h-.09c-.28-.25-.63-.48-1.07-.67s-.89-.28-1.37-.28c-.54,0-.97.13-1.31.38s-.5.58-.5.99c0,.37.1.67.29.88s.48.38.85.48c.25.07.55.14.9.23s.65.16.88.23c.6.18,1.04.46,1.32.83s.42.83.42,1.37c0,.34-.07.68-.21,1.01s-.33.61-.58.84c-.28.25-.6.45-.95.59s-.8.21-1.33.21Z"/>
      <path class="cls-6" d="M305.23,230.66c-.6,0-1.07-.17-1.41-.51s-.5-.88-.5-1.62v-3.63h-.74v-.91h.74v-1.88h1.1v1.88h2.03v.91h-2.03v3.11c0,.33,0,.59.02.77s.06.35.13.5c.07.14.17.24.32.31s.35.1.6.1c.18,0,.35-.03.52-.08s.29-.1.36-.13h.06v.99c-.21.06-.42.1-.63.14s-.41.05-.59.05Z"/>
      <path class="cls-6" d="M310.92,229.84c-.09.07-.21.16-.36.28s-.3.21-.44.28c-.2.1-.38.18-.57.23s-.44.08-.76.08c-.27,0-.53-.05-.77-.15s-.46-.24-.64-.43c-.18-.18-.32-.4-.42-.67s-.16-.54-.16-.83c0-.45.1-.84.29-1.16s.49-.57.91-.76c.37-.17.8-.28,1.3-.35s1.04-.11,1.62-.14v-.21c0-.26-.04-.47-.12-.62s-.19-.28-.33-.37c-.14-.09-.31-.15-.52-.18s-.41-.04-.63-.04c-.25,0-.55.04-.9.11s-.69.19-1.03.33h-.06v-1.12c.2-.06.49-.12.87-.19s.75-.11,1.12-.11c.45,0,.83.04,1.14.11s.59.2.83.38c.24.18.42.41.53.7s.18.63.18,1.04v4.48h-1.1v-.7ZM310.92,228.92v-1.82c-.26.02-.59.06-.99.1s-.72.1-.97.17c-.29.09-.54.23-.73.41s-.29.44-.29.78c0,.38.11.66.32.85s.52.29.93.29c.35,0,.66-.08.94-.23s.54-.33.79-.55Z"/>
      <path class="cls-6" d="M317.03,225.17h-.06c-.08-.02-.17-.04-.26-.04s-.2,0-.33,0c-.3,0-.59.06-.88.19s-.57.32-.83.57v4.65h-1.1v-6.54h1.1v.97c.4-.36.75-.61,1.05-.75s.59-.22.87-.22c.11,0,.2,0,.25,0s.12.01.19.03v1.15Z"/>
      <path class="cls-6" d="M319.86,230.66c-.6,0-1.07-.17-1.41-.51s-.5-.88-.5-1.62v-3.63h-.74v-.91h.74v-1.88h1.1v1.88h2.03v.91h-2.03v3.11c0,.33,0,.59.02.77s.06.35.13.5c.07.14.17.24.32.31s.35.1.6.1c.18,0,.35-.03.52-.08s.29-.1.36-.13h.06v.99c-.21.06-.42.1-.63.14s-.41.05-.59.05Z"/>
    </g>
  </g>
  <line id="source_line-6" data-name="source line" class="cls-2" x1="218.02" y1="105.82" x2="263.72" y2="105.82"/>
  <line class="cls-2" x1="264.18" y1="88.31" x2="264.18" y2="123.32"/>
  <line class="cls-2" x1="218.02" y1="88.31" x2="218.02" y2="123.32"/>
  <g>
    <circle class="cls-3" cx="264.18" cy="105.82" r="13.56"/>
    <g>
      <path class="cls-6" d="M257.29,109.36h-3.39v-.89h1.11v-6.94h-1.11v-.89h3.39v.89h-1.11v6.94h1.11v.89Z"/>
      <path class="cls-6" d="M263.72,109.36h-1.1v-3.73c0-.3-.01-.58-.04-.84s-.08-.47-.17-.62c-.09-.16-.21-.29-.38-.37s-.38-.12-.66-.12-.56.07-.85.22-.58.34-.85.57v4.89h-1.1v-6.54h1.1v.73c.33-.29.65-.52.97-.67s.66-.23,1.01-.23c.64,0,1.15.21,1.51.64s.54,1.04.54,1.84v4.25Z"/>
      <path class="cls-6" d="M267.24,109.49c-.6,0-1.07-.17-1.41-.51s-.5-.88-.5-1.62v-3.63h-.74v-.91h.74v-1.88h1.1v1.88h2.03v.91h-2.03v3.11c0,.33,0,.59.02.77s.06.35.13.5c.07.14.17.24.32.31s.35.1.6.1c.18,0,.35-.03.52-.08s.29-.1.36-.13h.06v.99c-.21.06-.42.1-.63.14s-.41.05-.59.05Z"/>
      <path class="cls-6" d="M274.66,106.1c0,1.1-.27,1.95-.8,2.55s-1.24.9-2.12.9-1.63-.31-2.15-.93-.78-1.46-.78-2.52.27-1.94.81-2.55,1.25-.91,2.12-.91,1.59.3,2.12.91.8,1.45.8,2.55ZM273.52,106.1c0-.85-.15-1.48-.46-1.89s-.75-.62-1.32-.62-1.02.21-1.33.62-.47,1.04-.47,1.89.16,1.44.47,1.87.75.64,1.33.64,1-.21,1.32-.62.47-1.04.47-1.88Z"/>
    </g>
  </g>
  <g>
    <circle class="cls-3" cx="264.18" cy="226.99" r="13.56"/>
    <g>
      <path class="cls-6" d="M257.29,230.53h-3.39v-.89h1.11v-6.94h-1.11v-.89h3.39v.89h-1.11v6.94h1.11v.89Z"/>
      <path class="cls-6" d="M263.72,230.53h-1.1v-3.73c0-.3-.01-.58-.04-.84s-.08-.47-.17-.62c-.09-.16-.21-.29-.38-.37s-.38-.12-.66-.12-.56.07-.85.22-.58.34-.85.57v4.89h-1.1v-6.54h1.1v.73c.33-.29.65-.52.97-.67s.66-.23,1.01-.23c.64,0,1.15.21,1.51.64s.54,1.04.54,1.84v4.25Z"/>
      <path class="cls-6" d="M267.24,230.66c-.6,0-1.07-.17-1.41-.51s-.5-.88-.5-1.62v-3.63h-.74v-.91h.74v-1.88h1.1v1.88h2.03v.91h-2.03v3.11c0,.33,0,.59.02.77s.06.35.13.5c.07.14.17.24.32.31s.35.1.6.1c.18,0,.35-.03.52-.08s.29-.1.36-.13h.06v.99c-.21.06-.42.1-.63.14s-.41.05-.59.05Z"/>
      <path class="cls-6" d="M274.66,227.26c0,1.1-.27,1.95-.8,2.55s-1.24.9-2.12.9-1.63-.31-2.15-.93-.78-1.46-.78-2.52.27-1.94.81-2.55,1.25-.91,2.12-.91,1.59.3,2.12.91.8,1.45.8,2.55ZM273.52,227.26c0-.85-.15-1.48-.46-1.89s-.75-.62-1.32-.62-1.02.21-1.33.62-.47,1.04-.47,1.89.16,1.44.47,1.87.75.64,1.33.64,1-.21,1.32-.62.47-1.04.47-1.88Z"/>
    </g>
  </g>
  <line class="cls-2" x1="322" y1="126.37" x2="322" y2="161.38"/>
  <g>
    <circle class="cls-1" cx="322" cy="143.88" r="13.56"/>
    <g>
      <path class="cls-6" d="M321.7,144.43h-1.04v3h-1.12v-3h-3.86v-1.23l3.9-4.49h1.08v4.79h1.04v.94ZM319.53,143.49v-3.41l-2.94,3.41h2.94Z"/>
      <path class="cls-6" d="M328.02,147.43h-5.38v-1.22c.39-.37.75-.72,1.1-1.05s.68-.69,1.01-1.05c.66-.73,1.12-1.32,1.36-1.75s.36-.89.36-1.36c0-.24-.04-.46-.11-.64s-.18-.34-.31-.46c-.14-.12-.29-.21-.47-.26s-.38-.09-.59-.09-.42.03-.63.08-.42.12-.61.2c-.16.07-.32.15-.47.24s-.28.17-.37.24h-.06v-1.24c.24-.12.58-.24,1.01-.35s.84-.17,1.23-.17c.81,0,1.45.22,1.91.65s.69,1.02.69,1.75c0,.34-.04.65-.12.94s-.19.56-.33.8c-.14.25-.32.51-.52.76s-.42.5-.64.74c-.37.4-.78.81-1.23,1.24s-.81.77-1.08,1.02h4.29v1Z"/>
    </g>
  </g>
  <g>
    <circle class="cls-1" cx="322" cy="226.99" r="13.56"/>
    <g>
      <path class="cls-6" d="M321.7,227.53h-1.04v3h-1.12v-3h-3.86v-1.23l3.9-4.49h1.08v4.79h1.04v.94ZM319.53,226.6v-3.41l-2.94,3.41h2.94Z"/>
      <path class="cls-6" d="M328.02,230.53h-5.38v-1.22c.39-.37.75-.72,1.1-1.05s.68-.69,1.01-1.05c.66-.73,1.12-1.32,1.36-1.75s.36-.89.36-1.36c0-.24-.04-.46-.11-.64s-.18-.34-.31-.46c-.14-.12-.29-.21-.47-.26s-.38-.09-.59-.09-.42.03-.63.08-.42.12-.61.2c-.16.07-.32.15-.47.24s-.28.17-.37.24h-.06v-1.24c.24-.12.58-.24,1.01-.35s.84-.17,1.23-.17c.81,0,1.45.22,1.91.65s.69,1.02.69,1.75c0,.34-.04.65-.12.94s-.19.56-.33.8c-.14.25-.32.51-.52.76s-.42.5-.64.74c-.37.4-.78.81-1.23,1.24s-.81.77-1.08,1.02h4.29v1Z"/>
    </g>
  </g>
</svg>