<?xml version="1.0" encoding="UTF-8"?>
<svg id="Layer_1" data-name="Layer 1" xmlns="http://www.w3.org/2000/svg" viewBox="0 0 98.96 13.46">
  <defs>
    <style>
      .cls-1 {
        stroke-width: 0px;
      }
    </style>
  </defs>
  <path class="cls-1" d="M5.84,7.75c0,.36-.07.68-.22.96s-.36.5-.62.68-.58.32-.96.41-.78.13-1.23.13c-.2,0-.41,0-.61-.02s-.39-.04-.58-.06-.36-.05-.52-.08-.31-.06-.45-.1v-1.01c.29.11.62.2.99.26s.78.09,1.25.09c.34,0,.62-.03.86-.08s.43-.13.58-.23.26-.23.33-.38.1-.32.1-.51c0-.21-.06-.38-.17-.53s-.27-.28-.45-.39-.4-.22-.64-.32-.49-.19-.74-.3-.5-.21-.74-.33-.45-.26-.64-.42-.34-.35-.45-.57-.17-.48-.17-.78c0-.26.05-.52.16-.77s.28-.48.51-.68.53-.36.89-.48.79-.18,1.29-.18c.13,0,.27,0,.42.02s.3.03.46.05.31.05.46.07.29.06.42.09v.94c-.3-.09-.6-.15-.9-.2s-.59-.07-.87-.07c-.6,0-1.04.1-1.32.3s-.42.47-.42.8c0,.21.06.38.17.53s.27.28.45.4.4.22.64.32.49.19.74.3.5.21.74.33.45.26.64.43.34.36.45.58.17.49.17.79Z"/>
  <path class="cls-1" d="M12.98,3.95l-.86,5.88h-1.24l-.85-2.46-.17-.6-.19.63-.81,2.43h-1.2l-.85-5.88h1l.49,4,.11.89.25-.78.86-2.64h.73l.92,2.61.26.78.09-.83.46-4.03h1.01Z"/>
  <path class="cls-1" d="M16.14,4.79h-1.74v-.84h2.77v5.03h1.75v.85h-4.72v-.85h1.93v-4.19ZM16.49,1.48c.11,0,.22.02.32.06s.18.1.25.17.13.16.17.25.06.2.06.31-.02.21-.06.31-.1.18-.17.26-.16.13-.25.17-.2.06-.32.06-.22-.02-.32-.06-.18-.1-.25-.17-.13-.16-.17-.26-.06-.2-.06-.31.02-.22.06-.31.1-.18.17-.25.16-.13.25-.17.2-.06.32-.06Z"/>
  <path class="cls-1" d="M25.47,9.75c-.23.06-.47.1-.71.13s-.5.04-.75.04c-.74,0-1.29-.17-1.65-.5s-.54-.85-.54-1.54v-3.07h-1.65v-.86h1.65v-1.62l1.02-.26v1.88h2.64v.86h-2.64v2.99c0,.42.11.74.34.95s.56.31.99.31c.19,0,.39-.01.62-.04s.46-.08.7-.14v.88Z"/>
  <path class="cls-1" d="M31.9,9.61c-.27.1-.54.18-.82.23s-.57.07-.86.07c-.93,0-1.65-.25-2.15-.76s-.75-1.24-.75-2.21c0-.46.07-.89.22-1.27s.35-.7.61-.97.57-.48.94-.62.76-.22,1.2-.22c.3,0,.59.02.86.06s.52.11.76.21v.97c-.25-.13-.51-.23-.78-.29s-.54-.09-.82-.09c-.26,0-.51.05-.74.15s-.44.24-.61.43-.31.42-.42.69-.15.57-.15.91c0,.71.17,1.24.52,1.6s.83.53,1.44.53c.28,0,.55-.03.81-.09s.51-.16.75-.28v.95Z"/>
  <path class="cls-1" d="M38.65,9.83h-1.02v-3.76c0-.45-.08-.79-.25-1.02s-.41-.34-.73-.34c-.14,0-.26.02-.38.06s-.24.1-.37.19-.27.22-.42.37-.33.35-.53.59v3.9h-1.02V1.55h1.02v2.4l-.04.93c.16-.19.32-.35.47-.48s.31-.24.46-.32.31-.14.47-.18.33-.05.5-.05c.59,0,1.04.18,1.36.54s.48.9.48,1.61v3.84Z"/>
  <path class="cls-1" d="M47.36,3.95h.93l.03,1.08c.35-.42.69-.72,1.03-.91s.68-.28,1.02-.28c.61,0,1.07.2,1.39.59s.46.98.44,1.76h-1.03c.01-.52-.06-.89-.23-1.12s-.4-.35-.71-.35c-.14,0-.27.02-.41.07s-.28.13-.43.23-.3.25-.47.41-.34.37-.53.61v3.78h-1.03V3.95Z"/>
  <path class="cls-1" d="M58.69,6.58c0,.14,0,.27,0,.36s0,.19-.02.28h-4.13c0,.6.17,1.06.5,1.39s.82.48,1.45.48c.17,0,.34,0,.52-.02s.34-.03.5-.06.31-.05.46-.08.28-.06.41-.1v.84c-.28.08-.59.14-.94.19s-.71.07-1.09.07c-.5,0-.94-.07-1.3-.21s-.66-.33-.89-.59-.4-.58-.52-.96-.17-.8-.17-1.28c0-.41.06-.81.18-1.17s.29-.69.52-.97.51-.5.84-.67.71-.25,1.13-.25.77.06,1.09.19.58.31.8.55.38.52.49.86.17.72.17,1.13ZM57.63,6.43c.01-.26-.01-.5-.08-.72s-.16-.4-.29-.56-.29-.28-.49-.37-.42-.13-.68-.13c-.22,0-.43.04-.61.13s-.34.21-.47.36-.24.34-.32.56-.13.46-.15.72h3.09Z"/>
  <path class="cls-1" d="M64.97,8.22c0,.21-.04.39-.11.56s-.17.31-.29.44-.26.24-.42.33-.33.16-.51.22-.37.1-.56.13-.38.04-.56.04c-.4,0-.76-.02-1.1-.05s-.66-.09-.98-.17v-.94c.34.1.69.17,1.03.22s.68.08,1.01.08c.49,0,.85-.07,1.08-.2s.35-.32.35-.57c0-.11-.02-.2-.06-.28s-.1-.16-.2-.24-.25-.16-.45-.24-.49-.18-.84-.28c-.27-.08-.51-.17-.74-.27s-.42-.22-.58-.35-.29-.3-.39-.48-.14-.4-.14-.65c0-.16.04-.34.11-.54s.21-.38.39-.54.43-.31.74-.42.7-.17,1.17-.17c.23,0,.49.01.77.04s.57.07.88.13v.91c-.32-.08-.62-.14-.91-.17s-.54-.06-.75-.06c-.25,0-.47.02-.64.06s-.31.09-.42.16-.18.15-.23.24-.07.19-.07.3.02.2.06.29.12.17.23.25.27.16.47.24.46.17.78.26c.35.1.64.21.88.32s.43.24.58.37.25.29.32.46.1.37.1.59Z"/>
  <path class="cls-1" d="M71.64,9.83h-.91l-.04-.95c-.18.2-.34.37-.5.51s-.32.24-.47.33-.31.14-.47.17-.33.05-.5.05c-.61,0-1.06-.18-1.37-.53s-.46-.89-.46-1.61v-3.84h1.02v3.76c0,.9.34,1.35,1.02,1.35.12,0,.25-.02.37-.06s.24-.1.38-.19.27-.22.42-.37.32-.35.51-.59v-3.9h1.02v5.88Z"/>
  <path class="cls-1" d="M75.52,2.39h-1.74v-.84h2.77v7.43h1.75v.85h-4.72v-.85h1.93V2.39Z"/>
  <path class="cls-1" d="M84.85,9.75c-.23.06-.47.1-.71.13s-.5.04-.75.04c-.74,0-1.29-.17-1.65-.5s-.54-.85-.54-1.54v-3.07h-1.65v-.86h1.65v-1.62l1.02-.26v1.88h2.64v.86h-2.64v2.99c0,.42.11.74.34.95s.56.31.99.31c.19,0,.39-.01.62-.04s.46-.08.7-.14v.88Z"/>
  <path class="cls-1" d="M91.37,8.22c0,.21-.04.39-.11.56s-.17.31-.29.44-.26.24-.42.33-.33.16-.51.22-.37.1-.56.13-.38.04-.56.04c-.4,0-.76-.02-1.1-.05s-.66-.09-.98-.17v-.94c.34.1.69.17,1.03.22s.68.08,1.01.08c.49,0,.85-.07,1.08-.2s.35-.32.35-.57c0-.11-.02-.2-.06-.28s-.1-.16-.2-.24-.25-.16-.45-.24-.49-.18-.84-.28c-.27-.08-.51-.17-.74-.27s-.42-.22-.58-.35-.29-.3-.39-.48-.14-.4-.14-.65c0-.16.04-.34.11-.54s.21-.38.39-.54.43-.31.74-.42.7-.17,1.17-.17c.23,0,.49.01.77.04s.57.07.88.13v.91c-.32-.08-.62-.14-.91-.17s-.54-.06-.75-.06c-.25,0-.47.02-.64.06s-.31.09-.42.16-.18.15-.23.24-.07.19-.07.3.02.2.06.29.12.17.23.25.27.16.47.24.46.17.78.26c.35.1.64.21.88.32s.43.24.58.37.25.29.32.46.1.37.1.59Z"/>
  <path class="cls-1" d="M95.67,3.84c.12,0,.24.02.35.07s.21.11.29.2.15.18.2.29.07.22.07.35-.02.24-.07.35-.11.2-.2.28-.18.15-.29.19-.22.07-.35.07-.24-.02-.35-.07-.2-.11-.28-.19-.15-.18-.19-.28-.07-.22-.07-.35.02-.24.07-.35.11-.21.19-.29.18-.15.28-.2.22-.07.35-.07ZM95.67,8.14c.12,0,.24.02.35.07s.21.11.29.2.15.18.2.29.07.22.07.35-.02.24-.07.35-.11.2-.2.28-.18.15-.29.19-.22.07-.35.07-.24-.02-.35-.07-.2-.11-.28-.19-.15-.18-.19-.28-.07-.22-.07-.35.02-.24.07-.35.11-.21.19-.29.18-.15.28-.2.22-.07.35-.07Z"/>
</svg>