<?xml version="1.0" encoding="UTF-8"?>
<svg id="a" data-name="Layer 1" xmlns="http://www.w3.org/2000/svg" width="504.81" height="168.65" viewBox="0 0 504.81 168.65">
  <defs>
    <style>
      .d {
        fill: none;
      }

      .d, .e {
        stroke: #000;
        stroke-miterlimit: 10;
      }

      .f {
        letter-spacing: 0em;
      }

      .g {
        font-size: 12px;
      }

      .g, .h {
        font-family: Tahoma, Tahoma;
      }

      .i {
        letter-spacing: -.01em;
      }

      .h {
        font-size: 8px;
      }

      .j {
        letter-spacing: -.13em;
      }

      .e {
        fill: #8bffbc;
      }

      .k {
        letter-spacing: 0em;
      }

      .l {
        letter-spacing: 0em;
      }

      .m {
        letter-spacing: 0em;
      }
    </style>
  </defs>
  <line id="b" data-name="source line" class="d" x1="30.52" y1="48.3" x2="482.24" y2="48.3"/>
  <line id="c" data-name="Quiescent line" class="d" x1="30.52" y1="129.88" x2="483.57" y2="129.88"/>
  <text class="g" transform="translate(28.07 25.48)"><tspan x="0" y="0">sou</tspan><tspan class="k" x="18.56" y="0">r</tspan><tspan x="22.83" y="0">ce</tspan></text>
  <text class="g" transform="translate(28.07 102.2)"><tspan x="0" y="0">sou</tspan><tspan class="k" x="18.56" y="0">r</tspan><tspan x="22.83" y="0">ce.Quiescent</tspan><tspan class="f" x="90.47" y="0">(</tspan><tspan x="95.18" y="0">TimeSpan.F</tspan><tspan class="k" x="157.52" y="0">r</tspan><tspan x="161.79" y="0">om</tspan><tspan class="l" x="178.38" y="0">S</tspan><tspan x="185.09" y="0">econds(2), </tspan><tspan class="l" x="245.26" y="0">S</tspan><tspan x="251.97" y="0">chedule</tspan><tspan class="j" x="292.9" y="0">r</tspan><tspan x="295.61" y="0">.De</tspan><tspan class="i" x="313.69" y="0">f</tspan><tspan x="317.37" y="0">au</tspan><tspan class="l" x="330.36" y="0">l</tspan><tspan x="333.12" y="0">t)</tspan></text>
  <g>
    <circle class="e" cx="61.2" cy="48.3" r="13.56"/>
    <text class="g" transform="translate(57.92 51.85)"><tspan x="0" y="0">1</tspan></text>
  </g>
  <g>
    <circle class="e" cx="92.28" cy="48.3" r="13.56"/>
    <text class="g" transform="translate(89 51.85)"><tspan x="0" y="0">2</tspan></text>
  </g>
  <g>
    <circle class="e" cx="145.36" cy="129.88" r="13.56"/>
    <text class="h" transform="translate(135.47 132.28)"><tspan x="0" y="0">[1, 2]</tspan></text>
  </g>
  <g>
    <circle class="e" cx="334.9" cy="129.88" r="13.56"/>
    <text class="h" transform="translate(322.91 132.28)"><tspan x="0" y="0">[3,</tspan><tspan class="m" x="9.85" y="0">4</tspan><tspan x="14.14" y="0">,5]</tspan></text>
  </g>
  <g>
    <circle class="e" cx="428.67" cy="129.88" r="13.56"/>
    <text class="h" transform="translate(423.42 132.28)"><tspan x="0" y="0">[6]</tspan></text>
  </g>
  <g>
    <circle class="e" cx="203.84" cy="48.3" r="13.56"/>
    <text class="g" transform="translate(200.56 51.85)"><tspan x="0" y="0">3</tspan></text>
  </g>
  <g>
    <circle class="e" cx="235.18" cy="48.3" r="13.56"/>
    <text class="g" transform="translate(231.9 51.85)"><tspan x="0" y="0">4</tspan></text>
  </g>
  <g>
    <circle class="e" cx="280.82" cy="48.3" r="13.56"/>
    <text class="g" transform="translate(277.54 51.85)"><tspan x="0" y="0">5</tspan></text>
  </g>
  <g>
    <circle class="e" cx="375.58" cy="48.3" r="13.56"/>
    <text class="g" transform="translate(372.31 51.85)"><tspan x="0" y="0">6</tspan></text>
  </g>
  <line class="d" x1="30.52" y1="34.73" x2="30.52" y2="61.86"/>
  <line class="d" x1="30.52" y1="116.31" x2="30.52" y2="143.44"/>
  <polyline class="d" points="469.19 34.73 482.24 48.24 470.14 60.76"/>
  <polyline class="d" points="470.51 116.31 483.57 129.82 471.46 142.34"/>
</svg>